<?xml version="1.0" encoding="UTF-8"?>
<svg xmlns="http://www.w3.org/2000/svg" xmlns:xlink="http://www.w3.org/1999/xlink" version="1.1" viewBox="0 0 306 279">
  <!-- Generator: Adobe Illustrator 29.7.0, SVG Export Plug-In . SVG Version: 2.1.1 Build 14)  -->
  <defs>
    <style>
      .st0, .st1 {
        fill: none;
      }

      .st2 {
        fill: #f7f4ef;
      }

      .st3 {
        fill: #a07b62;
      }

      .st3, .st4, .st5, .st6, .st7, .st8, .st9, .st10 {
        mix-blend-mode: multiply;
      }

      .st3, .st6, .st7, .st8, .st9 {
        opacity: .5;
      }

      .st11 {
        fill: #c06638;
      }

      .st1 {
        stroke: #9e582c;
      }

      .st1, .st12 {
        stroke-miterlimit: 10;
      }

      .st13 {
        fill: #794e3e;
      }

      .st4, .st10 {
        opacity: .49;
      }

      .st4, .st14 {
        fill: #605245;
      }

      .st5 {
        opacity: .48;
      }

      .st5, .st15 {
        fill: #bc6331;
      }

      .st16 {
        fill: #493431;
      }

      .st17 {
        fill: #935022;
      }

      .st12 {
        fill: #92926e;
        stroke: #6b6a44;
        stroke-width: 3px;
      }

      .st18 {
        fill: #c26524;
      }

      .st19 {
        fill: #643c2a;
      }

      .st20 {
        fill: #ae5d28;
      }

      .st21 {
        isolation: isolate;
      }

      .st6, .st22 {
        fill: #c6682f;
      }

      .st23 {
        clip-path: url(#clippath-11);
      }

      .st24 {
        clip-path: url(#clippath-10);
      }

      .st25 {
        clip-path: url(#clippath-1);
      }

      .st26 {
        clip-path: url(#clippath-3);
      }

      .st27 {
        clip-path: url(#clippath-4);
      }

      .st28 {
        clip-path: url(#clippath-2);
      }

      .st29 {
        clip-path: url(#clippath-7);
      }

      .st30 {
        clip-path: url(#clippath-6);
      }

      .st31 {
        clip-path: url(#clippath-9);
      }

      .st32 {
        clip-path: url(#clippath-8);
      }

      .st33 {
        clip-path: url(#clippath-5);
      }

      .st7, .st34 {
        fill: #a0694a;
      }

      .st35 {
        fill: #9e582c;
      }

      .st36 {
        fill: #fff;
      }

      .st37 {
        fill: #483431;
      }

      .st8, .st38 {
        fill: #9e8f85;
      }

      .st9 {
        fill: #d7b399;
      }

      .st39, .st10 {
        fill: #d39979;
      }

      .st40 {
        fill: #cdad90;
      }

      .st41 {
        fill: #ec786d;
      }

      .st42 {
        fill: #f8f5df;
      }

      .st43 {
        fill: #1e2829;
      }

      .st44 {
        clip-path: url(#clippath);
      }
    </style>
    <clipPath id="clippath">
      <path class="st0" d="M155.04,262.61C65.78,256.22,3.45,171.13,38.25,85.5c13.21-40.77,54.26-62.95,92.15-76.55,38.85-12.65,84.99,3.3,109.82,35.59,90.18,100.68,53.25,210.14-85.18,218.06Z"/>
    </clipPath>
    <clipPath id="clippath-1">
      <path class="st14" d="M162.21,388.32c2.21-8.58,8.5-16.32,16.93-20.92.61-.41,1.29-.76,2-1.03.08-.03.16-.07.24-.1.72-.33,1.45-.63,2.19-.91,1.89-1.5,3.95-2.86,6.16-4.05,3.59-1.93,7.45-3.44,11.23-4.92.62-.24,1.24-.49,1.86-.73,42.03-7.78,64.51-24.22,77.41-39.04,20.49-23.54,24.43-51.7,45.94-55.9,12.66-2.47,23.48,4.9,26.99,7.29,21.01,14.3,24.45,45.11,19.81,65.88-8.8,39.39-50.42,59.41-92.05,79.42,0,0-51.18,23.64-99.13,14.7-3.42-.64-4.58-3.17-4.16-5.72-2.74-1.05-5.35-2.29-7.46-4.02-8.15-6.67-10.63-19.55-7.96-29.95Z"/>
    </clipPath>
    <clipPath id="clippath-2">
      <path class="st34" d="M143.35,422.21c-.3-.65-2.51-5.21-7.19-7.81-7.3-4.04-18.02-1.88-26.62,5.53-1.22-.33-3.14-.73-5.48-.61-7.38.38-9.75,5.42-19.31,11.9-.5.34-7.91,4.23-22.72,12.03-.83.44-3.94,2.07-4.76,2.5-2.25,1.21-3.51,3.83-2.96,6.36.43,1.98,2.08,3.77,5.1,4.61-7.31,8.35.03,15.91,12.24,10.05-.21.42-.45,1.07-.45,1.86-.02,2.71,2.75,4.55,3.32,4.93,4.25,2.83,11.05-.15,12.69-.87,8.55-3.74,8.9-9.01,17.77-15.57,2.78-2.05,6.52-3.75,14.01-7.15,16.74-7.6,21.2-7.07,24.18-12.25,2.72-4.72,2.34-10.93.18-15.54ZM117.24,441.28c.07-.05.14-.1.2-.16.15.05.31.08.47.12-.33.09-.65.18-.97.27.1-.08.2-.16.3-.23Z"/>
    </clipPath>
    <clipPath id="clippath-3">
      <path class="st34" d="M217.46,440.51c4.02,4.44,8.27,3,26.26,6.96,8.05,1.77,12.07,2.66,15.22,4.09,10.07,4.58,11.54,9.65,20.7,11.54,1.75.36,9.04,1.87,12.59-1.78.47-.49,2.79-2.87,2.19-5.51-.17-.77-.55-1.35-.84-1.73,13.19,3.19,18.75-5.72,9.82-12.37,2.78-1.45,4-3.54,4-5.56,0-2.58-1.78-4.88-4.25-5.6-.89-.25-4.29-1.21-5.19-1.46-16.15-4.55-24.22-6.83-24.78-7.05-10.73-4.36-14.12-8.8-21.42-7.64-2.31.37-4.11,1.15-5.23,1.73-9.99-5.47-20.94-5.36-27.21.11-4.03,3.51-5.21,8.43-5.37,9.12-1.12,4.95-.17,11.1,3.5,15.15ZM243.92,438.76c-.33-.03-.67-.05-1.01-.06.15-.06.29-.13.43-.21.08.04.16.07.23.11.12.06.23.11.35.17Z"/>
    </clipPath>
    <clipPath id="clippath-4">
      <path class="st15" d="M312.97,208.31c-.92.57-1.84,1.14-2.76,1.71-1.24.67-2.69.73-3.68.06-1.45-.97-1.88-3.45-.39-5.38-.8.66-2.04,1.55-3.74,2.23-.81.32-1.89.7-2.89.77-3.23.22-4.53-2.93-6.12-5.18-.7-1.37-2.05-2.21-3.44-2.15-1.21.05-2.02.78-2.27,1.02.04.91.04,1.93-.05,3.04-.08,1.06-.22,2.03-.38,2.9-2.85,5.18-6.56,10.52-10.25,16.46-2.46,3.96-5.28,7.66-8.41,11.09-17.76-25.22-39.4-47.62-63.98-66.51-5.32-4.09-11.18,3.29-7.79,8.02-.11.06-.22.12-.33.18-2.26-.29-4.59.63-5.6,2.94-1.96,1.02-3.38,3.02-2.99,5.78,2.02,14.38,6.67,28.69,14.61,40.65,8.79,18.52,23.77,34.24,38.9,48.03,5.06,4.61,10.14,9.44,16.6,12.09,6.15,2.53,13.15,2.19,19.11-.63.57-.21,1.14-.45,1.7-.71,8.93-4.14,13.9-13.37,18.12-21.65,1.78-3.5,3.43-7.07,4.97-10.69,1.4-2.63,2.74-5.28,4.01-7.97,4.46-9.48,8.03-19.31,11.36-29.22.21-.27.46-.7.56-1.25.23-1.37-.71-2.5-1.34-3.24-1.17-1.4-2.61-2.07-3.52-2.39Z"/>
    </clipPath>
    <clipPath id="clippath-5">
      <path class="st11" d="M95.36,304.7c-.42-.92-.85-1.85-1.27-2.77-.48-1.23-.34-2.58.42-3.41,1.12-1.21,3.53-1.28,5.18.34-.53-.82-1.21-2.09-1.63-3.75-.2-.79-.42-1.84-.36-2.77.22-3.02,3.39-3.8,5.73-4.98,1.4-.47,2.38-1.61,2.5-2.9.11-1.12-.48-1.97-.67-2.23-.87-.08-1.84-.22-2.89-.44-1-.21-1.91-.46-2.71-.73-4.56-3.31-9.17-7.43-14.35-11.62-3.45-2.79-6.62-5.88-9.47-9.22,26.35-13.13,50.52-30.2,71.74-50.46,4.59-4.38-1.68-10.76-6.63-8.25-.04-.11-.08-.22-.13-.33.57-2.05,0-4.33-2.07-5.56-.72-1.94-2.44-3.52-5.12-3.52-13.97,0-28.22,2.42-40.65,8.2-18.8,5.71-35.74,17.5-50.86,29.69-5.06,4.08-10.32,8.14-13.69,13.77-3.21,5.35-3.8,11.87-1.89,17.75.13.56.28,1.11.45,1.66,2.78,8.8,10.93,14.59,18.27,19.57,3.1,2.1,6.29,4.09,9.54,5.99,2.32,1.63,4.67,3.22,7.07,4.74,8.45,5.36,17.36,9.94,26.37,14.31.23.23.61.52,1.12.68,1.27.39,2.47-.33,3.26-.81,1.49-.9,2.31-2.15,2.74-2.94Z"/>
    </clipPath>
    <clipPath id="clippath-6">
      <path class="st39" d="M117.8,206.97c-1.29,7.69-1.39,8.01-3.73,21.45-8.9,51.26-6.98,44.45-12.01,72.36-1.14,6.35-2.17,13.12-3.21,22.62-1.11,10.16-1.76,18.94.52,29.88.5,2.4,2.42,11.07,7.73,21.37,2.97,5.76,8.27,15.82,18.45,24.42,12.51,10.58,25.9,13.48,34.79,15.29,7.25,1.48,32.49,6.26,58.62-6.52,6.25-3.05,17.44-8.68,26.16-20.47,5.52-7.46,8.79-15.68,11.07-21.4,2.13-5.34,3.64-9.14,4.57-14.64.45-2.62,1.79-11.66-.93-23.34-2.32-9.93-6.35-16.53-8.41-20.22-7.21-12.93-3.51-14.06-14.51-56.72-4.98-19.3-8.82-31.04-13.53-45.31-2.52-7.64-3.97-11.4-4.64-12.82-11.3-24.16-89.08-24.47-98.06-2.49-.5,1.23-.33,1.35-2.88,16.54Z"/>
    </clipPath>
    <clipPath id="clippath-7">
      <path class="st34" d="M114.93,312.03c-.84-4.03-2.55-7.96-4.19-11.77-2.97-6.91-4.7-10.27-6.16-12.36-2.01-2.88-5.54-7.13-11.55-11.22-1.97.2-3.57,1.47-3.97,3.1-.49,1.97,1,3.49,1.13,3.62-.26-.19-2.12-1.52-4.54-1.03-1.55.31-2.5,1.2-2.84,1.55,1.07,1.87.9,2.69.57,3.1-.61.76-2.26-.01-3.97,1.03-.27.16-.78.48-1.13,1.03-1.15,1.81.74,3.98,0,4.66-.36.33-1.35.31-3.97-1.03.47.66.46,1.5,0,2.07-.59.73-1.83.93-2.79.34.04.35.08.69.12,1.04.69,5.5,2.16,10.06,3.46,13.33.95,2.38,2.32,5.33,4.31,8.58.62-2.08,1.21-4.12,1.13-4.14-.05-.01-.42,2.83-1.7,3.1-1.98.42-3.87-5.79-6.81-5.69-1.88.06-3.45,2.69-3.97,4.66-1.32,4.97,2.49,11.72,8.87,13.57,4.84,1.4,9.2-.56,10.41-1.15.24.7.71,1.72,1.7,2.59,2.72,2.4,6.96,1.59,8.1,1.38,4.91-.93,7.51-4.59,8.11-5.49,3.09-.73,6.04-2.17,7.85-4.59,2.22-2.96,2.54-6.8,1.81-10.28Z"/>
    </clipPath>
    <clipPath id="clippath-8">
      <path class="st20" d="M204.39,74.42c1.11-.29,2.09-.76,2.95-1.36.5-.5,1.04-.94,1.59-1.36,3.92-4.07,5.28-11.24,8.75-15.36,3.58-4.26,11.41-7.68,15.97-2.72,5.01,5.45-.79,13.13-4.59,17.4-4.97,5.59-11.38,9.52-18.52,11.82-2.23.72-3.35-1.76-2.5-3.43-.38-.24-.68-.51-.98-.87-.53.21-1.07.4-1.65.55-3.01.78-4.03-3.88-1.02-4.66Z"/>
    </clipPath>
    <clipPath id="clippath-9">
      <path class="st13" d="M208.76,105.38c2.43,1.79,3.07,4.53,3.89,7.32,1.7,6.11.75,11.79-1.26,16.77-3.3,7.97-13.76,10.4-20.86,10.97-14.07.4-31.89-9.33-30.67-19.43,2.28-8.65,19.55-12.87,26.6-14.69,5.55-1.31,18.71-3.52,22.19-1.01l.11.07Z"/>
    </clipPath>
    <clipPath id="clippath-10">
      <path class="st20" d="M53.5,85.04c2.49-8.08,12.92-8.29,19.86-6.71,4.32.98,8.25,2.99,11.68,5.74,3.4,2.73,7,5.97,9.07,9.85.26.24.49.55.65.96,1.08,2.77,1.88,5.57.91,8.48-.03.09-.06.17-.1.25.03,1.8-2.83,3.07-4.22,1.17-.06-.09-.13-.16-.2-.25-1.3-.94-2.45-2.02-3.65-3.06-2.56-1.4-5.6-1.98-8.55-2.06-4.68-.14-9.41,1.23-14.06.67-7.41-.88-13.71-7.46-11.38-15.05Z"/>
    </clipPath>
    <clipPath id="clippath-11">
      <path class="st37" d="M154.39,154.01c4.88.85,12.36,1.64,27.17-.29,10.4-1.35,25.1-4.14,42.4-10.39.32-.17.85-.37,1.31-.16.57.25.75.97.82,1.24.13.5,2.55,11.43-3.85,21.99-9.9,16.36-32.74,18.53-36.21,18.6-5.99.11-21.63-.41-37.3-10.86-12.24-8.16-18.68-18.5-21.55-23.9-.6,1.04-1.43,2.62-2.18,4.64-1.09,2.92-1.46,4.55-1.9,4.51-.55-.04-1.26-2.79-.89-5.51.99-7.38,9.4-11.11,9.87-11.31,2.54-1.08,5.77-1.74,6.07-1.08.33.74-3.04,3.01-5.92,4.8,4.89,2.63,12.45,6,22.16,7.7Z"/>
    </clipPath>
  </defs>
  <g class="st21">
    <g id="Layer_2">
      <path class="st12" d="M155.04,264.7C65.78,258.31,3.45,173.22,38.25,87.59c13.21-40.77,54.26-62.95,92.15-76.55,38.85-12.65,84.99,3.3,109.82,35.59,90.18,100.68,53.25,210.14-85.18,218.06Z"/>
    </g>
    <g id="Layer_3">
      <g class="st44">
        <g>
          <path class="st14" d="M162.21,388.32c2.21-8.58,8.5-16.32,16.93-20.92.61-.41,1.29-.76,2-1.03.08-.03.16-.07.24-.1.72-.33,1.45-.63,2.19-.91,1.89-1.5,3.95-2.86,6.16-4.05,3.59-1.93,7.45-3.44,11.23-4.92.62-.24,1.24-.49,1.86-.73,42.03-7.78,64.51-24.22,77.41-39.04,20.49-23.54,24.43-51.7,45.94-55.9,12.66-2.47,23.48,4.9,26.99,7.29,21.01,14.3,24.45,45.11,19.81,65.88-8.8,39.39-50.42,59.41-92.05,79.42,0,0-51.18,23.64-99.13,14.7-3.42-.64-4.58-3.17-4.16-5.72-2.74-1.05-5.35-2.29-7.46-4.02-8.15-6.67-10.63-19.55-7.96-29.95Z"/>
          <g class="st25">
            <path class="st4" d="M395.94,271.91c-2.55-.69-6.29.86-6.7,3.75-3.58,25.19-12.02,49.87-27.16,70.66-16.2,22.25-40.42,36.54-65,48.34-14.81,7.11-30.26,12.85-46.3,16.62-6.81,1.6-3.93,11.94,2.9,10.34,14.98-3.52,29.44-8.79,43.41-15.13,13.71-6.23,27.2-13.37,39.68-21.76,11.7-7.86,22.27-17.07,30.98-28.1,8.36-10.58,14.98-22.19,20.19-34.56,5.86-13.94,9.69-28.63,11.81-43.56.41-2.86-.71-5.76-3.8-6.6Z"/>
            <path class="st4" d="M352.35,327.12c-1.97,5.24-4.72,10.24-8.04,14.91-.48.67-.97,1.34-1.47,2-.02-.73-.04-1.46-.07-2.19-.28-5.63-.93-11.24-1.94-16.8-.5-2.77-1.1-5.52-1.78-8.26,2.82-5.14,5.14-10.49,6.82-16.01.26-.86.51-1.73.74-2.59.11-.4-.59-.57-.7-.17-1.64,6.14-4.07,12.1-7.13,17.79-.63-2.47-1.33-4.93-2.11-7.37-1.74-5.44-3.83-10.79-6.26-16.01-.55-1.17-1.12-2.34-1.7-3.5,2.54-5.93,4.59-12.03,6.1-18.24.2-.84.4-1.68.58-2.52.09-.4-.61-.57-.7-.17-1.5,6.84-3.66,13.57-6.41,20.11-1.89-3.7-3.94-7.34-6.18-10.89-.39-.61-.78-1.23-1.18-1.83-.23-.36-.86-.03-.62.32,2.8,4.29,5.33,8.72,7.61,13.25-2.76,6.42-6.1,12.64-9.95,18.6-1.63,2.52-3.36,4.98-5.17,7.4-1.57-2.96-3.52-5.76-5.95-8.25-.26-.27-.81.09-.57.39.54.65,1.09,1.31,1.63,1.96.06.08.15.12.23.13,1.65,2,3.03,4.15,4.19,6.39-2.45,3.23-5.05,6.37-7.81,9.4-2.3,2.52-4.71,4.97-7.21,7.33-.08-.15-.15-.3-.23-.44-.6-1.09-1.22-2.16-1.88-3.23-.54-.87-1.06-1.77-1.69-2.59-.34-.44-.72-.86-1.09-1.29-.02-.02-.04-.04-.05-.06,0-.07-.02-.14-.08-.2-.23-.24-.54-.74-.93-.78-.25-.03-.39.23-.35.4.07.26.42.53.59.73.34.39.68.78,1.02,1.18,1.13,1.35,1.99,2.92,2.86,4.41.46.78.89,1.58,1.31,2.37-2.79,2.61-5.69,5.12-8.71,7.52-5.95,4.72-12.33,9.02-19.08,12.8-.82.46-1.64.91-2.47,1.35-.4.21-.03.77.36.55,6.85-3.67,13.34-7.85,19.41-12.47,3.78-2.88,7.39-5.93,10.82-9.13,1.54,2.95,2.85,5.98,3.96,9.08,1.45,4.07,2.69,8.2,3.72,12.38-5.19,4.22-10.61,8.22-16.17,12.06-6.88,4.74-13.96,9.24-21.11,13.65-.88.54-1.75,1.08-2.63,1.62-.38.23-.02.79.36.55,7.21-4.43,14.37-8.92,21.34-13.63,6.34-4.28,12.5-8.77,18.39-13.53,1.05,4.38,1.86,8.8,2.43,13.24.2,1.59.36,3.19.5,4.79-2.14,1.3-4.3,2.58-6.49,3.83-5.87,3.34-11.86,6.51-17.87,9.65-.74.39-1.48.77-2.22,1.16-.4.21-.04.76.36.55,6.06-3.17,12.11-6.33,18.06-9.66,2.77-1.55,5.51-3.14,8.21-4.78.26,3.19.4,6.38.4,9.58,0,.41.72.41.72,0,0-3.34-.14-6.67-.42-10,2.85-1.74,5.66-3.54,8.41-5.41,1.39-.95,2.75-1.92,4.1-2.9.09,1.99.17,3.97.25,5.96.02.41.74.41.72,0-.09-2.16-.17-4.32-.27-6.48,3.47-2.57,6.82-5.26,9.97-8.14,3.73-3.41,7.21-7.05,10.31-10.93.06,3.56-.01,7.11-.25,10.66-.05.7-.1,1.4-.16,2.11-.03.41.69.41.72,0,.38-4.55.51-9.11.4-13.67.29-.37.57-.73.85-1.1,3.46-4.6,6.38-9.54,8.54-14.73.27-.66.53-1.32.78-1.98.15-.39-.55-.56-.7-.17ZM317.14,310.06c4.12-6.08,7.69-12.46,10.66-19.04.19-.42.37-.85.56-1.28.17.34.35.68.51,1.02,2.52,5.19,4.68,10.51,6.5,15.92,1.11,3.31,2.07,6.65,2.91,10.02-.21.38-.41.76-.62,1.13-3.6,6.32-7.96,12.3-12.83,17.91-1.57,1.81-3.2,3.57-4.87,5.31-.52-3.8-1.16-7.59-1.99-11.34-.88-3.94-2-7.86-3.62-11.61-.36-.84-.76-1.68-1.18-2.5,1.37-1.82,2.7-3.66,3.97-5.54ZM302.33,343.86c-1.26-3.75-2.81-7.42-4.68-10.97,1.91-1.8,3.76-3.64,5.55-5.52,3.38-3.57,6.55-7.29,9.5-11.15,1.97,3.99,3.3,8.25,4.3,12.48,1.02,4.3,1.76,8.64,2.34,12.99-3.49,3.57-7.18,6.98-11.02,10.25-.95.81-1.93,1.6-2.91,2.4-.88-3.53-1.91-7.03-3.07-10.49ZM318.47,366.73c-3.2,2.25-6.51,4.38-9.87,6.44-.49-5.39-1.33-10.75-2.53-16.05-.15-.68-.32-1.36-.49-2.03.32-.26.66-.52.98-.78,4.51-3.72,8.83-7.63,12.89-11.74.56,4.46.95,8.94,1.24,13.41.19,2.94.34,5.87.47,8.81-.89.65-1.77,1.31-2.68,1.94ZM332.79,355.14c-3.43,3.24-7.1,6.27-10.94,9.13-.32-6.95-.74-13.89-1.58-20.81-.06-.52-.14-1.03-.2-1.55,1.22-1.26,2.42-2.53,3.59-3.83,5.01-5.55,9.53-11.47,13.32-17.74.53-.87,1.04-1.76,1.54-2.65.43,1.77.84,3.55,1.19,5.34,1.11,5.56,1.85,11.18,2.21,16.82.11,1.68.17,3.37.22,5.05-2.83,3.61-5.97,7.02-9.36,10.23Z"/>
          </g>
        </g>
        <g>
          <path class="st34" d="M143.35,422.21c-.3-.65-2.51-5.21-7.19-7.81-7.3-4.04-18.02-1.88-26.62,5.53-1.22-.33-3.14-.73-5.48-.61-7.38.38-9.75,5.42-19.31,11.9-.5.34-7.91,4.23-22.72,12.03-.83.44-3.94,2.07-4.76,2.5-2.25,1.21-3.51,3.83-2.96,6.36.43,1.98,2.08,3.77,5.1,4.61-7.31,8.35.03,15.91,12.24,10.05-.21.42-.45,1.07-.45,1.86-.02,2.71,2.75,4.55,3.32,4.93,4.25,2.83,11.05-.15,12.69-.87,8.55-3.74,8.9-9.01,17.77-15.57,2.78-2.05,6.52-3.75,14.01-7.15,16.74-7.6,21.2-7.07,24.18-12.25,2.72-4.72,2.34-10.93.18-15.54ZM117.24,441.28c.07-.05.14-.1.2-.16.15.05.31.08.47.12-.33.09-.65.18-.97.27.1-.08.2-.16.3-.23Z"/>
          <g class="st28">
            <path class="st7" d="M83.24,454.36c-8.99,4.9-15.55,13.3-17.78,22.94-.12.53.18,1.06.63,1.35,0,.03,0,.05,0,.08.07.69.82,1.37,1.6,1.21,1.07-.23,1.81-1.03,1.68-2.12-.07-.54-.36-.93-.76-1.21,2.21-8.15,7.99-15.49,15.68-19.68.69-.38,1.14-1.07.83-1.83-.26-.63-1.19-1.13-1.89-.75Z"/>
            <path class="st7" d="M70.08,446.11c-8.6,4.74-15.13,11.65-17.57,18.57-.58,1.66,2.84,1.63,3.43-.02,2.22-6.3,8.08-12.46,15.9-16.77,2.05-1.13.3-2.91-1.76-1.78Z"/>
          </g>
        </g>
        <path class="st38" d="M219.96,428.6"/>
        <path class="st38" d="M134.64,428.6"/>
        <path class="st38" d="M124.35,428.6"/>
        <g>
          <path class="st34" d="M217.46,440.51c4.02,4.44,8.27,3,26.26,6.96,8.05,1.77,12.07,2.66,15.22,4.09,10.07,4.58,11.54,9.65,20.7,11.54,1.75.36,9.04,1.87,12.59-1.78.47-.49,2.79-2.87,2.19-5.51-.17-.77-.55-1.35-.84-1.73,13.19,3.19,18.75-5.72,9.82-12.37,2.78-1.45,4-3.54,4-5.56,0-2.58-1.78-4.88-4.25-5.6-.89-.25-4.29-1.21-5.19-1.46-16.15-4.55-24.22-6.83-24.78-7.05-10.73-4.36-14.12-8.8-21.42-7.64-2.31.37-4.11,1.15-5.23,1.73-9.99-5.47-20.94-5.36-27.21.11-4.03,3.51-5.21,8.43-5.37,9.12-1.12,4.95-.17,11.1,3.5,15.15ZM243.92,438.76c-.33-.03-.67-.05-1.01-.06.15-.06.29-.13.43-.21.08.04.16.07.23.11.12.06.23.11.35.17Z"/>
          <g class="st26">
            <path class="st7" d="M277.2,445.01c-.08.81.55,1.35,1.32,1.52,8.58,1.88,16.23,7.31,20.69,14.52-.3.38-.47.84-.38,1.37.19,1.08,1.13,1.64,2.22,1.56.79-.06,1.31-.92,1.19-1.6,0-.03-.02-.05-.02-.08.35-.4.49-1,.22-1.47-4.9-8.63-13.61-14.86-23.64-17.06-.78-.17-1.53.57-1.59,1.24Z"/>
            <path class="st7" d="M291.82,434.29c9.47,2.68,17.43,7.94,21.41,14.13.95,1.48-2.39,2.23-3.34.75-3.63-5.63-10.75-10.31-19.37-12.75-2.26-.64-.97-2.77,1.3-2.13Z"/>
          </g>
        </g>
        <g>
          <g>
            <path class="st3" d="M324.31,148.96c-6.16,7.35-11.54,15.3-16.07,23.71-.54,1.01.95,2.03,1.49,1.01,4.53-8.42,9.92-16.37,16.07-23.71.74-.89-.76-1.9-1.49-1.01Z"/>
            <path class="st3" d="M342.93,155.87c-7.65,4.38-14.3,10.37-19.38,17.51-1.46,2.05-2.77,4.19-3.96,6.4-.54,1.01.95,2.03,1.49,1.01,4.01-7.51,9.66-14.12,16.5-19.28,1.95-1.47,4-2.82,6.13-4.04,1-.57.22-2.19-.79-1.61Z"/>
          </g>
          <g>
            <path class="st15" d="M312.97,208.31c-.92.57-1.84,1.14-2.76,1.71-1.24.67-2.69.73-3.68.06-1.45-.97-1.88-3.45-.39-5.38-.8.66-2.04,1.55-3.74,2.23-.81.32-1.89.7-2.89.77-3.23.22-4.53-2.93-6.12-5.18-.7-1.37-2.05-2.21-3.44-2.15-1.21.05-2.02.78-2.27,1.02.04.91.04,1.93-.05,3.04-.08,1.06-.22,2.03-.38,2.9-2.85,5.18-6.56,10.52-10.25,16.46-2.46,3.96-5.28,7.66-8.41,11.09-17.76-25.22-39.4-47.62-63.98-66.51-5.32-4.09-11.18,3.29-7.79,8.02-.11.06-.22.12-.33.18-2.26-.29-4.59.63-5.6,2.94-1.96,1.02-3.38,3.02-2.99,5.78,2.02,14.38,6.67,28.69,14.61,40.65,8.79,18.52,23.77,34.24,38.9,48.03,5.06,4.61,10.14,9.44,16.6,12.09,6.15,2.53,13.15,2.19,19.11-.63.57-.21,1.14-.45,1.7-.71,8.93-4.14,13.9-13.37,18.12-21.65,1.78-3.5,3.43-7.07,4.97-10.69,1.4-2.63,2.74-5.28,4.01-7.97,4.46-9.48,8.03-19.31,11.36-29.22.21-.27.46-.7.56-1.25.23-1.37-.71-2.5-1.34-3.24-1.17-1.4-2.61-2.07-3.52-2.39Z"/>
            <g class="st27">
              <path class="st6" d="M283.18,288.09c-7.1-4.2-14.49-8.81-19.17-15.74-2.42-3.58-3.97-7.7-5.63-11.66-1.77-4.2-3.8-8.2-6.24-12.05-19.96-31.5-33.27-49.39-33.27-49.39-9.15-9.69-33.13-32.04-41.82-26.64-7.89,4.9-.76,31.19,6.5,47.89,24.79,56.97,84.42,78.68,94.82,74.46,1.46-.59,8.77-4.52,4.81-6.87Z"/>
              <path class="st6" d="M271.15,231c-.73-.45-1.58-.27-2.1.38-2.12,2.65-3.02,6.11-2.59,9.44.1.77,1,1.37,1.76,1.19.84-.19,1.32-.91,1.21-1.73-.02-.18-.04-.37-.06-.55,0-.01,0-.05,0-.09,0-.05,0-.11,0-.12,0-.35,0-.7.03-1.05.03-.35.07-.7.13-1.04.02-.1.04-.2.06-.3,0-.01,0-.02,0-.03.04-.17.08-.33.13-.49.19-.67.46-1.31.76-1.94,0,0,0,0,0,0,.04-.07.08-.14.12-.22.09-.16.19-.32.29-.47.2-.31.42-.61.66-.9.49-.61.27-1.66-.39-2.07Z"/>
              <path class="st6" d="M374.61,287.34c-1.15.21-.82,1.97.33,1.76s.82-1.97-.33-1.76Z"/>
            </g>
          </g>
        </g>
        <g>
          <path class="st11" d="M95.36,304.7c-.42-.92-.85-1.85-1.27-2.77-.48-1.23-.34-2.58.42-3.41,1.12-1.21,3.53-1.28,5.18.34-.53-.82-1.21-2.09-1.63-3.75-.2-.79-.42-1.84-.36-2.77.22-3.02,3.39-3.8,5.73-4.98,1.4-.47,2.38-1.61,2.5-2.9.11-1.12-.48-1.97-.67-2.23-.87-.08-1.84-.22-2.89-.44-1-.21-1.91-.46-2.71-.73-4.56-3.31-9.17-7.43-14.35-11.62-3.45-2.79-6.62-5.88-9.47-9.22,26.35-13.13,50.52-30.2,71.74-50.46,4.59-4.38-1.68-10.76-6.63-8.25-.04-.11-.08-.22-.13-.33.57-2.05,0-4.33-2.07-5.56-.72-1.94-2.44-3.52-5.12-3.52-13.97,0-28.22,2.42-40.65,8.2-18.8,5.71-35.74,17.5-50.86,29.69-5.06,4.08-10.32,8.14-13.69,13.77-3.21,5.35-3.8,11.87-1.89,17.75.13.56.28,1.11.45,1.66,2.78,8.8,10.93,14.59,18.27,19.57,3.1,2.1,6.29,4.09,9.54,5.99,2.32,1.63,4.67,3.22,7.07,4.74,8.45,5.36,17.36,9.94,26.37,14.31.23.23.61.52,1.12.68,1.27.39,2.47-.33,3.26-.81,1.49-.9,2.31-2.15,2.74-2.94Z"/>
          <g class="st33">
            <path class="st6" d="M79.19,263.1c.53-.62.47-1.42-.09-1.99-2.25-2.31-5.43-3.59-8.66-3.62-.75,0-1.43.74-1.37,1.47.07.8.69,1.34,1.5,1.35.18,0,.36,0,.53.02.01,0,.05,0,.09,0,.04,0,.1,0,.12.01.33.04.67.09.99.16.33.07.65.15.97.25.09.03.19.06.28.09.01,0,.02,0,.03,0,.15.06.3.12.45.18.61.27,1.19.59,1.75.96,0,0,0,0,0,0,.06.05.13.09.19.14.14.11.28.22.41.33.27.23.53.47.77.72.52.53,1.55.47,2.03-.09Z"/>
            <path class="st6" d="M11.99,351.36c-.05-1.09-1.77-1.02-1.72.07s1.77,1.02,1.72-.07Z"/>
            <path class="st5" d="M105.65,214.06c-3,13.86-9.51,26.75-10.87,40.98-.33,3.43,5.12,3.41,5.45,0,1.31-13.68,7.79-26.2,10.67-39.55.73-3.37-4.52-4.8-5.25-1.43Z"/>
          </g>
        </g>
        <g>
          <g>
            <path class="st22" d="M294.98,360.09c-.22-3.99-1.17-12.87-12.71-33.36-4.06-7.21-10.03-16.93-18.36-27.85-10.24-32.65-22.04-65.09-36.27-96.28-15.07-30.97-10.24-14.58-46.07-14.61-16.63.36-32.7-8.67-49.23-3.39-15.57,4.79-18.12,2.42-25,24.86-3.57,13.97-7.91,34.21-11.35,49.2-4.2,20.47-10.72,40.62-11.64,61.6-3.95,4.58-10.88,13.83-14.31,27.44-3.19,12.65-9.16,23.28-8.01,29.08-.74,1.78-1.37,3.77-1.82,5.96-.67,3.35-1.59,7.9.61,9.53.75.56,1.67.64,2.42.6-.4,7.91.9,13.63,3.54,14.29.54.14,1.3.1,2.35-.51-.23,2.33-.25,6.06,1.38,10.06,4.17,10.28,22.86,13.56,25.41,14.3,12.64,3.63,27.6-2.05,38.7-13.94,7.88,3.63,20.87,8.4,37.54,9.18,22.93,1.07,40.51-6.01,49.01-10.13,4.9,2.69,16.26,8.02,30.86,6.55,16.16-1.62,31.81-11.12,39.33-25.02,1.54-2.84,2.47-5.38,3.03-7.15l2.42,1.19c.35-.42,2.19-2.72,1.82-5.96-.3-2.53-1.77-4.13-2.27-4.63,1.21,1.09,2.11,1.14,2.53,1.1,2.82-.25-1-5.78-1.03-8.42,1.09-3.85-2.47-6.32-2.87-13.67Z"/>
            <path class="st22" d="M291.58,370.4c.09.37.16.73.24,1.1.11.49.23.99.33,1.48-.19-.86-.38-1.72-.57-2.58Z"/>
          </g>
          <g>
            <g>
              <path class="st39" d="M117.8,206.97c-1.29,7.69-1.39,8.01-3.73,21.45-8.9,51.26-6.98,44.45-12.01,72.36-1.14,6.35-2.17,13.12-3.21,22.62-1.11,10.16-1.76,18.94.52,29.88.5,2.4,2.42,11.07,7.73,21.37,2.97,5.76,8.27,15.82,18.45,24.42,12.51,10.58,25.9,13.48,34.79,15.29,7.25,1.48,32.49,6.26,58.62-6.52,6.25-3.05,17.44-8.68,26.16-20.47,5.52-7.46,8.79-15.68,11.07-21.4,2.13-5.34,3.64-9.14,4.57-14.64.45-2.62,1.79-11.66-.93-23.34-2.32-9.93-6.35-16.53-8.41-20.22-7.21-12.93-3.51-14.06-14.51-56.72-4.98-19.3-8.82-31.04-13.53-45.31-2.52-7.64-3.97-11.4-4.64-12.82-11.3-24.16-89.08-24.47-98.06-2.49-.5,1.23-.33,1.35-2.88,16.54Z"/>
              <g class="st30">
                <path class="st10" d="M223.59,299.32h0c-12-3.78-27.33-6.91-45.06-6.46-4.15.11-8.12.4-11.88.83.45-.32,1.03-.81.93-1.24-.2-.84-2.97-.87-3.89-.88-8.88-.1-21.18,7.15-21.18,7.15-9.03,5.32-16.81,11.53-16.53,11.94.16.23,2.88-1.5,5.11-2.72,9.51-5.18,19.51-9.47,29.79-12.89-.53.59-1.07,1.17-1.63,1.74-.64.51-1.24,1.09-1.79,1.75-.01.01-.03.03-.04.04,0,0,0,0,0,0-.52.58-.72.96-.61,1.14.25.38,1.93-.16,5.05-1.61,1.87-.35,4.65-.81,8.04-1.2,6.4-.73,13.3-.99,28.26,0,6.75.45,15.36,1.17,25.41,2.38Z"/>
              </g>
            </g>
            <path class="st9" d="M230.85,192.07c-.86-1.2-2.74-3.71-5.45-6.55-41.33-43.32-141-19.57-143.4-.6-.62,4.87,5.02,10.55,1.82,16.68-1.87,3.57-5.78,5.48-9.68,6.55.23,10.45,2.7,13.44,4.84,14.3,6.33,2.53,17.7-10.48,32.67-17.28,0,0,9.11-4.11,15.73-1.79.66.23.55.25,7.23,3.08,3.88,1.64,5.85,2.45,7.13,2.95,2.24.88,5.26,1.87,9.85,2.91,22.02,4.97,38.12,2.38,38.12,2.38,21.04-3.62,35.22-16.51,41.14-22.64Z"/>
          </g>
          <g>
            <path class="st34" d="M114.93,312.03c-.84-4.03-2.55-7.96-4.19-11.77-2.97-6.91-4.7-10.27-6.16-12.36-2.01-2.88-5.54-7.13-11.55-11.22-1.97.2-3.57,1.47-3.97,3.1-.49,1.97,1,3.49,1.13,3.62-.26-.19-2.12-1.52-4.54-1.03-1.55.31-2.5,1.2-2.84,1.55,1.07,1.87.9,2.69.57,3.1-.61.76-2.26-.01-3.97,1.03-.27.16-.78.48-1.13,1.03-1.15,1.81.74,3.98,0,4.66-.36.33-1.35.31-3.97-1.03.47.66.46,1.5,0,2.07-.59.73-1.83.93-2.79.34.04.35.08.69.12,1.04.69,5.5,2.16,10.06,3.46,13.33.95,2.38,2.32,5.33,4.31,8.58.62-2.08,1.21-4.12,1.13-4.14-.05-.01-.42,2.83-1.7,3.1-1.98.42-3.87-5.79-6.81-5.69-1.88.06-3.45,2.69-3.97,4.66-1.32,4.97,2.49,11.72,8.87,13.57,4.84,1.4,9.2-.56,10.41-1.15.24.7.71,1.72,1.7,2.59,2.72,2.4,6.96,1.59,8.1,1.38,4.91-.93,7.51-4.59,8.11-5.49,3.09-.73,6.04-2.17,7.85-4.59,2.22-2.96,2.54-6.8,1.81-10.28Z"/>
            <g class="st29">
              <path class="st8" d="M105.43,317.97c-.38-.75-1.56-.1-1.19.65,1.31,2.63,1.55,5.65.7,8.44-.24.8,1.08,1.15,1.32.34.95-3.14.63-6.49-.84-9.44Z"/>
              <path class="st8" d="M92.34,321.62c-1.51,4.13-5.23,7.41-9.68,8.59-.85.23-.49,1.48.36,1.25,4.93-1.31,8.97-4.93,10.64-9.5.29-.79-1.04-1.13-1.32-.34Z"/>
            </g>
          </g>
        </g>
        <g>
          <g>
            <path class="st20" d="M204.39,74.42c1.11-.29,2.09-.76,2.95-1.36.5-.5,1.04-.94,1.59-1.36,3.92-4.07,5.28-11.24,8.75-15.36,3.58-4.26,11.41-7.68,15.97-2.72,5.01,5.45-.79,13.13-4.59,17.4-4.97,5.59-11.38,9.52-18.52,11.82-2.23.72-3.35-1.76-2.5-3.43-.38-.24-.68-.51-.98-.87-.53.21-1.07.4-1.65.55-3.01.78-4.03-3.88-1.02-4.66Z"/>
            <g class="st32">
              <path class="st17" d="M195.94,80.33c9.66-1.14,16.89-6.41,21.9-14.45,4.6-7.39,10.48-16.05,20.57-14.97,4.07.44,4.27,6.03,1.07,7.01.63,1.52.3,3.36-1.67,4.25-.2.09-.38.2-.58.29.25,5.23-2.9,9.05-6.89,12.29-2.13,1.73-4.44,3.26-6.73,4.77-2.42,1.6-4.88,3.66-7.66,4.55-1.19.38-2.64-.22-3.44-1.08l-.21-.23c-.15-.16-.27-.33-.39-.52-4.35,2.7-9.29,4.46-14.44,5.07-4.6.54-6.18-6.44-1.53-6.99Z"/>
            </g>
          </g>
          <path class="st18" d="M223.66,105.77c-1.97-7.91-6.5-21.67-17.63-35.26-5.34-6.51-16.16-19.72-35.41-26-28.24-9.2-51.1,8.37-54,9.93-29.07,15.57-36.2,47.7-38.83,60.06-3.39,15.9-4.11,24.68-2.77,33.23-4.78,6.83-7.49,13.08-9.1,17.78-3.01,8.78-4.16,17.92-2.08,18.73.96.37,1.86-1.09,5.2-1.71,1.38-.26,3.5-.66,4.4.28,1.47,1.54-1.81,5.09-3.02,11.61-.95,5.1-.35,10.39,1.12,10.73,1.64.39,3.14-5.67,7.85-6.54,1.48-.28,2.82.04,3.8.41-.91,2.74-1.92,6.89-1.71,11.95.04,1.11.35,8.79,2.63,9.19,1.37.24,2.41-2.31,5.02-5.33,2.85-3.29,5.6-4.86,10.68-7.76,6.91-3.94,19.34-11.03,35.36-8.13.24.04.31.06,1.31.26,23.84,4.8,35.76,7.2,38.08,7.21,0,0,15.98.05,40.51-12.88,2.08-1.1,4.55-1.98,9.48-3.74,0,0,4.53-1.62,8.6-1.32.38.03.65.05.98.09,1.54.17,7.78.84,10.82,2.89,4.84,3.26,2.86,10.84,4.92,11.14,2.32.34,7.85-8.82,7.79-18.11-.01-2.04-.3-5.37.63-5.62.69-.19,1.71,1.41,2.41,2.53,3.02,4.81,3.03,8.33,3.69,8.36,1.23.06,5.51-11.97,2.58-24.93-2.49-11.03-9.19-18.29-12.8-21.66-1.54-5.25-4.9-14.15-12.46-22.95-6.46-7.52-13.42-11.98-18.02-14.45Z"/>
          <path class="st39" d="M201.98,108.54c8.03-4.8,33.89,8.73,41.23,30.93,5.2,15.73-.79,29.79-2.38,33.35-8.92,19.95-28.87,27.43-36.68,30.35-2.18.82-10.45,3.8-21.88,4.65-6.73.5-26.74,1.62-46.8-10.17-6.18-3.64-17.92-10.74-24-24.76-1.93-4.45-5.5-12.95-2.49-22.63,4-12.87,16.7-18.24,19.28-19.34,7.47-3.16,8.21-.52,19.77-2.98,20.32-4.32,22.51-13.43,35.52-13.04,2.43.07,8.2.57,13.75-2.67,2.74-1.6,3.22-2.82,4.66-3.68Z"/>
          <g>
            <path class="st13" d="M208.76,105.38c2.43,1.79,3.07,4.53,3.89,7.32,1.7,6.11.75,11.79-1.26,16.77-3.3,7.97-13.76,10.4-20.86,10.97-14.07.4-31.89-9.33-30.67-19.43,2.28-8.65,19.55-12.87,26.6-14.69,5.55-1.31,18.71-3.52,22.19-1.01l.11.07Z"/>
            <g class="st31">
              <path class="st19" d="M199.94,123.05c1.66-2.8,4.29-6.32,7.84-6.62,3.86-.33,7.8,2.69,10.47,5.09,3.17,2.85-1.77,7.25-4.91,4.43-1.13-1.01-3.69-3.29-5.33-2.61-1.3.54-2.86,3.74-3.25,4.91-1.38,4.11,3.37,6.92,6.05,9.26,3.21,2.8-1.73,7.2-4.91,4.43-2.87-2.5-6.16-4.91-7.49-8.59-1.29-3.54-.35-7.14,1.53-10.3Z"/>
              <path class="st19" d="M187.81,128.67c6.72,4.8,9.17,18.61-1.45,20.39-4.21.7-5.64-5.7-1.4-6.41,4.27-.71,1.32-6.81-.76-8.47-2.45-1.97-7.66-1.51-6.73,2.59.94,4.12-5.57,5.5-6.51,1.38-2.21-9.7,9.49-14.73,16.84-9.48Z"/>
              <path class="st19" d="M185.09,110.92c2.25-.89,7.14-2.79,13.57-2.61,2.17.06,5.95.39,5.94.9-.03,1.03-14.99.79-26.34,6.21-1.09.52-2.87,1.44-2.96,1.31-.15-.21,4.06-3.53,9.79-5.81Z"/>
            </g>
          </g>
          <path class="st40" d="M75.09,60.55"/>
          <g>
            <g>
              <path class="st2" d="M201.94,101.47c4.22.99,6.77-4,6.6-7.57-.06-5.03-3.82-10.25-8.35-12.19-6.4-2.59-6.99,4.23-5.84,8.82.98,4.14,3.25,9.59,7.48,10.91l.1.03Z"/>
              <path class="st35" d="M193.06,79.8c4.13-1.77,8.9-1,12.29,1.89.62.53.46,1.61-.09,2.1-.66.6-1.52.44-2.14-.09.16.13-.03-.02-.1-.07-.08-.06-.15-.12-.23-.17-.18-.13-.35-.25-.54-.36-.18-.11-.37-.22-.56-.32-.09-.05-.17-.09-.26-.13-.02-.01-.03-.02-.04-.02-.02,0-.04-.02-.07-.03-.4-.17-.81-.32-1.23-.44-.21-.06-.42-.11-.63-.16-.01,0-.1-.02-.15-.03-.07,0-.25-.04-.25-.04-.41-.06-.82-.09-1.23-.1-.22,0-.44,0-.65,0,0,0-.18.01-.25.02-.06,0-.13.01-.14.02-.43.05-.86.13-1.28.24-.21.05-.42.12-.63.18.15-.05.08-.03-.03.01-.14.05-.27.11-.4.16-.72.31-1.68.13-2.04-.63-.33-.69-.14-1.68.64-2.01Z"/>
              <path class="st35" d="M197.03,102.89c-.12-.21.91-1.2,2.2-1.75.7-.3,1.34-.36,2.83-.52,1.93-.21,3.88-.09,5.72.58.73.27.36,1.4-.38,1.13-1.81-.66-3.75-.74-5.66-.47-.91.13-1.79.32-2.81.59-1.28.34-1.82.58-1.9.44Z"/>
              <path class="st1" d="M196.67,102.66"/>
            </g>
            <path class="st35" d="M189.92,68.3c4.49,1.62,9.07,2.72,13.83,3.26,2.69.3,2.48,4.47-.24,4.16-5.1-.58-10.08-1.71-14.91-3.46-2.55-.92-1.25-4.89,1.32-3.96Z"/>
            <g>
              <ellipse class="st43" cx="198.98" cy="92.84" rx="4.16" ry="6.42" transform="translate(-17.63 56.91) rotate(-15.59)"/>
              <path class="st36" d="M196.44,91.08c.02-.21.1-.41.22-.58.09-.11.18-.21.27-.32.22-.2.48-.33.77-.39.15-.01.29-.02.44-.03.29.02.56.1.8.26.05.03.1.06.14.09.19.11.34.26.45.44.14.17.23.36.27.58.06.22.05.43,0,.64-.02.21-.1.41-.22.58-.09.11-.18.21-.27.32-.22.2-.48.33-.77.39-.15.01-.29.02-.44.03-.29-.02-.56-.1-.8-.26l-.14-.09c-.19-.11-.34-.26-.45-.44-.14-.17-.23-.36-.27-.58-.06-.22-.05-.43,0-.64Z"/>
            </g>
          </g>
          <g>
            <g>
              <path class="st2" d="M154.48,111.66c-3.27,3.38-8.62.3-10.64-3.07-2.99-4.65-2.7-11.64.28-16.08,4.3-6.13,8.97-.22,10.7,4.66,1.61,4.37,2.82,10.71-.26,14.4l-.08.08Z"/>
              <path class="st35" d="M149.51,86.57c-4.86.8-8.77,4.3-10.13,8.94-.25.85.55,1.74,1.36,1.88.97.16,1.66-.49,1.9-1.34-.06.22.01-.04.04-.12.03-.1.07-.2.11-.29.08-.22.18-.44.28-.65.1-.21.21-.42.32-.63.05-.09.1-.18.16-.27.01-.02.02-.03.02-.04.01-.02.03-.04.05-.07.27-.39.55-.77.86-1.12.16-.18.32-.35.48-.52.01-.01.08-.08.12-.12.06-.05.21-.19.2-.18.34-.29.69-.56,1.07-.82.2-.13.4-.26.6-.38,0,0,.17-.1.24-.13.05-.03.13-.06.14-.07.43-.21.87-.39,1.32-.53.23-.07.45-.14.68-.2-.17.05-.1.02.03,0,.16-.03.31-.06.47-.08.85-.14,1.62-.86,1.49-1.78-.12-.82-.89-1.62-1.8-1.47Z"/>
              <path class="st35" d="M158.93,111.45c.03-.29-1.7-.77-3.48-.68-.97.05-1.73.33-3.53.95-2.33.81-4.51,1.96-6.25,3.63-.69.67.35,1.66,1.05.99,1.72-1.66,3.9-2.77,6.23-3.49,1.11-.35,2.23-.61,3.55-.87,1.65-.32,2.4-.35,2.42-.54Z"/>
              <path class="st1" d="M160.04,109.66"/>
            </g>
            <path class="st35" d="M144.65,78.68c-5.2,3.83-9.01,8.23-13.74,12.84-2.68,2.61-6.76-1.2-4.05-3.83,5.08-4.95,10.62-9.28,16.65-12.94,3.19-1.93,3.41,2.26,1.14,3.93Z"/>
            <g>
              <ellipse class="st43" cx="149.5" cy="102.93" rx="4.55" ry="7.03" transform="translate(-25.03 53.07) rotate(-18.6)"/>
              <path class="st36" d="M148.06,102.32c-.11-.32-.14-.65-.09-.99.05-.16.1-.33.15-.49.15-.32.37-.59.66-.8.02,0,.46-.25.49-.26,0,0,0,0,0,0,0,0,.53-.12.54-.12,0,0,0,0,0,0,0,0,.53.02.53.02.09.01.3.09.25.08.15.05.18.04.26.08,0,0,.45.27.45.27,0,0,0,0,0,0,0,0,.36.37.37.38,0,0,0,0,0,0,0,0,0,0,0,0,.01.02.25.46.26.48,0,0,0,.01,0,.02,0,0,0,0,0,0,0,0,.12.52.13.53,0,0,0,0,0,.01,0,0,0,0,0,0,0,.09,0,.17,0,.26,0,.09,0,.18,0,.26,0,0,0,0,0,0,0,0,0,0,0,0,0,0-.15.49-.15.5,0,0,0,0,0,0,0,0-.27.44-.27.44,0,0,0,0,0,0,0,0-.38.36-.39.36,0,0,0,0,0,0,0,0-.48.26-.48.26,0,0,0,0,0,0-.02,0-.52.12-.54.12-.27.03-.53,0-.78-.09-.26-.05-.49-.17-.7-.34-.22-.16-.39-.37-.5-.61-.09-.13-.14-.26-.19-.41Z"/>
            </g>
          </g>
          <g>
            <path class="st20" d="M53.5,85.04c2.49-8.08,12.92-8.29,19.86-6.71,4.32.98,8.25,2.99,11.68,5.74,3.4,2.73,7,5.97,9.07,9.85.26.24.49.55.65.96,1.08,2.77,1.88,5.57.91,8.48-.03.09-.06.17-.1.25.03,1.8-2.83,3.07-4.22,1.17-.06-.09-.13-.16-.2-.25-1.3-.94-2.45-2.02-3.65-3.06-2.56-1.4-5.6-1.98-8.55-2.06-4.68-.14-9.41,1.23-14.06.67-7.41-.88-13.71-7.46-11.38-15.05Z"/>
            <g class="st24">
              <path class="st17" d="M43,95.31c-1.07-1.33-1.33-3.3.27-4.8,1.91-1.8,4.27-2.98,6.86-3.7,4.88-3.06,11.44-3.54,17-2.87,12.45,1.5,23.81,9.19,29.2,20.42.54,1.13.46,2.19.02,3.06,1.25,3.81-4.66,6.61-6.69,2.71-1.48-2.85-3.42-5.35-5.7-7.5-.46,1.37-1.69,2.51-3.32,3.02-2.55.81-4.12-1.14-4.18-3.22-.87-.46-2.17-.87-3.04-1.14-.15.21-.32.43-.52.64-2.22,2.39-6.54,1.36-9.79.31-1.63,1.07-4.07,1.04-5.27-1.16-.28-.51-.55-1.01-.83-1.52-.86-.65-1.54-1.42-1.97-2.34-1.77-.73-2.26-2.29-1.88-3.73-.03,0-.06.01-.09.02-.77.67-1.42,1.45-2.05,2.25-.41.55-.81,1.12-1.19,1.68,0,.02-.01.02-.02.04,2.54,2.03.3,7.1-3.65,6.14-4.78-1.17-4.77-4.78-3.18-8.33Z"/>
            </g>
          </g>
          <g>
            <g>
              <path class="st37" d="M154.39,154.01c4.88.85,12.36,1.64,27.17-.29,10.4-1.35,25.1-4.14,42.4-10.39.32-.17.85-.37,1.31-.16.57.25.75.97.82,1.24.13.5,2.55,11.43-3.85,21.99-9.9,16.36-32.74,18.53-36.21,18.6-5.99.11-21.63-.41-37.3-10.86-12.24-8.16-18.68-18.5-21.55-23.9-.6,1.04-1.43,2.62-2.18,4.64-1.09,2.92-1.46,4.55-1.9,4.51-.55-.04-1.26-2.79-.89-5.51.99-7.38,9.4-11.11,9.87-11.31,2.54-1.08,5.77-1.74,6.07-1.08.33.74-3.04,3.01-5.92,4.8,4.89,2.63,12.45,6,22.16,7.7Z"/>
              <g class="st23">
                <path class="st42" d="M178.58,150.1c.96-2.4,4.63-1.68,4.78.39.89-.26,1.86-.13,2.42.51.28-.55.82-.99,1.69-1.12,2.24-.34,4.38-.45,6.63-.27.2.02.38.05.55.1.57-.07,1.14-.15,1.71-.25.29-.05.57-.06.82-.04.43-1.38,2.29-1.78,3.58-1.16-.05-.2-.09-.4-.15-.6-.54-1.81,1.31-2.85,2.89-2.61.66-2.18,4.49-2.75,4.69-.18.48,6.23.96,12.47,1.45,18.7.08,1.03-.25,1.95-1.29,2.49-4.17,2.17-8.54,3.92-13.1,5.19-2.95.82-7.93,2.72-10.67.83-2.75-1.9-3.77-7.48-4.63-10.4-1.02-3.47-2.8-7.97-1.36-11.58Z"/>
                <path class="st41" d="M153.65,172.05c4.55-2.61,9.78-4.01,15.03-4.13,9.9-.21,20.44,5.09,22.14,15.46.23,1.4-.82,2.3-1.92,2.45-.24.36-.62.62-1.05.77-.45.74-1.14,1.34-1.95,1.7-2.57,1.14-6.11.25-8.74-.27-3.16-.63-6.27-1.53-9.36-2.44-2.72-.8-5.41-1.7-7.96-2.93-1.38-.67-2.73-1.41-3.97-2.3-.18-.13-.5-.42-.87-.77-.87-.23-1.72-.53-2.57-.89-.06.02-.11.03-.17.05-.34.1-.69.08-1.02-.03-.19.24-.35.49-.47.74.48,2.27-2.91,3.89-3.87,1.53-1.7-4.16,3.63-7.16,6.74-8.95Z"/>
              </g>
            </g>
            <path class="st16" d="M195.76,157.53c-.2-1.13,1.57-1.51,1.77-.38,1.21,6.65,2.34,13.32,3.41,20,.18,1.13-1.59,1.52-1.77.38-1.07-6.68-2.2-13.34-3.41-20Z"/>
          </g>
        </g>
      </g>
    </g>
  </g>
</svg>