<?xml version="1.0" encoding="utf-8"?>
<!-- Generator: Adobe Illustrator 24.1.2, SVG Export Plug-In . SVG Version: 6.00 Build 0)  -->
<svg version="1.1" id="Layer_1" xmlns="http://www.w3.org/2000/svg" xmlns:xlink="http://www.w3.org/1999/xlink" x="0px" y="0px"
	 viewBox="0 0 261.2 259.8" style="enable-background:new 0 0 261.2 259.8;" xml:space="preserve">
<style type="text/css">
	.st0{clip-path:url(#SVGID_2_);fill:#BADEDA;stroke:#BADEDA;stroke-miterlimit:10;}
	.st1{clip-path:url(#SVGID_4_);fill:#CCCCCC;}
	.st2{clip-path:url(#SVGID_6_);fill:#B9B9B9;}
	.st3{clip-path:url(#SVGID_8_);fill:#B9B9B9;}
	.st4{clip-path:url(#SVGID_10_);fill:#87817C;}
	.st5{clip-path:url(#SVGID_12_);fill:#CCCCCC;}
	.st6{clip-path:url(#SVGID_14_);fill:#B9B9B9;}
	.st7{clip-path:url(#SVGID_16_);fill:#B9B9B9;}
	.st8{clip-path:url(#SVGID_18_);fill:#B9B9B9;}
	.st9{clip-path:url(#SVGID_20_);fill:#B9B9B9;}
	.st10{clip-path:url(#SVGID_22_);fill:#CCCCCC;}
	.st11{clip-path:url(#SVGID_24_);fill:#CACACA;}
	.st12{clip-path:url(#SVGID_26_);fill:#E0E0DF;}
	.st13{clip-path:url(#SVGID_28_);fill:#9F9B95;}
	.st14{clip-path:url(#SVGID_30_);fill:#6C665D;}
	.st15{clip-path:url(#SVGID_32_);fill:#605B53;}
	.st16{clip-path:url(#SVGID_34_);fill:#6C665D;}
	.st17{clip-path:url(#SVGID_36_);fill:#FFFFFF;}
	.st18{clip-path:url(#SVGID_38_);fill:#54413D;}
	.st19{clip-path:url(#SVGID_40_);fill:#FFFFFF;}
	.st20{clip-path:url(#SVGID_42_);fill:#54413D;}
	.st21{clip-path:url(#SVGID_44_);fill:#524E47;}
	.st22{clip-path:url(#SVGID_46_);fill:#524E47;}
	.st23{clip-path:url(#SVGID_48_);fill:#CACACA;}
	.st24{clip-path:url(#SVGID_50_);fill:#CACACA;}
	.st25{clip-path:url(#SVGID_52_);fill:#CACACA;}
	.st26{clip-path:url(#SVGID_54_);fill:#524E47;}
	.st27{clip-path:url(#SVGID_56_);fill:#CACACA;}
	.st28{clip-path:url(#SVGID_58_);fill:#CACACA;}
	.st29{clip-path:url(#SVGID_60_);fill:#CACACA;}
	.st30{clip-path:url(#SVGID_62_);fill:#524E47;}
	.st31{clip-path:url(#SVGID_64_);fill:#87817C;}
	.st32{clip-path:url(#SVGID_66_);fill:#524E47;}
	.st33{clip-path:url(#SVGID_68_);fill:#CACACA;}
	.st34{clip-path:url(#SVGID_70_);fill:#CACACA;}
	.st35{clip-path:url(#SVGID_72_);fill:#CACACA;}
	.st36{clip-path:url(#SVGID_74_);fill:#CACACA;}
	.st37{clip-path:url(#SVGID_76_);fill:#CACACA;}
	.st38{clip-path:url(#SVGID_78_);fill:#524E47;}
	.st39{clip-path:url(#SVGID_80_);fill:#524E47;}
	.st40{clip-path:url(#SVGID_82_);fill:#524E47;}
	.st41{clip-path:url(#SVGID_84_);fill:#524E47;}
	.st42{clip-path:url(#SVGID_86_);fill:#524E47;}
	.st43{clip-path:url(#SVGID_88_);fill:#524E47;}
	.st44{clip-path:url(#SVGID_90_);fill:#524E47;}
	.st45{clip-path:url(#SVGID_92_);fill:#CACACA;}
	.st46{clip-path:url(#SVGID_94_);fill:#CACACA;}
	.st47{clip-path:url(#SVGID_96_);fill:#CACACA;}
	.st48{clip-path:url(#SVGID_98_);fill:#CACACA;}
	.st49{clip-path:url(#SVGID_100_);fill:#87817C;}
	.st50{clip-path:url(#SVGID_102_);fill:#F0EFEF;}
	.st51{clip-path:url(#SVGID_104_);fill:#857E72;}
	.st52{clip-path:url(#SVGID_106_);fill:#857E72;}
	.st53{clip-path:url(#SVGID_108_);fill:#857E72;}
	.st54{clip-path:url(#SVGID_110_);fill:#857E72;}
	.st55{clip-path:url(#SVGID_112_);fill:#857E72;}
	.st56{clip-path:url(#SVGID_114_);fill:#857E72;}
	.st57{clip-path:url(#SVGID_116_);fill:#857E72;}
	.st58{clip-path:url(#SVGID_118_);fill:#F0EFEF;}
	.st59{clip-path:url(#SVGID_120_);fill:#CACACA;}
	.st60{clip-path:url(#SVGID_122_);fill:#F0EFEF;}
	.st61{clip-path:url(#SVGID_124_);fill:#F0EFEF;}
	.st62{clip-path:url(#SVGID_126_);fill:#F0EFEF;}
	.st63{clip-path:url(#SVGID_128_);fill:#6E5F58;}
	.st64{clip-path:url(#SVGID_130_);fill:#8B7B6D;}
	.st65{clip-path:url(#SVGID_132_);fill:#F0EFEF;}
	.st66{clip-path:url(#SVGID_134_);fill:#524E47;}
	.st67{clip-path:url(#SVGID_136_);fill:#524E47;}
	.st68{clip-path:url(#SVGID_138_);fill:#76706C;}
	.st69{clip-path:url(#SVGID_140_);fill:#76706C;}
	.st70{clip-path:url(#SVGID_142_);fill:#6C3D3B;}
	.st71{clip-path:url(#SVGID_144_);fill:#EC9C95;}
	.st72{clip-path:url(#SVGID_146_);fill:#F9F2D8;}
	.st73{clip-path:url(#SVGID_148_);fill:#F9F2D8;}
	.st74{clip-path:url(#SVGID_150_);fill:#CACACA;}
	.st75{clip-path:url(#SVGID_152_);fill:none;stroke:#628377;stroke-width:4;}
</style>
<g>
	<g>
		<defs>
			<rect id="SVGID_1_" x="5" y="3.9" width="252" height="252"/>
		</defs>
		<clipPath id="SVGID_2_">
			<use xlink:href="#SVGID_1_"  style="overflow:visible;"/>
		</clipPath>
		<path class="st0" d="M131,253.9c68.5,0,124-55.5,124-124s-55.5-124-124-124S7,61.4,7,129.9S62.5,253.9,131,253.9"/>
	</g>
</g>
<g>
	<g>
		<defs>
			<path id="SVGID_3_" d="M71.1,21.3C32.9,42.4,7,83.2,7,129.9c0,68.5,55.5,124,124,124c53.1,0,98.5-33.4,116.1-80.4V86.3
				c-10.4-27.8-30.5-50.8-56.2-65C190.9,21.3,71.1,21.3,71.1,21.3z"/>
		</defs>
		<clipPath id="SVGID_4_">
			<use xlink:href="#SVGID_3_"  style="overflow:visible;"/>
		</clipPath>
		<path class="st1" d="M94.9,335.7c0.8,12.3,0.6,23.4-0.6,33.2c6.2,4.9,13.6,8.8,22.2,11.6c9.1,3,14.4,3,15.7,0
			c2.8,3.4,6,5.4,9.5,5.9c3.4,0.4,5.5-0.8,6.2-3.4c2.3,0.6,4.3,0.5,6.2-0.4c3.2-1.5,4.4-4.4,3.8-8.5c-0.7-4.7-4-9.2-9.9-13.7
			c-5.3-3.8-11.6-6.9-18.9-9.3c-3.3-1.1-8.9-2.6-16.9-4.4c-0.1-3.3-1.6-15.9-4.4-37.8l-2.4-10.8c-0.8,0.8-3,1.6-6.8,2.5
			c-4,1-6.3,1.7-7,2.1C93.4,318.9,94.5,330,94.9,335.7"/>
	</g>
	<g>
		<defs>
			<path id="SVGID_5_" d="M71.1,21.3C32.9,42.4,7,83.2,7,129.9c0,68.5,55.5,124,124,124c53.1,0,98.5-33.4,116.1-80.4V86.3
				c-10.4-27.8-30.5-50.8-56.2-65C190.9,21.3,71.1,21.3,71.1,21.3z"/>
		</defs>
		<clipPath id="SVGID_6_">
			<use xlink:href="#SVGID_5_"  style="overflow:visible;"/>
		</clipPath>
		<path class="st2" d="M150.3,374.8c-0.5-2-1.8-4.1-3.8-6.1c-2.1-2-4.4-3.5-7-4.4c2.8,2.4,5,5.1,6.6,8.2c1.9,3.7,2.4,7.2,1.8,10.5
			c0.8,0.3,1.5-0.5,2.2-2.3C150.8,378.9,150.8,377,150.3,374.8"/>
	</g>
	<g>
		<defs>
			<path id="SVGID_7_" d="M71.1,21.3C32.9,42.4,7,83.2,7,129.9c0,68.5,55.5,124,124,124c53.1,0,98.5-33.4,116.1-80.4V86.3
				c-10.4-27.8-30.5-50.8-56.2-65C190.9,21.3,71.1,21.3,71.1,21.3z"/>
		</defs>
		<clipPath id="SVGID_8_">
			<use xlink:href="#SVGID_7_"  style="overflow:visible;"/>
		</clipPath>
		<path class="st3" d="M125.7,363.6c2.9,1.8,4.9,4.4,6,8c0.9,2.9,1.1,5.9,0.6,8.9c0.9,0.1,1.8-0.8,2.6-2.9c0.9-2.2,1.1-4.1,0.6-5.7
			c-0.7-2.5-2-4.6-4-6.3C129.6,364.2,127.7,363.5,125.7,363.6"/>
	</g>
	<g>
		<defs>
			<path id="SVGID_9_" d="M71.1,21.3C32.9,42.4,7,83.2,7,129.9c0,68.5,55.5,124,124,124c53.1,0,98.5-33.4,116.1-80.4V86.3
				c-10.4-27.8-30.5-50.8-56.2-65C190.9,21.3,71.1,21.3,71.1,21.3z"/>
		</defs>
		<clipPath id="SVGID_10_">
			<use xlink:href="#SVGID_9_"  style="overflow:visible;"/>
		</clipPath>
		<path class="st4" d="M96.7,310.8c3.3,0.5,6-0.6,7.9-3.4c1.3-1.6,2-3.2,2-4.6c-0.1-0.6-0.5-2.2-1.2-4.8c-1.5,1.3-6.2,3.3-14.1,6.1
			C91.4,308.1,93.2,310.3,96.7,310.8"/>
	</g>
	<g>
		<defs>
			<path id="SVGID_11_" d="M71.1,21.3C32.9,42.4,7,83.2,7,129.9c0,68.5,55.5,124,124,124c53.1,0,98.5-33.4,116.1-80.4V86.3
				c-10.4-27.8-30.5-50.8-56.2-65C190.9,21.3,71.1,21.3,71.1,21.3z"/>
		</defs>
		<clipPath id="SVGID_12_">
			<use xlink:href="#SVGID_11_"  style="overflow:visible;"/>
		</clipPath>
		<path class="st5" d="M-44,323.3c3,3.3,4.4,7,4.2,11c-0.3,3.3-1.7,7.3-4.2,12c-1.2,2.4-2.8,5.4-5,8.9c-2.5,6.2-3.2,9.7-2,10.5
			c4.4,2.8,10.9,4.6,19.7,5.3c8.9,0.8,13.6-0.2,14.1-2.9c1.2,1.4,3.5,2.3,7,2.7c3.7,0.4,6-0.1,7-1.5c2.4,1.3,4.4,0.8,6.2-1.5
			c2.1-2.7,1.1-6.7-3-12c-4.1-5.7-12.2-8.8-24.2-9.3c2-2,3.4-6.7,4.4-13.9c0.9-7.6,0.7-14.4-0.8-20.3c-0.5-2.4-4.6-4.9-12.3-7.6
			c-6.5-2.2-11.9-3.4-16.1-3.8c-0.4,0.8-2.3,6.1-5.6,16C-50.3,318.4-46.8,320.5-44,323.3"/>
	</g>
	<g>
		<defs>
			<path id="SVGID_13_" d="M71.1,21.3C32.9,42.4,7,83.2,7,129.9c0,68.5,55.5,124,124,124c53.1,0,98.5-33.4,116.1-80.4V86.3
				c-10.4-27.8-30.5-50.8-56.2-65C190.9,21.3,71.1,21.3,71.1,21.3z"/>
		</defs>
		<clipPath id="SVGID_14_">
			<use xlink:href="#SVGID_13_"  style="overflow:visible;"/>
		</clipPath>
		<path class="st6" d="M-26.8,305.8c-6.5-2.2-11.9-3.4-16.1-3.8c-0.1,0.3-1.9,2.9-5.2,7.8c-3.3,5.3-5.2,8.9-5.8,10.6
			c5.8-2.7,14.6-3.8,26.2-3.4c-1.7,3.4-2.4,6.3-2,8.5c4.8-0.1,7.5-0.3,8.1-0.4c3-0.3,5.8-0.8,8.1-1.7c0-2.7-0.4-6-1.2-10.1
			C-15,311-19.1,308.5-26.8,305.8"/>
	</g>
	<g>
		<defs>
			<path id="SVGID_15_" d="M71.1,21.3C32.9,42.4,7,83.2,7,129.9c0,68.5,55.5,124,124,124c53.1,0,98.5-33.4,116.1-80.4V86.3
				c-10.4-27.8-30.5-50.8-56.2-65C190.9,21.3,71.1,21.3,71.1,21.3z"/>
		</defs>
		<clipPath id="SVGID_16_">
			<use xlink:href="#SVGID_15_"  style="overflow:visible;"/>
		</clipPath>
		<path class="st7" d="M-31.9,351.8c2,0.9,4,0.6,6.2-1c2.3-1.5,2.7-3,1.4-4.4C-25.5,348.6-28,350.4-31.9,351.8"/>
	</g>
	<g>
		<defs>
			<path id="SVGID_17_" d="M71.1,21.3C32.9,42.4,7,83.2,7,129.9c0,68.5,55.5,124,124,124c53.1,0,98.5-33.4,116.1-80.4V86.3
				c-10.4-27.8-30.5-50.8-56.2-65C190.9,21.3,71.1,21.3,71.1,21.3z"/>
		</defs>
		<clipPath id="SVGID_18_">
			<use xlink:href="#SVGID_17_"  style="overflow:visible;"/>
		</clipPath>
		<path class="st8" d="M-7.2,357.7c3.7,3.8,5,7.7,4,11.6c0.4,0.1,0.9-0.4,1.4-1.5c0.4-1.3,0.5-2.5,0.4-3.6
			C-2,361.3-3.9,359.1-7.2,357.7"/>
	</g>
	<g>
		<defs>
			<path id="SVGID_19_" d="M71.1,21.3C32.9,42.4,7,83.2,7,129.9c0,68.5,55.5,124,124,124c53.1,0,98.5-33.4,116.1-80.4V86.3
				c-10.4-27.8-30.5-50.8-56.2-65C190.9,21.3,71.1,21.3,71.1,21.3z"/>
		</defs>
		<clipPath id="SVGID_20_">
			<use xlink:href="#SVGID_19_"  style="overflow:visible;"/>
		</clipPath>
		<path class="st9" d="M-20.9,357.3c3,2.9,4.3,6.5,3.8,10.8c0.7,0.1,1.3-0.1,2-0.8c0.7-0.6,1-1.5,1-2.5
			C-14.2,361-16.4,358.5-20.9,357.3"/>
	</g>
	<g>
		<defs>
			<path id="SVGID_21_" d="M71.1,21.3C32.9,42.4,7,83.2,7,129.9c0,68.5,55.5,124,124,124c53.1,0,98.5-33.4,116.1-80.4V86.3
				c-10.4-27.8-30.5-50.8-56.2-65C190.9,21.3,71.1,21.3,71.1,21.3z"/>
		</defs>
		<clipPath id="SVGID_22_">
			<use xlink:href="#SVGID_21_"  style="overflow:visible;"/>
		</clipPath>
		<path class="st10" d="M-67.7,332.4l1.4,2.7c3.9-1.9,7.3-4,10.3-6.5c-0.7,0.3-1.5,0.5-2.2,0.8C-61.3,330.5-64.5,331.5-67.7,332.4
			 M-231.6,202.8c-0.6-0.2-1.1-0.4-1.7-0.6c-5.6,2.6-13.6,7-24,13.1c-11.3,6.7-20.1,11.3-26.4,13.7c4.4,3.5,10.5,5.1,18.5,4.8
			c-31.8,19.3-52.8,41.2-63.2,65.7c15.5,1.6,29.7,1.5,42.5-0.4c11.1-1.8,24.1-5.3,38.9-10.6c14.3-5.2,24.2-9.8,29.6-13.7
			c-6,4.7-9.6,9.6-10.9,14.8c5.9-1.2,12.8-3.4,20.8-6.6c2.1-2.5,3.2-5.6,3.1-9.3c-0.1-1.9-0.6-3.6-1.6-5.2c-3.5-5.7-8.6-8.3-15.4-8
			c0.8-1.6,1.5-3.2,2.2-4.8c4.9-12-0.6-17.9-16.3-17.6c1-0.7,6.5-5.7,16.6-15.1C-210.4,215.2-214.7,208.4-231.6,202.8"/>
	</g>
	<g>
		<defs>
			<path id="SVGID_23_" d="M71.1,21.3C32.9,42.4,7,83.2,7,129.9c0,68.5,55.5,124,124,124c53.1,0,98.5-33.4,116.1-80.4V86.3
				c-10.4-27.8-30.5-50.8-56.2-65C190.9,21.3,71.1,21.3,71.1,21.3z"/>
		</defs>
		<clipPath id="SVGID_24_">
			<use xlink:href="#SVGID_23_"  style="overflow:visible;"/>
		</clipPath>
		<path class="st11" d="M70.8,395.8c-1.7-1.1-3.3-1.5-4.8-1.1c1.9,0.8,3.3,2.3,4.4,4.6c1.2,2.3,1.6,4.6,1.4,6.8
			c0.5-0.1,1.1-0.8,1.6-2.1c0.5-1.3,0.7-2.5,0.6-3.8C73.6,398.5,72.6,397.1,70.8,395.8 M83.8,407.2c2.5-2.8,3.2-5.8,2-9.1
			c-0.5-1.9-1.5-3.4-3-4.6c-1.6-1.3-3.2-1.7-5-1.1C82.3,395.5,84.3,400.5,83.8,407.2"/>
	</g>
	<g>
		<defs>
			<path id="SVGID_25_" d="M71.1,21.3C32.9,42.4,7,83.2,7,129.9c0,68.5,55.5,124,124,124c53.1,0,98.5-33.4,116.1-80.4V86.3
				c-10.4-27.8-30.5-50.8-56.2-65C190.9,21.3,71.1,21.3,71.1,21.3z"/>
		</defs>
		<clipPath id="SVGID_26_">
			<use xlink:href="#SVGID_25_"  style="overflow:visible;"/>
		</clipPath>
		<path class="st12" d="M-110.7,331c-0.2,0.4-0.4,0.7-0.8,1c-0.8,0.6-2.4,1.6-4.8,2.8c-1.8,1.3-2.6,2.7-2.2,4.4
			c0.3,1,1.9,2.5,4.8,4.6c2.9,2.2,4.6,4.4,5,6.6c0.8,7,0.3,13.7-1.6,20.2c-1.2,3.9-2.2,8.3-3,13.3c-0.8,4.4-1.1,7-1,7.6
			c1.2,3.3,7.7,6.1,19.5,8.5c4.8,0.9,7.9,1.2,9.3,0.9c1.7-0.4,2.6-1.6,2.8-3.8c2.4,1.5,5,2.3,7.9,2.5c3.1,0.1,5.2-0.6,6.4-2.3
			c2.9,1.3,4.9,0.8,6-1.5c0.9-1.9,1-4.5,0.2-7.8c-0.8-3.9-2.5-6.9-5.2-8.9c-6.1-4.6-13.3-7-21.5-7.4c0-4.1-0.4-9.1-1.2-15
			c-0.8-6-1.7-10.6-2.8-14.1c10.3-1.6,18.6-3.9,24.8-6.6c0.6-0.3,1.1-0.5,1.7-0.8l-1.4-2.7c-2.1,0.5-4.1,1.1-6.2,1.6
			c0.2-0.9,0.3-1.8,0.4-2.8c0.1-0.9-0.2-2.1-0.9-3.5c-3.9,1.6-7.6,3.4-11.2,5.6c-3.6,2.1-7.3,2.9-11.2,2.3c-0.1-0.2-0.2-0.5-0.3-0.7
			c-0.5-1.7-0.8-3.3-0.8-5.1c-3.4,1.8-5.9,2.8-7.3,3.2c-1.4,0.3-2.4,0.7-3.1,1c-0.1-0.2-0.3-0.4-0.4-0.6
			C-109.4,332.6-110.1,331.8-110.7,331 M227.2,142.5v-15.8c-0.1-4.9-0.7-9-1.8-12.2c-1.6-5.4-8.3-6.5-20.1-3.2
			c-18.4,4.9-31.1,7.4-38.1,7.4c0-0.6-0.1-1.1-0.2-1.7l-0.6,0.1c-3.7-2.3-13.4-2.9-29.2-2c-0.6-0.9-1.2-2.1-1.8-3.8
			c-0.9-2.4-1.3-4.4-1.3-6s0.6-4.1,1.9-7.6c1.3-3.5,1.9-6.1,1.9-7.9c0-1.6-0.1-2.5-0.2-2.8c-0.1-0.2-0.9-1.7-2.6-4.5l0.1-0.9
			c-3.7-0.6-7.1-1.2-10-1.7c-0.7,1.3-1.7,2.9-3.2,4.8c-0.8,1.1-1.2,2.2-1.2,3.3c0,0.2,0.8,2,2.5,5.1c1.6,3.2,2.5,5.6,2.5,7.1
			c0,3.1-0.4,5.9-1.2,8.4c-0.6,1.7-1.5,3.7-2.8,5.9l-0.4-0.2c-24.4,2-40.5,16.1-48.4,42.2s-9.4,44.8-4.6,56L56,209.1
			c-0.3,5.3,2,10.6,6.9,15.9c0.8,0,2.3,0.1,4.4,0.2h-1.9c-0.6,0-1.3,0-1.8,0c0.1,0,0.1,0,0.2,0h0.8c-0.5,0-1,0-1.4,0
			c-3.3,0.1-5.4,0-6.1-0.2c-0.2-0.1,1.7,0,6,0.1c-0.7,0-0.7,0-0.2,0h-0.6c-6.2-0.2-9.4-0.3-9.6-0.3l3.5,10.4c-1,0.1-2-0.2-2.8-0.8
			c-1.8-1.4-3.7-2.7-5.6-3.8c-0.2,0-0.4,0.1-0.5,0.1s-0.3,0-0.4,0.1l-1.2,0.2l0,0c3.5,18.2,11.1,34.7,22.7,49.6
			c-17.8,1-31.2,8.8-40.3,23.4c-3,4.8-5.2,9.8-6.6,15.2c8.1-1.3,15.2-3,21.3-5.1c-1.7,7.1-5,21.4-9.9,42.9
			c-5.4,23.9-8,36.2-7.8,36.9c1.5,3.4,9.4,7.1,23.8,11s22.1,4.4,23,1.3c0.3-2.3-0.2-4.6-1.4-6.8c-1.1-2.3-2.5-3.8-4.4-4.6
			c1.5-0.4,3,0,4.8,1.1c1.7,1.3,2.8,2.7,3.2,4.4c0.1,1.3-0.1,2.5-0.6,3.8s-1.1,2-1.6,2.1c0.5,2,2.7,3.4,6.4,4
			c3.6,0.5,5.4-0.2,5.6-2.1c0.1,0,0.2-0.1,0.3-0.1l0,0c2.6-0.9,4.1-2.9,4.5-6c0.3-1.5,0.2-4-0.2-7.4c-0.8-6-3.5-11-8.1-15
			c-3.1-2.8-7.6-4.6-13.5-5.5c-6.5-0.9-13-0.4-19.5,1.5c11.7-30.4,17.7-50.2,18.1-59.3h9.9c5.6-0.5,9.1-2.1,10.5-4.8
			c7.1,1.8,14.6,0.4,22.4-4c7.7-4.3,12-9.4,12.9-15.4c1.5,1.9,3.7,3.7,6.7,5.5c0.7-0.5,1.8-2,3.4-4.6c1.6-2.8,2.9-5.5,4-8.2
			c1.6-4.4,2.6-8.4,3.2-12c1.1-8.4,0.6-19.2-1.4-32.5c-2-14.3-3-21.6-3-21.8c-0.8-7.5-1-14.1-0.6-19.9c0.1-0.7,0.1-1.3,0.2-1.9
			c12.2-1.9,30.2-3.7,54-5.5c5.2-0.6,10-1.8,14.5-3.6c2.9-1.3,5.9-2.9,8.9-4.9c2.2-1.6,4.2-3.5,6-5.7c1.3-1.6,2.6-3.7,3.8-6.1
			c2.2-5.2,3.8-9.5,4.6-12.9C226.6,153.2,227.2,148.1,227.2,142.5 M85.8,398.1c1.2,3.3,0.5,6.3-2,9.1c0.5-6.7-1.5-11.6-6-14.8
			c1.7-0.5,3.4-0.1,5,1.1C84.2,394.7,85.2,396.2,85.8,398.1"/>
	</g>
	<g>
		<defs>
			<path id="SVGID_27_" d="M71.1,21.3C32.9,42.4,7,83.2,7,129.9c0,68.5,55.5,124,124,124c53.1,0,98.5-33.4,116.1-80.4V86.3
				c-10.4-27.8-30.5-50.8-56.2-65C190.9,21.3,71.1,21.3,71.1,21.3z"/>
		</defs>
		<clipPath id="SVGID_28_">
			<use xlink:href="#SVGID_27_"  style="overflow:visible;"/>
		</clipPath>
		<path class="st13" d="M-232.1,201.7c-0.4,0.2-0.8,0.4-1.2,0.6c0.6,0.2,1.2,0.4,1.7,0.6l0.5-1.6
			C-231.4,201.4-231.8,201.5-232.1,201.7 M63,225L63,225c-4.2,0-6.2-0.1-6,0c0.8,0.2,2.8,0.3,6.1,0.2c0.5,0,0.9,0,1.4,0h-0.8
			c0,0-0.1,0-0.2,0c0.6,0,1.2,0,1.8,0h1.9C65.3,225.1,63.8,225.1,63,225 M139.8,82.5C139.7,82.5,139.7,82.5,139.8,82.5L139.8,82.5
			c1-1,1.9-2,2.8-3.1l0,0C141.6,80.4,140.7,81.5,139.8,82.5"/>
	</g>
	<g>
		<defs>
			<path id="SVGID_29_" d="M71.1,21.3C32.9,42.4,7,83.2,7,129.9c0,68.5,55.5,124,124,124c53.1,0,98.5-33.4,116.1-80.4V86.3
				c-10.4-27.8-30.5-50.8-56.2-65C190.9,21.3,71.1,21.3,71.1,21.3z"/>
		</defs>
		<clipPath id="SVGID_30_">
			<use xlink:href="#SVGID_29_"  style="overflow:visible;"/>
		</clipPath>
		<path class="st14" d="M139.8,82.5L139.8,82.5c-1.4-0.3-2.9-0.5-4.4-0.8l0,0l-0.1,0.9c1.6,2.8,2.5,4.4,2.6,4.5
			c0.1,0.3,0.2,1.2,0.2,2.8c0,1.8-0.6,4.4-1.9,7.9c-1.3,3.5-1.9,6-1.9,7.6s0.4,3.6,1.3,6c0.6,1.6,1.2,2.9,1.8,3.8
			c15.8-0.9,25.5-0.2,29.2,2l0.6-0.1c-0.7-5.9-2.3-11.8-4.8-17.7c-0.8-2-2-4.3-3.7-6.8c-0.5-0.8-1.1-1.5-1.7-2.4
			C154.2,86.9,148.5,84.3,139.8,82.5 M122.3,84.8c1.4-1.9,2.5-3.5,3.2-4.8c-8.2-1.5-13.2-2.6-14.9-3.2c4.4-9.4,4.1-19.6-0.8-30.8
			C105,35,97.4,26.8,86.9,21.3C86.2,41.8,86.4,59,87.5,73c-5.7,4.3-10.2,9.1-13.5,14.4c-1.9,2.8-5,9.2-9.5,19.4
			c-6.5,14.8-9.7,26.4-9.7,34.8c1.1-0.9,2.8-1.8,5.2-2.7s4.4-1.5,6.2-1.7c-7.3,5.3-11.7,15-13.1,29.1c-4.6-1.9-9.4-2.9-14.3-3
			c-3.7-0.3-9,0-15.9,0.8c-10.5,1-20.1,3-28.8,5.9c-8.5,2.7-14.7,5.8-18.7,9.3c-7.9-3-16-3.7-24-2.1c-5.6,1.1-10.5,3.1-14.7,5.9
			l-6.6-1c-8.9-1.1-16.7-1.3-23.6-0.4c-4.2,0.5-8.6,1.6-13.1,3.2c-3.4,1.5-6.5,3.2-9.1,5.1c-1.6,1.1-3.2,2.6-4.8,4.4
			c-35.4-3.4-59.7-4.2-72.9-2.5c-5.6,0.6-11.9,1.9-19.1,3.6c-7.4,1.9-13.6,3.8-18.5,5.7l-0.5,1.6c17,5.6,21.2,12.4,12.7,20.2
			c-10.1,9.4-15.7,14.4-16.6,15.1c15.7-0.3,21.1,5.5,16.3,17.6c-0.7,1.6-1.4,3.2-2.2,4.8c6.8-0.4,12,2.3,15.4,8
			c1,1.6,1.5,3.4,1.6,5.2c0.1,3.7-0.9,6.8-3.1,9.3c5.4-2.1,11.2-4.8,17.6-7.8c17.7-8.7,29.3-16.7,34.6-23.8
			c-1.5,7.9-0.7,16,2.4,24.5c2.7,7.7,6.2,12.8,10.5,15.2c0.7-3,2-4.8,4-5.3c0.1,8.1,7.8,19.8,22.8,35c2.1,2,3.6,4.2,4.6,6.5
			c0.6,1.6,0.8,2.9,0.4,3.8c0.6,0.8,1.3,1.6,1.9,2.4c0.2,0.2,0.3,0.4,0.4,0.6c0.6-0.3,1.7-0.7,3.1-1s3.9-1.4,7.3-3.2
			c0,1.7,0.3,3.4,0.8,5.1c0.1,0.2,0.2,0.5,0.3,0.7c3.9,0.6,7.6-0.2,11.2-2.3c3.6-2.1,7.3-4,11.2-5.6c0.7,1.4,1,2.5,0.9,3.5
			s-0.2,1.9-0.4,2.8c2.1-0.5,4.2-1,6.2-1.6c3.2-0.9,6.4-1.9,9.6-3c0.7-0.3,1.5-0.5,2.2-0.8c4.6-3.8,8.2-8.3,10.8-13.6
			c10.6,0.8,18,0.8,22.2,0c-3,3.5-4.4,6.1-4.2,7.8c8.2,1,23.1-0.1,44.7-3.2c1.3-0.2,2.5-0.4,3.7-0.6c1.4-5.4,3.6-10.4,6.6-15.2
			c9.1-14.6,22.5-22.4,40.3-23.4C56.6,265.6,49,249,45.5,230.9l0,0l1.2-0.2c0.1,0,0.3,0,0.4-0.1c0.2,0,0.4-0.1,0.5-0.1
			c1.9,1.2,3.8,2.5,5.6,3.8c0.8,0.6,1.8,0.9,2.8,0.8l-3.5-10.4c0.2,0,3.4,0.1,9.6,0.3h0.6c-0.5,0-0.5,0,0.2,0v-0.1
			c-4.9-5.3-7.2-10.6-6.9-15.9l12.6,3.7c-4.8-11.2-3.3-29.9,4.6-56s24-40.2,48.4-42.2l0.4,0.2c1.3-2.3,2.2-4.2,2.8-5.9
			c0.8-2.5,1.2-5.2,1.2-8.4c0-1.6-0.8-3.9-2.5-7.1c-1.6-3.2-2.5-4.9-2.5-5.1C121.1,87,121.5,85.9,122.3,84.8"/>
	</g>
	<g>
		<defs>
			<path id="SVGID_31_" d="M71.1,21.3C32.9,42.4,7,83.2,7,129.9c0,68.5,55.5,124,124,124c53.1,0,98.5-33.4,116.1-80.4V86.3
				c-10.4-27.8-30.5-50.8-56.2-65C190.9,21.3,71.1,21.3,71.1,21.3z"/>
		</defs>
		<clipPath id="SVGID_32_">
			<use xlink:href="#SVGID_31_"  style="overflow:visible;"/>
		</clipPath>
		<path class="st15" d="M170,67.8c3.1-8.6,6.6-16.7,10.7-24.3c-4.2-1.4-9.7,1-16.3,7c-1.1,0.9-5.2,6.3-12.3,16.3
			c-3.4,4.8-6.6,9-9.6,12.5l0,0c-0.9,1.1-1.8,2.2-2.8,3.2c8.7,1.8,14.4,4.4,17.1,7.8c0.6,0.8,1.1,1.6,1.7,2.4l3.6-4.4
			c0.4-0.8,0.9-1.7,1.3-2.6C164.3,83.7,166.5,77.8,170,67.8"/>
	</g>
	<g>
		<defs>
			<path id="SVGID_33_" d="M71.1,21.3C32.9,42.4,7,83.2,7,129.9c0,68.5,55.5,124,124,124c53.1,0,98.5-33.4,116.1-80.4V86.3
				c-10.4-27.8-30.5-50.8-56.2-65C190.9,21.3,71.1,21.3,71.1,21.3z"/>
		</defs>
		<clipPath id="SVGID_34_">
			<use xlink:href="#SVGID_33_"  style="overflow:visible;"/>
		</clipPath>
		<path class="st16" d="M95.1,59.4c-0.8-7-3.7-13.1-8.7-18.4c0,15.6,0.7,27.6,2.2,35.9C93.7,72.7,95.9,66.9,95.1,59.4"/>
	</g>
	<g>
		<defs>
			<path id="SVGID_35_" d="M71.1,21.3C32.9,42.4,7,83.2,7,129.9c0,68.5,55.5,124,124,124c53.1,0,98.5-33.4,116.1-80.4V86.3
				c-10.4-27.8-30.5-50.8-56.2-65C190.9,21.3,71.1,21.3,71.1,21.3z"/>
		</defs>
		<clipPath id="SVGID_36_">
			<use xlink:href="#SVGID_35_"  style="overflow:visible;"/>
		</clipPath>
		<path class="st17" d="M118.1,97c-1-1.1-2.2-1.5-3.5-1.3c-1.3,0.3-2.5,0.9-3.6,1.7c-1,0.7-1.8,1.7-2.4,3c-0.8,1.4-1.2,2.9-1.2,4.5
			c0,1.4,0.2,2.9,0.6,4.2c0.1,0.4,0.3,0.9,0.6,1.4c0.8,1.3,1.8,2,3.1,2.1c1.2,0.2,2.3,0,3.4-0.4c1.1-0.5,2.1-1.3,2.9-2.4
			c0.8-1.2,1.4-2.5,1.8-4c0.4-1,0.5-1.9,0.4-2.9c-0.1-1.6-0.5-3.1-1.2-4.4C118.8,97.9,118.5,97.4,118.1,97"/>
	</g>
	<g>
		<defs>
			<path id="SVGID_37_" d="M71.1,21.3C32.9,42.4,7,83.2,7,129.9c0,68.5,55.5,124,124,124c53.1,0,98.5-33.4,116.1-80.4V86.3
				c-10.4-27.8-30.5-50.8-56.2-65C190.9,21.3,71.1,21.3,71.1,21.3z"/>
		</defs>
		<clipPath id="SVGID_38_">
			<use xlink:href="#SVGID_37_"  style="overflow:visible;"/>
		</clipPath>
		<path class="st18" d="M116.1,103.3c0.4,1.4,0.4,2.6,0,3.8c-0.4,1.4-1,2.2-1.9,2.5c-0.9,0.5-1.8,0.5-2.6,0
			c-1.1-0.5-1.7-1.4-1.9-2.5c-0.9-3-0.3-5.1,1.9-6.3c0.9-0.5,1.8-0.5,2.6,0C115.1,101.3,115.7,102.2,116.1,103.3"/>
	</g>
	<g>
		<defs>
			<path id="SVGID_39_" d="M71.1,21.3C32.9,42.4,7,83.2,7,129.9c0,68.5,55.5,124,124,124c53.1,0,98.5-33.4,116.1-80.4V86.3
				c-10.4-27.8-30.5-50.8-56.2-65C190.9,21.3,71.1,21.3,71.1,21.3z"/>
		</defs>
		<clipPath id="SVGID_40_">
			<use xlink:href="#SVGID_39_"  style="overflow:visible;"/>
		</clipPath>
		<path class="st19" d="M146.7,101.5c-1-0.8-2-1.3-3.1-1.5c-1.2-0.2-2.2,0.1-3.1,1.1c-0.3,0.4-0.6,0.8-0.8,1.3
			c-0.6,1.2-1,2.5-1.1,3.9c-0.1,0.9,0.1,1.7,0.4,2.6c0.3,1.3,0.9,2.5,1.6,3.5c0.7,1,1.6,1.7,2.6,2.2c1,0.4,2,0.5,3,0.3
			c1.2-0.1,2.1-0.7,2.8-1.8c0.2-0.4,0.4-0.8,0.5-1.2c0.3-1.2,0.5-2.4,0.5-3.7c0-1.4-0.3-2.8-1-4
			C148.3,102.9,147.6,102.1,146.7,101.5"/>
	</g>
	<g>
		<defs>
			<path id="SVGID_41_" d="M71.1,21.3C32.9,42.4,7,83.2,7,129.9c0,68.5,55.5,124,124,124c53.1,0,98.5-33.4,116.1-80.4V86.3
				c-10.4-27.8-30.5-50.8-56.2-65C190.9,21.3,71.1,21.3,71.1,21.3z"/>
		</defs>
		<clipPath id="SVGID_42_">
			<use xlink:href="#SVGID_41_"  style="overflow:visible;"/>
		</clipPath>
		<path class="st20" d="M140.1,107.4c-0.3,1.2-0.3,2.3,0,3.4c0.3,1.2,0.9,1.9,1.6,2.2c0.8,0.4,1.6,0.4,2.3,0
			c0.9-0.4,1.5-1.2,1.6-2.2c0.8-2.7,0.2-4.5-1.6-5.6c-0.8-0.4-1.6-0.4-2.3,0C141,105.6,140.4,106.3,140.1,107.4"/>
	</g>
	<g>
		<defs>
			<path id="SVGID_43_" d="M71.1,21.3C32.9,42.4,7,83.2,7,129.9c0,68.5,55.5,124,124,124c53.1,0,98.5-33.4,116.1-80.4V86.3
				c-10.4-27.8-30.5-50.8-56.2-65C190.9,21.3,71.1,21.3,71.1,21.3z"/>
		</defs>
		<clipPath id="SVGID_44_">
			<use xlink:href="#SVGID_43_"  style="overflow:visible;"/>
		</clipPath>
		<path class="st21" d="M105.8,84.9c4.4-2.8,5.2-6.5,2.6-11.2c-0.8,2.4-2.6,5-5.4,7.8c-2.6,2.7-5.6,4.8-8.7,6.5
			C98.7,87.9,102.5,86.9,105.8,84.9"/>
	</g>
	<g>
		<defs>
			<path id="SVGID_45_" d="M71.1,21.3C32.9,42.4,7,83.2,7,129.9c0,68.5,55.5,124,124,124c53.1,0,98.5-33.4,116.1-80.4V86.3
				c-10.4-27.8-30.5-50.8-56.2-65C190.9,21.3,71.1,21.3,71.1,21.3z"/>
		</defs>
		<clipPath id="SVGID_46_">
			<use xlink:href="#SVGID_45_"  style="overflow:visible;"/>
		</clipPath>
		<path class="st22" d="M50,191.3c-0.3-2.9-0.3-7.7-0.2-14.4c0.3-6.6,0.6-11.1,1-13.7c-2-0.8-3.9-0.3-5.8,1.5c-2,1.9-3,4.2-3,7
			c0,3,0.7,6.4,2.2,10.1C45.7,185.9,47.6,189.1,50,191.3"/>
	</g>
	<g>
		<defs>
			<path id="SVGID_47_" d="M71.1,21.3C32.9,42.4,7,83.2,7,129.9c0,68.5,55.5,124,124,124c53.1,0,98.5-33.4,116.1-80.4V86.3
				c-10.4-27.8-30.5-50.8-56.2-65C190.9,21.3,71.1,21.3,71.1,21.3z"/>
		</defs>
		<clipPath id="SVGID_48_">
			<use xlink:href="#SVGID_47_"  style="overflow:visible;"/>
		</clipPath>
		<path class="st23" d="M135.2,239.5l-0.4-2.3c-2-14.3-3-21.6-3-21.8c-0.9-8.4-1.1-15.6-0.4-21.8c-6.9,1.1-11.1,2.2-12.7,3
			c-1.1,0.6,0.7,7.3,5.4,20.1C128.9,229.8,132.6,237.4,135.2,239.5"/>
	</g>
	<g>
		<defs>
			<path id="SVGID_49_" d="M71.1,21.3C32.9,42.4,7,83.2,7,129.9c0,68.5,55.5,124,124,124c53.1,0,98.5-33.4,116.1-80.4V86.3
				c-10.4-27.8-30.5-50.8-56.2-65C190.9,21.3,71.1,21.3,71.1,21.3z"/>
		</defs>
		<clipPath id="SVGID_50_">
			<use xlink:href="#SVGID_49_"  style="overflow:visible;"/>
		</clipPath>
		<path class="st24" d="M59.9,289.5c2.4,6,3.4,13.8,3.2,23.6C69.2,303,68.1,295.2,59.9,289.5"/>
	</g>
	<g>
		<defs>
			<path id="SVGID_51_" d="M71.1,21.3C32.9,42.4,7,83.2,7,129.9c0,68.5,55.5,124,124,124c53.1,0,98.5-33.4,116.1-80.4V86.3
				c-10.4-27.8-30.5-50.8-56.2-65C190.9,21.3,71.1,21.3,71.1,21.3z"/>
		</defs>
		<clipPath id="SVGID_52_">
			<use xlink:href="#SVGID_51_"  style="overflow:visible;"/>
		</clipPath>
		<path class="st25" d="M124.5,293.7c0-4.4-1.6-8.2-4.8-11.4c0.3,2.8,0,5-0.8,6.7C119.8,290.2,121.7,291.8,124.5,293.7"/>
	</g>
	<g>
		<defs>
			<path id="SVGID_53_" d="M71.1,21.3C32.9,42.4,7,83.2,7,129.9c0,68.5,55.5,124,124,124c53.1,0,98.5-33.4,116.1-80.4V86.3
				c-10.4-27.8-30.5-50.8-56.2-65C190.9,21.3,71.1,21.3,71.1,21.3z"/>
		</defs>
		<clipPath id="SVGID_54_">
			<use xlink:href="#SVGID_53_"  style="overflow:visible;"/>
		</clipPath>
		<path class="st26" d="M-46.8,273c4.5,12.9,4,25.1-1.4,36.7c3.4,0.1,6.8-2.3,10.1-7.4c4.1-6.6,4-14.8-0.2-24.5
			c-3.7-8.7-7.7-15.6-11.9-20.5c-5-5.8-10.8-9.6-17.3-11.4C-57.7,251.9-50.9,260.9-46.8,273"/>
	</g>
	<g>
		<defs>
			<path id="SVGID_55_" d="M71.1,21.3C32.9,42.4,7,83.2,7,129.9c0,68.5,55.5,124,124,124c53.1,0,98.5-33.4,116.1-80.4V86.3
				c-10.4-27.8-30.5-50.8-56.2-65C190.9,21.3,71.1,21.3,71.1,21.3z"/>
		</defs>
		<clipPath id="SVGID_56_">
			<use xlink:href="#SVGID_55_"  style="overflow:visible;"/>
		</clipPath>
		<path class="st27" d="M-91,368.5c-1.7-1.1-3.5-1.3-5.4-0.4s-3.1,2.4-3.8,4.6C-97.5,370.7-94.5,369.3-91,368.5"/>
	</g>
	<g>
		<defs>
			<path id="SVGID_57_" d="M71.1,21.3C32.9,42.4,7,83.2,7,129.9c0,68.5,55.5,124,124,124c53.1,0,98.5-33.4,116.1-80.4V86.3
				c-10.4-27.8-30.5-50.8-56.2-65C190.9,21.3,71.1,21.3,71.1,21.3z"/>
		</defs>
		<clipPath id="SVGID_58_">
			<use xlink:href="#SVGID_57_"  style="overflow:visible;"/>
		</clipPath>
		<path class="st28" d="M-68.6,387.3c-0.9-3.9-3.5-6.3-7.7-7c2,0.9,3.3,2.1,4,3.6c1.9,3.2,2.5,6.6,1.8,10.3
			C-68.3,393.4-67.7,391.1-68.6,387.3"/>
	</g>
	<g>
		<defs>
			<path id="SVGID_59_" d="M71.1,21.3C32.9,42.4,7,83.2,7,129.9c0,68.5,55.5,124,124,124c53.1,0,98.5-33.4,116.1-80.4V86.3
				c-10.4-27.8-30.5-50.8-56.2-65C190.9,21.3,71.1,21.3,71.1,21.3z"/>
		</defs>
		<clipPath id="SVGID_60_">
			<use xlink:href="#SVGID_59_"  style="overflow:visible;"/>
		</clipPath>
		<path class="st29" d="M-82.9,388.3c-2.1-5.6-6.2-8.1-12.3-7.6c2.8,0.5,5.2,1.9,7.3,4.2c2,2,3,5.1,3,9.1c0.7,0.1,1.3-0.3,1.8-1.3
			C-82.3,391.5-82.2,390.1-82.9,388.3"/>
	</g>
	<g>
		<defs>
			<path id="SVGID_61_" d="M71.1,21.3C32.9,42.4,7,83.2,7,129.9c0,68.5,55.5,124,124,124c53.1,0,98.5-33.4,116.1-80.4V86.3
				c-10.4-27.8-30.5-50.8-56.2-65C190.9,21.3,71.1,21.3,71.1,21.3z"/>
		</defs>
		<clipPath id="SVGID_62_">
			<use xlink:href="#SVGID_61_"  style="overflow:visible;"/>
		</clipPath>
		<path class="st30" d="M-146.9,251.7c4.8-4.2,8.1-9.1,10.1-14.8c2-6,2.1-11.8,0.4-17.7c-0.5,3.4-1.9,6.7-4.2,9.7
			c-4,5.3-9.7,11.8-17.1,19.4c-0.7,3.9-0.8,7.9-0.4,11.8C-153.2,256.9-149.5,254.1-146.9,251.7"/>
	</g>
	<g>
		<defs>
			<path id="SVGID_63_" d="M71.1,21.3C32.9,42.4,7,83.2,7,129.9c0,68.5,55.5,124,124,124c53.1,0,98.5-33.4,116.1-80.4V86.3
				c-10.4-27.8-30.5-50.8-56.2-65C190.9,21.3,71.1,21.3,71.1,21.3z"/>
		</defs>
		<clipPath id="SVGID_64_">
			<use xlink:href="#SVGID_63_"  style="overflow:visible;"/>
		</clipPath>
		<path class="st31" d="M-230.1,213.7c-8.3-3-19.1-1.1-32.2,5.9c-5.3,2.9-11.7,5.9-19.1,8.9c4,1.6,8.6,2.3,13.9,2.1
			c11.9-7.1,22.6-12.3,32-15.8L-230.1,213.7z"/>
	</g>
	<g>
		<defs>
			<path id="SVGID_65_" d="M71.1,21.3C32.9,42.4,7,83.2,7,129.9c0,68.5,55.5,124,124,124c53.1,0,98.5-33.4,116.1-80.4V86.3
				c-10.4-27.8-30.5-50.8-56.2-65C190.9,21.3,71.1,21.3,71.1,21.3z"/>
		</defs>
		<clipPath id="SVGID_66_">
			<use xlink:href="#SVGID_65_"  style="overflow:visible;"/>
		</clipPath>
		<path class="st32" d="M-27.1,254.3c-5.6-3.9-11.3-5.8-17.3-5.7c7.9,2.8,14.1,7.1,18.5,12.9c4,5.3,6.4,11,7.2,17.1
			c0.9,6.6-0.1,12.5-3,17.7c2.1-2,3.9-4.2,5.4-6.5c4.8-7,4.8-14.8,0.2-23.4C-18.8,261.7-22.4,257.6-27.1,254.3"/>
	</g>
	<g>
		<defs>
			<path id="SVGID_67_" d="M71.1,21.3C32.9,42.4,7,83.2,7,129.9c0,68.5,55.5,124,124,124c53.1,0,98.5-33.4,116.1-80.4V86.3
				c-10.4-27.8-30.5-50.8-56.2-65C190.9,21.3,71.1,21.3,71.1,21.3z"/>
		</defs>
		<clipPath id="SVGID_68_">
			<use xlink:href="#SVGID_67_"  style="overflow:visible;"/>
		</clipPath>
		<path class="st33" d="M103.6,230.4c0.4,8.2-0.5,17.2-2.6,26.8c-1.7,7.1-4.4,15.8-8.1,26.2l3.4-4.6c3.6-5.3,6.6-11,8.9-17.1
			C110.9,247.2,110.4,236.7,103.6,230.4"/>
	</g>
	<g>
		<defs>
			<path id="SVGID_69_" d="M71.1,21.3C32.9,42.4,7,83.2,7,129.9c0,68.5,55.5,124,124,124c53.1,0,98.5-33.4,116.1-80.4V86.3
				c-10.4-27.8-30.5-50.8-56.2-65C190.9,21.3,71.1,21.3,71.1,21.3z"/>
		</defs>
		<clipPath id="SVGID_70_">
			<use xlink:href="#SVGID_69_"  style="overflow:visible;"/>
		</clipPath>
		<path class="st34" d="M90.5,284.7l0.6-1.7c-0.4-0.1-0.7-0.6-0.8-1.3c-0.4-17.9,2.4-33.9,8.3-48.3c-6.4,5.7-10.2,11.5-11.5,17.5
			C85.1,259.9,86.3,271.2,90.5,284.7"/>
	</g>
	<g>
		<defs>
			<path id="SVGID_71_" d="M71.1,21.3C32.9,42.4,7,83.2,7,129.9c0,68.5,55.5,124,124,124c53.1,0,98.5-33.4,116.1-80.4V86.3
				c-10.4-27.8-30.5-50.8-56.2-65C190.9,21.3,71.1,21.3,71.1,21.3z"/>
		</defs>
		<clipPath id="SVGID_72_">
			<use xlink:href="#SVGID_71_"  style="overflow:visible;"/>
		</clipPath>
		<path class="st35" d="M93.5,232.1c-9.5,2.3-16.4,7.5-20.7,15.6c-4.2,8-3.8,16.7,1.2,26c-1.1-9.4,0.2-17.7,3.8-24.9
			C80.8,242.6,86.1,237.1,93.5,232.1"/>
	</g>
	<g>
		<defs>
			<path id="SVGID_73_" d="M71.1,21.3C32.9,42.4,7,83.2,7,129.9c0,68.5,55.5,124,124,124c53.1,0,98.5-33.4,116.1-80.4V86.3
				c-10.4-27.8-30.5-50.8-56.2-65C190.9,21.3,71.1,21.3,71.1,21.3z"/>
		</defs>
		<clipPath id="SVGID_74_">
			<use xlink:href="#SVGID_73_"  style="overflow:visible;"/>
		</clipPath>
		<path class="st36" d="M96.7,231.9c-7.2,4.3-12.4,9.2-15.9,14.6c-4.1,6.5-5.8,14.4-5.2,23.8c2.5-9.2,5.2-16.3,7.9-21.3
			C85.1,246.2,89.5,240.5,96.7,231.9"/>
	</g>
	<g>
		<defs>
			<path id="SVGID_75_" d="M71.1,21.3C32.9,42.4,7,83.2,7,129.9c0,68.5,55.5,124,124,124c53.1,0,98.5-33.4,116.1-80.4V86.3
				c-10.4-27.8-30.5-50.8-56.2-65C190.9,21.3,71.1,21.3,71.1,21.3z"/>
		</defs>
		<clipPath id="SVGID_76_">
			<use xlink:href="#SVGID_75_"  style="overflow:visible;"/>
		</clipPath>
		<path class="st37" d="M102.4,233.1c-5.6,12.7-8.5,27-8.7,43.1C99.7,259.2,102.6,244.8,102.4,233.1"/>
	</g>
	<g>
		<defs>
			<path id="SVGID_77_" d="M71.1,21.3C32.9,42.4,7,83.2,7,129.9c0,68.5,55.5,124,124,124c53.1,0,98.5-33.4,116.1-80.4V86.3
				c-10.4-27.8-30.5-50.8-56.2-65C190.9,21.3,71.1,21.3,71.1,21.3z"/>
		</defs>
		<clipPath id="SVGID_78_">
			<use xlink:href="#SVGID_77_"  style="overflow:visible;"/>
		</clipPath>
		<path class="st38" d="M-30.7,258.3c-2.8-3.4-6.3-6.1-10.5-8c2.9,2.2,5.8,5.1,8.7,8.9c7.3,9.9,9.3,21.6,6.2,35.2
			c3.8-5.3,5.2-11.4,4.2-18.2C-23.2,269.9-26,263.9-30.7,258.3"/>
	</g>
	<g>
		<defs>
			<path id="SVGID_79_" d="M71.1,21.3C32.9,42.4,7,83.2,7,129.9c0,68.5,55.5,124,124,124c53.1,0,98.5-33.4,116.1-80.4V86.3
				c-10.4-27.8-30.5-50.8-56.2-65C190.9,21.3,71.1,21.3,71.1,21.3z"/>
		</defs>
		<clipPath id="SVGID_80_">
			<use xlink:href="#SVGID_79_"  style="overflow:visible;"/>
		</clipPath>
		<path class="st39" d="M-44.8,251.5c-5.7-3.5-11.5-5.4-17.5-5.5c9,4.1,16.6,10,22.8,17.9c5.8,7.7,9.8,16.5,11.9,26.4
			c1.5-10-0.5-19.1-5.8-27.4C-36,258.5-39.9,254.7-44.8,251.5"/>
	</g>
	<g>
		<defs>
			<path id="SVGID_81_" d="M71.1,21.3C32.9,42.4,7,83.2,7,129.9c0,68.5,55.5,124,124,124c53.1,0,98.5-33.4,116.1-80.4V86.3
				c-10.4-27.8-30.5-50.8-56.2-65C190.9,21.3,71.1,21.3,71.1,21.3z"/>
		</defs>
		<clipPath id="SVGID_82_">
			<use xlink:href="#SVGID_81_"  style="overflow:visible;"/>
		</clipPath>
		<path class="st40" d="M-143.5,206.1c-16.6,11.8-33,21.2-49.3,28.3c8.7-1.5,15.2-3.1,19.5-4.8C-161,224.7-151,216.8-143.5,206.1"/>
	</g>
	<g>
		<defs>
			<path id="SVGID_83_" d="M71.1,21.3C32.9,42.4,7,83.2,7,129.9c0,68.5,55.5,124,124,124c53.1,0,98.5-33.4,116.1-80.4V86.3
				c-10.4-27.8-30.5-50.8-56.2-65C190.9,21.3,71.1,21.3,71.1,21.3z"/>
		</defs>
		<clipPath id="SVGID_84_">
			<use xlink:href="#SVGID_83_"  style="overflow:visible;"/>
		</clipPath>
		<path class="st41" d="M-180.8,223c-10.9,5.7-20,11.1-27.4,16.3c21.5-7.6,43.6-19.8,66.5-36.7c-5.6,2-12.2,5.3-19.9,9.7
			C-173.9,219.2-180.3,222.7-180.8,223"/>
	</g>
	<g>
		<defs>
			<path id="SVGID_85_" d="M71.1,21.3C32.9,42.4,7,83.2,7,129.9c0,68.5,55.5,124,124,124c53.1,0,98.5-33.4,116.1-80.4V86.3
				c-10.4-27.8-30.5-50.8-56.2-65C190.9,21.3,71.1,21.3,71.1,21.3z"/>
		</defs>
		<clipPath id="SVGID_86_">
			<use xlink:href="#SVGID_85_"  style="overflow:visible;"/>
		</clipPath>
		<path class="st42" d="M-182.4,222c1.5-0.8,7.6-4.2,18.5-10.3c7.5-4.3,13.8-7.5,18.9-9.7c-9.7,1.1-19.9,4.6-30.8,10.3
			c-16.2,8.2-28.5,17.8-37.1,28.7C-204.1,234.5-193.9,228.1-182.4,222"/>
	</g>
	<g>
		<defs>
			<path id="SVGID_87_" d="M71.1,21.3C32.9,42.4,7,83.2,7,129.9c0,68.5,55.5,124,124,124c53.1,0,98.5-33.4,116.1-80.4V86.3
				c-10.4-27.8-30.5-50.8-56.2-65C190.9,21.3,71.1,21.3,71.1,21.3z"/>
		</defs>
		<clipPath id="SVGID_88_">
			<use xlink:href="#SVGID_87_"  style="overflow:visible;"/>
		</clipPath>
		<path class="st43" d="M-105.5,196.4c0.1-2.4-1.6-4.3-5.2-5.7c-3.8-1.6-7.9-1.5-12.1,0.6C-115.2,191.6-109.4,193.4-105.5,196.4"/>
	</g>
	<g>
		<defs>
			<path id="SVGID_89_" d="M71.1,21.3C32.9,42.4,7,83.2,7,129.9c0,68.5,55.5,124,124,124c53.1,0,98.5-33.4,116.1-80.4V86.3
				c-10.4-27.8-30.5-50.8-56.2-65C190.9,21.3,71.1,21.3,71.1,21.3z"/>
		</defs>
		<clipPath id="SVGID_90_">
			<use xlink:href="#SVGID_89_"  style="overflow:visible;"/>
		</clipPath>
		<path class="st44" d="M-17.4,184.2c-0.7-4.6-2.6-8.2-6-10.8l-3.6,2.7C-24.2,177.1-21.1,179.8-17.4,184.2"/>
	</g>
	<g>
		<defs>
			<path id="SVGID_91_" d="M71.1,21.3C32.9,42.4,7,83.2,7,129.9c0,68.5,55.5,124,124,124c53.1,0,98.5-33.4,116.1-80.4V86.3
				c-10.4-27.8-30.5-50.8-56.2-65C190.9,21.3,71.1,21.3,71.1,21.3z"/>
		</defs>
		<clipPath id="SVGID_92_">
			<use xlink:href="#SVGID_91_"  style="overflow:visible;"/>
		</clipPath>
		<path class="st45" d="M-95,339.5c-3.2,0.6-5.8,0.6-7.9-0.2c1.1,4.6,4.5,8.3,10.3,11.2L-95,339.5z"/>
	</g>
	<g>
		<defs>
			<path id="SVGID_93_" d="M71.1,21.3C32.9,42.4,7,83.2,7,129.9c0,68.5,55.5,124,124,124c53.1,0,98.5-33.4,116.1-80.4V86.3
				c-10.4-27.8-30.5-50.8-56.2-65C190.9,21.3,71.1,21.3,71.1,21.3z"/>
		</defs>
		<clipPath id="SVGID_94_">
			<use xlink:href="#SVGID_93_"  style="overflow:visible;"/>
		</clipPath>
		<path class="st46" d="M47,291.8c-3,0.5-5.8,1.8-8.1,3.8c-2.5,1.9-4.3,4.3-5.4,7.2c-1.3,3.8-2,7.3-2,10.6l8.9-2.7
			C42.3,301.3,44.5,294.9,47,291.8"/>
	</g>
	<g>
		<defs>
			<path id="SVGID_95_" d="M71.1,21.3C32.9,42.4,7,83.2,7,129.9c0,68.5,55.5,124,124,124c53.1,0,98.5-33.4,116.1-80.4V86.3
				c-10.4-27.8-30.5-50.8-56.2-65C190.9,21.3,71.1,21.3,71.1,21.3z"/>
		</defs>
		<clipPath id="SVGID_96_">
			<use xlink:href="#SVGID_95_"  style="overflow:visible;"/>
		</clipPath>
		<path class="st47" d="M84.6,298.2c0.9,3.9,0.6,7.3-1,10.1c3-1.1,4.4-2.9,4-5.1C87.3,301.3,86.3,299.6,84.6,298.2"/>
	</g>
	<g>
		<defs>
			<path id="SVGID_97_" d="M71.1,21.3C32.9,42.4,7,83.2,7,129.9c0,68.5,55.5,124,124,124c53.1,0,98.5-33.4,116.1-80.4V86.3
				c-10.4-27.8-30.5-50.8-56.2-65C190.9,21.3,71.1,21.3,71.1,21.3z"/>
		</defs>
		<clipPath id="SVGID_98_">
			<use xlink:href="#SVGID_97_"  style="overflow:visible;"/>
		</clipPath>
		<path class="st48" d="M210.5,107.3c-6,4.2-9.5,7.2-10.7,9.1c-2.5,3.9-4.2,7.4-5.2,10.3c-1.1,3.7-1.6,8.3-1.6,13.9
			c0,6.2,1.7,10.2,5.2,12c3.6,1.9,7.7,0.6,12.3-4c4-4.1,7.1-9.3,9.3-15.6c0.1-0.3,1.1-4,3-11.2c-1.3,1.9-2.4-0.6-3.4-7.6
			c-0.8-7,0.7-8.9,4.6-5.9C220.6,103.6,216.1,103.3,210.5,107.3"/>
	</g>
	<g>
		<defs>
			<path id="SVGID_99_" d="M71.1,21.3C32.9,42.4,7,83.2,7,129.9c0,68.5,55.5,124,124,124c53.1,0,98.5-33.4,116.1-80.4V86.3
				c-10.4-27.8-30.5-50.8-56.2-65C190.9,21.3,71.1,21.3,71.1,21.3z"/>
		</defs>
		<clipPath id="SVGID_100_">
			<use xlink:href="#SVGID_99_"  style="overflow:visible;"/>
		</clipPath>
		<path class="st49" d="M149.9,115.8c3.7,0.1,8.7,0.1,15.1-0.2c-2-1.9-4.6-2.8-7.7-2.7C154.1,113.1,151.6,114.1,149.9,115.8"/>
	</g>
	<g>
		<defs>
			<path id="SVGID_101_" d="M71.1,21.3C32.9,42.4,7,83.2,7,129.9c0,68.5,55.5,124,124,124c53.1,0,98.5-33.4,116.1-80.4V86.3
				c-10.4-27.8-30.5-50.8-56.2-65C190.9,21.3,71.1,21.3,71.1,21.3z"/>
		</defs>
		<clipPath id="SVGID_102_">
			<use xlink:href="#SVGID_101_"  style="overflow:visible;"/>
		</clipPath>
		<path class="st50" d="M196.2,113.9c4.6-3.7,4.8-4.6,0.4-2.7c-3,1.4-8.1,2.8-15.3,4.2c-6.9,1.4-11.7,2-14.5,1.7
			c-4.6-0.5-4.2,0.1,1.4,1.7c4.5,1.3,9.3,1.5,14.5,0.8C187.8,119,192.4,117.1,196.2,113.9"/>
	</g>
	<g>
		<defs>
			<path id="SVGID_103_" d="M71.1,21.3C32.9,42.4,7,83.2,7,129.9c0,68.5,55.5,124,124,124c53.1,0,98.5-33.4,116.1-80.4V86.3
				c-10.4-27.8-30.5-50.8-56.2-65C190.9,21.3,71.1,21.3,71.1,21.3z"/>
		</defs>
		<clipPath id="SVGID_104_">
			<use xlink:href="#SVGID_103_"  style="overflow:visible;"/>
		</clipPath>
		<path class="st51" d="M-97,179.7c-4.1,1,3.8,2.6,23.8,4.8c20.3,2.3,29.3,2.7,27.2,1.3c-4.1-2.4-12.3-4.4-24.6-5.9
			C-82.8,178.5-91.6,178.4-97,179.7"/>
	</g>
	<g>
		<defs>
			<path id="SVGID_105_" d="M71.1,21.3C32.9,42.4,7,83.2,7,129.9c0,68.5,55.5,124,124,124c53.1,0,98.5-33.4,116.1-80.4V86.3
				c-10.4-27.8-30.5-50.8-56.2-65C190.9,21.3,71.1,21.3,71.1,21.3z"/>
		</defs>
		<clipPath id="SVGID_106_">
			<use xlink:href="#SVGID_105_"  style="overflow:visible;"/>
		</clipPath>
		<path class="st52" d="M70.6,94.9c0.7-6,0.3-7.5-1-4.8c-2,3.9-4.4,9.4-7.2,16.3c-2.8,7.1-4.6,12.2-5.6,15.4
			c-0.7,2.2,0.7,1.1,4.2-3.2c3.3-4.2,5.6-7.7,6.8-10.6C69.2,105.1,70.1,100.8,70.6,94.9"/>
	</g>
	<g>
		<defs>
			<path id="SVGID_107_" d="M71.1,21.3C32.9,42.4,7,83.2,7,129.9c0,68.5,55.5,124,124,124c53.1,0,98.5-33.4,116.1-80.4V86.3
				c-10.4-27.8-30.5-50.8-56.2-65C190.9,21.3,71.1,21.3,71.1,21.3z"/>
		</defs>
		<clipPath id="SVGID_108_">
			<use xlink:href="#SVGID_107_"  style="overflow:visible;"/>
		</clipPath>
		<path class="st53" d="M-225.5,200.4c9.7-3.2,23-5.4,39.9-6.7c13.9-1.1,25.6-1.4,35.2-0.8c-2.6-1.3-5.3-2.1-7.9-2.5
			c-11.7-1.8-23.7-2-36.2-0.6c-11.3,1.3-20.3,3.5-27.2,6.7C-223.7,197.5-225,198.7-225.5,200.4"/>
	</g>
	<g>
		<defs>
			<path id="SVGID_109_" d="M71.1,21.3C32.9,42.4,7,83.2,7,129.9c0,68.5,55.5,124,124,124c53.1,0,98.5-33.4,116.1-80.4V86.3
				c-10.4-27.8-30.5-50.8-56.2-65C190.9,21.3,71.1,21.3,71.1,21.3z"/>
		</defs>
		<clipPath id="SVGID_110_">
			<use xlink:href="#SVGID_109_"  style="overflow:visible;"/>
		</clipPath>
		<path class="st54" d="M-194.7,195.8c-13.8,1.4-23.3,3.1-28.6,5.1c3.6,0.9,9.6,1.3,18.1,1.3c7.9,0,14.5-0.4,19.7-1.1
			c17-2.2,27.9-4.6,33-7.2C-163.4,193.3-177.4,193.9-194.7,195.8"/>
	</g>
	<g>
		<defs>
			<path id="SVGID_111_" d="M71.1,21.3C32.9,42.4,7,83.2,7,129.9c0,68.5,55.5,124,124,124c53.1,0,98.5-33.4,116.1-80.4V86.3
				c-10.4-27.8-30.5-50.8-56.2-65C190.9,21.3,71.1,21.3,71.1,21.3z"/>
		</defs>
		<clipPath id="SVGID_112_">
			<use xlink:href="#SVGID_111_"  style="overflow:visible;"/>
		</clipPath>
		<path class="st55" d="M-49.7,294.1c0.3-0.1,0.5-0.7,0.8-1.7c1.7-8.6-0.5-18.3-6.8-29.1c-4.1-7.2-10.1-13.6-18.1-19
			C-59.9,261.4-51.8,278-49.7,294.1"/>
	</g>
	<g>
		<defs>
			<path id="SVGID_113_" d="M71.1,21.3C32.9,42.4,7,83.2,7,129.9c0,68.5,55.5,124,124,124c53.1,0,98.5-33.4,116.1-80.4V86.3
				c-10.4-27.8-30.5-50.8-56.2-65C190.9,21.3,71.1,21.3,71.1,21.3z"/>
		</defs>
		<clipPath id="SVGID_114_">
			<use xlink:href="#SVGID_113_"  style="overflow:visible;"/>
		</clipPath>
		<path class="st56" d="M-64.6,271.4c5.7,12.2,10,19.5,12.9,22c-2.4-15.6-9.9-31.2-22.6-46.9C-73.3,251.6-70.1,259.9-64.6,271.4"/>
	</g>
	<g>
		<defs>
			<path id="SVGID_115_" d="M71.1,21.3C32.9,42.4,7,83.2,7,129.9c0,68.5,55.5,124,124,124c53.1,0,98.5-33.4,116.1-80.4V86.3
				c-10.4-27.8-30.5-50.8-56.2-65C190.9,21.3,71.1,21.3,71.1,21.3z"/>
		</defs>
		<clipPath id="SVGID_116_">
			<use xlink:href="#SVGID_115_"  style="overflow:visible;"/>
		</clipPath>
		<path class="st57" d="M-75.4,259.1c0.3,5.3,1.7,10.8,4.2,16.3c1.9,4.1,4.8,7.7,8.9,10.8c4.2,3.4,5,3.4,2.4-0.2
			c-2.1-2.7-4.8-7.5-7.9-14.4c-2.9-6.2-5-11.1-6.2-14.8C-75.2,252.4-75.6,253.1-75.4,259.1"/>
	</g>
	<g>
		<defs>
			<path id="SVGID_117_" d="M71.1,21.3C32.9,42.4,7,83.2,7,129.9c0,68.5,55.5,124,124,124c53.1,0,98.5-33.4,116.1-80.4V86.3
				c-10.4-27.8-30.5-50.8-56.2-65C190.9,21.3,71.1,21.3,71.1,21.3z"/>
		</defs>
		<clipPath id="SVGID_118_">
			<use xlink:href="#SVGID_117_"  style="overflow:visible;"/>
		</clipPath>
		<path class="st58" d="M55.4,324.6c-0.9,5.1-1.4,9.6-1.4,13.5c0.1,3.9,0.6,4.7,1.4,2.3c4.6-13,7-22.9,7-29.5c0-3-0.9-2.9-2.8,0.6
			C57.7,315.1,56.3,319.4,55.4,324.6"/>
	</g>
	<g>
		<defs>
			<path id="SVGID_119_" d="M71.1,21.3C32.9,42.4,7,83.2,7,129.9c0,68.5,55.5,124,124,124c53.1,0,98.5-33.4,116.1-80.4V86.3
				c-10.4-27.8-30.5-50.8-56.2-65C190.9,21.3,71.1,21.3,71.1,21.3z"/>
		</defs>
		<clipPath id="SVGID_120_">
			<use xlink:href="#SVGID_119_"  style="overflow:visible;"/>
		</clipPath>
		<path class="st59" d="M63.1,377.3c12.1,3,16.7,3,13.9-0.2c-1.9-2.2-5.3-3.8-10.3-4.9c-5-1-9.7-1.2-14.1-0.6
			C47.3,372.3,50.8,374.2,63.1,377.3"/>
	</g>
	<g>
		<defs>
			<path id="SVGID_121_" d="M71.1,21.3C32.9,42.4,7,83.2,7,129.9c0,68.5,55.5,124,124,124c53.1,0,98.5-33.4,116.1-80.4V86.3
				c-10.4-27.8-30.5-50.8-56.2-65C190.9,21.3,71.1,21.3,71.1,21.3z"/>
		</defs>
		<clipPath id="SVGID_122_">
			<use xlink:href="#SVGID_121_"  style="overflow:visible;"/>
		</clipPath>
		<path class="st60" d="M-292.5,253.2c10.5-8.5,20.4-15.4,29.8-20.7c-0.4-0.9-1.5-1-3.2-0.2c-6.9,2.5-15.8,8.4-26.8,17.7
			c-9.7,8.2-16.6,15.1-20.7,20.7c-0.5,0.8-0.8,1.3-0.8,1.7C-309.6,267.6-302.4,261.2-292.5,253.2"/>
	</g>
	<g>
		<defs>
			<path id="SVGID_123_" d="M71.1,21.3C32.9,42.4,7,83.2,7,129.9c0,68.5,55.5,124,124,124c53.1,0,98.5-33.4,116.1-80.4V86.3
				c-10.4-27.8-30.5-50.8-56.2-65C190.9,21.3,71.1,21.3,71.1,21.3z"/>
		</defs>
		<clipPath id="SVGID_124_">
			<use xlink:href="#SVGID_123_"  style="overflow:visible;"/>
		</clipPath>
		<path class="st61" d="M-289.3,255.7c10.5-7.7,19.2-15.1,26.2-22c-6.6,3.9-15.1,10-25.4,18.2c-7.9,6.5-13.1,10.8-15.5,12.9
			C-296.8,260.6-291.9,257.6-289.3,255.7"/>
	</g>
	<g>
		<defs>
			<path id="SVGID_125_" d="M71.1,21.3C32.9,42.4,7,83.2,7,129.9c0,68.5,55.5,124,124,124c53.1,0,98.5-33.4,116.1-80.4V86.3
				c-10.4-27.8-30.5-50.8-56.2-65C190.9,21.3,71.1,21.3,71.1,21.3z"/>
		</defs>
		<clipPath id="SVGID_126_">
			<use xlink:href="#SVGID_125_"  style="overflow:visible;"/>
		</clipPath>
		<path class="st62" d="M-279,255.9c3.7-3,7.2-6.7,10.5-11c3.2-4.1,5.2-7.5,6.2-10.3c-8.2,8.5-16.7,15.8-25.4,22
			c-7.3,5.1-11.7,8-13.3,8.9c-5.4,3.2-9,5.4-10.7,6.6c3-0.1,8.4-2.2,16.1-6.1C-288.1,262.3-282.5,258.9-279,255.9"/>
	</g>
	<g>
		<defs>
			<path id="SVGID_127_" d="M71.1,21.3C32.9,42.4,7,83.2,7,129.9c0,68.5,55.5,124,124,124c53.1,0,98.5-33.4,116.1-80.4V86.3
				c-10.4-27.8-30.5-50.8-56.2-65C190.9,21.3,71.1,21.3,71.1,21.3z"/>
		</defs>
		<clipPath id="SVGID_128_">
			<use xlink:href="#SVGID_127_"  style="overflow:visible;"/>
		</clipPath>
		<path class="st63" d="M238.5,103.6c-2-0.6-4.1-1.1-6.4-1.3c-2.7-0.4-5.8-0.3-9.3,0.2c-2.7,0.5-5.3,1.3-7.9,2.3
			c-2.7,1.4-5.5,3.1-8.6,5.1l-4.8,4.6c-1.9,1.8-3.6,4.1-5.3,6.8c-3.4,14.7,3.6,21,20.9,18.8c4.5-1.4,9.2-3,13.9-4.9
			c4.2-1.9,7.4-3.7,9.5-5.3l3.4-3.2c0.9-1.3,1.5-2.3,1.8-3.2c0.4-0.8,0.7-2.2,1-4.2c0.3-2.3,0.2-4.4-0.2-6.5l-1-3.1l-1.4-2.3
			l-2.2-1.9L238.5,103.6z"/>
	</g>
	<g>
		<defs>
			<path id="SVGID_129_" d="M71.1,21.3C32.9,42.4,7,83.2,7,129.9c0,68.5,55.5,124,124,124c53.1,0,98.5-33.4,116.1-80.4V86.3
				c-10.4-27.8-30.5-50.8-56.2-65C190.9,21.3,71.1,21.3,71.1,21.3z"/>
		</defs>
		<clipPath id="SVGID_130_">
			<use xlink:href="#SVGID_129_"  style="overflow:visible;"/>
		</clipPath>
		<path class="st64" d="M246.8,118.8c0.3-2.3,0.2-4.3-0.2-6.1l-1-3l-1.4-2.3l-2.2-1.9l-3.6-1.9c-2-0.6-4.1-1.1-6.4-1.3
			c-2.6-0.4-5.8-0.3-9.3,0.2c-2.6,0.5-5.3,1.3-7.9,2.3c-2.6,1.4-5.5,3.1-8.5,5.1l-1.6,1.5c4.4-2.7,9.7-4.4,16.1-5.1
			c6.1-0.8,11.7-0.5,16.9,0.8C243.7,108.6,246.7,112.6,246.8,118.8"/>
	</g>
	<g>
		<defs>
			<path id="SVGID_131_" d="M71.1,21.3C32.9,42.4,7,83.2,7,129.9c0,68.5,55.5,124,124,124c53.1,0,98.5-33.4,116.1-80.4V86.3
				c-10.4-27.8-30.5-50.8-56.2-65C190.9,21.3,71.1,21.3,71.1,21.3z"/>
		</defs>
		<clipPath id="SVGID_132_">
			<use xlink:href="#SVGID_131_"  style="overflow:visible;"/>
		</clipPath>
		<path class="st65" d="M115.3,116.6c9.3-1,17-1.4,23.2-1.1c2.3,0,1.7-0.2-1.8-0.6c-3.4-0.5-7-0.8-10.5-0.8c-5,0-9.5,0.2-13.3,0.6
			c-7.3,1-13.1,3.3-17.5,6.8c-2.6,3-3.6,4.3-2.8,3.8C99.5,120.5,107,117.6,115.3,116.6"/>
	</g>
	<g>
		<defs>
			<path id="SVGID_133_" d="M71.1,21.3C32.9,42.4,7,83.2,7,129.9c0,68.5,55.5,124,124,124c53.1,0,98.5-33.4,116.1-80.4V86.3
				c-10.4-27.8-30.5-50.8-56.2-65C190.9,21.3,71.1,21.3,71.1,21.3z"/>
		</defs>
		<clipPath id="SVGID_134_">
			<use xlink:href="#SVGID_133_"  style="overflow:visible;"/>
		</clipPath>
		<path class="st66" d="M141.4,96.3c-0.7,0.1-0.9,0.5-0.6,1.1c0.1,0.6,0.5,0.8,1.2,0.6c1.7-0.4,3.4-0.1,5.2,1c1.6,0.8,2.8,2,3.6,3.6
			h0.2C148.8,97.2,145.6,95.1,141.4,96.3"/>
	</g>
	<g>
		<defs>
			<path id="SVGID_135_" d="M71.1,21.3C32.9,42.4,7,83.2,7,129.9c0,68.5,55.5,124,124,124c53.1,0,98.5-33.4,116.1-80.4V86.3
				c-10.4-27.8-30.5-50.8-56.2-65C190.9,21.3,71.1,21.3,71.1,21.3z"/>
		</defs>
		<clipPath id="SVGID_136_">
			<use xlink:href="#SVGID_135_"  style="overflow:visible;"/>
		</clipPath>
		<path class="st67" d="M116.8,89.2c-7.7,0.6-11.9,4.6-12.7,11.8c0,0.5,0.2,0.6,0.6,0.2c2.1-5.6,6.2-8.7,12.3-9.5
			c0.8-0.1,1.2-0.6,1.2-1.3C118.1,89.6,117.6,89.2,116.8,89.2"/>
	</g>
	<g>
		<defs>
			<path id="SVGID_137_" d="M71.1,21.3C32.9,42.4,7,83.2,7,129.9c0,68.5,55.5,124,124,124c53.1,0,98.5-33.4,116.1-80.4V86.3
				c-10.4-27.8-30.5-50.8-56.2-65C190.9,21.3,71.1,21.3,71.1,21.3z"/>
		</defs>
		<clipPath id="SVGID_138_">
			<use xlink:href="#SVGID_137_"  style="overflow:visible;"/>
		</clipPath>
		<path class="st68" d="M148.6,113.3l0.2,0.2c1.1-0.5,2.4-0.8,4-0.8c0.3,0,0.4-0.1,0.4-0.4s-0.1-0.4-0.4-0.4
			C151.1,111.7,149.8,112.1,148.6,113.3"/>
	</g>
	<g>
		<defs>
			<path id="SVGID_139_" d="M71.1,21.3C32.9,42.4,7,83.2,7,129.9c0,68.5,55.5,124,124,124c53.1,0,98.5-33.4,116.1-80.4V86.3
				c-10.4-27.8-30.5-50.8-56.2-65C190.9,21.3,71.1,21.3,71.1,21.3z"/>
		</defs>
		<clipPath id="SVGID_140_">
			<use xlink:href="#SVGID_139_"  style="overflow:visible;"/>
		</clipPath>
		<path class="st69" d="M105.5,111.8c-0.3,0.3-0.3,0.6,0,1c0.1,0.3,0.3,0.3,0.6,0c1.2-1,2.8-1,5,0.2c0.1,0,0.2-0.1,0.2-0.2
			C109.1,111,107.2,110.7,105.5,111.8"/>
	</g>
	<g>
		<defs>
			<path id="SVGID_141_" d="M71.1,21.3C32.9,42.4,7,83.2,7,129.9c0,68.5,55.5,124,124,124c53.1,0,98.5-33.4,116.1-80.4V86.3
				c-10.4-27.8-30.5-50.8-56.2-65C190.9,21.3,71.1,21.3,71.1,21.3z"/>
		</defs>
		<clipPath id="SVGID_142_">
			<use xlink:href="#SVGID_141_"  style="overflow:visible;"/>
		</clipPath>
		<path class="st70" d="M141.6,165.4c-9,0.3-19.1-2.8-30.2-9.1c-10.6-6-17.9-12.3-22.1-19c-4.8,6.2-7.2,13-7.2,20.5
			c0.3,8.6,4.1,15.7,11.5,21.3c3.4,2.7,7.5,4.4,12.3,5.3c5.3,1,10.2,0.8,14.7-0.6c4.8-1.5,9.3-4.3,13.5-8.4
			C138.1,171.9,140.5,168.6,141.6,165.4"/>
	</g>
	<g>
		<defs>
			<path id="SVGID_143_" d="M71.1,21.3C32.9,42.4,7,83.2,7,129.9c0,68.5,55.5,124,124,124c53.1,0,98.5-33.4,116.1-80.4V86.3
				c-10.4-27.8-30.5-50.8-56.2-65C190.9,21.3,71.1,21.3,71.1,21.3z"/>
		</defs>
		<clipPath id="SVGID_144_">
			<use xlink:href="#SVGID_143_"  style="overflow:visible;"/>
		</clipPath>
		<path class="st71" d="M104.4,184.2c4.5,1.1,8.8,1.3,12.9,0.4c-0.1-5.2-1.7-10.3-4.8-15.4c-3-4.9-6.7-8.6-10.9-10.8
			c-3.2-1.8-6.4-2.7-9.7-2.7c-3.6,0-6.8,1-9.7,2.9c0.4,8.4,4.2,15.2,11.5,20.5C96.7,181.4,100.3,183.1,104.4,184.2"/>
	</g>
	<g>
		<defs>
			<path id="SVGID_145_" d="M71.1,21.3C32.9,42.4,7,83.2,7,129.9c0,68.5,55.5,124,124,124c53.1,0,98.5-33.4,116.1-80.4V86.3
				c-10.4-27.8-30.5-50.8-56.2-65C190.9,21.3,71.1,21.3,71.1,21.3z"/>
		</defs>
		<clipPath id="SVGID_146_">
			<use xlink:href="#SVGID_145_"  style="overflow:visible;"/>
		</clipPath>
		<path class="st72" d="M105.2,185.4c4.6,1,9.1,1,13.5,0c1.9-1.3,2.8-3,2.8-5.1c0.1-0.5-0.5-0.6-1.8-0.2c-1.1,0.4-2,0.8-2.8,1.1
			c-9.4-5.1-17.9-8-25.6-8.9c-0.4-2.4-1-3.6-1.8-3.6c-1.2,0.3-2.3,1.3-3.4,3.2c1.7,3,4.2,5.8,7.5,8.2
			C96.9,182.6,100.7,184.4,105.2,185.4"/>
	</g>
	<g>
		<defs>
			<path id="SVGID_147_" d="M71.1,21.3C32.9,42.4,7,83.2,7,129.9c0,68.5,55.5,124,124,124c53.1,0,98.5-33.4,116.1-80.4V86.3
				c-10.4-27.8-30.5-50.8-56.2-65C190.9,21.3,71.1,21.3,71.1,21.3z"/>
		</defs>
		<clipPath id="SVGID_148_">
			<use xlink:href="#SVGID_147_"  style="overflow:visible;"/>
		</clipPath>
		<path class="st73" d="M108.6,162.7c3.8,2.2,7.2,3.6,9.9,4.4c2.1,0.5,4.9,0.8,8.3,0.8c0.3,2.4,1,3.7,2.2,4c1.2-0.4,2.8-1.6,5-3.6
			c1.7-1.8,2.8-3.1,3.2-4c-7.7-0.9-15.9-3.8-24.6-8.7c-8.2-4.6-14.6-9.6-19.3-15.2c-0.9,1.5-1.8,3.4-2.6,5.7
			c-1.1,3.3-1.1,5.7-0.2,7.2c0.9,0.6,2.6,0.2,5-1.3C97.7,155.3,102.1,158.9,108.6,162.7"/>
	</g>
	<g>
		<defs>
			<path id="SVGID_149_" d="M71.1,21.3C32.9,42.4,7,83.2,7,129.9c0,68.5,55.5,124,124,124c53.1,0,98.5-33.4,116.1-80.4V86.3
				c-10.4-27.8-30.5-50.8-56.2-65C190.9,21.3,71.1,21.3,71.1,21.3z"/>
		</defs>
		<clipPath id="SVGID_150_">
			<use xlink:href="#SVGID_149_"  style="overflow:visible;"/>
		</clipPath>
		<path class="st74" d="M103.4,195.6c0.3,0,0.3-0.1,0-0.4c-5.7-0.8-11.2-3-16.5-6.8c-5.6-3.9-9.2-8.4-10.9-13.3
			c-0.3-0.8-0.4-0.4-0.4,1.1s0.1,2.7,0.4,3.6c1.5,6.5,4.8,11,10.1,13.7C90.9,195.9,96.7,196.6,103.4,195.6"/>
	</g>
</g>
<g>
	<g>
		<defs>
			<rect id="SVGID_151_" x="5" y="3.9" width="252" height="252"/>
		</defs>
		<clipPath id="SVGID_152_">
			<use xlink:href="#SVGID_151_"  style="overflow:visible;"/>
		</clipPath>
		<circle class="st75" cx="131" cy="129.9" r="124"/>
	</g>
</g>
</svg>
