<?xml version="1.0" encoding="UTF-8"?>
<svg id="Layer_1" data-name="Layer 1" xmlns="http://www.w3.org/2000/svg" viewBox="0 0 750.15 719.28">
  <defs>
    <style>
      .cls-1 {
        fill: #f37b6f;
      }

      .cls-2 {
        fill: #fff;
      }
    </style>
  </defs>
  <path class="cls-1" d="M50.16,497.62C-51.47,358.62,15.29,225.82,126.22,119.37,202.72,8.3,345.3-17.25,470.28,10.1c172.14,6.71,267.83,85.63,274.81,262.04,5.34,167.71,32.87,261.72-129.63,364.15-75.79,47.73-163.75,65.49-250.62,80.58-45.41,7.93-86.79-3.76-124.12-35.07-59.98-67.37-140.94-107.63-190.56-184.21v.02Z"/>
  <g>
    <g>
      <path class="cls-2" d="M315.87,320.3c-9.38,7.57-21.33,12.12-34.29,12.12s-24.87-4.55-34.25-12.16c-15.53,6.32-27.06,20.64-29.18,38.21l-4.65,38.49c-.59,4.97,2.64,9.69,7.54,10.73,19.11,4.1,39.43,6.25,60.55,6.25,8.16,0,16.19-.31,24.07-.97l3.2-26.54c2.43-19.8,14.1-36.44,30.36-45.75-5.25-9.24-13.51-16.43-23.35-20.39Z"/>
      <path class="cls-2" d="M281.59,318.53c22.44,0,40.62-18.19,40.62-40.62s-18.19-40.61-40.62-40.61-40.61,18.19-40.61,40.61,18.18,40.62,40.61,40.62Z"/>
      <path class="cls-2" d="M586.22,396.97l-4.62-38.49c-2.08-17.58-13.65-31.93-29.18-38.21-9.38,7.61-21.3,12.16-34.29,12.16s-24.87-4.55-34.25-12.12c-9.83,3.96-18.06,11.15-23.31,20.39,14.84,8.51,25.84,23.07,29.44,40.55,19.35,3.67,35.72,15.71,45.21,32.23,15.03-.84,29.58-2.78,43.46-5.76,4.93-1.04,8.16-5.77,7.54-10.73Z"/>
      <path class="cls-2" d="M518.14,318.53c22.44,0,40.62-18.19,40.62-40.62s-18.19-40.61-40.62-40.61-40.61,18.19-40.61,40.61,18.18,40.62,40.61,40.62Z"/>
    </g>
    <g>
      <path class="cls-2" d="M470.96,380.79c-5.58-15.51-16.62-28.39-30.78-36.36-10.98,9.2-25.2,14.78-40.59,14.78s-29.62-5.58-40.59-14.78c-20.79,11.71-34.77,33.91-34.77,59.48v28.39c0,6.5,5.21,11.77,11.71,11.77h77.51c-.06-.92-.06-1.84-.06-2.76,0-32.44,25.57-58.99,57.58-60.52Z"/>
      <path class="cls-2" d="M399.59,343.88c26.38,0,47.75-21.37,47.75-47.75s-21.37-47.75-47.75-47.75-47.75,21.37-47.75,47.75,21.38,47.75,47.75,47.75Z"/>
      <path class="cls-2" d="M479.18,394.24c-31.2,0-56.5,25.29-56.5,56.5s25.3,56.5,56.5,56.5,56.5-25.29,56.5-56.5-25.29-56.5-56.5-56.5ZM503.72,460.32h-14.97v14.97c0,5.29-4.29,9.57-9.57,9.57s-9.57-4.29-9.57-9.57v-14.97h-14.98c-5.29,0-9.57-4.29-9.57-9.57s4.29-9.57,9.57-9.57h14.98v-14.98c0-5.29,4.29-9.57,9.57-9.57s9.57,4.29,9.57,9.57v14.98h14.97c5.29,0,9.57,4.29,9.57,9.57s-4.29,9.57-9.57,9.57Z"/>
    </g>
  </g>
</svg>