<?xml version="1.0" encoding="utf-8"?>
<!-- Generator: Adobe Illustrator 24.1.2, SVG Export Plug-In . SVG Version: 6.00 Build 0)  -->
<svg version="1.1" id="Layer_1" xmlns="http://www.w3.org/2000/svg" xmlns:xlink="http://www.w3.org/1999/xlink" x="0px" y="0px"
	 viewBox="0 0 262.1 261.3" style="enable-background:new 0 0 262.1 261.3;" xml:space="preserve">
<style type="text/css">
	.st0{clip-path:url(#SVGID_2_);fill:#A0C9C3;}
	.st1{clip-path:url(#SVGID_4_);fill:#E8D4A5;}
	.st2{clip-path:url(#SVGID_6_);fill:#E8D4A5;}
	.st3{clip-path:url(#SVGID_8_);fill:#E8D4A5;}
	.st4{clip-path:url(#SVGID_10_);fill:#AEABAA;}
	.st5{clip-path:url(#SVGID_12_);fill:#918D8C;}
	.st6{clip-path:url(#SVGID_14_);fill:#E8D4A5;}
	.st7{clip-path:url(#SVGID_16_);fill:#E8D4A5;}
	.st8{clip-path:url(#SVGID_18_);fill:#E8D4A5;}
	.st9{clip-path:url(#SVGID_20_);fill:#E8D4A5;}
	.st10{clip-path:url(#SVGID_22_);fill:#E8D4A5;}
	.st11{clip-path:url(#SVGID_24_);fill:#E8D4A5;}
	.st12{clip-path:url(#SVGID_26_);fill:#E8D4A5;}
	.st13{clip-path:url(#SVGID_28_);fill:#E8D4A5;}
	.st14{clip-path:url(#SVGID_30_);fill:#E8D4A5;}
	.st15{clip-path:url(#SVGID_32_);fill:#AEABAA;}
	.st16{clip-path:url(#SVGID_34_);fill:#918D8C;}
	.st17{clip-path:url(#SVGID_36_);fill:#918D8C;}
	.st18{clip-path:url(#SVGID_38_);fill:#918D8C;}
	.st19{clip-path:url(#SVGID_40_);fill:#918D8C;}
	.st20{clip-path:url(#SVGID_42_);fill:#918D8C;}
	.st21{clip-path:url(#SVGID_44_);fill:#C5C3C3;}
	.st22{clip-path:url(#SVGID_46_);fill:#AEABAA;}
	.st23{clip-path:url(#SVGID_48_);fill:#918D8C;}
	.st24{clip-path:url(#SVGID_50_);fill:#979594;}
	.st25{clip-path:url(#SVGID_52_);fill:#CEA89F;}
	.st26{clip-path:url(#SVGID_54_);fill:#AEABAA;}
	.st27{clip-path:url(#SVGID_56_);fill:#C5C3C3;}
	.st28{clip-path:url(#SVGID_58_);fill:#736E6E;}
	.st29{clip-path:url(#SVGID_60_);fill:#736E6E;}
	.st30{clip-path:url(#SVGID_62_);fill:#736E6E;}
	.st31{clip-path:url(#SVGID_64_);fill:#736E6E;}
	.st32{clip-path:url(#SVGID_66_);fill:#FFFFFF;}
	.st33{clip-path:url(#SVGID_68_);fill:#645E63;}
	.st34{clip-path:url(#SVGID_70_);fill:#FFFFFF;}
	.st35{clip-path:url(#SVGID_72_);fill:#645E63;}
	.st36{clip-path:url(#SVGID_74_);fill:#4E3E48;}
	.st37{clip-path:url(#SVGID_76_);fill:#DEA3A0;}
	.st38{clip-path:url(#SVGID_78_);fill:#F9F0DA;}
	.st39{clip-path:url(#SVGID_80_);fill:#918D8C;}
	.st40{clip-path:url(#SVGID_82_);fill:#918D8C;}
	.st41{clip-path:url(#SVGID_84_);fill:#AEABAA;}
	.st42{clip-path:url(#SVGID_86_);fill:#C5C3C3;}
	.st43{clip-path:url(#SVGID_88_);fill:#AEABAA;}
	.st44{clip-path:url(#SVGID_90_);fill:#918D8C;}
	.st45{clip-path:url(#SVGID_92_);fill:#D5AEA6;}
	.st46{clip-path:url(#SVGID_94_);fill:#E1BAB1;}
	.st47{clip-path:url(#SVGID_96_);fill:#C5C3C3;}
	.st48{clip-path:url(#SVGID_98_);fill:none;stroke:#628377;stroke-width:3;}
</style>
<g>
	<g>
		<defs>
			<rect id="SVGID_1_" x="2" y="2" width="257.9" height="256.4"/>
		</defs>
		<clipPath id="SVGID_2_">
			<use xlink:href="#SVGID_1_"  style="overflow:visible;"/>
		</clipPath>
		<path class="st0" d="M130.9,256.9c70.4,0,127.4-56.7,127.4-126.7S201.3,3.5,130.9,3.5S3.5,60.2,3.5,130.2S60.6,256.9,130.9,256.9"
			/>
	</g>
</g>
<g>
	<g>
		<defs>
			<path id="SVGID_3_" d="M3.5,130.2c0,70,57.1,126.7,127.4,126.7s127.4-56.7,127.4-126.7S201.2,3.5,130.9,3.5S3.5,60.2,3.5,130.2"
				/>
		</defs>
		<clipPath id="SVGID_4_">
			<use xlink:href="#SVGID_3_"  style="overflow:visible;"/>
		</clipPath>
		<path class="st1" d="M-34.7,284.9c0,2.6,0.4,4.3,1.1,5.2c0.8,0.1,1.9,0,3.4-0.3c1.6-0.4,2.8-0.8,3.4-1.3c0.1-1.4-0.2-3-0.9-4.7
			c-0.5-1.4-1-2.5-1.6-3.1c-1.4-1.4-2.8-1.6-4.1-0.6c-0.5,0.4-0.9,1.1-1.1,2.3C-34.7,283.3-34.7,284.2-34.7,284.9"/>
	</g>
	<g>
		<defs>
			<path id="SVGID_5_" d="M3.5,130.2c0,70,57.1,126.7,127.4,126.7s127.4-56.7,127.4-126.7S201.2,3.5,130.9,3.5S3.5,60.2,3.5,130.2"
				/>
		</defs>
		<clipPath id="SVGID_6_">
			<use xlink:href="#SVGID_5_"  style="overflow:visible;"/>
		</clipPath>
		<path class="st2" d="M-42.2,282.9c-1.1,1.1-1.8,2.2-1.9,3.3c0,0.4,0,1-0.1,1.9c0,0.9,0.1,1.5,0.3,2c3.7,0.8,6.6,0.8,8.7,0.1
			c0.2-1.4,0-2.9-0.4-4.3c-0.6-1.5-1.3-2.7-2.3-3.4C-39.4,281.4-40.8,281.5-42.2,282.9"/>
	</g>
	<g>
		<defs>
			<path id="SVGID_7_" d="M3.5,130.2c0,70,57.1,126.7,127.4,126.7s127.4-56.7,127.4-126.7S201.2,3.5,130.9,3.5S3.5,60.2,3.5,130.2"
				/>
		</defs>
		<clipPath id="SVGID_8_">
			<use xlink:href="#SVGID_7_"  style="overflow:visible;"/>
		</clipPath>
		<path class="st3" d="M-52.8,283.4c-1.5,1.1-2.3,2.9-2.3,5.4c0.8,0.6,2.1,1,4.2,1.1c1.9,0.2,3.5,0.1,4.7-0.1c0.6-2.2,0.2-4.2-1-6.2
			c-0.6-0.8-1.4-1.2-2.4-1.3C-50.7,282.3-51.8,282.6-52.8,283.4"/>
	</g>
	<g>
		<defs>
			<path id="SVGID_9_" d="M3.5,130.2c0,70,57.1,126.7,127.4,126.7s127.4-56.7,127.4-126.7S201.2,3.5,130.9,3.5S3.5,60.2,3.5,130.2"
				/>
		</defs>
		<clipPath id="SVGID_10_">
			<use xlink:href="#SVGID_9_"  style="overflow:visible;"/>
		</clipPath>
		<path class="st4" d="M-44,290.1c0-1.9,0.4-3.6,1.1-5c0.9-1.8,2.1-2.7,3.6-2.6c1.3,0.1,2.4,1.3,3.1,3.6c0.4,0.9,0.7,2.2,0.9,4.2
			l1.7-0.1c-0.6-4.5,0-7,1.6-7.4c2.6-0.9,4.3,1.1,5.3,5.9c0.5,0,1.3-0.3,2.6-0.9c-0.4-1.8-0.5-6.1-0.4-12.9c0-5.2,0.1-9,0.3-11.2
			c-2.5-0.2-7.4-0.4-14.9-0.6c-7.1-0.1-12.1-0.3-15-0.6c-2.7,15-4.1,23.6-4.3,25.8c0.3,0.2,1.4,0.4,3.3,0.6c0.8-3.3,2-5.2,3.9-5.6
			c1.5-0.4,2.8,0.2,3.7,1.7c0.7,1.1,1.1,2.8,1.3,4.9L-44,290.1z"/>
	</g>
	<g>
		<defs>
			<path id="SVGID_11_" d="M3.5,130.2c0,70,57.1,126.7,127.4,126.7s127.4-56.7,127.4-126.7S201.2,3.5,130.9,3.5S3.5,60.2,3.5,130.2"
				/>
		</defs>
		<clipPath id="SVGID_12_">
			<use xlink:href="#SVGID_11_"  style="overflow:visible;"/>
		</clipPath>
		<path class="st5" d="M-37.9,272.5c6.2-0.7,10.7-1,13.5-1.1c0.2-4.7,0.3-7.3,0.3-7.7c-2.5-0.2-7.4-0.4-14.9-0.6
			c-7.1-0.1-12.1-0.3-15-0.6l-2.3,12.9C-51.9,274.4-45.8,273.4-37.9,272.5"/>
	</g>
	<g>
		<defs>
			<path id="SVGID_13_" d="M3.5,130.2c0,70,57.1,126.7,127.4,126.7s127.4-56.7,127.4-126.7S201.2,3.5,130.9,3.5S3.5,60.2,3.5,130.2"
				/>
		</defs>
		<clipPath id="SVGID_14_">
			<use xlink:href="#SVGID_13_"  style="overflow:visible;"/>
		</clipPath>
		<path class="st6" d="M122.9,267.3c0.3,2.9,1,4.7,2,5.6c0.8,0,1.9-0.3,3.3-0.9c1.5-0.6,2.6-1.1,3.1-1.7c-0.1-1.7-0.6-3.5-1.6-5.4
			c-0.8-1.5-1.5-2.6-2.1-3.1c-1.5-1.5-2.9-1.6-4.2-0.1C122.5,262.8,122.3,264.7,122.9,267.3"/>
	</g>
	<g>
		<defs>
			<path id="SVGID_15_" d="M3.5,130.2c0,70,57.1,126.7,127.4,126.7s127.4-56.7,127.4-126.7S201.2,3.5,130.9,3.5S3.5,60.2,3.5,130.2"
				/>
		</defs>
		<clipPath id="SVGID_16_">
			<use xlink:href="#SVGID_15_"  style="overflow:visible;"/>
		</clipPath>
		<path class="st7" d="M115.2,266.2c-1,1.4-1.4,2.8-1.4,4c0.3,2.5,0.6,3.9,0.9,4.3c3.4,0.5,6.3,0.1,8.6-1.1
			c-0.1-1.6-0.5-3.2-1.3-4.7c-0.8-1.6-1.7-2.8-2.7-3.4C117.7,264,116.3,264.4,115.2,266.2"/>
	</g>
	<g>
		<defs>
			<path id="SVGID_17_" d="M3.5,130.2c0,70,57.1,126.7,127.4,126.7s127.4-56.7,127.4-126.7S201.2,3.5,130.9,3.5S3.5,60.2,3.5,130.2"
				/>
		</defs>
		<clipPath id="SVGID_18_">
			<use xlink:href="#SVGID_17_"  style="overflow:visible;"/>
		</clipPath>
		<path class="st8" d="M107.6,266.6c-1,0.1-2.1,0.6-3,1.6c-1.3,1.5-1.8,3.7-1.3,6.4c0.9,0.5,2.3,0.7,4.3,0.7c1.9,0,3.4-0.2,4.6-0.7
			c0.4-2.4-0.3-4.7-2-6.9C109.4,266.9,108.5,266.5,107.6,266.6"/>
	</g>
	<g>
		<defs>
			<path id="SVGID_19_" d="M3.5,130.2c0,70,57.1,126.7,127.4,126.7s127.4-56.7,127.4-126.7S201.2,3.5,130.9,3.5S3.5,60.2,3.5,130.2"
				/>
		</defs>
		<clipPath id="SVGID_20_">
			<use xlink:href="#SVGID_19_"  style="overflow:visible;"/>
		</clipPath>
		<path class="st9" d="M54.3,292.7c-1.4,1.6-2,3.9-1.6,6.7c0.1,0.6,0.3,1.9,0.7,3.9c0.4,1.9,0.9,3.1,1.4,3.6
			c1.4,0.1,3.7-0.1,6.9-0.7c3.2-0.6,5.4-1.2,6.4-1.9c-1.2-6.4-2.8-10.2-4.6-11.4C59.7,290.3,56.6,290.3,54.3,292.7"/>
	</g>
	<g>
		<defs>
			<path id="SVGID_21_" d="M3.5,130.2c0,70,57.1,126.7,127.4,126.7s127.4-56.7,127.4-126.7S201.2,3.5,130.9,3.5S3.5,60.2,3.5,130.2"
				/>
		</defs>
		<clipPath id="SVGID_22_">
			<use xlink:href="#SVGID_21_"  style="overflow:visible;"/>
		</clipPath>
		<path class="st10" d="M45.6,308.4c2.5-0.2,4.6-0.6,6.3-1.1c0.4-3.4-0.3-6.6-2-9.4c-0.5-0.9-1.4-1.5-2.9-2
			c-1.3-0.6-2.6-0.7-3.7-0.3c-1.8,0.7-3.1,2.4-4,5.3c-1,3.3-0.9,5.8,0.1,7.3C40.9,308.5,42.9,308.6,45.6,308.4"/>
	</g>
	<g>
		<defs>
			<path id="SVGID_23_" d="M3.5,130.2c0,70,57.1,126.7,127.4,126.7s127.4-56.7,127.4-126.7S201.2,3.5,130.9,3.5S3.5,60.2,3.5,130.2"
				/>
		</defs>
		<clipPath id="SVGID_24_">
			<use xlink:href="#SVGID_23_"  style="overflow:visible;"/>
		</clipPath>
		<path class="st11" d="M29.6,308.1c2.8,0.4,5.2,0.4,7.4,0c0.7-1.4,0.9-3.7,0.6-6.7c-0.1-1.7-1-3.6-2.6-5.6
			c-1.1-1.4-3.2-1.9-6.3-1.3c-2.3,0.4-3.9,1.9-4.7,4.4c-1,2.4-1,4.9-0.1,7.6C25,307.2,26.9,307.7,29.6,308.1"/>
	</g>
	<g>
		<defs>
			<path id="SVGID_25_" d="M3.5,130.2c0,70,57.1,126.7,127.4,126.7s127.4-56.7,127.4-126.7S201.2,3.5,130.9,3.5S3.5,60.2,3.5,130.2"
				/>
		</defs>
		<clipPath id="SVGID_26_">
			<use xlink:href="#SVGID_25_"  style="overflow:visible;"/>
		</clipPath>
		<path class="st12" d="M-90.9,299c-0.2,2.1,0,3.7,0.6,4.7c1.9,0.3,4.3,0.3,7.3,0.1c3.1-0.3,5.4-0.8,6.7-1.6c-0.7-4.9-2-8.2-4-9.9
			c-1-1-2.7-1.2-4.9-0.9c-2.3,0.5-3.8,1.5-4.6,3C-90.3,295.7-90.7,297.1-90.9,299"/>
	</g>
	<g>
		<defs>
			<path id="SVGID_27_" d="M3.5,130.2c0,70,57.1,126.7,127.4,126.7s127.4-56.7,127.4-126.7S201.2,3.5,130.9,3.5S3.5,60.2,3.5,130.2"
				/>
		</defs>
		<clipPath id="SVGID_28_">
			<use xlink:href="#SVGID_27_"  style="overflow:visible;"/>
		</clipPath>
		<path class="st13" d="M-101.4,304.4c2.9,0.1,5.2-0.1,7-0.7c1-3,0.9-6.1-0.1-9.4c-1.2-3.5-3.2-5.2-6-5.2c-2.6,0.1-4.4,1.6-5.6,4.6
			c-1.1,2.8-1.8,6-2,9.7C-106.6,304.1-104.3,304.4-101.4,304.4"/>
	</g>
	<g>
		<defs>
			<path id="SVGID_29_" d="M3.5,130.2c0,70,57.1,126.7,127.4,126.7s127.4-56.7,127.4-126.7S201.2,3.5,130.9,3.5S3.5,60.2,3.5,130.2"
				/>
		</defs>
		<clipPath id="SVGID_30_">
			<use xlink:href="#SVGID_29_"  style="overflow:visible;"/>
		</clipPath>
		<path class="st14" d="M-109.2,295.8c-0.4-3.1-1.8-5.3-4.2-6.9c-1.4-1-3.1-1-5.2-0.3c-1.9,0.7-3.2,1.7-4,3c-2.2,4.4-3,7.6-2.3,9.7
			c1.6,0.9,3.9,1.4,6.7,1.7c2.8,0.3,5.2,0.3,7.2,0C-109.5,301.1-109,298.7-109.2,295.8"/>
	</g>
	<g>
		<defs>
			<path id="SVGID_31_" d="M3.5,130.2c0,70,57.1,126.7,127.4,126.7s127.4-56.7,127.4-126.7S201.2,3.5,130.9,3.5S3.5,60.2,3.5,130.2"
				/>
		</defs>
		<clipPath id="SVGID_32_">
			<use xlink:href="#SVGID_31_"  style="overflow:visible;"/>
		</clipPath>
		<path class="st15" d="M-9.9-25c-29.2-2.6-56.2-0.2-81,7c-27.4,8-51.2,21.9-71.3,41.5c-16.4,16.1-27.5,36.9-33.2,62.4
			c-5.6,25-5.5,52.3,0.3,81.9c9.7,49.7,32.9,80.9,69.5,93.7c-0.2,2.5-0.7,8.8-1.4,18.9c-0.8,9.5-1.5,16.1-2.1,19.8
			c0.3,0.3,1.7,0.7,4.3,1.1c1.1-5,2.9-8.6,5.3-10.7c1.1-1,2.3-1.3,3.7-1c1.4,0.2,2.5,0.8,3.3,1.9c2.2,3.1,2.7,6.9,1.6,11.6l2.9,0.3
			c0.1-5.3,1.5-9.4,4.3-12.2c1.1-1.1,2.5-1.7,4-1.6c1.4,0,2.6,0.6,3.4,1.7c1.8,2.4,2.5,6.5,2,12.3h4c-0.4-5.3,0.7-8.8,3.3-10.6
			c4.3-2.8,7.9,0.3,10.7,9.2c0.7,0.1,1.8,0,3.4-0.1c-0.1-3.2-0.1-9.1-0.1-17.6c0.1-9.9,0.3-15.8,0.6-17.6c28.4,5,59.1,4.5,92-1.7
			l-0.8,40.6c0.5,0.2,1.3,0.4,2.6,0.6c1.3,0.2,2.1,0.2,2.6,0.1c-0.4-2.5,0-4.9,1-7.3c1.2-2.8,3-4.2,5.3-4.2c4.6,0,6.9,4.3,6.9,13
			h2.4c-0.2-3.8,0.1-6.7,0.9-8.6c0.7-1.3,1.6-2.3,2.7-2.9c1.2-0.6,2.4-0.6,3.6-0.1c1.5,0.7,2.6,1.6,3.3,2.9c0.8,1.5,1.4,4.1,2,7.9
			c1.1,0,2.1-0.2,3-0.5c-1.4-4.2-1.6-7.9-0.4-11c0.7-1.9,2-3.1,3.9-3.6c4.5-1.2,7.8,2.8,9.9,12c1.2,0,2.5-0.3,3.9-0.9
			c-0.9-3.8-1.8-11.2-2.7-22.2c-1.1-11.9-1.6-18.2-1.7-18.9c5.7-1,11.6-3.6,17.8-7.7c6.9-4.7,11.7-9.9,14.6-15.6
			c0,2.2,0,14-0.1,35.5c0.5,0.3,1.6,0.3,3.4,0.1c0.2-3.8,1.1-6.1,2.9-6.9c1.4-0.7,2.7-0.2,3.9,1.4c0.9,1.2,1.6,3,2.1,5.4
			c0.6-0.1,1.4-0.1,2.4-0.1c-0.4-2.1-0.3-4,0.1-5.7c0.6-2.2,1.6-3.3,3.2-3.4c1.3-0.1,2.6,1.1,3.9,3.6c0.7,1.3,1.2,2.8,1.4,4.4
			l1.7-0.4c-1.4-4.9-1.3-7.7,0.3-8.6c2.5-1.2,4.5,0.8,6.2,6c0.6-0.1,1.4-0.6,2.4-1.4c-4.7-14.6-7.8-26.9-9.3-37.1
			c0.1-0.1,0.5-3.3,1.5-9.8c0.6-3.8,0.7-12.9,0.4-27.3c3.9-45.7-3.1-89.5-21.1-131.5c-13-29-32.5-52-59-68.8
			C27.8-17,8.9-23.4-9.9-25"/>
	</g>
	<g>
		<defs>
			<path id="SVGID_33_" d="M3.5,130.2c0,70,57.1,126.7,127.4,126.7s127.4-56.7,127.4-126.7S201.2,3.5,130.9,3.5S3.5,60.2,3.5,130.2"
				/>
		</defs>
		<clipPath id="SVGID_34_">
			<use xlink:href="#SVGID_33_"  style="overflow:visible;"/>
		</clipPath>
		<path class="st16" d="M19.6,265.2c0.5-6.6,0.8-12,0.9-16.3c-1.6,2.4-3,5.4-4,9.2c-1,3.3-1.6,6-1.6,7.9L19.6,265.2z"/>
	</g>
	<g>
		<defs>
			<path id="SVGID_35_" d="M3.5,130.2c0,70,57.1,126.7,127.4,126.7s127.4-56.7,127.4-126.7S201.2,3.5,130.9,3.5S3.5,60.2,3.5,130.2"
				/>
		</defs>
		<clipPath id="SVGID_36_">
			<use xlink:href="#SVGID_35_"  style="overflow:visible;"/>
		</clipPath>
		<path class="st17" d="M100,239l-0.1-9c-2.4,5.6-4.3,11.4-5.9,17.3C96.5,244.6,98.5,241.9,100,239"/>
	</g>
	<g>
		<defs>
			<path id="SVGID_37_" d="M3.5,130.2c0,70,57.1,126.7,127.4,126.7s127.4-56.7,127.4-126.7S201.2,3.5,130.9,3.5S3.5,60.2,3.5,130.2"
				/>
		</defs>
		<clipPath id="SVGID_38_">
			<use xlink:href="#SVGID_37_"  style="overflow:visible;"/>
		</clipPath>
		<path class="st18" d="M-68,257.7c-1.1-3.6-2.4-6.3-3.7-8c-0.7,8.1-0.9,13.8-0.7,17.2l6.3,1C-66.4,264.5-67.1,261.1-68,257.7"/>
	</g>
	<g>
		<defs>
			<path id="SVGID_39_" d="M3.5,130.2c0,70,57.1,126.7,127.4,126.7s127.4-56.7,127.4-126.7S201.2,3.5,130.9,3.5S3.5,60.2,3.5,130.2"
				/>
		</defs>
		<clipPath id="SVGID_40_">
			<use xlink:href="#SVGID_39_"  style="overflow:visible;"/>
		</clipPath>
		<path class="st19" d="M-125.6,261.6c1-11.5,1.6-18.6,1.7-21.2c-1.7,0.7-3.6,3.5-5.6,8.4c-1.5,4-2.5,7.3-3,10
			C-130.7,259.7-128.4,260.6-125.6,261.6"/>
	</g>
	<g>
		<defs>
			<path id="SVGID_41_" d="M3.5,130.2c0,70,57.1,126.7,127.4,126.7s127.4-56.7,127.4-126.7S201.2,3.5,130.9,3.5S3.5,60.2,3.5,130.2"
				/>
		</defs>
		<clipPath id="SVGID_42_">
			<use xlink:href="#SVGID_41_"  style="overflow:visible;"/>
		</clipPath>
		<path class="st20" d="M70.1,255.2c-1-3-2.1-5.3-3.3-7.2c0.2,6.3,0.5,11.1,0.9,14.3l3.7-1C71.4,259.9,71,257.8,70.1,255.2"/>
	</g>
	<g>
		<defs>
			<path id="SVGID_43_" d="M3.5,130.2c0,70,57.1,126.7,127.4,126.7s127.4-56.7,127.4-126.7S201.2,3.5,130.9,3.5S3.5,60.2,3.5,130.2"
				/>
		</defs>
		<clipPath id="SVGID_44_">
			<use xlink:href="#SVGID_43_"  style="overflow:visible;"/>
		</clipPath>
		<path class="st21" d="M-40-21.6c17.6-1.9,24.6-2.9,21-3c-12.2-0.7-25.2-0.1-38.9,1.6c-11.6,1.4-22.1,3.4-31.5,6
			c-8.2,2.4-17.4,6-27.5,10.9c-9.4,4.5-17.3,8.8-23.5,13c-0.5,0.4,3.8-1.3,12.9-5C-112.1-4.5-97-9.5-81.9-13.3
			C-64.7-17.6-50.7-20.4-40-21.6"/>
	</g>
	<g>
		<defs>
			<path id="SVGID_45_" d="M3.5,130.2c0,70,57.1,126.7,127.4,126.7s127.4-56.7,127.4-126.7S201.2,3.5,130.9,3.5S3.5,60.2,3.5,130.2"
				/>
		</defs>
		<clipPath id="SVGID_46_">
			<use xlink:href="#SVGID_45_"  style="overflow:visible;"/>
		</clipPath>
		<path class="st22" d="M-204.3,141.1c-0.6,6.5-1.5,22.8-2.7,48.8c-0.6,13.8-4.2,24.1-11,30.9c4.9-0.4,9.2-3.8,13-10.2
			c3.1-5.4,5.1-11.1,5.7-16.9l1.1-15.6c1.1-14,1.5-21.5,1.4-22.5c-1.3-21.9-1.7-37-1.1-45.1C-200.6,114-202.7,124.1-204.3,141.1"/>
	</g>
	<g>
		<defs>
			<path id="SVGID_47_" d="M3.5,130.2c0,70,57.1,126.7,127.4,126.7s127.4-56.7,127.4-126.7S201.2,3.5,130.9,3.5S3.5,60.2,3.5,130.2"
				/>
		</defs>
		<clipPath id="SVGID_48_">
			<use xlink:href="#SVGID_47_"  style="overflow:visible;"/>
		</clipPath>
		<path class="st23" d="M-204.3,140.8c1.6,3.3,4.6,9.4,8.9,18c-0.8-9.6-1.4-17.4-1.9-23.2c-0.8-10.9-1-19.2-0.6-25
			C-200.7,114.1-202.8,124.2-204.3,140.8"/>
	</g>
	<g>
		<defs>
			<path id="SVGID_49_" d="M3.5,130.2c0,70,57.1,126.7,127.4,126.7s127.4-56.7,127.4-126.7S201.2,3.5,130.9,3.5S3.5,60.2,3.5,130.2"
				/>
		</defs>
		<clipPath id="SVGID_50_">
			<use xlink:href="#SVGID_49_"  style="overflow:visible;"/>
		</clipPath>
		<path class="st24" d="M196.9,36.6c-11.5-6.2-21.5-9-30-8.4c-12,0.9-22,9.6-30.1,25.9C122,84,120.9,115,133.6,147
			c12.6,32.1,28.5,41.6,47.6,28.7c19.1-12.9,32.4-28,39.9-45c8.9-20.1,11.8-38.4,8.9-54.6c-1.7-8.1-5.6-15.8-12-23.1
			C212.3,46.6,205.3,41.2,196.9,36.6 M197.3,93.2c-0.1,8.6-2.8,18.6-8,30c-5.2,11.6-11,20.3-17.4,25.9c3.1-11.7,4.5-24.4,4.3-37.9
			c-0.5-23.3-7.9-40.5-22.4-51.4c10.3-8.4,20.2-8.3,29.9,0.3C192.8,68.5,197.4,79.5,197.3,93.2"/>
	</g>
	<g>
		<defs>
			<path id="SVGID_51_" d="M3.5,130.2c0,70,57.1,126.7,127.4,126.7s127.4-56.7,127.4-126.7S201.2,3.5,130.9,3.5S3.5,60.2,3.5,130.2"
				/>
		</defs>
		<clipPath id="SVGID_52_">
			<use xlink:href="#SVGID_51_"  style="overflow:visible;"/>
		</clipPath>
		<path class="st25" d="M200.6,92.2c-1.3-13.2-6.9-23.9-16.7-32.3c-9.9-8.4-19.9-8.3-30.2,0.1c-14.9,37.1-19.1,61.2-12.7,72.2
			c6.4,11,10.6,17.8,12.7,20.5c14.5,3.1,26.2-2.9,35.2-18C198.1,119.5,201.9,105.4,200.6,92.2"/>
	</g>
	<g>
		<defs>
			<path id="SVGID_53_" d="M3.5,130.2c0,70,57.1,126.7,127.4,126.7s127.4-56.7,127.4-126.7S201.2,3.5,130.9,3.5S3.5,60.2,3.5,130.2"
				/>
		</defs>
		<clipPath id="SVGID_54_">
			<use xlink:href="#SVGID_53_"  style="overflow:visible;"/>
		</clipPath>
		<path class="st26" d="M79.8,65.2c-10,10.3-14.7,23.4-14.1,39.5c0.5,13.4,4.1,26.4,10.6,39.1c1,1.8,2,3.7,2.8,5.6
			c7.5,16.5,19.7,27.1,36.5,31.8c7.9,2.3,15.5,1.6,22.8-2.1c14-7.1,23.1-18.8,27.3-35.4c18.2-40.5,12.4-68.9-17.3-85
			c-1.2-0.6-2.4-1.3-3.6-1.9c-13.3-7.2-27.3-8.8-41.9-4.9C93.7,54.6,86,58.9,79.8,65.2"/>
	</g>
	<g>
		<defs>
			<path id="SVGID_55_" d="M3.5,130.2c0,70,57.1,126.7,127.4,126.7s127.4-56.7,127.4-126.7S201.2,3.5,130.9,3.5S3.5,60.2,3.5,130.2"
				/>
		</defs>
		<clipPath id="SVGID_56_">
			<use xlink:href="#SVGID_55_"  style="overflow:visible;"/>
		</clipPath>
		<path class="st27" d="M85.7,63.1c3.4-1.8,8.3-3.8,14.7-5.8c6.4-2,12.9-3.1,19.7-3.2c6.7-0.1,11.5-0.1,14.4-0.1
			c-4.5-1.4-9-2.1-13.6-2.4c-5.3,0-10.4,0.6-15.6,1.7c-5.2,1.2-10,3.2-14.4,6.1C89.1,60.6,87.3,61.8,85.7,63.1"/>
	</g>
	<g>
		<defs>
			<path id="SVGID_57_" d="M3.5,130.2c0,70,57.1,126.7,127.4,126.7s127.4-56.7,127.4-126.7S201.2,3.5,130.9,3.5S3.5,60.2,3.5,130.2"
				/>
		</defs>
		<clipPath id="SVGID_58_">
			<use xlink:href="#SVGID_57_"  style="overflow:visible;"/>
		</clipPath>
		<path class="st28" d="M166.5,116.2c0-0.8-0.6-1.3-1.7-1.6c-1-0.3-2,0.1-3,1.1l0.1,0.1C163.4,115.6,164.9,115.7,166.5,116.2"/>
	</g>
	<g>
		<defs>
			<path id="SVGID_59_" d="M3.5,130.2c0,70,57.1,126.7,127.4,126.7s127.4-56.7,127.4-126.7S201.2,3.5,130.9,3.5S3.5,60.2,3.5,130.2"
				/>
		</defs>
		<clipPath id="SVGID_60_">
			<use xlink:href="#SVGID_59_"  style="overflow:visible;"/>
		</clipPath>
		<path class="st29" d="M117.6,113.9c-1.3-0.1-2.4,0.3-3.1,1.3c-0.4,0.4-0.6,0.8-0.7,1.1c0,0.4,0.2,0.4,0.6,0
			c0.9-0.7,2.1-1.1,3.6-1.1c1.1,0,2,0.2,2.6,0.6c0.1,0.1,0.1,0,0.1-0.1C120,114.5,119,114,117.6,113.9"/>
	</g>
	<g>
		<defs>
			<path id="SVGID_61_" d="M3.5,130.2c0,70,57.1,126.7,127.4,126.7s127.4-56.7,127.4-126.7S201.2,3.5,130.9,3.5S3.5,60.2,3.5,130.2"
				/>
		</defs>
		<clipPath id="SVGID_62_">
			<use xlink:href="#SVGID_61_"  style="overflow:visible;"/>
		</clipPath>
		<path class="st30" d="M122.1,92.1c-0.1-0.7-0.5-1-1.1-0.9c-2.3,0.3-4.1,1.2-5.4,2.9c-1.8,2.3-2.1,4.6-0.9,7c0,0.1,0,0.1,0.1,0
			l0.3-2.4c0.1-1,0.6-2.1,1.6-3.4c0.9-1,2.4-1.8,4.6-2.1C121.9,93,122.2,92.7,122.1,92.1"/>
	</g>
	<g>
		<defs>
			<path id="SVGID_63_" d="M3.5,130.2c0,70,57.1,126.7,127.4,126.7s127.4-56.7,127.4-126.7S201.2,3.5,130.9,3.5S3.5,60.2,3.5,130.2"
				/>
		</defs>
		<clipPath id="SVGID_64_">
			<use xlink:href="#SVGID_63_"  style="overflow:visible;"/>
		</clipPath>
		<path class="st31" d="M166.5,101.6c-0.8-5.2-3-8.2-6.7-8.7c-0.7-0.1-1.1,0.2-1.4,0.9c-0.3,0.6-0.1,0.9,0.6,1
			c3.1,0.2,5.5,2.5,7.2,7C166.4,102,166.5,101.9,166.5,101.6"/>
	</g>
	<g>
		<defs>
			<path id="SVGID_65_" d="M3.5,130.2c0,70,57.1,126.7,127.4,126.7s127.4-56.7,127.4-126.7S201.2,3.5,130.9,3.5S3.5,60.2,3.5,130.2"
				/>
		</defs>
		<clipPath id="SVGID_66_">
			<use xlink:href="#SVGID_65_"  style="overflow:visible;"/>
		</clipPath>
		<path class="st32" d="M153.8,101.6c-0.7,1.3-1,2.8-1.1,4.3c-0.1,1,0.1,2,0.4,2.9c0.4,1.5,0.9,2.8,1.7,3.9s1.7,1.9,2.7,2.4
			c1.1,0.4,2.1,0.5,3.2,0.4c1.2-0.1,2.2-0.8,3-2.1c0.3-0.5,0.4-0.9,0.5-1.4c0.4-1.3,0.6-2.7,0.6-4.2c0-1.6-0.4-3.1-1.1-4.4
			c-0.6-1.2-1.4-2.2-2.3-2.9c-1-0.8-2.1-1.4-3.3-1.7c-1.2-0.2-2.4,0.2-3.3,1.3C154.4,100.5,154.1,101,153.8,101.6"/>
	</g>
	<g>
		<defs>
			<path id="SVGID_67_" d="M3.5,130.2c0,70,57.1,126.7,127.4,126.7s127.4-56.7,127.4-126.7S201.2,3.5,130.9,3.5S3.5,60.2,3.5,130.2"
				/>
		</defs>
		<clipPath id="SVGID_68_">
			<use xlink:href="#SVGID_67_"  style="overflow:visible;"/>
		</clipPath>
		<path class="st33" d="M157,104c0.9,0,1.6,0.5,2.1,1.4c0.7,0.9,1,2,0.9,3.3c0,1.3-0.3,2.5-0.9,3.4c-0.7,0.9-1.4,1.3-2.3,1.3
			c-0.8,0-1.6-0.5-2.1-1.4c-0.7-0.9-1-2-1-3.3s0.3-2.4,1-3.3C155.3,104.5,156,104,157,104"/>
	</g>
	<g>
		<defs>
			<path id="SVGID_69_" d="M3.5,130.2c0,70,57.1,126.7,127.4,126.7s127.4-56.7,127.4-126.7S201.2,3.5,130.9,3.5S3.5,60.2,3.5,130.2"
				/>
		</defs>
		<clipPath id="SVGID_70_">
			<use xlink:href="#SVGID_69_"  style="overflow:visible;"/>
		</clipPath>
		<path class="st34" d="M125,97.2c-1.3,0.3-2.6,1-3.7,1.9c-1,0.8-1.9,1.8-2.5,3.2c-0.8,1.5-1.2,3.1-1.2,4.9c0,1.6,0.2,3.1,0.6,4.6
			c0.1,0.5,0.3,1,0.6,1.5c0.8,1.4,1.9,2.2,3.3,2.3c1.2,0.2,2.4,0,3.5-0.4c1.2-0.5,2.2-1.4,3-2.7c0.8-1.2,1.5-2.7,1.9-4.3
			c0.4-1,0.5-2.1,0.4-3.2c-0.1-1.7-0.5-3.3-1.3-4.8c-0.2-0.6-0.6-1.2-1-1.6C127.6,97.4,126.3,96.9,125,97.2"/>
	</g>
	<g>
		<defs>
			<path id="SVGID_71_" d="M3.5,130.2c0,70,57.1,126.7,127.4,126.7s127.4-56.7,127.4-126.7S201.2,3.5,130.9,3.5S3.5,60.2,3.5,130.2"
				/>
		</defs>
		<clipPath id="SVGID_72_">
			<use xlink:href="#SVGID_71_"  style="overflow:visible;"/>
		</clipPath>
		<path class="st35" d="M126.9,104.3c-0.8-1-1.7-1.6-2.7-1.6s-1.8,0.5-2.6,1.6c-0.7,1.1-1,2.3-1,3.7c0,1.5,0.3,2.8,1,3.7
			c0.7,1.1,1.5,1.6,2.6,1.6c1,0,1.9-0.5,2.6-1.6c0.8-1,1.1-2.2,1.1-3.7C127.9,106.6,127.6,105.3,126.9,104.3"/>
	</g>
	<g>
		<defs>
			<path id="SVGID_73_" d="M3.5,130.2c0,70,57.1,126.7,127.4,126.7s127.4-56.7,127.4-126.7S201.2,3.5,130.9,3.5S3.5,60.2,3.5,130.2"
				/>
		</defs>
		<clipPath id="SVGID_74_">
			<use xlink:href="#SVGID_73_"  style="overflow:visible;"/>
		</clipPath>
		<path class="st36" d="M127.2,165.7c2-0.5,3.7-1.4,5-2.7c2-2.1,3.7-5.3,5.2-9.6c-3.8,0.2-7.8-0.3-11.9-1.4c-4.1-1-7.5-2.5-10.3-4.4
			c-0.5,1.4-0.7,3.8-0.7,7c0.1,2.4,0.7,4.5,1.7,6.4c1.3,2.3,3.1,3.8,5.4,4.6C123.3,166.1,125.2,166.2,127.2,165.7"/>
	</g>
	<g>
		<defs>
			<path id="SVGID_75_" d="M3.5,130.2c0,70,57.1,126.7,127.4,126.7s127.4-56.7,127.4-126.7S201.2,3.5,130.9,3.5S3.5,60.2,3.5,130.2"
				/>
		</defs>
		<clipPath id="SVGID_76_">
			<use xlink:href="#SVGID_75_"  style="overflow:visible;"/>
		</clipPath>
		<path class="st37" d="M129.2,165c-0.5-1.9-1.2-3.5-2.1-4.9c-1.4-2.4-3.4-3.9-5.9-4.4c-2.6-0.7-4.7,0-6.3,1.9
			c1.1,4.2,3.3,6.9,6.7,8C123.9,166.5,126.4,166.3,129.2,165"/>
	</g>
	<g>
		<defs>
			<path id="SVGID_77_" d="M3.5,130.2c0,70,57.1,126.7,127.4,126.7s127.4-56.7,127.4-126.7S201.2,3.5,130.9,3.5S3.5,60.2,3.5,130.2"
				/>
		</defs>
		<clipPath id="SVGID_78_">
			<use xlink:href="#SVGID_77_"  style="overflow:visible;"/>
		</clipPath>
		<path class="st38" d="M124.1,157.7c3.9,0.8,6.4,1,7.6,0.6l1.4-5c-7-0.5-12.9-2.4-17.9-5.7c-0.4,1.9-0.6,3.6-0.6,5
			C118,155.4,121.2,157.1,124.1,157.7"/>
	</g>
	<g>
		<defs>
			<path id="SVGID_79_" d="M3.5,130.2c0,70,57.1,126.7,127.4,126.7s127.4-56.7,127.4-126.7S201.2,3.5,130.9,3.5S3.5,60.2,3.5,130.2"
				/>
		</defs>
		<clipPath id="SVGID_80_">
			<use xlink:href="#SVGID_79_"  style="overflow:visible;"/>
		</clipPath>
		<path class="st39" d="M127.3,171.1c1-0.7,1.1-1,0.4-0.9c-2.7,0.5-5.2,0.3-7.7-0.6c-2.6-1-4.6-2.5-6.2-4.7c1.4,5.8,5,8.3,10.6,7.3
			C125.5,172.1,126.5,171.7,127.3,171.1"/>
	</g>
	<g>
		<defs>
			<path id="SVGID_81_" d="M3.5,130.2c0,70,57.1,126.7,127.4,126.7s127.4-56.7,127.4-126.7S201.2,3.5,130.9,3.5S3.5,60.2,3.5,130.2"
				/>
		</defs>
		<clipPath id="SVGID_82_">
			<use xlink:href="#SVGID_81_"  style="overflow:visible;"/>
		</clipPath>
		<path class="st40" d="M144.9,181.1c-0.1-24.4-1.6-36.7-4.6-37.1c-3,22-1.3,43.5,5.2,64.5c3.9,12.9,11.9,22.3,24,28.2
			C153.1,224,144.9,205.5,144.9,181.1 M305.8,222c-1-1-2.1-1.1-3.4-0.4c-3.3,1.7-6.2,4.1-8.6,7c-1.7,2.2-2.7,4.7-3,7.5l0,0v0.1
			c0.8,1.3,1.9,1.9,3.3,1.6c0.4,0.1,0.8,0,1.1-0.2c0.5-0.3,0.9-0.7,1.3-1.2c0.5-0.5,0.9-1.1,1.4-1.7c1.2-1.8,2.8-3.1,4.8-4
			c1.2-0.5,2.1-1.3,2.8-2.3C306.9,226.4,307,224.2,305.8,222"/>
	</g>
	<g>
		<defs>
			<path id="SVGID_83_" d="M3.5,130.2c0,70,57.1,126.7,127.4,126.7s127.4-56.7,127.4-126.7S201.2,3.5,130.9,3.5S3.5,60.2,3.5,130.2"
				/>
		</defs>
		<clipPath id="SVGID_84_">
			<use xlink:href="#SVGID_83_"  style="overflow:visible;"/>
		</clipPath>
		<path class="st41" d="M302.4,221.6c1.3-0.7,2.4-0.5,3.4,0.4c-1.9-7.3-8.6-13.6-20.1-19c-14-6.5-26.1-9.4-36.3-8.9
			s-19.9,3.9-29,10.1c-1.7,1.2-3.5,2.4-5.2,3.6c-0.5,0.3-1,0.6-1.5,0.9c-3.5,1.9-7.5,3-12.1,3.4c-6.4,0.6-11.3-0.4-14.7-3
			c-1.6-1.1-3-2.4-4.4-3.7c-2.1-2.1-3.8-4.4-5.2-6.8c-2.2-4-3.6-8.4-4.1-13.4c-0.9-8-1.3-17.9-1.3-29.6v-4c0.1-6-0.6-11.8-2-17.3
			c-1.3-5.5-3.1-9.7-5.4-12.6c-4.1-5.2-10.2-7.6-18.2-7.3c-6.7,6.6-8.7,16.4-6,29.5c3,0.3,4.5,12.7,4.6,37.1s8.3,42.9,24.6,55.6
			c0.5,0.3,1.1,0.5,1.6,0.7c0.1,0,0.2,0.1,0.2,0.1l0,0c22.7,6.1,43,2.4,60.9-11.1c10.6-7.9,23.1-9.8,37.5-5.7
			c5.7,1.7,10.6,4.8,14.5,9.2c2.4,2.6,4.5,4.7,6.5,6.3V236l0,0c0,0,0,0,0,0.1c0.2-2.8,1.2-5.3,3-7.5
			C296.2,225.7,299.1,223.3,302.4,221.6"/>
	</g>
	<g>
		<defs>
			<path id="SVGID_85_" d="M3.5,130.2c0,70,57.1,126.7,127.4,126.7s127.4-56.7,127.4-126.7S201.2,3.5,130.9,3.5S3.5,60.2,3.5,130.2"
				/>
		</defs>
		<clipPath id="SVGID_86_">
			<use xlink:href="#SVGID_85_"  style="overflow:visible;"/>
		</clipPath>
		<path class="st42" d="M146.3,114.5c6.4,1.2,11,3.4,13.9,6.4c2.2,2.4,4.1,6.3,5.7,11.9c1.3,4.7,2.1,9.8,2.4,15.5v16.3
			c0,6.7,0.2,12,0.7,16c0.6,5.8,1.8,11,3.6,15.5c4.2,10.9,11.2,17.4,21,19.5c7.1,1.5,13.7,0.7,19.7-2.4c4.5-2.5,8.8-5.3,12.9-8.5
			c4-3.1,8.4-5.3,13.3-6.5c5.5-1.3,10.9-2.6,16.4-3.7c-4.7-0.6-9.4-0.6-14,0.2c-7.1,1-13.5,3.7-19.2,8.1c-3,2.3-6.1,4.4-9.3,6.3
			c-3.4,1.7-7.3,2.8-11.7,3.2c-6.4,0.6-11.3-0.4-14.7-3c-1.6-1.1-3-2.4-4.4-3.7c-2.1-2.1-3.8-4.4-5.2-6.8c-2.2-4-3.6-8.4-4.1-13.4
			c-0.9-8-1.3-17.9-1.3-29.6v-4c0.1-6-0.6-11.8-2-17.3c-1.3-5.5-3.1-9.7-5.4-12.6C160.4,116.6,154.3,114.2,146.3,114.5"/>
	</g>
	<g>
		<defs>
			<path id="SVGID_87_" d="M3.5,130.2c0,70,57.1,126.7,127.4,126.7s127.4-56.7,127.4-126.7S201.2,3.5,130.9,3.5S3.5,60.2,3.5,130.2"
				/>
		</defs>
		<clipPath id="SVGID_88_">
			<use xlink:href="#SVGID_87_"  style="overflow:visible;"/>
		</clipPath>
		<path class="st43" d="M93.8,150.3L93.8,150.3L93.8,150.3L93.8,150.3 M-17.9,34.9c-15.7,16.4-23.7,35.9-23.9,58.6
			c-0.2,22.3,3.2,44.1,10,65.4c7.1,22,20.8,38.6,41.1,49.8c12.4,6.8,25.6,9.2,39.7,7.2c18.3-10.1,32.5-30,42.7-59.4
			c0-0.1,0.1-0.2,0.1-0.3l0,0l0.1-0.3l0,0c0.6-1.6,1.1-3.3,1.7-5l0.2-0.5c6.1-29.5,7-62,2.9-97.6C86.4,31.9,69.4,20.6,45.7,19
			C22.8,17.5,1.6,22.8-17.9,34.9 M35.8,58c6.8-2.3,13.7-2.7,20.7-1.3c7.3,1.4,12.6,5.5,15.8,12.3c2.5,5.2,3.6,10.8,3.3,16.6
			c-0.4,7.5-1,15-1.9,22.4c-0.7,5.5-1.2,11.1-1.7,16.6c-0.5,5.6-0.9,11.1-1.4,16.7c-0.4,5.3-1.2,10.6-2.4,15.8
			c0.1-0.1,0.1-0.2,0.2-0.2c-0.5,2-1,4-1.6,5.8l-1,2.9c-6,16-16.4,20.6-31.3,13.8c-10.6-4.9-18.9-13.4-25-25.5
			C4.1,142.8,3.2,123.2,7,95.2c2-6.2,4.3-12.3,7-18.3c1-2.3,2.3-4.5,3.9-6.5C22.6,64.5,28.5,60.3,35.8,58"/>
	</g>
	<g>
		<defs>
			<path id="SVGID_89_" d="M3.5,130.2c0,70,57.1,126.7,127.4,126.7s127.4-56.7,127.4-126.7S201.2,3.5,130.9,3.5S3.5,60.2,3.5,130.2"
				/>
		</defs>
		<clipPath id="SVGID_90_">
			<use xlink:href="#SVGID_89_"  style="overflow:visible;"/>
		</clipPath>
		<path class="st44" d="M91.9,156L91.9,156L91.9,156l-0.1,0.2l0,0l0,0C91.9,156.1,91.9,156.1,91.9,156 M-41.8,93.5
			c0.2-22.7,8.2-42.2,23.9-58.6C-33.6,47-43.5,62.8-47.3,82.3c-4.4,22.2-4.1,44.4,0.8,66.5c5.1,22.7,16.3,41.6,33.8,56.9
			C5.8,222,26.4,225.4,49,215.9c-14,2-27.3-0.4-39.7-7.2c-20.2-11.1-33.9-27.7-41.1-49.8C-38.6,137.7-42,115.9-41.8,93.5"/>
	</g>
	<g>
		<defs>
			<path id="SVGID_91_" d="M3.5,130.2c0,70,57.1,126.7,127.4,126.7s127.4-56.7,127.4-126.7S201.2,3.5,130.9,3.5S3.5,60.2,3.5,130.2"
				/>
		</defs>
		<clipPath id="SVGID_92_">
			<use xlink:href="#SVGID_91_"  style="overflow:visible;"/>
		</clipPath>
		<path class="st45" d="M8.1,117.4c-1.4-7.3-1.8-14.7-1.2-22.2c-3.8,28-2.9,47.5,2.6,58.6c6.1,12.1,14.5,20.6,25,25.5
			c14.9,6.8,25.3,2.2,31.3-13.8l1-2.9c0.6-1.8,1.1-3.7,1.6-5.8c-0.1,0.1-0.1,0.2-0.2,0.2c-3.7,5.4-8.9,8.4-15.4,9
			c-2,0.2-3.9,0.1-5.8-0.5c-7-2-13.2-5.7-18.4-11c-5.1-5.2-9.5-10.9-13.1-17.1C12.1,131.2,9.5,124.5,8.1,117.4"/>
	</g>
	<g>
		<defs>
			<path id="SVGID_93_" d="M3.5,130.2c0,70,57.1,126.7,127.4,126.7s127.4-56.7,127.4-126.7S201.2,3.5,130.9,3.5S3.5,60.2,3.5,130.2"
				/>
		</defs>
		<clipPath id="SVGID_94_">
			<use xlink:href="#SVGID_93_"  style="overflow:visible;"/>
		</clipPath>
		<path class="st46" d="M56.5,56.6c-7-1.4-13.9-1-20.7,1.3c-7.2,2.4-13.2,6.5-17.8,12.5c-1.6,2-2.9,4.2-3.9,6.5
			C11.3,82.9,9,89,7,95.2c-0.7,7.5-0.3,14.9,1.2,22.2c1.4,7.1,3.9,13.8,7.5,20.1c3.6,6.2,8,12,13.1,17.1c5.2,5.3,11.3,9,18.4,11
			c1.9,0.5,3.8,0.7,5.8,0.5c6.6-0.7,11.7-3.7,15.4-9c1.2-5.2,2-10.4,2.4-15.8c0.4-5.6,0.9-11.1,1.4-16.7c0.4-5.6,1-11.1,1.7-16.6
			c0.9-7.4,1.5-14.9,1.9-22.4c0.3-5.9-0.9-11.4-3.3-16.6C69.1,62.1,63.8,58.1,56.5,56.6"/>
	</g>
	<g>
		<defs>
			<path id="SVGID_95_" d="M3.5,130.2c0,70,57.1,126.7,127.4,126.7s127.4-56.7,127.4-126.7S201.2,3.5,130.9,3.5S3.5,60.2,3.5,130.2"
				/>
		</defs>
		<clipPath id="SVGID_96_">
			<use xlink:href="#SVGID_95_"  style="overflow:visible;"/>
		</clipPath>
		<path class="st47" d="M-12.5,30.2c-2.4,1.6-4.6,3.4-6.7,5.4l1.3-0.7C1.6,22.8,22.8,17.5,45.7,19c23.8,1.6,40.7,12.9,50.9,33.9
			c-4.7-24.9-20.2-38-46.8-39.5C26.9,11.8,6.1,17.4-12.5,30.2"/>
	</g>
</g>
<g>
	<g>
		<defs>
			<rect id="SVGID_97_" x="2" y="2" width="257.9" height="256.4"/>
		</defs>
		<clipPath id="SVGID_98_">
			<use xlink:href="#SVGID_97_"  style="overflow:visible;"/>
		</clipPath>
		<ellipse class="st48" cx="130.9" cy="130.2" rx="127.4" ry="126.7"/>
	</g>
</g>
</svg>
