<?xml version="1.0" encoding="UTF-8"?>
<svg id="Layer_1" data-name="Layer 1" xmlns="http://www.w3.org/2000/svg" viewBox="0 0 745.71 747.3">
  <defs>
    <style>
      .cls-1 {
        fill: #faab5b;
      }

      .cls-2 {
        fill: #fff;
      }
    </style>
  </defs>
  <path class="cls-1" d="M672.19,606.91c-73.06,155.92-221.61,161.19-368.26,115.06-134.16-13.72-225.09-126.48-261.16-249.23C-34.06,318.55-10.83,196.72,140.53,105.83,285.05,20.55,354.26-48.76,522.18,44.53c78.28,43.53,136.12,112.14,191.1,181.07,28.78,36.02,38.41,77.92,28.89,125.7-30.26,84.97-26.66,175.32-69.98,255.64v-.02Z"/>
  <g>
    <path class="cls-2" d="M587.87,264.82h-152.55c-3.15,7.96-7.46,15.42-12.93,22.55h152.22v192.18H211.14v-165.98c-8.62-5.63-16.09-12.44-22.55-19.73v224.51c0,4.97,3.98,9.12,8.95,9.12h157.86l-10.94,45.49h-26.7c-1.83,0-3.48,1.5-3.48,3.65v15.48c0,1.99,1.66,3.65,3.48,3.65h150.06c1.99,0,3.65-1.66,3.65-3.65v-15.48c0-2.15-1.66-3.65-3.65-3.65h-26.53l-11.11-45.49h157.69c5.14,0,9.28-4.15,9.28-9.28v-244.25c0-4.97-4.15-9.12-9.28-9.12ZM395.36,513.05h-4.97c-5.31,0-9.45-4.15-9.45-9.29s4.15-9.12,9.45-9.12h4.97c5.14,0,9.29,4.15,9.29,9.12s-4.15,9.29-9.29,9.29Z"/>
    <path class="cls-2" d="M407.89,430.49v19.47c0,4.56,3.7,8.27,8.26,8.27h110.39c4.55,0,8.26-3.71,8.26-8.27v-19.47c0-19.16-12.15-36.4-30.23-42.93l-2.22-.8-1.93,1.35c-8.54,5.94-18.57,9.09-29.02,9.09s-20.53-3.14-29.02-9.09l-1.92-1.34-2.21.78c-18.16,6.4-30.36,23.65-30.36,42.94Z"/>
    <path class="cls-2" d="M471.35,383.65c20.7,0,37.48-16.78,37.48-37.49s-16.78-37.48-37.48-37.48-37.48,16.78-37.48,37.48,16.78,37.49,37.48,37.49Z"/>
    <path class="cls-2" d="M302.72,315.98c14.2,0,27.75-2.02,40.3-5.53l51.91,26.58c5.08,2.61,10.55-2.78,8.03-7.89l-18.9-38.41c20.3-15.25,32.85-36.18,32.85-59.28,0-46.69-51.13-84.54-114.2-84.54s-114.21,37.85-114.21,84.54,51.14,84.53,114.21,84.53ZM341.11,280.66h-76.78c-4.96,0-8.99-4.02-8.99-8.99s4.03-9,8.99-9h76.78c4.97,0,9,4.02,9,9s-4.03,8.99-9,8.99ZM264.33,182.23h76.78c4.97,0,9,4.02,9,9s-4.03,8.99-9,8.99h-76.78c-4.96,0-8.99-4.02-8.99-8.99s4.03-9,8.99-9ZM242.98,222.46h119.49c4.96,0,8.99,4.02,8.99,8.99s-4.03,8.99-8.99,8.99h-119.49c-4.97,0-8.99-4.03-8.99-8.99s4.02-8.99,8.99-8.99Z"/>
    <path class="cls-2" d="M254.19,345.14c-7.23,0-13.1,5.87-13.1,13.1s5.87,13.1,13.1,13.1,13.1-5.87,13.1-13.1-5.87-13.1-13.1-13.1Z"/>
    <path class="cls-2" d="M367.93,350.05h-79.4c-4.52,0-8.19,3.67-8.19,8.19s3.67,8.19,8.19,8.19h79.4c4.52,0,8.19-3.67,8.19-8.19s-3.66-8.19-8.19-8.19Z"/>
    <path class="cls-2" d="M254.19,386.79c-7.23,0-13.1,5.87-13.1,13.1s5.87,13.1,13.1,13.1,13.1-5.87,13.1-13.1-5.87-13.1-13.1-13.1Z"/>
    <path class="cls-2" d="M367.93,391.71h-79.4c-4.52,0-8.19,3.67-8.19,8.19s3.67,8.19,8.19,8.19h79.4c4.52,0,8.19-3.67,8.19-8.19s-3.66-8.19-8.19-8.19Z"/>
    <path class="cls-2" d="M254.19,428.45c-7.23,0-13.1,5.87-13.1,13.1s5.87,13.1,13.1,13.1,13.1-5.87,13.1-13.1-5.87-13.1-13.1-13.1Z"/>
    <path class="cls-2" d="M367.93,433.37h-79.4c-4.52,0-8.19,3.67-8.19,8.19s3.67,8.19,8.19,8.19h79.4c4.52,0,8.19-3.67,8.19-8.19s-3.66-8.19-8.19-8.19Z"/>
  </g>
</svg>