<?xml version="1.0" encoding="UTF-8"?>
<svg id="Layer_1" data-name="Layer 1" xmlns="http://www.w3.org/2000/svg" viewBox="0 0 745.71 747.3">
  <defs>
    <style>
      .cls-1 {
        fill: #fff;
      }

      .cls-2 {
        fill: #9fc8c3;
      }
    </style>
  </defs>
  <path class="cls-2" d="M672.19,606.91c-73.06,155.92-221.61,161.19-368.26,115.06-134.16-13.72-225.09-126.48-261.16-249.23C-34.06,318.55-10.83,196.72,140.53,105.83,285.05,20.55,354.26-48.76,522.18,44.53c78.28,43.53,136.12,112.14,191.1,181.07,28.78,36.02,38.41,77.92,28.89,125.7-30.26,84.97-26.66,175.32-69.98,255.64v-.02Z"/>
  <g>
    <g>
      <path class="cls-1" d="M272.25,353.3c16.43.14,29.86-12.96,30.01-29.27.14-16.31-13.06-29.65-29.48-29.79-16.43-.14-29.87,12.96-30.01,29.27-.15,16.31,13.06,29.64,29.48,29.79Z"/>
      <path class="cls-1" d="M341.54,322.99l-11.88,14.55c-8.39,10.28-20.12,17.75-33.03,21.06l-3.47.88c-5.11,1.3-10.34,1.97-15.67,1.94h-7.19s-.09-.01-.15-.01c-8.98,0-17.89,1.33-26.47,3.96-19.41,5.95-36.39,18.4-47.8,35.08l-7.95,11.61c-4.22,6.18-2.61,14.59,3.61,18.79,2.35,1.58,5.01,2.34,7.65,2.34,4.37,0,8.65-2.07,11.28-5.93l7.95-11.61c6.45-9.4,15.46-16.84,25.83-21.55v55.35s1.09,31.56,1.09,31.56c.1,2.94-.94,5.75-2.93,7.93l-32.01,35.06c-5.78,6.32-5.29,16.09,1.08,21.83,2.98,2.68,6.73,3.99,10.45,3.99,4.24,0,8.47-1.71,11.54-5.07l32.01-35.06c7.46-8.16,11.36-18.73,10.98-29.74l-.68-19.76,27.12,25.58c3.11,2.95,4.29,7.48,3,11.55l-10.34,32.38c-2.6,8.14,1.95,16.83,10.15,19.41,1.56.49,3.14.73,4.7.73,6.61,0,12.74-4.22,14.84-10.8l10.33-32.38c4.87-15.26.46-32.25-11.23-43.29l-22.36-21.09v-57.13l1.42-.36c18.54-4.72,35.38-15.46,47.42-30.22l11.88-14.55c4.74-5.81,3.84-14.32-2.01-19.03-5.85-4.7-14.43-3.81-19.16,2Z"/>
      <path class="cls-1" d="M485.97,353.3c16.43-.15,29.63-13.48,29.48-29.79-.14-16.3-13.57-29.41-30-29.27-16.43.14-29.63,13.48-29.48,29.79.14,16.3,13.57,29.41,30,29.27Z"/>
      <path class="cls-1" d="M570.28,412.04l-7.95-11.61c-11.42-16.68-28.39-29.13-47.8-35.08-8.58-2.62-17.49-3.96-26.48-3.96h-7.33c-5.34.03-10.56-.63-15.67-1.93l-3.46-.88c-12.91-3.3-24.64-10.77-33.04-21.06l-11.88-14.55c-4.74-5.81-13.31-6.7-19.17-2-5.84,4.71-6.74,13.22-2.01,19.03l11.88,14.55c12.05,14.76,28.89,25.5,47.42,30.22l1.42.36v57.13l-22.36,21.09c-11.69,11.03-16.1,28.03-11.23,43.29l10.34,32.38c2.1,6.58,8.23,10.8,14.84,10.8,1.56,0,3.14-.23,4.71-.73,8.2-2.58,12.74-11.27,10.14-19.41l-10.33-32.38c-1.3-4.06-.12-8.6,3-11.55l27.13-25.58-.68,19.76c-.38,11.01,3.52,21.57,10.97,29.74l32.01,35.06c3.07,3.36,7.3,5.07,11.55,5.07,3.73,0,7.47-1.31,10.45-3.99,6.37-5.74,6.86-15.51,1.09-21.83l-32.01-35.06c-1.99-2.18-3.03-4.99-2.93-7.93l1.08-31.56v-55.35c10.38,4.71,19.39,12.14,25.83,21.55l7.95,11.61c2.64,3.85,6.92,5.93,11.28,5.93,2.64,0,5.3-.76,7.65-2.34,6.22-4.19,7.84-12.6,3.61-18.79Z"/>
    </g>
    <g>
      <path class="cls-1" d="M381.3,205.14l-.36-.2c-1.16-.64-2.56-.64-3.71.01l-.32.18c-1.12.63-1.84,1.79-1.91,3.07l-2.78,55.32v.68c.21,3.74,3.43,6.67,7.2,6.47,3.84-.2,6.72-3.4,6.51-7.15l-2.71-55.3c-.06-1.29-.79-2.46-1.93-3.09Z"/>
      <path class="cls-1" d="M345.11,236.7c.52,1.02,1.73,1.54,2.86,1.18,1.25-.4,1.94-1.74,1.53-2.98l-17.69-54c-.11-.32-.25-.68-.41-.99-1.72-3.36-5.86-4.7-9.25-2.98-3.38,1.71-4.73,5.82-3.01,9.18l25.96,50.6Z"/>
      <path class="cls-1" d="M361.65,175.45c.68.62.99,1.55.8,2.45l-2.74,13.3c-.73,3.52,3.06,6.25,6.21,4.48l11.88-6.7c.81-.46,1.79-.46,2.6,0l11.89,6.7c3.15,1.78,6.94-.96,6.21-4.48l-2.75-13.29c-.18-.9.12-1.83.81-2.45l10.1-9.17c2.68-2.42,1.22-6.85-2.38-7.25l-13.59-1.5c-.92-.1-1.72-.67-2.1-1.51l-5.66-12.37c-1.5-3.27-6.18-3.27-7.68,0l-5.65,12.36c-.38.83-1.18,1.41-2.1,1.51l-13.59,1.5c-3.61.4-5.06,4.83-2.38,7.25l10.1,9.17Z"/>
      <path class="cls-1" d="M353.85,296.54c2.74,2.59,7.13,2.38,9.67-.41,2.6-2.72,2.4-7.01-.34-9.6l-55.36-50.71c-.96-.88-2.32-1.21-3.58-.86l-.11.03c-1.27.35-2.26,1.33-2.62,2.59v.04c-.37,1.26-.04,2.61.85,3.57l51.09,54.94c.14.14.27.27.41.41Z"/>
      <path class="cls-1" d="M306.76,212.96l-11.41-7.47c-.77-.51-1.22-1.38-1.18-2.3l.61-13.57c.17-3.59-4.02-5.71-6.85-3.46l-10.68,8.47c-.72.57-1.69.73-2.56.4l-12.82-4.78c-3.39-1.26-6.7,2.03-5.42,5.39l4.81,12.71c.32.86.17,1.83-.41,2.55l-8.54,10.6c-2.26,2.81-.13,6.96,3.49,6.8l13.67-.61c.92-.04,1.8.4,2.31,1.17l7.53,11.33c1.99,3,6.62,2.27,7.58-1.19l3.63-13.07c.25-.89.94-1.58,1.84-1.83l13.18-3.61c3.5-.95,4.23-5.55,1.2-7.53Z"/>
      <path class="cls-1" d="M456.71,237.63c-.34-1.28-1.35-2.29-2.64-2.65l-.07-.02c-1.26-.35-2.62-.02-3.58.86l-55.36,50.71c-.14.14-.27.27-.34.41-2.61,2.72-2.4,7.08.34,9.6,2.81,2.59,7.13,2.38,9.74-.41l51.04-54.97c.88-.94,1.21-2.27.87-3.51v-.02Z"/>
      <path class="cls-1" d="M413.12,236.7l25.96-50.6c.15-.3.3-.66.41-.99,1.17-3.59-.8-7.44-4.41-8.6-3.61-1.17-7.49.8-8.67,4.38l-17.69,54c-.36,1.09.12,2.31,1.19,2.84,1.17.59,2.61.13,3.21-1.04Z"/>
      <path class="cls-1" d="M505.9,221.51l-8.53-10.6c-.58-.72-.73-1.68-.41-2.54l4.81-12.72c1.27-3.36-2.04-6.65-5.44-5.38l-12.8,4.78c-.86.32-1.84.17-2.57-.41l-10.68-8.47c-2.83-2.25-7.01-.13-6.85,3.46l.61,13.57c.04.92-.41,1.79-1.18,2.29l-11.41,7.48c-3.02,1.98-2.29,6.57,1.2,7.53l13.17,3.61c.89.24,1.59.94,1.84,1.83l3.64,13.08c.96,3.47,5.59,4.2,7.58,1.2l7.52-11.33c.51-.77,1.39-1.21,2.32-1.17l13.67.61c3.62.17,5.75-3.99,3.48-6.8Z"/>
    </g>
  </g>
</svg>