
<svg xmlns="http://www.w3.org/2000/svg" version="1.1" xmlns:xlink="http://www.w3.org/1999/xlink" preserveAspectRatio="none" x="0px" y="0px" width="374px" height="326px" viewBox="0 0 374 326">
<defs>
<g id="Layer1_0_FILL">
<path fill="#9B6B67" stroke="none" d="
M 339.75 37.95
Q 336.35 34.65 332.6 31.85 324.45 25.8 314.85 21.9 300.3 16 284.45 16.05 256.25 16 237.95 30 221.8 42.2 206.55 71.3 206.5 71.35 206.4 71.45
L 206.15 72.05
Q 206 72.45 206.1 72.85
L 206.1 307.6
Q 206.1 308.45 206.7 309.2 207.3 309.75 208.25 309.8 209.1 309.8 209.75 309.2
L 214.05 305.05
Q 250.75 270.2 268.3 252.25 297.2 222.85 315.8 199.25 325.15 187.35 332.6 176.15 343.1 160.2 349.75 145.5 362.85 117 362.85 91.05 362.85 75.75 356.7 61.8
L 356.6 61.8
Q 350.6 48.35 339.75 37.95
M 332.6 44.3
Q 332.85 44.55 333.15 44.8 342.7 53.9 347.9 65.6 353.25 77.75 353.3 91.05 353.25 115.25 340.95 141.95 337.35 149.75 332.6 158 322.8 174.85 308.25 193.3 290.55 215.8 263.4 243.6 247 260.4 215.6 290.5
L 215.6 74.6
Q 229.25 48.85 243.65 37.85 259.8 25.65 284.45 25.65 298.45 25.65 311.3 30.85 323.3 35.6 332.6 44.3 Z"/>

<path fill="#C29591" stroke="none" d="
M 333.15 44.8
Q 332.85 44.55 332.6 44.3 323.3 35.6 311.3 30.85 298.45 25.65 284.45 25.65 259.8 25.65 243.65 37.85 229.25 48.85 215.6 74.6
L 215.6 290.5
Q 247 260.4 263.4 243.6 290.55 215.8 308.25 193.3 322.8 174.85 332.6 158 337.35 149.75 340.95 141.95 353.25 115.25 353.3 91.05 353.25 77.75 347.9 65.6 342.7 53.9 333.15 44.8 Z"/>

<path fill="#73A09A" stroke="none" d="
M 181.95 27.75
L 181.9 27.7
Q 176.8 22.6 170.3 19.8 163.45 16.9 155.8 16.9
L 155.65 16.9
Q 148.15 16.9 141.3 19.8 134.6 22.6 129.5 27.75 127.65 29.55 126.05 31.7 124.95 29.6 123.55 27.75 120.05 23.3 115.2 20.65 110.45 17.95 105.1 17.2 99.75 16.6 94.5 17.95
L 94.4 17.95
Q 89.1 19.4 84.6 22.8 78.3 27.7 75.6 34.95 67.5 31 58.3 32.05 52 32.7 46.45 35.65
L 46.4 35.65
Q 40.7 38.85 36.55 43.95 32.4 49.1 30.65 55.35 28.95 61.45 29.6 67.7
L 29.6 67.75
Q 30.5 75.2 34.4 81.45 29.1 85.3 25.45 90.75 21.3 96.85 19.75 104.15 18.1 111.55 19.35 118.9
L 19.35 119
Q 20.65 126.65 24.9 133.25
L 24.9 133.3
Q 26.45 135.8 28.4 137.95 29.35 139.05 30.55 140.2 28.55 142.85 27.15 145.7 23.8 152.15 23.2 159.35 22.5 166.7 24.85 173.9 27.15 181.05 32.05 186.75 36.65 192.15 43.2 195.55 49.75 198.9 57.1 199.5 53.6 207 53.6 215.35 53.55 222.75 56.3 229.65 58.95 236.3 63.8 241.55 68.25 246.3 73.8 249.4
L 73.85 249.4
Q 78.85 252.05 84.35 253.2 84.5 257.3 86.1 261.15
L 86.1 261.1
Q 87.7 265.1 90.85 268.2 93.9 271.25 97.9 272.95 102 274.7 106.5 274.7 106.9 274.65 107.3 274.65 107.95 277.85 109.4 280.85
L 109.35 280.85
Q 111.2 284.65 114.35 287.7
L 114.3 287.7
Q 117.8 291.25 122.5 293.2 127.25 295.25 132.4 295.25 133.55 295.15 134.6 295.1 138.7 300.15 144.5 303.15 151.55 306.9 159.55 307 159.6 307 159.65 307
L 161.9 306.85
Q 167.85 306.45 173.2 303.9 178.4 301.45 182.5 297.45 186.95 292.9 189.4 287.2 192 281.15 192 274.5
L 192.3 60.3
Q 192.85 57 192.85 53.85 192.85 49.15 191.7 44.6
L 191.7 44.65
Q 190.1 37.55 185.65 32
L 185.75 32.05
Q 183.9 29.55 181.95 27.75
M 165.4 28.2
Q 169.95 29.9 173.65 33.05
L 173.7 33.1
Q 177.25 36.35 179.7 40.6 182.1 44.95 182.85 49.75 182.8 49.8 182.85 49.85
L 183.15 53.95
Q 183.1 55.05 183.05 55.65 183.05 55.7 182.8 59.15 181.15 67.35 175.3 73.25 171.45 77.1 166.6 79.2 161.35 81.4 155.8 81.4 154.4 81.4 153.35 81.25 153.15 81.2 152.95 81.2 151.6 81.05 150.2 80.8 149.35 80.6 148.65 81.15 147.9 81.6 147.7 82.45
L 146.8 87.25
Q 146.7 87.35 146.65 87.5 146.5 88.25 146.85 88.85
L 146.85 88.9
Q 146.9 89.05 147 89.2 147.25 89.5 147.65 89.8 147.95 90 148.4 90.1 150.35 90.45 152.05 90.65 152.1 90.65 152.15 90.65 154.3 90.85 155.8 90.85 163.45 90.8 170.3 88 176.8 85.1 181.95 80 182.35 79.55 182.8 79.2
L 182.75 109.7
Q 181.8 109.25 180.9 108.9 175.95 106.95 170.75 107.05 165.05 107.05 159.95 109.2 155 111.2 151.1 115.15 147.2 119 145.15 123.95 142.95 129.05 142.95 134.7 142.9 139.6 144.65 144.2 146.25 148.65 149.3 152.35 152.3 156.05 156.4 158.5 160.55 161.1 165.4 162 166.25 162.15 167.05 161.65 167.8 161.15 169 155.25 169.15 154.3 168.6 153.55 168.1 152.85 167.2 152.65 160.75 151.4 156.6 146.4
L 156.6 146.3
Q 152.5 141.3 152.5 134.7 152.5 131 153.9 127.65 155.25 124.35 157.85 121.8 160.35 119.35 163.65 117.9 167.05 116.45 170.75 116.5 174.1 116.5 177.4 117.7 180.3 118.9 182.75 120.95
L 182.45 274.5
Q 182.45 279.2 180.7 283.5
L 180.7 283.4
Q 178.9 287.5 175.8 290.75 172.65 293.85 168.55 295.6 164.35 297.3 159.65 297.4 155.05 297.3 150.9 295.6 146.7 293.85 143.7 290.75 140.45 287.5 138.7 283.4
L 138.7 283.5
Q 136.9 279.15 136.9 274.5 136.9 273.75 137 273 137.7 266.65 141.45 261.55 145.65 255.9 152.3 253.25 153.1 252.85 153.95 252.45 156.8 251.75 159.8 251.75 161 251.75 162.1 251.85
L 162 251.8 164.45 252.15
Q 165.3 252.25 166.05 251.8 166.75 251.25 166.95 250.45
L 168 245.5
Q 168.15 244.55 167.65 243.8 167.15 243.05 166.25 242.85 164.5 242.45 163.05 242.35 161.45 242.2 159.8 242.2 156.8 242.15 153.95 242.65 147.1 244 141.5 247.95 136 251.95 132.4 257.65 131.15 259.8 130 261.95
L 130 262
Q 128.85 264.55 128.2 267.35 127.45 270.8 127.45 274.5 127.45 280.2 129.25 285.35 127.7 285.05 126.15 284.4
L 126.1 284.4
Q 123.2 283.15 121 280.95 118.8 278.65 117.55 275.85 116.25 272.8 116.3 269.55 116.3 269.4 116.3 269.3
L 116.35 265.75
Q 116.3 265 115.95 264.5 115.55 263.9 114.9 263.7 114.2 263.45 113.55 263.6
L 110.2 264.6
Q 109.3 264.85 108.3 265
L 108.45 265
Q 107.1 265.2 106.5 265.2 101.2 265.15 97.5 261.45 97.35 261.25 97.25 261.15 95.65 259.5 94.8 257.5 94.15 255.75 93.9 254 100.95 253.8 107.5 251.05 114.35 248.05 119.8 242.75 125.1 237.3 128.05 230.45 131 223.25 131.1 215.35 131.1 212.7 130.65 209.95 130.65 209.65 130.6 209.35
L 130.5 208.8
Q 138.8 205.95 143.95 198.75 147.45 193.85 148.65 187.8 149.8 181.75 148.35 175.85 148.15 175 147.4 174.5 146.5 174.05 145.7 174.3
L 140.75 175.55
Q 139.8 175.7 139.35 176.55 138.85 177.3 139.1 178.15 140.05 182.1 139.25 186 138.55 190 136.25 193.3 134.1 196.25 130.95 198.15
L 130.9 198.15
Q 127.9 200.05 124.4 200.65 120.85 201.2 117.4 200.5 113.8 199.6 110.8 197.55
L 110.7 197.4
Q 110.25 196.95 109.6 196.85 108.9 196.7 108.4 196.95 107.8 197.15 107.35 197.7
L 104.35 201.8
Q 103.95 202.25 103.9 202.9 103.85 203.45 104.1 204 104.35 204.55 104.85 204.85
L 105.1 205.05
Q 105.15 205.15 105.25 205.2 112.4 210.3 121.15 210.35 121.15 210.65 121.2 210.85 121.25 211.1 121.3 211.3 121.6 213.3 121.6 215.35 121.55 221.25 119.25 226.75 117.05 231.95 113.05 235.95 109 239.95 103.8 242.25 98.3 244.55 92.4 244.55 90.45 244.55 88.7 244.3
L 88.65 244.3
Q 86.95 244.15 85.05 243.6 84.8 243.55 84.6 243.55 76.5 241.3 70.8 235.1 67.15 231.2 65.15 226.15
L 65.15 226.2
Q 63.15 221 63.15 215.35 63.05 208.95 65.7 203.3 68.45 197.4 73.2 193.3
L 75.75 191.1
Q 76.3 190.65 76.45 190 76.55 189.3 76.35 188.7 76.1 188.1 75.5 187.65
L 72.7 185.8
Q 67.4 182.3 64.5 176.85
L 64.5 176.8
Q 61.6 171.35 61.6 165.2 61.6 159.4 64 154.3 65.35 151.75 67.4 149.2 69.9 146.55 72.95 144.45
L 72.95 144.5
Q 80.5 139.45 89.4 139.45 96.1 139.4 102.35 142.45 106.65 144.55 110 147.75 115.55 148.2 118 142.35 113 137 106.45 133.9
L 106.5 133.95
Q 98.35 130 89.4 130 77.45 130 67.65 136.6 65.35 138.2 63.6 139.7 63.35 139.8 63.05 140.05 61.45 141.55 60.4 142.85
L 58.95 144.55
Q 58.55 144.85 58.45 145.25 56.7 147.75 55.55 150.15
L 55.55 150.2
Q 52.05 157.25 52.05 165.2 52 173.8 56.15 181.35 58.75 186.2 62.65 189.95 54.75 190.75 47.5 187
L 47.45 187
Q 42.7 184.6 39.25 180.55 35.55 176.3 33.85 171.05 32.15 165.7 32.7 160.2 33.2 154.85 35.6 150 38 145.25 42.1 141.8 46.3 138.1 51.6 136.45
L 51.55 136.45
Q 53.05 135.95 54.35 135.7 55.6 135.45 57.1 135.3 58 135.2 58.55 134.5 59.1 133.7 59.05 132.85
L 58.5 127.75
Q 58.4 126.8 57.65 126.3 56.95 125.7 56.05 125.85 53.65 126.1 52.45 126.4 52.3 126.4 52.25 126.45 50.5 126.75 48.7 127.4 48.6 127.4 48.55 127.45 42.4 129.45 37.25 133.5 36.35 132.6 35.6 131.75
L 35.55 131.7
Q 33.9 129.85 32.9 128.2
L 32.9 128.15
Q 29.7 123.15 28.7 117.3 27.75 111.75 29 106.25
L 29 106.2
Q 30.15 100.65 33.45 95.95 36.4 91.65 40.6 88.7 43.8 91.5 47.75 93.25 52.3 95.25 57.5 95.5 62.85 95.75 67.95 94
L 67.9 94
Q 73.2 92.15 77.45 88.3 78.15 87.7 78.2 86.85 78.2 85.9 77.65 85.2
L 74.15 81.4
Q 73.55 80.7 72.65 80.7 71.7 80.65 71.05 81.3 68.25 83.8 64.8 85.05 61.45 86.15 57.9 86 53 85.7 49.05 83.2 48.9 83.05 48.8 82.95
L 47.45 81.95 47.4 81.95
Q 46.35 81.15 45.2 80 45 79.6 44.7 79.4 39.9 73.95 39.1 66.7 38.55 62.2 39.75 58 41.05 53.55 44 49.9 46.9 46.2 50.9 44.05 54.8 41.95 59.35 41.45
L 59.3 41.5
Q 64.9 40.9 69.9 42.85 79.9 47.1 84.6 38 86.35 33.45 90.45 30.35 93.35 28.1 96.9 27.2
L 96.95 27.15
Q 100.35 26.2 103.85 26.65 107.45 27.15 110.6 28.9 113.75 30.7 116.1 33.65
L 116.05 33.65
Q 118.1 36.25 119.05 39.65 119.8 42 119.85 44.65 119 47.75 118.8 50.8 116.7 50.45 114.5 50.5
L 114.35 50.5
Q 108.65 50.5 103.55 52.65 98.5 54.75 94.7 58.65 90.9 62.4 88.9 67.3 86.8 72.25 86.8 77.9
L 86.8 78.5
Q 86.8 80.2 87.05 81.85 87.05 82.05 87.05 82.25 88.15 90 93.05 95.85 96.5 100 101.05 102.5 107.95 101.75 108.05 95.35 103.55 93.7 100.4 89.8 96.25 84.8 96.3 78.25 96.3 74.5 97.75 71.1 99.1 67.85 101.6 65.35 104.15 62.8 107.45 61.45 110.75 60 114.4 60.05 116.15 60.05 118.1 60.3
L 118.2 60.3
Q 119.95 60.75 121.75 61.6
L 123.65 62.4
Q 127.7 64.75 130.15 68.75 130.45 69.3 130.95 69.6 131.5 69.9 132.1 69.9 132.7 69.85 133.2 69.5
L 137.6 66.9
Q 138.35 66.4 138.6 65.55 138.75 64.7 138.25 63.95 134.5 57.65 128.15 54.15
L 128.15 53.75
Q 128.15 48.15 130.35 43.2 132.4 38.3 136.25 34.45 140.05 30.65 144.95 28.55 150.05 26.35 155.65 26.4 160.75 26.35 165.4 28.2 Z"/>

<path fill="#9FC9C3" stroke="none" d="
M 173.65 33.05
Q 169.95 29.9 165.4 28.2 160.75 26.35 155.65 26.4 150.05 26.35 144.95 28.55 140.05 30.65 136.25 34.45 132.4 38.3 130.35 43.2 128.15 48.15 128.15 53.75
L 128.15 54.15
Q 134.5 57.65 138.25 63.95 138.75 64.7 138.6 65.55 138.35 66.4 137.6 66.9
L 133.2 69.5
Q 132.7 69.85 132.1 69.9 131.5 69.9 130.95 69.6 130.45 69.3 130.15 68.75 127.7 64.75 123.65 62.4
L 121.75 61.6
Q 119.95 60.75 118.2 60.3
L 118.1 60.3
Q 116.15 60.05 114.4 60.05 110.75 60 107.45 61.45 104.15 62.8 101.6 65.35 99.1 67.85 97.75 71.1 96.3 74.5 96.3 78.25 96.25 84.8 100.4 89.8 103.55 93.7 108.05 95.35 107.95 101.75 101.05 102.5 96.5 100 93.05 95.85 88.15 90 87.05 82.25 87.05 82.05 87.05 81.85 86.8 80.2 86.8 78.5
L 86.8 77.9
Q 86.8 72.25 88.9 67.3 90.9 62.4 94.7 58.65 98.5 54.75 103.55 52.65 108.65 50.5 114.35 50.5
L 114.5 50.5
Q 116.7 50.45 118.8 50.8 119 47.75 119.85 44.65 119.8 42 119.05 39.65 118.1 36.25 116.05 33.65
L 116.1 33.65
Q 113.75 30.7 110.6 28.9 107.45 27.15 103.85 26.65 100.35 26.2 96.95 27.15
L 96.9 27.2
Q 93.35 28.1 90.45 30.35 86.35 33.45 84.6 38 79.9 47.1 69.9 42.85 64.9 40.9 59.3 41.5
L 59.35 41.45
Q 54.8 41.95 50.9 44.05 46.9 46.2 44 49.9 41.05 53.55 39.75 58 38.55 62.2 39.1 66.7 39.9 73.95 44.7 79.4 45 79.6 45.2 80 46.35 81.15 47.4 81.95
L 47.45 81.95 48.8 82.95
Q 48.9 83.05 49.05 83.2 53 85.7 57.9 86 61.45 86.15 64.8 85.05 68.25 83.8 71.05 81.3 71.7 80.65 72.65 80.7 73.55 80.7 74.15 81.4
L 77.65 85.2
Q 78.2 85.9 78.2 86.85 78.15 87.7 77.45 88.3 73.2 92.15 67.9 94
L 67.95 94
Q 62.85 95.75 57.5 95.5 52.3 95.25 47.75 93.25 43.8 91.5 40.6 88.7 36.4 91.65 33.45 95.95 30.15 100.65 29 106.2
L 29 106.25
Q 27.75 111.75 28.7 117.3 29.7 123.15 32.9 128.15
L 32.9 128.2
Q 33.9 129.85 35.55 131.7
L 35.6 131.75
Q 36.35 132.6 37.25 133.5 42.4 129.45 48.55 127.45 48.6 127.4 48.7 127.4 50.5 126.75 52.25 126.45 52.3 126.4 52.45 126.4 53.65 126.1 56.05 125.85 56.95 125.7 57.65 126.3 58.4 126.8 58.5 127.75
L 59.05 132.85
Q 59.1 133.7 58.55 134.5 58 135.2 57.1 135.3 55.6 135.45 54.35 135.7 53.05 135.95 51.55 136.45
L 51.6 136.45
Q 46.3 138.1 42.1 141.8 38 145.25 35.6 150 33.2 154.85 32.7 160.2 32.15 165.7 33.85 171.05 35.55 176.3 39.25 180.55 42.7 184.6 47.45 187
L 47.5 187
Q 54.75 190.75 62.65 189.95 58.75 186.2 56.15 181.35 52 173.8 52.05 165.2 52.05 157.25 55.55 150.2
L 55.55 150.15
Q 56.7 147.75 58.45 145.25 58.55 144.85 58.95 144.55
L 60.4 142.85
Q 61.45 141.55 63.05 140.05 63.35 139.8 63.6 139.7 65.35 138.2 67.65 136.6 77.45 130 89.4 130 98.35 130 106.5 133.95
L 106.45 133.9
Q 113 137 118 142.35 115.55 148.2 110 147.75 106.65 144.55 102.35 142.45 96.1 139.4 89.4 139.45 80.5 139.45 72.95 144.5
L 72.95 144.45
Q 69.9 146.55 67.4 149.2 65.35 151.75 64 154.3 61.6 159.4 61.6 165.2 61.6 171.35 64.5 176.8
L 64.5 176.85
Q 67.4 182.3 72.7 185.8
L 75.5 187.65
Q 76.1 188.1 76.35 188.7 76.55 189.3 76.45 190 76.3 190.65 75.75 191.1
L 73.2 193.3
Q 68.45 197.4 65.7 203.3 63.05 208.95 63.15 215.35 63.15 221 65.15 226.2
L 65.15 226.15
Q 67.15 231.2 70.8 235.1 76.5 241.3 84.6 243.55 84.8 243.55 85.05 243.6 86.95 244.15 88.65 244.3
L 88.7 244.3
Q 90.45 244.55 92.4 244.55 98.3 244.55 103.8 242.25 109 239.95 113.05 235.95 117.05 231.95 119.25 226.75 121.55 221.25 121.6 215.35 121.6 213.3 121.3 211.3 121.25 211.1 121.2 210.85 121.15 210.65 121.15 210.35 112.4 210.3 105.25 205.2 105.15 205.15 105.1 205.05
L 104.85 204.85
Q 104.35 204.55 104.1 204 103.85 203.45 103.9 202.9 103.95 202.25 104.35 201.8
L 107.35 197.7
Q 107.8 197.15 108.4 196.95 108.9 196.7 109.6 196.85 110.25 196.95 110.7 197.4
L 110.8 197.55
Q 113.8 199.6 117.4 200.5 120.85 201.2 124.4 200.65 127.9 200.05 130.9 198.15
L 130.95 198.15
Q 134.1 196.25 136.25 193.3 138.55 190 139.25 186 140.05 182.1 139.1 178.15 138.85 177.3 139.35 176.55 139.8 175.7 140.75 175.55
L 145.7 174.3
Q 146.5 174.05 147.4 174.5 148.15 175 148.35 175.85 149.8 181.75 148.65 187.8 147.45 193.85 143.95 198.75 138.8 205.95 130.5 208.8
L 130.6 209.35
Q 130.65 209.65 130.65 209.95 131.1 212.7 131.1 215.35 131 223.25 128.05 230.45 125.1 237.3 119.8 242.75 114.35 248.05 107.5 251.05 100.95 253.8 93.9 254 94.15 255.75 94.8 257.5 95.65 259.5 97.25 261.15 97.35 261.25 97.5 261.45 101.2 265.15 106.5 265.2 107.1 265.2 108.45 265
L 108.3 265
Q 109.3 264.85 110.2 264.6
L 113.55 263.6
Q 114.2 263.45 114.9 263.7 115.55 263.9 115.95 264.5 116.3 265 116.35 265.75
L 116.3 269.3
Q 116.3 269.4 116.3 269.55 116.25 272.8 117.55 275.85 118.8 278.65 121 280.95 123.2 283.15 126.1 284.4
L 126.15 284.4
Q 127.7 285.05 129.25 285.35 127.45 280.2 127.45 274.5 127.45 270.8 128.2 267.35 128.85 264.55 130 262
L 130 261.95
Q 131.15 259.8 132.4 257.65 136 251.95 141.5 247.95 147.1 244 153.95 242.65 156.8 242.15 159.8 242.2 161.45 242.2 163.05 242.35 164.5 242.45 166.25 242.85 167.15 243.05 167.65 243.8 168.15 244.55 168 245.5
L 166.95 250.45
Q 166.75 251.25 166.05 251.8 165.3 252.25 164.45 252.15
L 162 251.8 162.1 251.85
Q 161 251.75 159.8 251.75 156.8 251.75 153.95 252.45 153.1 252.85 152.3 253.25 145.65 255.9 141.45 261.55 137.7 266.65 137 273 136.9 273.75 136.9 274.5 136.9 279.15 138.7 283.5
L 138.7 283.4
Q 140.45 287.5 143.7 290.75 146.7 293.85 150.9 295.6 155.05 297.3 159.65 297.4 164.35 297.3 168.55 295.6 172.65 293.85 175.8 290.75 178.9 287.5 180.7 283.4
L 180.7 283.5
Q 182.45 279.2 182.45 274.5
L 182.75 120.95
Q 180.3 118.9 177.4 117.7 174.1 116.5 170.75 116.5 167.05 116.45 163.65 117.9 160.35 119.35 157.85 121.8 155.25 124.35 153.9 127.65 152.5 131 152.5 134.7 152.5 141.3 156.6 146.3
L 156.6 146.4
Q 160.75 151.4 167.2 152.65 168.1 152.85 168.6 153.55 169.15 154.3 169 155.25 167.8 161.15 167.05 161.65 166.25 162.15 165.4 162 160.55 161.1 156.4 158.5 152.3 156.05 149.3 152.35 146.25 148.65 144.65 144.2 142.9 139.6 142.95 134.7 142.95 129.05 145.15 123.95 147.2 119 151.1 115.15 155 111.2 159.95 109.2 165.05 107.05 170.75 107.05 175.95 106.95 180.9 108.9 181.8 109.25 182.75 109.7
L 182.8 79.2
Q 182.35 79.55 181.95 80 176.8 85.1 170.3 88 163.45 90.8 155.8 90.85 154.3 90.85 152.15 90.65 152.1 90.65 152.05 90.65 150.35 90.45 148.4 90.1 147.95 90 147.65 89.8 147.25 89.5 147 89.2 146.9 89.05 146.85 88.9
L 146.85 88.85
Q 146.5 88.25 146.65 87.5 146.7 87.35 146.8 87.25
L 147.7 82.45
Q 147.9 81.6 148.65 81.15 149.35 80.6 150.2 80.8 151.6 81.05 152.95 81.2 153.15 81.2 153.35 81.25 154.4 81.4 155.8 81.4 161.35 81.4 166.6 79.2 171.45 77.1 175.3 73.25 181.15 67.35 182.8 59.15 183.05 55.7 183.05 55.65 183.1 55.05 183.15 53.95
L 182.85 49.85
Q 182.8 49.8 182.85 49.75 182.1 44.95 179.7 40.6 177.25 36.35 173.7 33.1
L 173.65 33.05 Z"/>
</g>
</defs>

<g transform="matrix( 1, 0, 0, 1, 0,0) ">
<use xlink:href="#Layer1_0_FILL"/>
</g>
</svg>
