<?xml version="1.0" encoding="UTF-8"?>
<svg xmlns="http://www.w3.org/2000/svg" xmlns:xlink="http://www.w3.org/1999/xlink" version="1.1" viewBox="0 0 306 279">
  <!-- Generator: Adobe Illustrator 29.7.0, SVG Export Plug-In . SVG Version: 2.1.1 Build 14)  -->
  <defs>
    <style>
      .st0 {
        fill: none;
      }

      .st1 {
        fill: #4b4959;
        stroke: #222133;
        stroke-miterlimit: 10;
        stroke-width: 3px;
      }

      .st2 {
        fill: #e2c9b5;
      }

      .st3 {
        fill: #a97468;
      }

      .st4 {
        fill: #e2cbb7;
      }

      .st5 {
        fill: #dbb79c;
      }

      .st6 {
        fill: #d39384;
      }

      .st7 {
        fill: #e1bb9d;
      }

      .st8 {
        fill: #f0d6c2;
      }

      .st9 {
        fill: #e8c3a3;
      }

      .st10 {
        fill: #d3ae91;
      }

      .st11 {
        fill: #efcaaf;
      }

      .st12 {
        clip-path: url(#clippath-1);
      }

      .st13 {
        clip-path: url(#clippath-2);
      }

      .st14 {
        fill: #704b3d;
      }

      .st15 {
        fill: #fff;
      }

      .st16 {
        fill: #d8b393;
      }

      .st17 {
        fill: #895f4a;
      }

      .st18 {
        fill: #8a5f49;
      }

      .st19 {
        fill: #f3dbc5;
      }

      .st20 {
        fill: #875c4b;
      }

      .st21 {
        fill: #df9c8d;
      }

      .st22 {
        fill: #674234;
      }

      .st23 {
        fill: #d19284;
      }

      .st24 {
        fill: #cea687;
      }

      .st25 {
        fill: #333;
      }

      .st26 {
        clip-path: url(#clippath);
      }
    </style>
    <clipPath id="clippath">
      <path class="st0" d="M155.04,262.61C65.78,256.22,3.45,171.13,38.25,85.5c13.21-40.77,54.26-62.95,92.15-76.55,38.85-12.65,84.99,3.3,109.82,35.59,90.18,100.68,53.25,210.14-85.18,218.06Z"/>
    </clipPath>
    <clipPath id="clippath-1">
      <path class="st9" d="M137.78,96.27c-14.82,12.19-16.18,30.64-16.48,35.59-.28,4.5,2.31,10.82,2.84,22.85,0,0,0,0,0,0,1.38,7-3.11,8.37-5.96,11.36-6.85,7.18-.02,19.14-3,39.71-.62,4.29-1.94,10.8-5.12,18.61-3.49,8.56-8.24,20.55-12.66,35.28-3.58,11.92-6.76,24.55-10.33,39.57-11.05,46.53-22.34,87.31-22.34,125.58,0,0-4.2,33.25,1.31,86.16,0,0,3.33,33.59,22.12,60.69,3.57,5.15,8.35,10.84,16.09,13.49,8.51,2.92,16.58.78,19.11,0,4.95-1.52,8.53-3.93,10.68-5.62,2.26-10.63,5.38-18.98,7.87-24.73,6.26-14.45,10.57-17.06,12.36-17.98,4.81-2.48,11.4-3.15,16.86-.56,2.5,1.19,6.28,3.75,11.8,16.86,2.68,6.37,6.03,15.83,8.11,28.04,4.19,2.59,12.16,6.6,21.68,5.47,12.58-1.49,20.77-10.75,26.97-19.47,27.22-38.23,24.73-98.9,24.73-98.9,0-21.79-31.69-172.33-31.84-173.08h0c-.93-34.56-8.9-55.04-16.52-67.61-2.59-4.28-6.69-10.18-8.02-19.3,0,0-1.39-9.46,7.56-38.97h0c-17.24-6.7-18.07-8.32-19.01-11.29-.59-1.84-.33-3.4-.17-4.51,1.22-8.23,11.13-9.69,12.94-15,5.9-17.28-19.41-50.79-47.58-51.25-12.03-.19-21.25,6.75-23.98,8.99Z"/>
    </clipPath>
    <clipPath id="clippath-2">
      <path class="st19" d="M226.66,197.2c-3.58-2.06-7.17-.71-9.44,2.7-1.49,2.24-2.88,4.53-4.19,6.88-.05,0-.11-.01-.16-.02,4.86-18.11,5.91-37.13,3.58-55.88-.27-2.16-2.07-4.05-4.06-4.95.06-2.57.1-5.14.1-7.72,0-3.93-3.18-7.7-6.9-7.52-.25.01-.49.04-.73.07-1.75-5.79-4.26-11.37-8.77-15.18-2.76-2.33-5.7-3.59-8.65-4-3.01-3.12-8.62-2.94-10.85,1.5-.15.3-.29.6-.43.9-.83.47-1.64,1-2.43,1.57-.08-1.67-.15-3.33-.24-5-.21-3.92-3.02-7.71-6.9-7.52-1.94.09-3.48.85-4.62,2.05-1.16-.96-2.57-1.54-4.06-1.46-3.87.19-6.73,3.3-6.9,7.52-.03.83-.05,1.67-.08,2.5-1.26-1.56-3.06-2.57-5.05-2.47-2.06.1-3.67.94-4.83,2.27-1.22-2.39-3.74-4.15-6.16-4.03-2.65.13-4.58,1.49-5.73,3.58-.79-.55-1.71-.93-2.76-1.08-3.29-.48-6.74,1.73-7.57,5.39-1.88,8.24-3.02,16.57-3.66,24.95-1.03,1.28-1.66,2.95-1.69,4.84-.19,12.25-.1,24.49.28,36.73-3,1.66-4.17,4.99-3.62,8.71.52,3.55,1.04,7.11,1.56,10.66-.36.89-.54,1.87-.48,2.91.25,5.03.72,10.02,1.4,14.95-1.25-2.67-2.56-5.3-3.95-7.9-1.87-3.51-6.23-4.75-9.44-2.7-3.23,2.06-4.36,6.77-2.48,10.29,2.67,4.99,5.09,10.13,7.24,15.41.28.68.55,1.37.82,2.05.07.19.24.65.26.69.47,1.27.93,2.54,1.38,3.82.98,2.82,1.89,5.66,2.73,8.53,1.07,3.65,2.03,7.34,2.88,11.05,4.88-6.8,6.39-8.06,6.8-7.82.85.5-2.79,7.52-3.31,14.39-.18,2.41-.3,5.34-.3,5.34.02,1.42.12,2.88-.11,4.29.08.54.17,1.07.25,1.61.08.56.16,1.12.23,1.68,5.66-8.13,7.3-9.58,7.73-9.33.85.49-3.55,7.35-4.37,15-.11,1.02-.46,4.89-1.63,9.99-.07.3-.13.54-.17.71,1.15,18.62.3,37.39-1.86,55.88-2.87,24.6-7.65,50.12-6.83,75.52.73,22.81,4.83,45.56,12.14,66.95,7.68,22.45,18.61,43.3,32.54,61.79-.13.31-.26.62-.39.93-2.15,5.06-1.47,11.74,3.51,14.6.06.03.12.07.18.1-1.38,3.2-2.76,6.4-4.14,9.6-2.18,5.04-1.44,11.75,3.51,14.6,4.35,2.5,11.07,1.56,13.4-3.83,19.19-44.35,38.41-89.84,40.78-139.58.48-10.14.32-20.27-.17-30.38.68-15,.65-30.04-.09-45.04-.94-19.14-3.68-38.13-4.02-57.29.32-6.56.78-13.12,1.4-19.68.35-3.74.75-7.47,1.19-11.19.07-.62.15-1.24.22-1.86.02-.16.03-.28.05-.39.02-.12.04-.28.07-.49.13-.96.25-1.92.38-2.88-.17-.12-.29-.32-.29-.59,0-.45-.03-.89-.08-1.34-.11-.17-.14-.38-.07-.59-.09-.59-.21-1.18-.36-1.76-.93-1.29-2.73-3.67-4.91-5.97-.97-1.02-1.69-1.78-2.82-2.73-1.45-1.22-1.94-1.38-1.87-1.56.23-.63,6.9.03,11.51,4.4.12.11.21.21.28.28.51-3.43,1.06-6.85,1.63-10.27-.02-2.01-1.19-3.83-2.49-5.32-2.41-2.77-5.21-3.26-5.1-4.66.09-1.15,2.09-2.09,3.72-2.13,2.15-.05,4.25,1.47,5.28,3.89.99-5.45,2.04-10.99,3.18-16.6,1.12-5.52,2.29-11.03,3.51-16.53,2.5-5.72,5.45-11.24,8.96-16.52,2.13-3.19.6-8.52-2.48-10.29Z"/>
    </clipPath>
  </defs>
  <g id="Layer_2">
    <path class="st1" d="M155.04,264.7C65.78,258.31,3.45,173.22,38.25,87.59c13.21-40.77,54.26-62.95,92.15-76.55,38.85-12.65,84.99,3.3,109.82,35.59,90.18,100.68,53.25,210.14-85.18,218.06Z"/>
  </g>
  <g id="Layer_3">
    <g class="st26">
      <path class="st5" d="M98.44,430.07c-18.57-5.91-38.77,32.17-73.43,61.06-20.12,16.77-52.29,36.44-103.77,45.7,14.31,2.75,37.72,5.65,65.56,1.12,63.12-10.25,129.92-55.54,125.13-89.16-1.07-7.5-5.98-16.34-13.49-18.73Z"/>
      <path class="st18" d="M194.1,572.42c-4.54,3.56-2.97,12.63-2,18.23,1.58,9.11,5.41,15.3,7.74,18.98,6.17,9.74,13.13,14.71,16.98,14.99,2.42.18,4-.5,4-.5,2.23-.96,4-2.75,4-2.75,0,0,2.75,1.9,5.24,3.3,3.5,1.97,10.49,1.69,13.49-.81,3.31-2.76,4-8.99,4-8.99,0,0,2.59-.43,4.75-1.75,2.73-1.66,4.22-4.41,4.75-5.99,1.77-5.35-2.88-11.3-5.24-14.24-8.36-10.4-20.84-13.9-45.45-20.48-4.91-1.31-9.26-2.34-12.24,0Z"/>
      <path class="st18" d="M131.62,572.42c4.54,3.56,2.97,12.63,2,18.23-1.58,9.11-5.41,15.3-7.74,18.98-6.17,9.74-13.13,14.71-16.98,14.99-2.42.18-4-.5-4-.5-2.23-.96-4-2.75-4-2.75,0,0-2.75,1.9-5.24,3.3-3.5,1.97-10.49,1.69-13.49-.81-3.31-2.76-4-8.99-4-8.99,0,0-2.59-.43-4.75-1.75-2.73-1.66-4.22-4.41-4.75-5.99-1.77-5.35,2.88-11.3,5.24-14.24,8.36-10.4,20.84-13.9,45.45-20.48,4.91-1.31,9.26-2.34,12.24,0Z"/>
      <g>
        <path class="st9" d="M137.78,96.27c-14.82,12.19-16.18,30.64-16.48,35.59-.28,4.5,2.31,10.82,2.84,22.85,0,0,0,0,0,0,1.38,7-3.11,8.37-5.96,11.36-6.85,7.18-.02,19.14-3,39.71-.62,4.29-1.94,10.8-5.12,18.61-3.49,8.56-8.24,20.55-12.66,35.28-3.58,11.92-6.76,24.55-10.33,39.57-11.05,46.53-22.34,87.31-22.34,125.58,0,0-4.2,33.25,1.31,86.16,0,0,3.33,33.59,22.12,60.69,3.57,5.15,8.35,10.84,16.09,13.49,8.51,2.92,16.58.78,19.11,0,4.95-1.52,8.53-3.93,10.68-5.62,2.26-10.63,5.38-18.98,7.87-24.73,6.26-14.45,10.57-17.06,12.36-17.98,4.81-2.48,11.4-3.15,16.86-.56,2.5,1.19,6.28,3.75,11.8,16.86,2.68,6.37,6.03,15.83,8.11,28.04,4.19,2.59,12.16,6.6,21.68,5.47,12.58-1.49,20.77-10.75,26.97-19.47,27.22-38.23,24.73-98.9,24.73-98.9,0-21.79-31.69-172.33-31.84-173.08h0c-.93-34.56-8.9-55.04-16.52-67.61-2.59-4.28-6.69-10.18-8.02-19.3,0,0-1.39-9.46,7.56-38.97h0c-17.24-6.7-18.07-8.32-19.01-11.29-.59-1.84-.33-3.4-.17-4.51,1.22-8.23,11.13-9.69,12.94-15,5.9-17.28-19.41-50.79-47.58-51.25-12.03-.19-21.25,6.75-23.98,8.99Z"/>
        <g class="st12">
          <path class="st9" d="M127.31,225.95c-1.91-8.4-4.19-16.71-6.85-24.91-1.96-6.02-4.22-12.78-12-12.69-.57,0-1.11.06-1.64.15-2.13-.35-4.67,0-6.43,1.14-2.02,1.3-3.8,3.24-4.35,5.65-.11.84-.23,1.68-.34,2.51,0,1.71.44,3.3,1.29,4.77,1.04,2.27,3.14,4.2,5.22,5.51.26.16.52.31.79.46.76,2.4,1.48,4.81,2.17,7.23,1.44,5.03,2.72,10.1,3.89,15.2,1.1,4.83,6.93,8.13,11.64,6.61,5.06-1.64,7.79-6.46,6.61-11.64Z"/>
          <g>
            <path class="st19" d="M226.66,197.2c-3.58-2.06-7.17-.71-9.44,2.7-1.49,2.24-2.88,4.53-4.19,6.88-.05,0-.11-.01-.16-.02,4.86-18.11,5.91-37.13,3.58-55.88-.27-2.16-2.07-4.05-4.06-4.95.06-2.57.1-5.14.1-7.72,0-3.93-3.18-7.7-6.9-7.52-.25.01-.49.04-.73.07-1.75-5.79-4.26-11.37-8.77-15.18-2.76-2.33-5.7-3.59-8.65-4-3.01-3.12-8.62-2.94-10.85,1.5-.15.3-.29.6-.43.9-.83.47-1.64,1-2.43,1.57-.08-1.67-.15-3.33-.24-5-.21-3.92-3.02-7.71-6.9-7.52-1.94.09-3.48.85-4.62,2.05-1.16-.96-2.57-1.54-4.06-1.46-3.87.19-6.73,3.3-6.9,7.52-.03.83-.05,1.67-.08,2.5-1.26-1.56-3.06-2.57-5.05-2.47-2.06.1-3.67.94-4.83,2.27-1.22-2.39-3.74-4.15-6.16-4.03-2.65.13-4.58,1.49-5.73,3.58-.79-.55-1.71-.93-2.76-1.08-3.29-.48-6.74,1.73-7.57,5.39-1.88,8.24-3.02,16.57-3.66,24.95-1.03,1.28-1.66,2.95-1.69,4.84-.19,12.25-.1,24.49.28,36.73-3,1.66-4.17,4.99-3.62,8.71.52,3.55,1.04,7.11,1.56,10.66-.36.89-.54,1.87-.48,2.91.25,5.03.72,10.02,1.4,14.95-1.25-2.67-2.56-5.3-3.95-7.9-1.87-3.51-6.23-4.75-9.44-2.7-3.23,2.06-4.36,6.77-2.48,10.29,2.67,4.99,5.09,10.13,7.24,15.41.28.68.55,1.37.82,2.05.07.19.24.65.26.69.47,1.27.93,2.54,1.38,3.82.98,2.82,1.89,5.66,2.73,8.53,1.07,3.65,2.03,7.34,2.88,11.05,4.88-6.8,6.39-8.06,6.8-7.82.85.5-2.79,7.52-3.31,14.39-.18,2.41-.3,5.34-.3,5.34.02,1.42.12,2.88-.11,4.29.08.54.17,1.07.25,1.61.08.56.16,1.12.23,1.68,5.66-8.13,7.3-9.58,7.73-9.33.85.49-3.55,7.35-4.37,15-.11,1.02-.46,4.89-1.63,9.99-.07.3-.13.54-.17.71,1.15,18.62.3,37.39-1.86,55.88-2.87,24.6-7.65,50.12-6.83,75.52.73,22.81,4.83,45.56,12.14,66.95,7.68,22.45,18.61,43.3,32.54,61.79-.13.31-.26.62-.39.93-2.15,5.06-1.47,11.74,3.51,14.6.06.03.12.07.18.1-1.38,3.2-2.76,6.4-4.14,9.6-2.18,5.04-1.44,11.75,3.51,14.6,4.35,2.5,11.07,1.56,13.4-3.83,19.19-44.35,38.41-89.84,40.78-139.58.48-10.14.32-20.27-.17-30.38.68-15,.65-30.04-.09-45.04-.94-19.14-3.68-38.13-4.02-57.29.32-6.56.78-13.12,1.4-19.68.35-3.74.75-7.47,1.19-11.19.07-.62.15-1.24.22-1.86.02-.16.03-.28.05-.39.02-.12.04-.28.07-.49.13-.96.25-1.92.38-2.88-.17-.12-.29-.32-.29-.59,0-.45-.03-.89-.08-1.34-.11-.17-.14-.38-.07-.59-.09-.59-.21-1.18-.36-1.76-.93-1.29-2.73-3.67-4.91-5.97-.97-1.02-1.69-1.78-2.82-2.73-1.45-1.22-1.94-1.38-1.87-1.56.23-.63,6.9.03,11.51,4.4.12.11.21.21.28.28.51-3.43,1.06-6.85,1.63-10.27-.02-2.01-1.19-3.83-2.49-5.32-2.41-2.77-5.21-3.26-5.1-4.66.09-1.15,2.09-2.09,3.72-2.13,2.15-.05,4.25,1.47,5.28,3.89.99-5.45,2.04-10.99,3.18-16.6,1.12-5.52,2.29-11.03,3.51-16.53,2.5-5.72,5.45-11.24,8.96-16.52,2.13-3.19.6-8.52-2.48-10.29Z"/>
            <g class="st13">
              <path class="st4" d="M224.28,180.5c-.56-2.03-3.88-3.91-5.67-3.22-8.18,3.15-13.71,9.72-21.02,14.23-7.3,4.5-15.89,6.4-24.37,6.84-9.72.5-19.66-.41-29.29-1.65-9.23-1.19-16.4-6.07-23.74-11.44-2.01-1.47-5.14-.34-6.31,1.65-1.37,2.34-.36,4.83,1.65,6.31,8.75,6.41,19.08,10.9,19.08,10.9,11.72,3.63,17.58,5.45,23.89,6.06,2.3.22,26.77,2.33,46.86-9.74,1.98-1.19,6.55-5.55,15.7-14.26,1.47-1.4,3.77-3.65,3.22-5.67Z"/>
            </g>
          </g>
          <path class="st16" d="M110.25,276.21c-1.13-5.18-9.08-2.99-7.95,2.19,6.67,30.67,7.42,62.58,2.09,93.52-.38,2.19.58,4.44,2.88,5.07,1.98.55,4.69-.67,5.07-2.88,5.58-32.47,4.91-65.71-2.09-97.91Z"/>
          <path class="st16" d="M223.93,349.46c-3.71-1.33-4.08-9.08-4.58-12.14-1.06-6.42-1.61-12.93-1.76-19.43-.14-6.41.13-12.82.83-19.19.66-5.99,1.73-12.08,4.59-17.44,2.5-4.68-4.61-8.85-7.12-4.16-3.45,6.44-4.78,13.48-5.62,20.67-.88,7.61-1.17,15.29-.85,22.94.32,7.54,1.19,15.09,2.62,22.5,1.16,6.03,3.46,11.98,9.68,14.21,5.01,1.79,7.16-6.17,2.19-7.95Z"/>
          <path class="st16" d="M128.34,416.33c-4.76-.05-5.83-7.5-6.79-10.92-.79-2.82-1.58-5.64-2.37-8.47-.33-1.18-.66-2.37-.99-3.55.8.27,1.69.3,2.48.09,2.86-.75,4.65-4.09,3.07-6.79-1.64-2.81-4.67-2.44-7.44-2.62-5.25-.35-10.24-2.61-14.56-5.5-4.53-3.03-8.32-7.07-11.71-11.3-1.72-2.15-3.31-4.42-4.87-6.7-.8-1.17-1.59-2.35-2.37-3.53-.39-.59-.79-1.18-1.17-1.77-.15-.22-.29-.44-.44-.66.88-3.67-3.8-7.47-6.78-4.03-4.26,4.93,1.23,10.69,4.11,14.86,3.32,4.81,6.87,9.53,11.02,13.66,3.86,3.84,8.33,7.25,13.26,9.57,2.08.98,4.24,1.84,6.46,2.46.15,1.43.55,2.93.98,4.44,1.16,4.16,2.32,8.32,3.49,12.48,2.1,7.51,5.33,16.43,14.62,16.53,5.31.06,5.31-8.19,0-8.25Z"/>
          <path class="st16" d="M253.47,351.57c-2.82-4.48-9.96-.35-7.12,4.16.02.03.03.04.05.06-.07.3-.2.58-.39.84-.44.85-1.09,1.58-1.7,2.31-1.49,1.8-3.02,3.58-4.59,5.32-2.95,3.26-6.03,6.39-9.25,9.38-4.12,3.84-8.78,8.14-14.17,10.17-.45-.96-1.26-1.73-2.48-2.06-1.92-.53-4.77.66-5.07,2.88-.02.12-.04.25-.05.37-3.91.4-4.34,5.87-1.29,7.66-.56,2.82-1.23,5.62-1.99,8.39-.72,2.62-1.54,5.22-2.44,7.79-.45,1.28-.92,2.56-1.41,3.83-.14.36-.27.83-.42,1.32-2.27.27-4.44,2.22-3.74,5.1,1,4.12,6.24,5.5,9.07,2.32,1.19-1.34,1.71-3.23,2.38-4.86.8-1.96,1.54-3.94,2.23-5.94,2.03-5.88,3.59-11.9,4.71-18.01,8.46-2.02,15.62-8.44,21.8-14.32,4.03-3.84,7.85-7.89,11.43-12.14,3.35-3.97,7.83-9.2,4.46-14.56Z"/>
          <path class="st17" d="M97.09,400.88c-5.55-2.39-10.09-6.27-14.26-10.58-4.61-4.77-8.95-9.83-13.22-14.91-1.21-1.44-3.26.63-2.06,2.06.4.47.79.94,1.19,1.42-3.21,1.19-4.52,5.84-5,9.14-.41,2.83.01,5.84,1.52,8.08-4.94-2.62-9.2-6.51-11.37-11.77-.7-1.71-3.52-.96-2.81.77,3.13,7.57,9.68,12.71,17.21,15.54,4.52,1.7,9.29,2.55,14.06,3.13,4.64.57,9.91,1.58,14.38-.22,1-.4,1.64-2.11.35-2.66ZM67.45,388.59c.07.25.16.5.24.75-.42.72-.29,1.74.66,2.03-.05.04-.1.08-.15.12-.66.63-1.01,1.27-1.13,1.89-.53-1.28-.68-2.78-.57-4.18.09-1.06.35-3.03.97-4.71.51.73.97,1.48,1.39,2.25-.85.07-1.7.85-1.41,1.84Z"/>
          <path class="st17" d="M98.05,452.67c-14.6-3.19-27.36-12.4-34.93-25.28-.95-1.61-3.47-.15-2.51,1.47.05.08.1.15.14.23-.67.66-1.02,1.72-.57,2.7-2.64,1.68-3.89,5.12-4.23,8.38-.17,1.67-.04,3.4.62,4.93.06.38.14.76.25,1.13-2.17-1.43-3.93-3.26-4.87-5.71-.67-1.73-3.48-.98-2.81.77,2.98,7.74,11.66,10.31,18.97,12.23,9.78,2.57,19.91,3.65,29.93,1.95,1.42-.24,1.35-2.51,0-2.81ZM61.6,434.34c-.5.48-.79,1.18-.63,2.03.07.34.14.68.23,1.01-.44.3-.76.75-.82,1.34-.03,0-.06-.02-.09-.03,0-.02.01-.04.02-.06.24-.79-.18-1.38-.76-1.65.49-1.1,1.18-2.05,2.05-2.65ZM59.39,444.28c-.05-.42-.06-.85-.03-1.29.16.06.33.12.49.19.48.25.85.59,1.17,1.05-.38.22-.7.55-.93.93-.22-.19-.41-.41-.58-.68-.04-.07-.08-.13-.12-.2Z"/>
          <path class="st17" d="M259.3,380.59c-.49.94-1.1,1.78-1.78,2.53.57-1.84.68-3.8.15-5.71-.68-2.45-2.75-3.68-4.89-3.69.55-1.01,1.05-2.06,1.5-3.16.71-1.73-2.11-2.49-2.81-.77-4.71,11.54-16.18,17.82-26.58,23.44-1.04.56-.9,2.45.35,2.66,7.76,1.33,15.12-1.08,22.29-3.85,1.01-.39,2.03-.79,3.05-1.22.35.1.73.07,1.09-.15.42-.26.83-.56,1.22-.88,3.65-1.74,6.98-4.02,8.93-7.73.87-1.66-1.64-3.13-2.51-1.47ZM255.03,378.82c-.25-.4-.61-.72-1.04-.91.15-.2.3-.4.44-.6.34.41.52.94.6,1.51ZM251.9,386.83c-.2-.09-.42-.13-.64-.14,1.08-1.03,2.39-2.42,3.24-3.85-.54,1.53-1.43,2.88-2.6,3.99Z"/>
          <path class="st17" d="M269.94,425.84c-1.38,1.48-2.82,2.87-4.33,4.19.03-1.02-.12-2.06-.39-3.04-.69-2.56-2-5.62-4.19-7.11.03-.06.05-.12.08-.18.33-.77.2-1.61-.19-2.25.65-1.01,1.28-2.02,1.88-3.06.94-1.62-1.57-3.09-2.51-1.47-.81,1.4-1.67,2.76-2.56,4.09-.01.01-.03.02-.04.04-.23.24-.46.49-.68.73-.33.36-.51.74-.58,1.13-6.58,9.31-15.1,17.1-24.95,22.85-.28.08-.51.22-.7.41-1.66.94-3.35,1.83-5.07,2.66-1.2.57-.76,2.31.35,2.66,8.21,2.63,17.57-1.3,25.01-4.71,7.85-3.6,15.05-8.56,20.95-14.88,1.28-1.37-.78-3.43-2.06-2.06ZM262.51,428.91c-.12-.13-.28-.23-.44-.32.13-.26.26-.51.38-.77.08.42.14.84.17,1.23-.04-.05-.07-.09-.11-.14Z"/>
        </g>
      </g>
      <g>
        <g id="meerkathead_0_Layer7_0_FILL">
          <path class="st14" d="M93.73,91.1l-.35-.04c-.8-.1-1.6-.14-2.39-.12-4.04.08-7.57,1.55-10.57,4.4-2.59,2.44-4.66,5.25-6.23,8.43-1.87,3.76-2.62,7.72-2.25,11.86.36,4,2.04,7.29,5.06,9.88.03-2.32.19-4.64.5-6.95.48-3.61,1.38-7.12,2.68-10.51,1.44-3.75,3.35-7.27,5.72-10.55,2.04-2.85,4.65-4.98,7.84-6.38M231.87,91.1c3.19,1.4,5.81,3.53,7.84,6.38,2.37,3.29,4.27,6.8,5.72,10.55,1.31,3.4,2.2,6.9,2.68,10.51.3,2.32.47,4.64.5,6.95,3.01-2.59,4.7-5.88,5.06-9.88.37-4.15-.38-8.1-2.25-11.86-1.57-3.18-3.65-5.99-6.23-8.43-3-2.85-6.52-4.32-10.57-4.4-.8-.01-1.6.03-2.39.12l-.35.04Z"/>
          <path class="st20" d="M99.26,95.56c-.06-.18-.12-.35-.21-.51-1.03-2.09-2.81-3.4-5.32-3.95-3.19,1.4-5.81,3.53-7.84,6.38-2.37,3.29-4.27,6.8-5.72,10.55-1.31,3.4-2.2,6.9-2.68,10.51-.3,2.32-.47,4.64-.5,6.95,1.5,1.21,3.18,2.05,5.04,2.52.25-.53.5-1.06.74-1.6,1.27-2.73,2.48-5.49,3.65-8.3,1.11-2.66,2.32-5.28,3.61-7.85,1.27-2.52,2.66-4.96,4.17-7.32,1.61-2.48,3.29-4.94,5.06-7.38M239.71,97.48c-2.04-2.85-4.65-4.98-7.84-6.38-2.52.55-4.29,1.86-5.32,3.95-.08.16-.15.33-.21.51,1.76,2.44,3.45,4.9,5.06,7.38,1.51,2.36,2.9,4.8,4.17,7.32,1.29,2.58,2.5,5.19,3.61,7.85,1.17,2.81,2.39,5.58,3.65,8.3.25.53.5,1.06.74,1.6,1.86-.46,3.54-1.3,5.04-2.52-.03-2.32-.19-4.64-.5-6.95-.48-3.61-1.38-7.12-2.68-10.51-1.44-3.75-3.35-7.27-5.72-10.55Z"/>
          <path class="st10" d="M99.05,95.05c.08.16.15.33.21.51.08.2.12.26.1.16-.01-.18,0-.29.04-.35l9.41-9.94c-.26.07-.52.12-.76.16-.06-.03-.12-.05-.19-.08-4.79-2.07-9.8-3.37-15.02-3.91-5.65-.49-10.91.65-15.77,3.44-.28.15-.54.31-.78.47-4.36,2.65-7.96,6.11-10.79,10.39-1.5,2.25-2.58,4.68-3.24,7.28-.76,3-.98,6.07-.66,9.2.52,5.17,2.21,9.93,5.06,14.28,2.71,4.16,6.27,7.44,10.69,9.84.12.07.25.14.39.2-.01.03-.03.05-.04.08.04.04.08.07.12.1l4.21-8.88c-1.86-.46-3.54-1.3-5.04-2.52-3.01-2.59-4.7-5.88-5.06-9.88-.37-4.15.38-8.1,2.25-11.86,1.57-3.18,3.65-5.99,6.23-8.43,3-2.85,6.52-4.32,10.57-4.4.8-.01,1.6.03,2.39.12.04-.03.08-.05.12-.06l.23.1c2.52.55,4.29,1.86,5.32,3.95M264,112.39c.32-3.14.1-6.2-.66-9.2-.66-2.6-1.74-5.03-3.24-7.28-2.83-4.28-6.43-7.74-10.79-10.39-.25-.16-.51-.32-.78-.47-4.86-2.78-10.11-3.93-15.77-3.44-5.23.53-10.24,1.83-15.02,3.91-.07.03-.13.05-.19.08-.25-.04-.5-.1-.76-.16l9.41,9.94c.04.05.06.17.04.35-.01.1.02.04.1-.16.06-.18.12-.35.21-.51,1.03-2.09,2.81-3.4,5.32-3.95l.23-.1s.08.03.12.06c.8-.1,1.6-.14,2.39-.12,4.04.08,7.57,1.55,10.57,4.4,2.59,2.44,4.66,5.25,6.23,8.43,1.87,3.76,2.62,7.72,2.25,11.86-.36,4-2.04,7.29-5.06,9.88-1.5,1.21-3.18,2.05-5.04,2.52l4.21,8.88s.08-.06.12-.1c-.01-.03-.03-.05-.04-.08.14-.07.27-.14.39-.2,4.42-2.4,7.98-5.68,10.69-9.84,2.85-4.35,4.53-9.11,5.06-14.28Z"/>
        </g>
        <g id="meerkathead_0_Layer5_0_FILL">
          <path class="st7" d="M224.13,82.35s-.03-.03-.04-.04c-3.38-4.27-7.28-7.89-11.7-10.88-1.64-1.1-3.34-2.12-5.12-3.05-5.9-3.11-12.15-5.34-18.74-6.69-.8-.16-1.6-.31-2.39-.45-1.83-.33-3.66-.61-5.49-.86-.89-.14-1.74-.26-2.54-.37-7.66-.97-15.38-1.11-23.15-.43-1.09.14-2.17.28-3.26.43-2.6.4-5.17.95-7.72,1.68-2.3.65-4.57,1.43-6.81,2.33-6.16,2.48-11.91,5.61-17.25,9.39-1.73,1.23-3.43,2.52-5.08,3.89-1.44,1.19-2.87,2.45-4.27,3.78-.03.03-.06.05-.08.08l-9.27,9.78c-.04.05-.06.17-.04.35.01.1-.02.04-.1-.16-1.76,2.44-3.45,4.9-5.06,7.38-1.51,2.36-2.9,4.8-4.17,7.32-1.29,2.58-2.5,5.19-3.61,7.85-1.17,2.81-2.39,5.58-3.65,8.3-.25.53-.5,1.06-.74,1.6l-4.21,8.88s-.08-.06-.12-.1c-2.12,4.1-4.56,8-7.33,11.68-2.83,3.75-6.15,6.97-9.95,9.67-.36.23-.69.48-1.01.76-.18.15-.23.33-.14.53.08.23.23.37.43.41,4.8-.29,9.59-.53,14.36-.74,1.77-.05,3.57-.09,5.39-.1-1.95,1.77-3.84,3.61-5.65,5.52-.98,1.05-1.77,2.22-2.37,3.52.65.67,1.54.82,2.68.45,2.46-.82,4.95-1.57,7.47-2.25,1.84-.48,3.56-.17,5.16.92,2.53,1.7,4.95,3.54,7.24,5.5.06.03.13.04.23.04,3.04,3.07,6.2,5.99,9.49,8.77,1.95,1.64,3.91,3.3,5.88,4.99,2.53,2.18,5.19,4.26,7.97,6.24,9.36,6.74,19.6,11.58,30.75,14.54,7.17,1.88,14.42,2.55,21.75,2,5.89-.52,11.58-1.94,17.07-4.25,5.79-2.4,11.25-5.39,16.39-8.96,8.06-5.63,16.16-11.19,24.29-16.67.03-.03.06-.05.1-.06,1.47-1,2.99-1.92,4.54-2.76.3-.16.61-.33.93-.49,7.04-3.64,14.46-6.22,22.25-7.73.34-.05.56-.26.66-.61-.61-1.31-1.39-2.52-2.35-3.62-1.09-1.25-2.32-2.36-3.69-3.31,4.97.19,9.66,1.55,14.07,4.07.87.48,1.76.8,2.68.98l.37-.72-17.56-27.9h.02l-3.53-6.54h.02l-16.8-32.97-7.18-10.92M156.2,121.12s.03-.05.06-.08c.03-.01.06-.03.08-.04.04-.03.08-.04.1-.04.03-.01.06-.02.1-.02h.06s.03,0,.04.02h.06s.03.02.04.02c.03.03.06.05.08.06.03.03.05.05.06.08s.03.05.06.08c0,.01,0,.03,0,.06.01.01.02.03.02.04v.18s0,.03-.02.04c0,.01,0,.03,0,.06-.01.01-.02.03-.02.04-.01.01-.03.03-.04.04-.01.01-.02.03-.02.04-.01.01-.03.03-.04.04-.01,0-.03,0-.04.02-.03.01-.06.03-.1.04-.03.01-.06.03-.08.04h-.12s-.03,0-.04-.02c-.01,0-.03,0-.04-.02-.04-.01-.08-.03-.1-.04-.03-.01-.05-.03-.06-.06-.03-.03-.05-.05-.06-.08-.01-.04-.03-.07-.04-.1s-.02-.06-.02-.1c0-.04,0-.08,0-.12.01-.03.03-.06.04-.1.01-.03.03-.05.04-.08Z"/>
          <path class="st24" d="M156.26,121.04s-.05.05-.06.08c-.01.03-.03.05-.04.08-.01.04-.03.07-.04.1,0,.04,0,.08,0,.12,0,.04,0,.07.02.1s.03.06.04.1c.01.03.03.05.06.08.01.03.03.05.06.06.03.01.06.03.1.04.01.01.03.02.04.02.01.01.03.02.04.02h.12s.06-.03.08-.04c.04-.01.08-.03.1-.04.01-.01.03-.02.04-.02.01-.01.03-.03.04-.04,0-.01,0-.03.02-.04.01-.01.03-.03.04-.04,0-.01,0-.03.02-.04,0-.03,0-.05,0-.06.01-.01.02-.03.02-.04v-.18s0-.03-.02-.04c0-.03,0-.05,0-.06-.03-.03-.05-.05-.06-.08s-.03-.05-.06-.08c-.03-.01-.06-.03-.08-.06-.01,0-.03,0-.04-.02h-.06s-.03-.02-.04-.02h-.06s-.08,0-.1.02c-.03,0-.06.01-.1.04-.03.01-.06.03-.08.04Z"/>
        </g>
        <g id="meerkathead_0_Layer4_0_FILL">
          <path class="st8" d="M225.82,134.38c-4.58-2.66-9.27-5.11-14.07-7.34-4.28-1.96-8.75-3.42-13.41-4.36-5.41-.94-8.8-1.31-10.19-1.1-1.4.19-5.68.96-12.84,2.31-7.17,1.35-14.27,1.1-21.32-.74-5.97-1.57-10.47-2.43-13.5-2.58-3.78.04-7.57.23-11.37.57-7.87.79-15.08,3.36-21.63,7.71-6.99,4.64-11.42,11.02-13.29,19.16-.44,2-.74,4.05-.89,6.14-.17,2.41-.1,4.81.21,7.18.56,4.31,2.39,7.98,5.49,11,2.75,2.71,5.58,5.3,8.48,7.77,3.77,3.2,7.67,6.29,11.7,9.24,3.78,2.77,7.69,5.28,11.72,7.53,4.04,2.22,8.24,4.1,12.59,5.64,4.61,1.66,9.32,2.81,14.14,3.44,5.34.78,10.65.88,15.93.31,4.86-.56,9.57-1.74,14.14-3.54,4.8-1.87,9.36-4.21,13.68-7.02,4.29-2.81,8.55-5.71,12.77-8.69,4.32-3.01,8.58-6.06,12.77-9.14,1.72-1.28,3.18-2.82,4.4-4.6,3.1-4.49,4.79-9.45,5.08-14.89.3-5.47-.62-10.73-2.77-15.79-1.77-3.45-4.38-6.19-7.82-8.22M215.77,155.05c.21.05.4.13.58.22.12.07.24.14.35.22.12.1.24.19.35.29s.22.2.33.31.21.22.31.33c.11.11.21.22.31.33.03.03.06.05.08.08.04.04.09.08.14.12.06.05.11.1.17.14.04.05.09.11.14.16.39.11.72.31,1.01.59.25.25.43.53.56.86.14.38.17.77.1,1.17-.06.35-.19.67-.39.96-.19.3-.45.54-.76.72-.25.15-.52.25-.83.29-.12.03-.25.04-.37.04-.08,0-.17,0-.25-.02-.08,0-.17,0-.25,0-.07-.01-.14-.02-.21-.02-.07-.01-.14-.03-.21-.04-.07,0-.14,0-.21-.02-.06-.01-.12-.03-.19-.04-.08-.04-.17-.07-.25-.1-.08-.03-.17-.06-.25-.1-.07-.04-.14-.07-.23-.1-.07-.05-.14-.11-.21-.16-.07-.04-.13-.09-.19-.14-.07-.05-.14-.11-.21-.16-.04-.05-.09-.11-.14-.16-.04-.04-.08-.09-.12-.14-.03-.05-.06-.12-.1-.18-.03-.05-.06-.11-.1-.16-.02-.05-.04-.1-.06-.16-.02.02-.05.03-.08.04-.04.01-.09.02-.14.02-.04.01-.09.02-.14.02-.04.01-.09.02-.14.02-.06,0-.11,0-.17-.02-.06,0-.11,0-.17-.02-.06-.01-.11-.03-.17-.04-.04-.03-.09-.05-.14-.06-.06-.03-.1-.05-.14-.08-.14-.11-.28-.17-.43-.18-.19-.01-.38-.03-.56-.04-.18-.03-.36-.05-.54-.08-.19-.03-.37-.07-.54-.14-.18-.07-.35-.14-.52-.22l-.17-.08c-.11-.04-.22-.07-.33-.1-.07-.03-.13-.05-.19-.06s-.12-.03-.19-.04c-.06-.01-.11-.03-.17-.04-.06-.01-.12-.03-.19-.04-.06.01-.1.03-.14.04-.04.01-.09.03-.14.04-.04.01-.08.03-.12.06-.04.01-.08.02-.12.02-.04.01-.08.01-.12,0-.04-.01-.08-.03-.12-.04-.04-.03-.08-.05-.12-.06-.03-.01-.06-.03-.08-.04-.04,0-.08,0-.1-.02-.04-.01-.08-.03-.12-.06-.04-.01-.08-.04-.12-.08-.04-.03-.08-.05-.1-.08-.03-.04-.06-.08-.08-.12-.01-.04-.03-.09-.06-.14,0-.04,0-.08-.02-.12,0-.05,0-.1.02-.14,0-.04,0-.08.02-.12.01-.04.03-.08.06-.12.01-.04.04-.07.08-.1.03-.03.06-.05.08-.08.04-.03.08-.05.12-.08.04-.03.08-.05.12-.06.03-.01.06-.02.08-.02,0-.01,0-.03.02-.04.03-.04.06-.08.08-.12.04-.04.08-.08.1-.12.04-.03.09-.06.14-.1-.03-.05-.06-.1-.1-.14-.03-.04-.06-.09-.08-.14-.01-.05-.03-.1-.06-.14,0-.07,0-.13-.02-.18,0-.05,0-.12-.02-.18.01-.05.03-.12.04-.18.01-.05.03-.11.06-.16.03-.05.06-.1.08-.14.04-.05.08-.1.1-.14.06-.04.1-.08.14-.12.06-.04.11-.08.17-.12.07-.04.13-.07.19-.1.06-.03.11-.06.17-.1.04-.03.08-.06.1-.1.03-.03.06-.05.08-.08.04-.05.09-.1.14-.12.1-.08.2-.16.31-.22.11-.05.22-.12.33-.18.06-.04.11-.07.17-.1.04-.04.09-.07.14-.1.06-.03.11-.05.17-.08.07-.04.13-.07.19-.08.07-.03.13-.05.19-.08.07-.01.13-.03.19-.06.07-.01.14-.02.21-.02.07-.01.14-.03.21-.04.07,0,.14,0,.21-.02.14.01.28.03.41.04.22.03.43.06.64.1.15.04.3.07.43.1.15.04.3.08.45.12.14.05.28.11.43.16.21.08.41.18.62.29.07.03.14.06.21.1.11.03.23.05.35.08M188.02,149.35c-.01.11-.03.22-.04.35-.26.9-.5,1.81-.72,2.72-.25,1.06-.59,2.09-1.03,3.09-.51,1.17-1.18,2.25-2.02,3.23-.74.87-1.53,1.71-2.35,2.52-.94.9-1.91,1.77-2.91,2.6-.28.23-.57.45-.89.65-.1.05-.19.11-.29.16-.11.04-.22.08-.33.12-.12.04-.24.08-.35.12-.67.34-1.34.7-2,1.06-.74.4-1.5.78-2.27,1.15-.76.37-1.53.71-2.33,1.02-.78.33-1.61.52-2.48.57-.87.05-1.73.12-2.6.2-.17.01-.34.03-.52.04-.11-.01-.22-.02-.33-.02-.11-.01-.22-.03-.33-.04-.11-.03-.22-.05-.33-.06-.11-.01-.22-.03-.33-.06-.87-.22-1.75-.37-2.64-.45-.95-.08-1.85-.32-2.7-.72-.81-.38-1.6-.8-2.35-1.27s-1.5-.97-2.23-1.51c-.74-.56-1.49-1.13-2.23-1.72-.36-.27-.66-.59-.91-.96-.06-.11-.11-.21-.17-.31-.06-.1-.11-.2-.17-.31-.06-.1-.11-.2-.17-.31-.06-.1-.11-.19-.17-.29-.06-.1-.11-.2-.17-.31-.06-.1-.12-.19-.19-.29-.07-.1-.14-.18-.21-.27-.07-.08-.14-.17-.21-.27-.06-.08-.12-.16-.19-.25-.06-.1-.1-.18-.14-.27-.06-.1-.1-.19-.14-.29-.04-.1-.08-.19-.12-.29-.04-.1-.08-.19-.12-.29s-.08-.2-.12-.31c-.03-.1-.06-.19-.1-.29-.04-.1-.08-.19-.1-.29-.15-.27-.3-.54-.45-.8-.17-.3-.34-.6-.52-.9-.19-.3-.35-.61-.47-.94-.12-.31-.22-.63-.29-.96-.08-.33-.16-.65-.23-.98-.07-.35-.12-.71-.17-1.06-.01-.12-.03-.25-.04-.37.01-.12.03-.24.04-.35.01-.08.02-.16.02-.25.01-.07.03-.14.04-.22s.02-.17.02-.27c.01-.1.03-.19.04-.29,0-.08,0-.17.02-.27.01-.11.03-.22.06-.35.03-.11.06-.22.08-.33.01-.11.04-.22.08-.33,0-.08,0-.16.02-.22.01-.08.02-.16.02-.25.01-.11.03-.22.04-.33,0-.1,0-.19.02-.29.01-.08.02-.16.02-.22.01-.08.03-.16.04-.22.03-.07.06-.14.08-.2.03-.07.06-.13.08-.18.06-.05.1-.11.14-.16.07-.03.13-.05.19-.08.08-.01.17-.03.25-.04.08.03.16.05.23.06h.14c.1.01.2.02.31.02.07.01.13.03.19.04.06.03.1.06.14.1.03.04.06.09.08.14.01.05.02.11.02.16,0,.05,0,.11-.02.16-.03.05-.06.1-.08.14-.04.04-.09.07-.14.1-.06.01-.12.03-.19.04-.06,0-.08,0-.08.02-.04.1-.06.19-.04.29,0,.11,0,.21.02.31.01.11.02.22.02.33.01.1.03.2.04.31.06.22.1.44.12.65.06.23.1.47.12.72.03.26.06.52.1.78.03.25.08.49.14.74.06.25.12.48.19.72.11.37.25.72.43,1.04.06.11.12.22.19.33.18.19.36.38.54.57.18.19.36.38.54.57.14.14.27.28.39.43.14.15.26.31.37.47.11.16.21.33.31.49.11.16.21.33.31.51.06.08.11.16.17.25.06.07.12.13.19.18.06.05.12.11.19.16.06.05.12.11.19.16.1.08.19.16.27.25.08.07.16.15.23.25.08.08.16.16.23.25.08.1.16.19.23.29.08.08.17.17.25.27.06.09.13.18.21.27,0,0,.01.01.02.02l.02.02v.02s.01.01.02.02l.02.02c.06.07.12.13.19.18.3.2.61.4.93.57.32.16.63.33.95.51.43.25.85.49,1.28.74.44.25.89.47,1.34.67.41.19.83.37,1.24.55.37.15.75.25,1.14.31.23,0,.47,0,.7,0,.15-.01.3-.01.43,0,.23,0,.47.01.72.04.22.01.44.03.66.06.23.01.46.03.68.06.22.01.44.03.66.04.11,0,.22,0,.33,0,.11-.01.22-.03.33-.06.1-.01.2-.03.31-.04.1-.03.2-.05.31-.06s.21-.03.31-.04c.11-.03.23-.05.35-.06.11-.03.22-.05.33-.06.11-.03.22-.05.33-.08l.33-.08c.45-.25.91-.5,1.36-.76.44-.27.88-.54,1.32-.8.43-.26.86-.52,1.3-.78.44-.27.88-.55,1.32-.82.4-.23.79-.47,1.18-.72.08-.05.17-.11.25-.16.25-.25.5-.49.74-.74.26-.26.51-.52.74-.78.25-.26.5-.51.74-.76.23-.25.47-.49.72-.74.23-.25.47-.5.7-.78.23-.26.46-.53.68-.82.07-.1.14-.18.23-.27.06-.11.11-.21.17-.31.06-.1.11-.2.17-.31.04-.1.09-.2.14-.31.04-.1.09-.2.14-.31.04-.12.09-.24.14-.35.06-.12.11-.24.17-.35.06-.12.11-.24.17-.35.06-.12.11-.25.17-.37.15-.48.3-.96.45-1.45.21-.67.48-1.31.83-1.92.29-.5.67-.93,1.14-1.27.45-.34.96-.55,1.53-.63s1.12-.02,1.67.18c.45.16.86.42,1.22.76.21.22.39.45.54.7.04.1.08.18.12.27.04.1.08.18.1.27.04.1.08.19.12.29.03.11.06.22.08.35.01.12.03.25.04.37v.37M156.96,188.58s.08,0,.12.02c.03.01.06.03.1.04.03.03.06.05.08.08l.08.08s.03.07.04.1c.01.04.02.08.02.12s0,.08-.02.12c-.01.04-.03.08-.06.12-.03.03-.06.05-.08.08-.03.03-.06.05-.1.08.04.01.08.03.12.04.03.01.06.03.1.04.06.03.11.05.17.06.06.01.11.03.17.04,1.69-.12,3.38-.13,5.08-.02,1.87.14,3.76.16,5.65.06,2.19-.12,4.35-.45,6.5-.98,1.62-.42,3.24-.87,4.85-1.33,1.02-.29,2.06-.47,3.12-.55.04,0,.08,0,.12.02.04,0,.08,0,.12.02.04.01.08.03.12.04.04.01.08.03.1.04.04.01.08.03.1.06.04.01.08.03.1.06.04.03.08.05.1.08.03.03.06.05.1.08.03.03.06.06.08.1.01.03.03.05.06.08.03.04.05.08.06.12.03.03.05.06.06.1.01.04.03.07.06.1.01.04.02.08.02.12.01.04.03.08.04.12,0,.04,0,.08.02.12v.25s-.02.08-.02.12c-.01.04-.02.08-.02.12-.01.04-.03.07-.04.1-.03.04-.05.08-.06.12-.01.04-.03.07-.06.1-.01.04-.03.08-.06.12-.03.03-.05.05-.06.08-.03.04-.06.07-.08.1-.04.03-.08.05-.1.08-.03.03-.06.05-.08.08-.04.01-.08.03-.12.06-.03.03-.06.05-.1.06-.03.01-.06.03-.1.04-.04.01-.08.03-.12.04-1.09.03-2.17.16-3.24.41-1.14.26-2.29.52-3.45.8-1.27.29-2.55.5-3.86.63-1.55.15-3.11.22-4.66.22-.65-.01-1.29-.03-1.94-.04-.56-.03-1.13-.05-1.69-.08-.54-.01-1.07-.07-1.59-.18-.54-.12-1.09-.22-1.65-.29-.55-.08-1.11-.13-1.67-.14-.54-.01-1.07-.05-1.59-.12-.17-.01-.33-.05-.5-.1-.04-.01-.09-.03-.14-.06-.04-.01-.08-.03-.12-.06-.06-.03-.1-.05-.14-.06-.04-.03-.08-.05-.12-.08-.04-.03-.08-.05-.12-.08-.04-.01-.08-.03-.12-.06-.03-.01-.06-.03-.08-.06-.04-.03-.08-.05-.1-.06-.03-.04-.06-.07-.08-.1-.03-.03-.05-.05-.06-.08-.03-.04-.05-.08-.06-.12s-.03-.09-.04-.14v-.29c0-.05,0-.11.02-.16,0-.04,0-.08.02-.12,0-.04,0-.07.02-.1.01-.04.03-.08.04-.12.03-.03.05-.06.06-.1.03-.03.06-.05.08-.08.03-.03.06-.05.1-.08.04-.01.08-.03.12-.04.04-.01.08-.02.12-.02h.27Z"/>
          <path class="st2" d="M157.08,188.6s-.08-.02-.12-.02h-.27s-.08,0-.12.02c-.04.01-.08.03-.12.04-.04.03-.08.05-.1.08-.03.03-.06.05-.08.08-.01.04-.03.07-.06.1-.01.04-.03.08-.04.12-.01.03-.02.06-.02.1-.01.04-.02.08-.02.12-.01.05-.02.11-.02.16v.29c.01.05.03.1.04.14s.03.08.06.12c.01.03.03.05.06.08.03.03.06.06.08.1.03.01.06.03.1.06.03.03.06.05.08.06.04.03.08.05.12.06.04.03.08.05.12.08.04.03.08.05.12.08.04.01.09.03.14.06.04.03.08.05.12.06.06.03.1.05.14.06.17.05.33.09.5.1.52.07,1.05.11,1.59.12.56.01,1.12.06,1.67.14.56.07,1.11.16,1.65.29.52.11,1.05.17,1.59.18.56.03,1.13.05,1.69.08.65.01,1.29.03,1.94.04,1.55,0,3.11-.07,4.66-.22,1.31-.14,2.59-.35,3.86-.63,1.16-.27,2.3-.54,3.45-.8,1.07-.25,2.15-.38,3.24-.41.04-.01.08-.03.12-.04.04-.01.08-.03.1-.04.04-.01.08-.03.1-.06.04-.03.08-.05.12-.06.03-.03.06-.05.08-.08.03-.03.06-.05.1-.08.03-.03.06-.06.08-.1.01-.03.03-.05.06-.08.03-.04.05-.08.06-.12.03-.03.05-.06.06-.1.01-.04.03-.08.06-.12.01-.03.03-.06.04-.1,0-.04,0-.08.02-.12,0-.04,0-.08.02-.12v-.25s-.02-.08-.02-.12c-.01-.04-.03-.08-.04-.12,0-.04,0-.08-.02-.12-.03-.03-.05-.06-.06-.1-.01-.04-.03-.07-.06-.1-.01-.04-.03-.08-.06-.12-.03-.03-.05-.05-.06-.08-.03-.04-.06-.07-.08-.1-.04-.03-.08-.05-.1-.08-.03-.03-.06-.05-.1-.08-.03-.03-.06-.05-.1-.06-.03-.03-.06-.05-.1-.06-.03-.01-.06-.03-.1-.04-.04-.01-.08-.03-.12-.04-.04-.01-.08-.02-.12-.02-.04-.01-.08-.02-.12-.02-1.06.08-2.1.27-3.12.55-1.61.46-3.23.91-4.85,1.33-2.15.53-4.31.86-6.5.98-1.9.1-3.78.07-5.65-.06-1.69-.11-3.38-.1-5.08.02-.06-.01-.11-.03-.17-.04-.06-.01-.11-.03-.17-.06-.04-.01-.08-.03-.1-.04-.04-.01-.08-.03-.12-.04.04-.03.08-.05.1-.08.03-.03.06-.05.08-.08.03-.04.05-.08.06-.12.01-.04.02-.08.02-.12s0-.08-.02-.12c-.01-.03-.03-.06-.04-.1l-.08-.08s-.06-.05-.08-.08c-.04-.01-.08-.03-.1-.04M187.98,149.7c.01-.12.03-.24.04-.35v-.37c-.01-.12-.03-.25-.04-.37-.03-.12-.06-.24-.08-.35-.04-.1-.08-.19-.12-.29-.03-.08-.06-.17-.1-.27-.04-.08-.08-.17-.12-.27-.15-.25-.33-.48-.54-.7-.36-.34-.76-.59-1.22-.76-.55-.2-1.11-.27-1.67-.18s-1.07.29-1.53.63c-.47.34-.85.76-1.14,1.27-.34.61-.62,1.25-.83,1.92-.15.49-.3.97-.45,1.45-.06.12-.11.25-.17.37-.06.11-.11.22-.17.35-.06.11-.11.22-.17.35-.06.11-.1.22-.14.35-.06.11-.1.21-.14.31-.06.11-.1.21-.14.31-.06.11-.11.21-.17.31-.06.1-.11.2-.17.31-.08.08-.16.17-.23.27-.22.29-.45.56-.68.82-.23.27-.47.53-.7.78-.25.25-.49.49-.72.74-.25.25-.5.5-.74.76-.23.26-.48.52-.74.78-.25.25-.5.49-.74.74-.08.05-.17.11-.25.16-.39.25-.78.48-1.18.72-.44.27-.88.55-1.32.82-.44.26-.87.52-1.3.78-.44.26-.88.52-1.32.8-.45.26-.91.51-1.36.76l-.33.08c-.11.03-.22.05-.33.08-.11.01-.22.03-.33.06-.12.01-.24.03-.35.06-.1.01-.2.03-.31.04s-.21.03-.31.06c-.11.01-.21.03-.31.04-.11.03-.22.05-.33.06-.11,0-.22,0-.33,0-.22-.01-.44-.03-.66-.04-.22-.03-.45-.05-.68-.06-.22-.03-.44-.05-.66-.06-.25-.03-.49-.04-.72-.04-.14-.01-.28-.01-.43,0-.23,0-.47,0-.7,0-.39-.05-.76-.16-1.14-.31-.41-.18-.83-.36-1.24-.55-.45-.2-.9-.43-1.34-.67-.43-.25-.85-.49-1.28-.74-.32-.18-.63-.35-.95-.51-.32-.18-.63-.37-.93-.57-.07-.05-.13-.12-.19-.18l-.02-.02s-.01-.01-.02-.02v-.02l-.02-.02s-.01-.01-.02-.02c-.07-.09-.14-.18-.21-.27-.08-.1-.17-.18-.25-.27-.07-.1-.14-.19-.23-.29-.07-.08-.14-.16-.23-.25-.07-.1-.14-.18-.23-.25-.08-.08-.17-.16-.27-.25-.07-.05-.13-.11-.19-.16-.07-.05-.13-.11-.19-.16-.07-.05-.13-.12-.19-.18-.06-.08-.11-.16-.17-.25-.1-.18-.2-.35-.31-.51-.1-.16-.2-.33-.31-.49-.11-.16-.23-.32-.37-.47-.12-.15-.25-.29-.39-.43-.18-.19-.36-.38-.54-.57-.18-.19-.36-.38-.54-.57-.07-.11-.13-.22-.19-.33-.18-.33-.32-.67-.43-1.04-.07-.23-.13-.47-.19-.72-.07-.25-.12-.49-.14-.74-.04-.26-.08-.52-.1-.78-.03-.25-.07-.48-.12-.72-.03-.22-.07-.44-.12-.65-.01-.11-.03-.21-.04-.31,0-.11,0-.22-.02-.33-.01-.1-.02-.2-.02-.31-.01-.1,0-.19.04-.29,0-.01.03-.02.08-.02.07-.01.13-.03.19-.04.06-.03.1-.06.14-.1.03-.04.06-.09.08-.14.01-.05.02-.11.02-.16,0-.05,0-.11-.02-.16-.03-.05-.06-.1-.08-.14-.04-.04-.09-.07-.14-.1-.06-.01-.12-.03-.19-.04-.11,0-.21,0-.31-.02h-.14c-.07-.01-.14-.03-.23-.06-.08.01-.17.03-.25.04-.06.03-.12.05-.19.08-.04.05-.09.11-.14.16-.03.05-.06.12-.08.18-.03.07-.06.14-.08.2-.01.07-.03.14-.04.22,0,.07,0,.14-.02.22-.01.1-.02.19-.02.29-.01.11-.03.22-.04.33,0,.08,0,.16-.02.25-.01.07-.02.14-.02.22-.04.11-.07.22-.08.33-.03.11-.06.22-.08.33-.03.12-.05.24-.06.35-.01.1-.02.18-.02.27-.01.1-.03.19-.04.29,0,.1,0,.18-.02.27s-.03.16-.04.22c0,.08,0,.16-.02.25-.01.11-.03.22-.04.35.01.12.03.25.04.37.04.35.1.71.17,1.06.07.33.14.65.23.98.07.33.17.65.29.96.12.33.28.64.47.94.18.3.35.6.52.9.15.26.3.52.45.8.03.1.06.19.1.29.04.1.08.19.1.29.04.11.08.21.12.31s.08.19.12.29c.04.1.08.19.12.29.04.1.09.19.14.29.04.08.09.17.14.27.07.08.13.16.19.25.07.1.14.18.21.27.07.08.14.17.21.27.07.1.13.19.19.29.06.11.11.21.17.31.06.1.11.19.17.29.06.11.11.21.17.31.06.11.11.21.17.31.06.1.11.2.17.31.25.37.55.69.91.96.74.59,1.49,1.16,2.23,1.72.73.55,1.47,1.05,2.23,1.51s1.54.89,2.35,1.27c.85.4,1.75.63,2.7.72.89.08,1.77.23,2.64.45.11.03.22.05.33.06.11.01.22.03.33.06.11.01.22.03.33.04.11,0,.22,0,.33.02.18-.01.35-.03.52-.04.87-.08,1.73-.15,2.6-.2.87-.05,1.69-.25,2.48-.57.8-.31,1.58-.65,2.33-1.02.77-.37,1.53-.75,2.27-1.15.66-.37,1.33-.72,2-1.06.11-.04.23-.08.35-.12.11-.04.22-.08.33-.12.1-.05.19-.11.29-.16.32-.2.61-.42.89-.65,1-.83,1.97-1.7,2.91-2.6.83-.8,1.61-1.64,2.35-2.52.84-.98,1.51-2.06,2.02-3.23.44-1,.78-2.02,1.03-3.09.22-.91.46-1.82.72-2.72M216.35,155.28c-.18-.1-.37-.17-.58-.22-.12-.03-.24-.05-.35-.08-.07-.04-.14-.07-.21-.1-.21-.11-.41-.2-.62-.29-.15-.05-.3-.11-.43-.16-.15-.04-.3-.08-.45-.12-.14-.03-.28-.06-.43-.1-.21-.04-.42-.07-.64-.1-.14-.01-.28-.03-.41-.04-.07.01-.14.02-.21.02-.07.01-.14.03-.21.04-.07,0-.14,0-.21.02-.06.03-.12.05-.19.06-.06.03-.12.05-.19.08-.06.01-.12.04-.19.08-.06.03-.11.05-.17.08-.06.03-.1.06-.14.1-.06.03-.11.06-.17.1-.11.07-.22.13-.33.18-.11.07-.21.14-.31.22-.06.03-.1.07-.14.12-.03.03-.06.05-.08.08-.03.04-.06.07-.1.1-.06.04-.11.07-.17.1-.06.03-.12.06-.19.1-.06.04-.11.08-.17.12-.04.04-.09.08-.14.12-.03.04-.06.09-.1.14-.03.04-.06.09-.08.14-.03.05-.05.11-.06.16-.01.07-.03.13-.04.18.01.07.02.13.02.18.01.05.02.12.02.18.03.04.05.09.06.14.03.05.06.1.08.14.04.04.08.09.1.14-.06.04-.1.07-.14.1-.03.04-.06.08-.1.12-.03.04-.06.08-.08.12-.01.01-.02.03-.02.04-.03,0-.06,0-.08.02-.04.01-.08.03-.12.06-.04.03-.08.05-.12.08-.03.03-.06.05-.08.08-.04.03-.07.06-.08.1-.03.04-.05.08-.06.12-.01.04-.02.08-.02.12-.01.04-.02.09-.02.14.01.04.02.08.02.12.03.05.05.1.06.14.03.04.06.08.08.12.03.03.06.05.1.08.04.04.08.07.12.08.04.03.08.05.12.06.03.01.06.02.1.02.03.01.06.03.08.04.04.01.08.03.12.06.04.01.08.03.12.04.04.01.08.01.12,0,.04,0,.08,0,.12-.02.04-.03.08-.05.12-.06.06-.01.1-.03.14-.04.04-.01.09-.03.14-.04.07.01.13.03.19.04.06.01.11.03.17.04.07.01.13.03.19.04s.12.03.19.06c.11.03.22.06.33.1l.17.08c.17.08.34.16.52.22.17.07.34.12.54.14.18.03.36.05.54.08.18.01.36.03.56.04.15.01.3.07.43.18.04.03.09.05.14.08.06.01.1.03.14.06.06.01.11.03.17.04.06.01.11.02.17.02.06.01.11.02.17.02.06,0,.1,0,.14-.02.06,0,.1,0,.14-.02.06,0,.1,0,.14-.02.03,0,.06-.02.08-.04.02.06.04.11.06.16.04.05.08.11.1.16.04.07.08.13.1.18.04.05.08.1.12.14.06.05.1.11.14.16.07.05.14.11.21.16.06.05.12.1.19.14.07.05.14.11.21.16.08.03.16.06.23.1.08.04.17.07.25.1.08.03.17.06.25.1.07.01.13.03.19.04.07.01.14.02.21.02.07.01.14.03.21.04.07,0,.14,0,.21.02.08,0,.17,0,.25,0,.08.01.17.02.25.02.12,0,.25-.01.37-.04.3-.04.58-.14.83-.29.32-.18.57-.42.76-.72.21-.29.34-.61.39-.96.07-.4.03-.78-.1-1.17-.12-.33-.31-.61-.56-.86-.29-.29-.63-.48-1.01-.59-.06-.05-.1-.11-.14-.16-.06-.04-.11-.09-.17-.14-.06-.04-.1-.08-.14-.12-.03-.03-.06-.05-.08-.08-.1-.11-.2-.22-.31-.33-.1-.11-.2-.22-.31-.33s-.22-.21-.33-.31-.23-.19-.35-.29c-.11-.08-.23-.16-.35-.22Z"/>
        </g>
        <g id="meerkathead_0_Layer3_0_FILL">
          <path class="st20" d="M146.97,89.85c-1.35-1.57-2.96-2.82-4.83-3.76-5.01-2.55-9.97-2.52-14.9.08-1.36.71-2.6,1.61-3.71,2.7-3.74,3.64-6.89,7.74-9.45,12.31-2.53,4.49-4.51,9.2-5.92,14.13-1.47,5.14-1.36,10.21.35,15.2.72,2.09,1.73,4.01,3.05,5.77,2.37,3.14,5.52,5.13,9.45,5.97,5.35,1.16,10.61.87,15.77-.86,5.13-1.69,9.34-4.63,12.63-8.82,3.45-4.4,5.5-9.36,6.13-14.87,0-.01-.02-.03-.06-.04.14-5.24-.5-10.36-1.9-15.36-1.31-4.65-3.51-8.8-6.6-12.46M147.34,118.89c.43.03.84.14,1.24.33.39.18.74.42,1.05.72.06.08.12.16.19.25.07.08.13.16.19.25.07.08.13.16.19.25.66,1.39.68,2.8.06,4.21-.44,1.05-1.05,2-1.84,2.86-1.17,1.27-2.4,2.48-3.69,3.64-1.28,1.12-2.6,2.19-3.96,3.21-1.43,1.06-3.01,1.77-4.75,2.11-.94.19-1.88.27-2.83.22-.33-.01-.67-.04-1.01-.08-.34-.04-.68-.1-1.01-.18-.25-.07-.5-.14-.74-.22-.23-.08-.47-.17-.7-.27-.23-.1-.47-.19-.7-.29-.29-.12-.58-.26-.87-.41-.94-.68-1.88-1.35-2.83-2-.95-.68-1.66-1.55-2.15-2.6-.45-1.01-.89-2.02-1.32-3.05-.47-1.16-.72-2.35-.74-3.58-.03-1.08.2-2.11.68-3.11.11-.26.25-.5.41-.74.04-.07.09-.14.14-.2.06-.04.11-.09.17-.14.06-.04.12-.09.19-.14.07-.03.14-.05.23-.08.08-.03.17-.05.25-.06.08,0,.17,0,.27-.02.08.01.17.02.27.02.08.03.17.05.27.08.07.03.14.06.23.1.08.05.16.11.23.16.06.07.11.14.17.2.04.05.08.12.1.18.01.08.03.16.04.22v.29c-.01.07-.03.13-.04.18-.03.05-.06.1-.1.14-.04.03-.09.05-.14.08-.06.01-.11.02-.17.02s-.11,0-.17-.02c-.06-.03-.1-.05-.14-.08-.04-.04-.08-.09-.1-.14-.01-.05-.03-.12-.04-.18v-.16s-.06-.05-.08-.06c-.06-.01-.11-.03-.17-.04-.03,0-.06,0-.08.02-.03,0-.06,0-.08.02v.02c.03.12.06.24.08.35.04.12.08.25.12.37.04.11.08.22.12.35.04.11.08.22.12.35.04.11.08.21.12.31.04.11.08.22.12.33.01.11.03.22.06.33.01.1.03.2.06.31.03.1.06.19.08.29s.06.19.08.29c.06.12.12.24.19.35.06.11.12.22.19.35.06.11.12.22.19.33.06.12.12.24.19.35.06.11.12.22.19.35.06.11.12.22.19.33.08.08.17.16.27.25.08.07.17.14.25.22s.17.16.25.25c.07.1.14.2.21.31.07.1.14.19.21.29.07.1.13.19.19.29.07.11.13.21.19.31.07.1.14.19.21.29.06.07.11.13.17.18.06.07.11.13.17.18.11.07.22.13.33.18.11.07.22.13.33.18.11.05.22.11.33.16.22.11.44.22.66.33.11.05.22.12.33.18.11.05.22.11.33.16.11.05.22.11.33.16.11.05.22.12.33.18.1.03.2.06.31.1.11.03.21.05.31.08.11.03.22.05.33.08.11.03.22.05.33.08.08,0,.17,0,.25,0,.08-.01.17-.02.25-.02.12,0,.24,0,.35-.02.12,0,.24,0,.35-.02.12,0,.24,0,.35-.02.12-.03.25-.05.37-.08.12-.04.25-.07.37-.1.12-.04.25-.08.37-.12.11-.04.23-.08.35-.12.5-.3.97-.63,1.42-.98.47-.38.94-.76,1.4-1.15.5-.41.97-.84,1.42-1.29.54-.53,1.08-1.06,1.63-1.57.43-.41.85-.82,1.26-1.23.18-.16.35-.33.52-.51.07-.11.14-.21.21-.31.08-.11.16-.21.23-.31.07-.11.14-.22.21-.33.08-.11.16-.21.23-.31.01-.1.03-.18.04-.27.01-.1.03-.18.04-.27.11-.41.29-.78.54-1.12.25-.35.55-.65.91-.9.34-.25.73-.42,1.16-.53.41-.11.83-.14,1.26-.1M208.24,88.46c-1.11-1.09-2.35-1.99-3.71-2.7-4.93-2.6-9.89-2.63-14.9-.08-1.87.94-3.48,2.2-4.83,3.76-3.1,3.65-5.3,7.81-6.6,12.46-1.4,5-2.04,10.12-1.9,15.36-.04.01-.06.03-.06.04.63,5.51,2.68,10.46,6.13,14.87,3.29,4.19,7.5,7.12,12.63,8.82,5.16,1.73,10.41,2.02,15.77.86,3.93-.85,7.09-2.84,9.45-5.97,1.32-1.76,2.34-3.68,3.05-5.77,1.71-4.99,1.82-10.06.35-15.2-1.42-4.94-3.39-9.65-5.92-14.13-2.56-4.57-5.71-8.67-9.45-12.31M207.07,113.05c1.31.33,2.21,1.13,2.7,2.41.76,2.05,1.07,4.17.95,6.38-.06,1.06-.18,2.13-.37,3.19-.3,1.81-.97,3.48-2,4.99-.22.34-.47.65-.74.94-.32.83-.83,1.49-1.55,1.98-.7.48-1.47.85-2.29,1.1-1.11.35-2.24.67-3.38.96-1.05.26-2.1.42-3.18.47-1.2.05-2.38-.03-3.55-.27-.4-.15-.8-.3-1.22-.45-.44-.15-.87-.31-1.3-.49-.44-.2-.87-.42-1.3-.65-.4-.22-.78-.48-1.16-.78-.34-.27-.67-.57-.97-.9-.23-.25-.47-.49-.72-.74-.12-.16-.23-.33-.33-.51-.1-.16-.19-.33-.27-.51-.07-.16-.14-.32-.21-.47s-.14-.3-.23-.45c-.08-.16-.16-.33-.23-.51-.08-.19-.15-.38-.21-.57-.06-.22-.11-.43-.17-.63-.01-.1-.02-.19-.02-.29.01-.08.02-.16.02-.25.06-.07.11-.14.17-.22.07-.04.14-.07.23-.1.07-.01.14-.03.23-.04.07.03.14.05.23.06.06.05.11.11.17.16.06.04.11.08.17.12.07.07.14.14.23.2.07.08.14.16.21.25.04.05.08.11.12.16.01.07.03.13.06.18,0,.07,0,.14.02.2,0,.04,0,.07-.02.1.01.01.03.03.04.04.08.1.17.2.25.31.07.1.15.19.25.29.08.1.17.19.25.29.08.1.17.19.27.29.08.08.17.17.25.27.62.4,1.24.8,1.86,1.21.27.19.56.35.87.49.15.07.31.13.47.18.51.19,1.02.32,1.55.39.67.11,1.36.14,2.04.08.84-.07,1.67-.2,2.5-.39.11-.03.23-.05.35-.08.1-.05.2-.11.31-.16l.62-.37c.19-.12.39-.25.6-.39.1-.07.2-.13.31-.18.1-.07.2-.14.31-.2.1-.07.2-.13.31-.18.1-.07.2-.14.31-.2.1-.07.2-.14.31-.2.03-.04.06-.09.08-.14.06-.1.11-.2.17-.31.03-.1.06-.19.08-.29.01-.1.04-.19.08-.29.06-.2.12-.4.19-.59.03-.1.06-.19.1-.29.06-.08.1-.17.14-.27.06-.08.11-.16.17-.25.06-.08.12-.16.19-.25.06-.08.11-.16.17-.25l.12-.16c.03-.05.06-.11.08-.16.18-.49.32-.99.43-1.49.1-.49.14-.98.14-1.47.01-.5.01-1.02,0-1.53,0-.5,0-1.02.02-1.53.01-.67.02-1.34.02-2-.03-.08-.06-.16-.08-.25-.72-1.4-.57-2.71.43-3.91.89-1.05,2.02-1.41,3.36-1.08Z"/>
          <path class="st22" d="M148.58,119.22c-.4-.19-.81-.3-1.24-.33-.43-.04-.85,0-1.26.1-.43.11-.81.29-1.16.53-.36.25-.66.55-.91.9-.25.34-.43.72-.54,1.12-.01.08-.03.17-.04.27-.01.08-.03.17-.04.27-.07.1-.14.2-.23.31-.07.11-.14.22-.21.33-.07.1-.14.2-.23.31-.07.1-.14.2-.21.31-.17.18-.34.35-.52.51-.41.41-.83.82-1.26,1.23-.55.52-1.09,1.04-1.63,1.57-.45.45-.93.88-1.42,1.29-.47.38-.94.76-1.4,1.15-.45.35-.93.68-1.42.98-.12.04-.24.08-.35.12-.12.04-.25.08-.37.12-.12.03-.25.06-.37.1-.12.03-.25.05-.37.08-.11.01-.23.02-.35.02-.11.01-.23.02-.35.02-.11.01-.23.02-.35.02-.08,0-.17,0-.25.02-.08,0-.17,0-.25,0-.11-.03-.22-.05-.33-.08-.11-.03-.22-.05-.33-.08-.1-.03-.2-.05-.31-.08-.11-.04-.21-.07-.31-.1-.11-.07-.22-.13-.33-.18-.11-.05-.22-.11-.33-.16-.11-.05-.22-.11-.33-.16-.11-.07-.22-.13-.33-.18-.22-.11-.44-.22-.66-.33-.11-.05-.22-.11-.33-.16-.11-.05-.22-.12-.33-.18-.11-.05-.22-.12-.33-.18-.06-.05-.11-.12-.17-.18-.06-.05-.11-.12-.17-.18-.07-.1-.14-.19-.21-.29-.06-.1-.12-.2-.19-.31-.06-.1-.12-.19-.19-.29-.07-.1-.14-.19-.21-.29-.07-.11-.14-.21-.21-.31-.08-.08-.17-.16-.25-.25s-.17-.16-.25-.22c-.1-.08-.19-.16-.27-.25-.07-.11-.13-.22-.19-.33-.07-.12-.13-.24-.19-.35-.07-.11-.13-.22-.19-.35-.07-.11-.13-.22-.19-.33-.07-.12-.13-.24-.19-.35-.07-.11-.13-.22-.19-.35-.03-.1-.06-.19-.08-.29s-.06-.19-.08-.29c-.03-.11-.05-.21-.06-.31-.03-.11-.05-.22-.06-.33-.04-.11-.08-.22-.12-.33-.04-.1-.08-.2-.12-.31-.04-.12-.08-.24-.12-.35-.04-.12-.08-.24-.12-.35-.04-.12-.08-.25-.12-.37-.03-.11-.06-.22-.08-.35v-.02s.06-.02.08-.02c.03-.01.06-.02.08-.02.06.01.11.03.17.04.03.01.06.03.08.06v.16c.01.07.03.13.04.18.03.05.06.1.1.14.04.03.09.05.14.08.06.01.11.02.17.02s.11,0,.17-.02c.06-.03.1-.05.14-.08.04-.04.08-.09.1-.14.01-.05.03-.12.04-.18v-.29c-.01-.07-.03-.14-.04-.22-.03-.07-.06-.13-.1-.18-.06-.07-.11-.14-.17-.2-.07-.05-.14-.11-.23-.16-.08-.04-.16-.07-.23-.1-.1-.03-.19-.05-.27-.08-.1,0-.19,0-.27-.02-.1.01-.19.02-.27.02-.08.01-.17.03-.25.06-.08.03-.16.05-.23.08-.07.05-.13.1-.19.14-.06.05-.11.1-.17.14-.06.07-.1.14-.14.2-.17.23-.3.48-.41.74-.48,1-.71,2.03-.68,3.11.03,1.23.28,2.42.74,3.58.43,1.02.87,2.04,1.32,3.05.48,1.05,1.2,1.92,2.15,2.6.95.65,1.89,1.32,2.83,2,.29.15.58.29.87.41.23.1.47.19.7.29.23.1.47.18.7.27.25.08.5.16.74.22.33.08.67.14,1.01.18.34.04.68.07,1.01.08.95.04,1.89-.03,2.83-.22,1.73-.34,3.32-1.04,4.75-2.11,1.36-1.02,2.68-2.09,3.96-3.21,1.29-1.16,2.52-2.37,3.69-3.64.78-.86,1.4-1.81,1.84-2.86.62-1.42.6-2.82-.06-4.21-.06-.08-.12-.16-.19-.25-.06-.08-.12-.16-.19-.25-.07-.08-.13-.16-.19-.25-.32-.3-.67-.54-1.05-.72M209.77,115.46c-.5-1.28-1.4-2.09-2.7-2.41-1.35-.33-2.47.03-3.36,1.08-1,1.2-1.15,2.5-.43,3.91.03.08.06.16.08.25,0,.67,0,1.34-.02,2-.01.52-.02,1.03-.02,1.53.01.52.01,1.03,0,1.53,0,.49-.05.98-.14,1.47-.11.5-.25,1-.43,1.49-.03.05-.06.11-.08.16l-.12.16c-.06.08-.11.16-.17.25-.07.08-.13.16-.19.25-.06.08-.11.16-.17.25-.04.1-.09.18-.14.27-.04.1-.08.19-.1.29-.07.19-.13.39-.19.59-.04.1-.07.19-.08.29-.03.1-.06.19-.08.29-.06.11-.11.21-.17.31-.03.05-.06.1-.08.14-.11.07-.21.14-.31.2-.11.07-.21.14-.31.2-.11.05-.21.12-.31.18-.11.07-.21.14-.31.2-.11.05-.21.12-.31.18-.21.14-.41.27-.6.39l-.62.37c-.11.05-.21.11-.31.16-.12.03-.24.05-.35.08-.83.19-1.66.32-2.5.39-.69.05-1.37.03-2.04-.08-.52-.07-1.04-.2-1.55-.39-.16-.06-.32-.12-.47-.18-.3-.14-.59-.3-.87-.49-.62-.41-1.24-.81-1.86-1.21-.08-.1-.17-.18-.25-.27-.1-.1-.19-.19-.27-.29-.08-.1-.17-.19-.25-.29-.1-.1-.18-.19-.25-.29-.08-.11-.17-.21-.25-.31-.01-.01-.03-.03-.04-.04.01-.03.02-.06.02-.1-.01-.07-.02-.14-.02-.2-.03-.05-.05-.12-.06-.18-.04-.05-.08-.11-.12-.16-.07-.08-.14-.16-.21-.25-.08-.07-.16-.14-.23-.2-.06-.04-.11-.08-.17-.12-.06-.05-.11-.11-.17-.16-.08-.01-.16-.03-.23-.06-.08.01-.16.03-.23.04-.08.03-.16.06-.23.1-.06.08-.11.16-.17.22,0,.08,0,.16-.02.25,0,.1,0,.19.02.29.06.2.11.42.17.63.06.19.12.38.21.57.07.18.14.35.23.51.08.15.16.3.23.45s.14.31.21.47c.08.18.17.35.27.51.1.18.21.35.33.51.25.25.49.49.72.74.3.33.63.63.97.9.37.3.76.56,1.16.78.43.23.86.45,1.3.65.43.18.86.34,1.3.49.41.15.82.3,1.22.45,1.17.23,2.35.32,3.55.27,1.07-.05,2.13-.21,3.18-.47,1.14-.29,2.27-.61,3.38-.96.83-.26,1.59-.63,2.29-1.1.72-.49,1.23-1.15,1.55-1.98.28-.29.52-.6.74-.94,1.03-1.51,1.7-3.18,2-4.99.19-1.06.32-2.13.37-3.19.12-2.21-.19-4.34-.95-6.38Z"/>
        </g>
        <g id="meerkathead_0_Layer3_1_FILL">
          <path class="st14" d="M220.54,93.3c-.54-1.75-1.34-3.38-2.39-4.9-.56-.82-1.2-1.61-1.92-2.37-2.06-2.17-4.22-4.18-6.49-6.04-4.15-3.41-8.86-5.61-14.12-6.61-1.62-.31-3.18-.19-4.68.35-.31.12-.44.34-.41.65,3.95,2.77,8.18,5.29,12.67,7.57,5.19,2.68,9.96,5.91,14.3,9.67.78.67,1.53,1.36,2.27,2.06.17.17.35.16.51-.04.11-.1.19-.22.26-.34Z"/>
        </g>
        <g id="meerkathead_0_Layer3_2_FILL">
          <path class="st14" d="M138,74.87c.26-.14.41-.33.47-.58-.58-1.02-1.61-1.4-3.1-1.13-2.73.18-5.35.77-7.86,1.78-3.4,1.43-6.53,3.34-9.39,5.72-.89.76-1.75,1.53-2.58,2.33-.3.3-.6.6-.9.89-1.57,1.6-3.03,3.3-4.37,5.1-1.13,1.24-1.75,2.63-1.87,4.19,0,.04.02.09.07.15.21.16.4.16.57,0,7.12-6.23,15-11.44,23.62-15.65,1.81-.87,3.59-1.81,5.34-2.83Z"/>
        </g>
        <g id="meerkathead_0_Layer2_0_FILL">
          <path class="st21" d="M175.82,137.67c-4.76-.71-9.56-.93-14.4-.67-3.65.04-7.14.8-10.48,2.27-1.66.71-2.9,1.84-3.71,3.4-1.64,3.14-1.73,6.32-.27,9.55.8,1.8,1.86,3.4,3.2,4.79,3.89,4.08,8.67,6.37,14.32,6.87,3.04.18,6.04-.16,9-1.02,4.32-1.27,7.99-3.52,11-6.77.56-.61.95-1.37,1.16-2.27.03-.1.07-.18.12-.27,2.24-3.72,2.35-7.41.33-11.06-.44-.76-1.05-1.38-1.82-1.84-2.59-1.58-5.4-2.57-8.44-2.97M184.41,153.4c-.91,3.03-2.86,4.68-5.86,4.97-1.42-.08-2.66-.58-3.71-1.49-2.13-1.88-2.5-4.03-1.09-6.44.59-1,1.46-1.66,2.6-2,3.55-1.08,6.17-.16,7.86,2.76.39.64.45,1.38.21,2.21M150.6,155.5c-2.35-2.09-2.64-4.35-.87-6.79,2.85-1.87,5.87-2.09,9.08-.65,1.53.71,2.2,1.94,2.02,3.68-.3,2.88-1.92,4.55-4.85,5.03-1.46.22-2.85.05-4.17-.51-.44-.18-.85-.43-1.22-.76Z"/>
          <path class="st3" d="M149.74,148.71c-1.77,2.44-1.49,4.7.87,6.79.37.33.78.58,1.22.76,1.32.56,2.71.73,4.17.51,2.93-.48,4.55-2.15,4.85-5.03.18-1.75-.5-2.97-2.02-3.68-3.21-1.43-6.23-1.21-9.08.65M178.55,158.37c3-.29,4.95-1.94,5.86-4.97.25-.83.18-1.57-.21-2.21-1.69-2.92-4.31-3.84-7.86-2.76-1.14.34-2.01,1.01-2.6,2-1.4,2.41-1.04,4.56,1.09,6.44,1.06.91,2.3,1.41,3.71,1.49Z"/>
          <path class="st14" d="M209.11,159.02c-.85.16-1.7.36-2.54.59l.89.8,3.16-.63c-1.9,3.46-4.48,6.23-7.76,8.3-1.87,1.2-3.81,2.28-5.82,3.25-3.45,1.69-7.02,3.03-10.71,4.01-3.4.9-6.83,1.5-10.3,1.8-1.93.14-3.86.2-5.8.18-5.24.35-10.44.05-15.6-.92-4.66-.89-9.22-2.07-13.68-3.56-2.46-.78-4.91-1.59-7.35-2.43,5.01,2.93,10.37,5.04,16.1,6.32,2.85.63,5.7,1.15,8.54,1.55,5.43.78,10.88.99,16.34.63,4.75-.31,9.4-1.17,13.95-2.58,3.47-1.05,6.84-2.37,10.11-3.95,3.47-1.65,6.55-3.82,9.25-6.5,1.68-1.69,3.14-3.58,4.37-5.67l3.18,1.02,1.01-.35c-.61-.79-1.39-1.38-2.35-1.78-1.09-.42-2.17-.57-3.26-.45-.59.08-1.17.2-1.73.35Z"/>
        </g>
        <g id="meerkathead_0_Layer2_1_FILL">
          <path class="st15" d="M194.09,97.6c-2.35-1.49-4.79-1.7-7.31-.63-1.79.78-2.98,2.1-3.57,3.97-1.55,4.98-2.33,10.08-2.33,15.32.01,5.6,2.1,10.21,6.27,13.81,1.24,1.08,2.67,1.87,4.29,2.37,3.81,1.27,7.57,1.23,11.27-.1,1.05-.38,1.93-1,2.64-1.86,2.2-2.65,3.16-5.73,2.89-9.26-.18-5.39-1.8-10.29-4.87-14.73-2.49-3.61-5.59-6.57-9.29-8.88Z"/>
        </g>
        <g id="meerkathead_0_Layer2_1_MEMBER_0_FILL">
          <path class="st25" d="M197.14,111.02c-.78-3.87-2.99-6.35-6.63-7.44-.48-.14-.92-.07-1.32.21-2.62,1.93-3.97,4.57-4.07,7.93-.18,5.82,1.74,10.76,5.78,14.84.43.42.96.66,1.6.7,3,.44,4.78-.78,5.33-3.66.81-4.23.58-8.42-.68-12.58Z"/>
        </g>
        <g id="meerkathead_0_Layer2_2_FILL">
          <path class="st15" d="M144.99,97.38c-2.52-1.06-4.95-.85-7.31.63-3.7,2.3-6.8,5.26-9.29,8.88-3.07,4.43-4.69,9.34-4.87,14.73-.28,3.53.69,6.62,2.89,9.26.72.86,1.6,1.48,2.64,1.86,3.7,1.34,7.46,1.37,11.27.1,1.62-.5,3.05-1.3,4.29-2.37,4.17-3.6,6.26-8.2,6.27-13.81,0-5.24-.78-10.34-2.33-15.32-.59-1.87-1.78-3.19-3.57-3.97Z"/>
        </g>
        <g id="meerkathead_0_Layer2_2_MEMBER_0_FILL">
          <path class="st25" d="M134.63,111.43c.78-3.87,2.99-6.35,6.63-7.44.48-.14.92-.07,1.32.21,2.62,1.93,3.97,4.57,4.07,7.93.18,5.82-1.74,10.76-5.78,14.84-.43.42-.96.66-1.6.7-3,.44-4.78-.78-5.33-3.66-.81-4.23-.58-8.42.68-12.58Z"/>
        </g>
        <g id="meerkathead_0_Layer1_0_FILL">
          <path class="st6" d="M150.6,144.44c.07.05.15.1.25.14.07.04.15.07.25.1.18.11.37.18.58.22.21.08.42.15.64.2.12-.03.25-.05.39-.06.04,0-.75-.29-2.35-.84.01.02.03.04.04.06.06.05.12.11.21.16Z"/>
          <path class="st23" d="M178.34,142.74l7.31.84-2.64-2.13c-3.76-1.55-7.64-2.54-11.66-2.95-7.61-.87-14.92.23-21.94,3.31l.17.84c1.16-.01,2.31-.1,3.47-.25,8.49-.82,16.92-.71,25.3.33Z"/>
        </g>
        <g id="meerkathead_0_Layer0_0_FILL">
          <path class="st15" d="M190.3,111.14c-.21.14.08-.02.05-.02M194.59,113.63c-.24-4.32-5.6-3.01-5.11.81.72,3.81,5.09,2.58,5.11-.73M143.73,112.2c-1.07-2.36-3.89-1.44-4.26.81-.42,2.42,2,5.02,3.79,2.77.8-.93,1.04-2.41.5-3.52l-.03-.07Z"/>
        </g>
      </g>
      <g>
        <path class="st11" d="M110.45,225.94c-6.02-1.93-23.16,27.88-31.84,59-6.02,21.57-10.87,38.95-3.75,59,9.64,27.15,34.3,39.7,41.58,43.08.77,4.17,1.91,9.96,3.48,16.84,3.12,13.63,4.41,16.05,6.63,18.01,4.66,4.12,11.95,4.93,17.61,3,10.35-3.53,13.67-15.71,13.86-22.82.04-1.46.31-11.47-5.99-18.01-2.41-2.5-5.52-4.22-10.23-9.74-1.37-1.6-2.15-2.69-3.49-4.48-4.15-5.57-8.84-11.88-12.88-16.5-2.85-3.26-7.12-7.67-13.11-12.36,1.11-5.74,2.45-14.61,2.49-25.47.05-12.64-1.68-21.67-2.49-26.6-6.05-36.78,3.44-61.23-1.87-62.94Z"/>
        <path class="st17" d="M152.39,384.24c-2.46-2.55-5.62-4.29-10.42-9.92-.68-.79-1.21-1.46-1.74-2.15-.14.09-.27.2-.39.33-.15.17-.24.31-.25.33-.85,1.42-5.83,2.95-5.83,2.95-4.07,1.25-3.2,3.55-8,5.45-2.28.9-2.69.47-5.2,1.48-2.61,1.05-4.52,2.47-5.75,3.53-.03.2,0,.34.04.43.16.4.68.65,1.3.62.78,4.25,1.94,10.14,3.55,17.14,3.18,13.88,4.49,16.34,6.75,18.33,4.75,4.19,12.17,5.01,17.93,3.05,10.53-3.59,13.91-15.99,14.11-23.24.04-1.49.32-11.68-6.1-18.34Z"/>
      </g>
      <g>
        <path class="st11" d="M216.04,227.59c6.02-1.93,23.16,27.88,31.84,59,6.02,21.57,10.87,38.95,3.75,59-9.64,27.15-34.3,39.7-41.58,43.08-.77,4.17-1.91,9.96-3.48,16.84-3.12,13.63-4.41,16.05-6.63,18.01-4.66,4.12-11.95,4.93-17.61,3-10.35-3.53-13.67-15.71-13.86-22.82-.04-1.46-.31-11.47,5.99-18.01,2.41-2.5,5.52-4.22,10.23-9.74,1.37-1.6,2.15-2.69,3.49-4.48,4.15-5.57,8.84-11.88,12.88-16.5,2.85-3.26,7.12-7.67,13.11-12.36-1.11-5.74-2.45-14.61-2.49-25.47-.05-12.64,1.68-21.67,2.49-26.6,6.05-36.78-3.44-61.23,1.87-62.94Z"/>
        <path class="st17" d="M174.1,385.9c2.46-2.55,5.62-4.29,10.42-9.92.68-.79,1.21-1.46,1.74-2.15.14.09.27.2.39.33.15.17.24.31.25.33.85,1.42,5.83,2.95,5.83,2.95,4.07,1.25,3.2,3.55,8,5.45,2.28.9,2.69.47,5.2,1.48,2.61,1.05,4.52,2.47,5.75,3.53.03.2,0,.34-.04.43-.16.4-.68.65-1.3.62-.78,4.25-1.94,10.14-3.55,17.14-3.18,13.88-4.49,16.34-6.75,18.33-4.75,4.19-12.17,5.01-17.93,3.05-10.53-3.59-13.91-15.99-14.11-23.24-.04-1.49-.32-11.68,6.1-18.34Z"/>
      </g>
    </g>
  </g>
</svg>