<?xml version="1.0" encoding="UTF-8"?>
<svg id="Layer_1" data-name="Layer 1" xmlns="http://www.w3.org/2000/svg" viewBox="0 0 745.71 747.3">
  <defs>
    <style>
      .cls-1 {
        fill: #c6e1d9;
      }

      .cls-2 {
        fill: #fff;
      }
    </style>
  </defs>
  <path class="cls-1" d="M672.19,606.91c-73.06,155.92-221.61,161.19-368.26,115.06-134.16-13.72-225.09-126.48-261.16-249.23C-34.06,318.55-10.83,196.72,140.53,105.83,285.05,20.55,354.26-48.76,522.18,44.53c78.28,43.53,136.12,112.14,191.1,181.07,28.78,36.02,38.41,77.92,28.89,125.7-30.26,84.97-26.66,175.32-69.98,255.64v-.02Z"/>
  <g>
    <path class="cls-2" d="M480.94,432.12l-24.07,12.04c-3.26,1.57-6.62,2.37-9.97,2.37-4.79,0-9.37-1.52-13.25-4.4-.89-.67-1.62-1.3-2.27-1.96h-66.03c-4.46,0-8.09-3.63-8.09-8.09s3.63-8.09,8.09-8.09h59.28c0-1.06.09-2.19.28-3.42l4.54-27.12c.54-3.28,1.8-6.37,3.65-9h-67.75c-4.46,0-8.09-3.63-8.09-8.09s3.63-8.09,8.09-8.09h80.21l52.1-67.5v-70.35c0-9.71-7.87-17.57-17.58-17.57h-186.5c-9.71,0-17.57,7.87-17.57,17.57v117.13c2.86-.45,5.85-.67,8.88-.67,31.68,0,57.46,25.78,57.46,57.46,0,12.56-4.16,24.87-11.75,34.8,18.48,8.69,31.48,24.97,35.85,44.95h113.64c9.71,0,17.57-7.87,17.57-17.57v-52.56l-9.1,11.81c-1.99,2.63-4.54,4.77-7.61,6.36ZM365.35,256.8h87.96c4.46,0,8.09,3.63,8.09,8.09s-3.63,8.09-8.09,8.09h-87.96c-4.46,0-8.09-3.63-8.09-8.09s3.63-8.09,8.09-8.09ZM365.35,312.53h87.96c4.46,0,8.09,3.63,8.09,8.09s-3.63,8.09-8.09,8.09h-87.96c-4.46,0-8.09-3.63-8.09-8.09s3.63-8.09,8.09-8.09ZM332.89,328.71h-12.54c-4.46,0-8.09-3.63-8.09-8.09s3.63-8.09,8.09-8.09h12.54c4.46,0,8.09,3.63,8.09,8.09s-3.63,8.09-8.09,8.09ZM332.89,272.99h-12.54c-4.46,0-8.09-3.63-8.09-8.09s3.63-8.09,8.09-8.09h12.54c4.46,0,8.09,3.63,8.09,8.09s-3.63,8.09-8.09,8.09Z"/>
    <rect class="cls-2" x="455.51" y="334.27" width="91.53" height="36.85" transform="translate(-84.21 533.99) rotate(-52.34)"/>
    <path class="cls-2" d="M440.85,423.22c-.38,2.28.54,4.54,2.39,5.91,1.06.78,2.31,1.19,3.62,1.19.95,0,1.89-.22,2.73-.65l24.06-12.05c.82-.41,1.54-1.01,2.1-1.73l2.26-2.92-29.17-22.51-2.26,2.92c-.61.78-1.02,1.72-1.18,2.72l-4.54,27.11Z"/>
    <path class="cls-2" d="M564.52,297.98c-.21-1.62-1.04-3.06-2.32-4.05l-19.52-15.07c-1.08-.83-2.36-1.27-3.72-1.27-1.91,0-3.67.86-4.83,2.37l-9.59,12.43,29.17,22.51,9.59-12.43c1-1.28,1.43-2.88,1.22-4.5Z"/>
    <path class="cls-2" d="M338.24,534.47h-106.64c-9.85,0-17.47-8.66-16.21-18.43l3.06-23.8c2.25-18.53,14.43-34.02,32.03-40.37l1.72-.4c6.88,4.77,14.56,7.94,22.64,9.4,3.18.53,6.49.93,10.06.93,11.78,0,23.03-3.57,32.7-10.32l1.85.4c15.09,5.56,26.61,18,30.71,33.49.66,2.25,1.06,4.63,1.32,7.02l2.98,23.71c1.23,9.76-6.38,18.39-16.22,18.39Z"/>
    <path class="cls-2" d="M284.9,445.57c22.76,0,41.28-18.52,41.28-41.27s-18.52-41.27-41.28-41.27-41.26,18.51-41.26,41.27,18.51,41.27,41.26,41.27Z"/>
  </g>
</svg>