<?xml version="1.0" encoding="utf-8"?>
<!-- Generator: Adobe Illustrator 24.1.2, SVG Export Plug-In . SVG Version: 6.00 Build 0)  -->
<svg version="1.1" id="Layer_1" xmlns="http://www.w3.org/2000/svg" xmlns:xlink="http://www.w3.org/1999/xlink" x="0px" y="0px"
	 viewBox="0 0 261.2 259.8" style="enable-background:new 0 0 261.2 259.8;" xml:space="preserve">
<style type="text/css">
	.st0{clip-path:url(#SVGID_2_);fill:#BADEDA;}
	.st1{clip-path:url(#SVGID_4_);fill:#9A8882;}
	.st2{clip-path:url(#SVGID_6_);fill:#826F68;}
	.st3{clip-path:url(#SVGID_8_);fill:#826F68;}
	.st4{clip-path:url(#SVGID_10_);fill:#695750;}
	.st5{clip-path:url(#SVGID_12_);fill:#695750;}
	.st6{clip-path:url(#SVGID_14_);fill:#9A8882;}
	.st7{clip-path:url(#SVGID_16_);fill:#826F68;}
	.st8{clip-path:url(#SVGID_18_);fill:#826F68;}
	.st9{clip-path:url(#SVGID_20_);fill:#695750;}
	.st10{clip-path:url(#SVGID_22_);fill:#695750;}
	.st11{clip-path:url(#SVGID_24_);fill:#695750;}
	.st12{clip-path:url(#SVGID_26_);fill:#9A8882;}
	.st13{clip-path:url(#SVGID_28_);fill:#C2B3AB;}
	.st14{clip-path:url(#SVGID_30_);fill:#C2B3AB;}
	.st15{clip-path:url(#SVGID_32_);fill:#826F68;}
	.st16{clip-path:url(#SVGID_34_);fill:#826F68;}
	.st17{clip-path:url(#SVGID_36_);fill:#826F68;}
	.st18{clip-path:url(#SVGID_38_);fill:#826F68;}
	.st19{clip-path:url(#SVGID_40_);fill:#826F68;}
	.st20{clip-path:url(#SVGID_42_);fill:#826F68;}
	.st21{clip-path:url(#SVGID_44_);fill:#826F68;}
	.st22{clip-path:url(#SVGID_46_);fill:#826F68;}
	.st23{clip-path:url(#SVGID_48_);fill:#826F68;}
	.st24{clip-path:url(#SVGID_50_);fill:#826F68;}
	.st25{clip-path:url(#SVGID_52_);fill:#826F68;}
	.st26{clip-path:url(#SVGID_54_);fill:#826F68;}
	.st27{clip-path:url(#SVGID_56_);fill:#826F68;}
	.st28{clip-path:url(#SVGID_58_);fill:#695750;}
	.st29{clip-path:url(#SVGID_60_);fill:#826F68;}
	.st30{clip-path:url(#SVGID_62_);fill:#826F68;}
	.st31{clip-path:url(#SVGID_64_);fill:#695750;}
	.st32{clip-path:url(#SVGID_66_);fill:#695750;}
	.st33{clip-path:url(#SVGID_68_);fill:#695750;}
	.st34{clip-path:url(#SVGID_70_);fill:#695750;}
	.st35{clip-path:url(#SVGID_72_);fill:#695750;}
	.st36{clip-path:url(#SVGID_74_);fill:#695750;}
	.st37{clip-path:url(#SVGID_76_);fill:#C2B3AB;}
	.st38{clip-path:url(#SVGID_78_);fill:#C2B3AB;}
	.st39{clip-path:url(#SVGID_80_);fill:#C2B3AB;}
	.st40{clip-path:url(#SVGID_82_);fill:#A7948C;}
	.st41{clip-path:url(#SVGID_84_);fill:#684D42;}
	.st42{clip-path:url(#SVGID_86_);fill:#816356;}
	.st43{clip-path:url(#SVGID_88_);fill:#C2B3AB;}
	.st44{clip-path:url(#SVGID_90_);fill:#C2B3AB;}
	.st45{clip-path:url(#SVGID_92_);fill:#C2B3AB;}
	.st46{clip-path:url(#SVGID_94_);fill:#C2B3AB;}
	.st47{clip-path:url(#SVGID_96_);fill:#C2B3AB;}
	.st48{clip-path:url(#SVGID_98_);fill:#C2B3AB;}
	.st49{clip-path:url(#SVGID_100_);fill:#C2B3AB;}
	.st50{clip-path:url(#SVGID_102_);fill:#C2B3AB;}
	.st51{clip-path:url(#SVGID_104_);fill:#C2B3AB;}
	.st52{clip-path:url(#SVGID_106_);fill:#C2B3AB;}
	.st53{clip-path:url(#SVGID_108_);fill:#C2B3AB;}
	.st54{clip-path:url(#SVGID_110_);fill:#733731;}
	.st55{clip-path:url(#SVGID_112_);fill:#E8817F;}
	.st56{clip-path:url(#SVGID_114_);fill:#FCF7E7;}
	.st57{clip-path:url(#SVGID_116_);fill:#FCF7E7;}
	.st58{clip-path:url(#SVGID_118_);fill:#776360;}
	.st59{clip-path:url(#SVGID_120_);fill:#776360;}
	.st60{clip-path:url(#SVGID_122_);fill:#776360;}
	.st61{clip-path:url(#SVGID_124_);fill:#776360;}
	.st62{clip-path:url(#SVGID_126_);fill:#FFFFFF;}
	.st63{clip-path:url(#SVGID_128_);fill:#53413C;}
	.st64{clip-path:url(#SVGID_130_);fill:#FFFFFF;}
	.st65{clip-path:url(#SVGID_132_);fill:#53413C;}
	.st66{clip-path:url(#SVGID_134_);fill:none;stroke:#628377;stroke-width:3;}
</style>
<g>
	<g>
		<defs>
			<rect id="SVGID_1_" x="1.7" y="1.7" width="257.9" height="256.4"/>
		</defs>
		<clipPath id="SVGID_2_">
			<use xlink:href="#SVGID_1_"  style="overflow:visible;"/>
		</clipPath>
		<path class="st0" d="M130.6,256.6c70.4,0,127.4-56.7,127.4-126.7S201,3.2,130.6,3.2S3.2,59.9,3.2,129.9S60.3,256.6,130.6,256.6"/>
	</g>
</g>
<g>
	<g>
		<defs>
			<path id="SVGID_3_" d="M3.5,130.2c0,70,57.1,126.7,127.4,126.7s127.4-56.7,127.4-126.7S201.2,3.5,130.9,3.5S3.5,60.2,3.5,130.2"
				/>
		</defs>
		<clipPath id="SVGID_4_">
			<use xlink:href="#SVGID_3_"  style="overflow:visible;"/>
		</clipPath>
		<path class="st1" d="M284.3,327.9c-1.6,2.8-4.2,6.1-8,9.8c-5.3,5-8.5,9.6-9.6,14.1c0,0.2,0.4-0.1,1.1-0.8c0.7-0.5,1.2-1,1.3-1.3
			c0.5,3,0.4,5.8-0.5,8.5c-0.7,2.5-1.7,4.2-2.9,5.3c-1.6-1.2-2.4-3.2-2.4-5.8c0-1.1-0.4-1.2-1.3-0.3c-6.6,4.2-12.4,6.5-17.5,6.6
			c0.2-1.6,1.1-3.5,2.7-5.8c1.6-2.5,2.7-4.2,3.5-5.3c-2.3,1.1-3.6,1.9-4,2.4c-7.4,1.8-12.1,2.4-14.1,1.9c1.1-2.3,3.3-4.6,6.6-6.9
			c1.1-0.9,2-2,2.9-3.5c0.9-1.6,1-2.1,0.3-1.6l-3.7,2.7c-2.5,0.2-6.2,1-11.2,2.4c0.9-2.3,4.3-4.4,10.4-6.4c3.9-1.8,6.4-3.6,7.4-5.6
			c0.7-1.2,1.2-2.9,1.6-5l0.8-5.6c1.9-7.1,2.9-11,2.9-11.7c5,1.4,10.1,3.6,15.4,6.6C271.3,325.3,277.4,327,284.3,327.9"/>
	</g>
	<g>
		<defs>
			<path id="SVGID_5_" d="M3.5,130.2c0,70,57.1,126.7,127.4,126.7s127.4-56.7,127.4-126.7S201.2,3.5,130.9,3.5S3.5,60.2,3.5,130.2"
				/>
		</defs>
		<clipPath id="SVGID_6_">
			<use xlink:href="#SVGID_5_"  style="overflow:visible;"/>
		</clipPath>
		<path class="st2" d="M268.1,326.1c0.4,0-5.7-2-18.1-6.1l1.1-8.8c23.9,7.6,36.6,11.5,38,11.7l-7.4,9c-4.2-2.7-9.6-4.2-15.9-4.8
			L268.1,326.1z"/>
	</g>
	<g>
		<defs>
			<path id="SVGID_7_" d="M3.5,130.2c0,70,57.1,126.7,127.4,126.7s127.4-56.7,127.4-126.7S201.2,3.5,130.9,3.5S3.5,60.2,3.5,130.2"
				/>
		</defs>
		<clipPath id="SVGID_8_">
			<use xlink:href="#SVGID_7_"  style="overflow:visible;"/>
		</clipPath>
		<path class="st3" d="M266.2,343.3c2.3-1.8,4-3.3,5-4.5l2.1,2.1c-1.1,1.2-1.9,3-2.7,5.3c-0.4,1.1-0.7,2.3-1.1,3.7
			c0.5,3,0.3,6-0.8,9c-0.9,2.8-1.9,4.8-3.2,5.8c-1.1-0.4-2.1-1.1-3.2-2.1c-1.1-1.4-1.6-2.8-1.6-4.2c-6,4.2-11.3,6.5-15.9,6.6
			c-1-2.6,0.7-6.6,5.3-11.9c-2.1,2.3-5.4,3.7-9.8,4.2c-3.5,0.4-6.2,0.3-8-0.3c0-2.1,2-5.2,6.1-9.3c-6.9,3.7-10.7,4.6-11.4,2.7
			c0.4-2.7,3.7-5.1,10.1-7.4c3.9-1.4,6.5-3.1,7.7-5c0.7-0.7,1.2-1.9,1.6-3.5l5.8-3.2c-0.5,1.1-1,2.7-1.3,5c-0.4,2.3-0.4,3.4,0,3.2
			c1.9-1.6,5.8-3.5,11.4-5.8c-0.4,5.3-0.3,9.2,0.3,11.7C262.8,345.8,263.9,345.1,266.2,343.3"/>
	</g>
	<g>
		<defs>
			<path id="SVGID_9_" d="M3.5,130.2c0,70,57.1,126.7,127.4,126.7s127.4-56.7,127.4-126.7S201.2,3.5,130.9,3.5S3.5,60.2,3.5,130.2"
				/>
		</defs>
		<clipPath id="SVGID_10_">
			<use xlink:href="#SVGID_9_"  style="overflow:visible;"/>
		</clipPath>
		<path class="st4" d="M238.6,347.8c0.2-1.2,1-2.4,2.4-3.5s2.7-1.2,4-0.5C242.1,345.1,240,346.4,238.6,347.8"/>
	</g>
	<g>
		<defs>
			<path id="SVGID_11_" d="M3.5,130.2c0,70,57.1,126.7,127.4,126.7s127.4-56.7,127.4-126.7S201.2,3.5,130.9,3.5S3.5,60.2,3.5,130.2"
				/>
		</defs>
		<clipPath id="SVGID_12_">
			<use xlink:href="#SVGID_11_"  style="overflow:visible;"/>
		</clipPath>
		<path class="st5" d="M250.5,352.9c0.4-2.1,1.4-4,3.2-5.6c1.6-1.4,2.9-1.9,4-1.3L250.5,352.9z"/>
	</g>
	<g>
		<defs>
			<path id="SVGID_13_" d="M3.5,130.2c0,70,57.1,126.7,127.4,126.7s127.4-56.7,127.4-126.7S201.2,3.5,130.9,3.5S3.5,60.2,3.5,130.2"
				/>
		</defs>
		<clipPath id="SVGID_14_">
			<use xlink:href="#SVGID_13_"  style="overflow:visible;"/>
		</clipPath>
		<path class="st6" d="M315.3,373.3c-1.8-0.2-2.6-0.4-2.4-0.8c0.5-4.1,3.5-7.6,9-10.6c2.1-1.2,5.2-2.6,9.3-4
			c4.8-1.8,7.9-2.9,9.3-3.5c10.8-4.4,17.1-11.5,18.9-21.2c6.5,4.8,15.2,7.3,26,7.7c-6.2,6.2-12.1,13.5-17.8,22
			c-1.8,2.7-4.2,6.8-7.4,12.5c-1.9,2.7-4.8,5-8.5,6.9c-3,1.4-5,2.1-5.8,2.1c-0.5-0.2-0.4-1.2,0.5-3.2c0.7-1.9,1.7-3.6,2.9-5l3.7-1.6
			c0.9-0.4,0.7-0.7-0.5-1.1s-2.4-0.3-3.5,0.3c-3,1.2-7.3,4.2-12.7,9c-0.5-1.9-0.5-4.3,0-7.2c0.7-3.9,2.5-6.6,5.3-8.2
			c3-1.8,2.1-1.8-2.7,0c-2.7,0.9-4.5,3-5.6,6.4c-1.4,1.2-3.4,2.3-5.8,3.2c-2.5,0.9-4.4,1.2-5.8,1.1c0-2.1,1-4.4,2.9-6.9
			c2.1-2.3,4.5-4.1,7.2-5.3c1.2-0.4,0.8-0.4-1.3-0.3c-1.6,0-3.1,0.4-4.5,1.3c-3.2,1.9-5.1,4.1-5.8,6.4
			C318.7,373.7,317.1,373.7,315.3,373.3"/>
	</g>
	<g>
		<defs>
			<path id="SVGID_15_" d="M3.5,130.2c0,70,57.1,126.7,127.4,126.7s127.4-56.7,127.4-126.7S201.2,3.5,130.9,3.5S3.5,60.2,3.5,130.2"
				/>
		</defs>
		<clipPath id="SVGID_16_">
			<use xlink:href="#SVGID_15_"  style="overflow:visible;"/>
		</clipPath>
		<path class="st7" d="M366.6,343.1c-2.5-1.8-5.4-3.4-8.8-4.8c0.9-1.6,1.4-3.3,1.6-5c6.5,4.8,15.2,7.3,26,7.7l-7.4,8.2
			c-3.9-2.1-8.6-3.4-14.1-3.7L366.6,343.1z"/>
	</g>
	<g>
		<defs>
			<path id="SVGID_17_" d="M3.5,130.2c0,70,57.1,126.7,127.4,126.7s127.4-56.7,127.4-126.7S201.2,3.5,130.9,3.5S3.5,60.2,3.5,130.2"
				/>
		</defs>
		<clipPath id="SVGID_18_">
			<use xlink:href="#SVGID_17_"  style="overflow:visible;"/>
		</clipPath>
		<path class="st8" d="M315.3,373.3c-1.8-0.2-2.6-0.4-2.4-0.8c0.5-4.1,3.5-7.6,9-10.6c1.9-1.2,6.3-3,13-5.3l9,0.8
			c-0.7,0.5-1.4,1.5-2.1,2.9s-0.9,2.1-0.5,2.1c7.1-1.8,13.5-1.9,19.1-0.5c-0.9,0.5-2,1.4-3.5,2.7c-1.6,1.1-2.2,1.6-1.9,1.6l9.3,2.4
			l-4.2,6.9c-3.2,4.2-7.9,7.3-14.1,9.3c-2.8,0.9-4.8,1.1-5.8,0.8c-1.2-0.4-1.8-1.8-1.6-4.2c-1.8,1.8-2.7,2.6-2.9,2.4
			c-1.9-0.7-2.7-4-2.4-9.8c-3.5,3-7.1,4.7-10.6,5c-2.3,0.4-3.5-0.2-3.5-1.6c0.4-1.8,0.6-3.1,0.8-4
			C318.7,373.7,317.1,373.7,315.3,373.3"/>
	</g>
	<g>
		<defs>
			<path id="SVGID_19_" d="M3.5,130.2c0,70,57.1,126.7,127.4,126.7s127.4-56.7,127.4-126.7S201.2,3.5,130.9,3.5S3.5,60.2,3.5,130.2"
				/>
		</defs>
		<clipPath id="SVGID_20_">
			<use xlink:href="#SVGID_19_"  style="overflow:visible;"/>
		</clipPath>
		<path class="st9" d="M329.9,364.8c-5,0.7-8.2,3.5-9.8,8.5c-0.7-0.5-0.7-1.7,0-3.5c0.7-2.1,1.9-3.6,3.7-4.5
			c1.6-0.9,3.1-1.2,4.5-1.1L329.9,364.8z"/>
	</g>
	<g>
		<defs>
			<path id="SVGID_21_" d="M3.5,130.2c0,70,57.1,126.7,127.4,126.7s127.4-56.7,127.4-126.7S201.2,3.5,130.9,3.5S3.5,60.2,3.5,130.2"
				/>
		</defs>
		<clipPath id="SVGID_22_">
			<use xlink:href="#SVGID_21_"  style="overflow:visible;"/>
		</clipPath>
		<path class="st10" d="M340.6,378.1c-3.2,2.3-2.1,0.8,3.2-4.5c3.2-3.2,5.8-4,7.7-2.4l-1.1,0.3C347.2,372.9,343.9,375.1,340.6,378.1
			"/>
	</g>
	<g>
		<defs>
			<path id="SVGID_23_" d="M3.5,130.2c0,70,57.1,126.7,127.4,126.7s127.4-56.7,127.4-126.7S201.2,3.5,130.9,3.5S3.5,60.2,3.5,130.2"
				/>
		</defs>
		<clipPath id="SVGID_24_">
			<use xlink:href="#SVGID_23_"  style="overflow:visible;"/>
		</clipPath>
		<path class="st11" d="M333.4,373.9c-0.7-1.2-0.8-2.9-0.3-5c0.9-2.7,2.6-3.9,5-3.7C335.3,367.9,333.8,370.9,333.4,373.9"/>
	</g>
	<g>
		<defs>
			<path id="SVGID_25_" d="M3.5,130.2c0,70,57.1,126.7,127.4,126.7s127.4-56.7,127.4-126.7S201.2,3.5,130.9,3.5S3.5,60.2,3.5,130.2"
				/>
		</defs>
		<clipPath id="SVGID_26_">
			<use xlink:href="#SVGID_25_"  style="overflow:visible;"/>
		</clipPath>
		<path class="st12" d="M565.2,375.2c0-1.8-3.2-4.4-9.5-8c-6.7-3.5-15.3-7.5-25.8-11.9l-24.7-8.8c-19.3-7.1-34.3-13.2-44.9-18.3
			c-6.6-3.2-12.1-7.3-16.7-12.5c-3.7-4.1-7.6-9.9-11.7-17.5c-0.5-0.9-7.7-12.7-21.5-35.3c-3.4-5.5-7.3-13.2-11.9-23.1
			c-6.9-11.3-14.5-18.7-22.8-22.1c-29.2-12.6-48-20.3-56.3-23.1c-6.5-2.3-16.3-5.9-29.2-10.9c-11.5-4.4-21.3-7.6-29.5-9.6
			c-6.4-1.4-15.9-3.5-28.7-6.1c-11.3-2.5-20.7-5-28.2-7.7c-1.9-5.1-3.8-12.5-5.6-22c-1.4-9-2.3-17.1-2.7-24.2c3.4,0.4,6.5,0,9.3-1.1
			c3.4-1.1,5.3-2.8,5.8-5.3c1.1-3.7-0.4-6.6-4.5-8.7c-3.7-2.1-7.3-2.7-10.6-1.6c-1.6-9.4-4.7-16.6-9.3-21.5
			c-3.2-3.5-7.7-6.4-13.5-8.5c-11.2-4.2-23.5-6.9-36.9-8c-20.2-1.6-35.6-0.1-46.2,4.5c-7.4,3.2-12.8,6.9-16.2,11.2
			C70,79,67.9,84.2,67,90.8c-4.2,0.2-7.9,1.3-10.9,3.4c-3.5,2.3-5.1,5.5-4.8,9.6c0.4,3.7,2.9,6.7,7.7,9l7.2,2.4
			c-0.7,2.8-1.1,6.3-1.1,10.4c-0.2,5.5,0.5,12.7,2.1,21.5c2.1,11.5,3.3,18.5,3.4,21c1.2,12.9,2,21.8,2.1,26.6
			c0.4,10.1-0.3,18.9-1.9,26.3c-4.1,20.2-5.9,35.1-5.6,44.6c0.2,5.7,1.7,14,4.5,25c1.9,7.8,3.2,16.8,3.7,27.1
			c0.7,10.3,0.4,16.6-1.1,19.1c-3,5.7-4.6,12.1-4.8,19.4c-9.7,2.6-15.8,8-18.3,16.2c4.1-0.2,7.1-0.2,9,0c0.9-2.6,2.6-5.3,5-8
			c3.4-3.5,7.2-5.7,11.4-6.6c3.5,0.2,4.9,0.4,4,0.5c-5.3,1.2-9.8,3.9-13.5,8c-2.8,3.4-4.3,6.2-4.3,8.5c4.1-0.5,8.1-1.7,12-3.4
			c0.9-2.7,2.6-5,5.3-6.9c2.5-1.6,5.2-2.6,8.2-2.9c1.2-0.2,2.2-0.2,2.9,0c0.7,0.2,0.8,0.4,0.3,0.5c-6.7,1.6-11.1,4.2-13,7.7
			c-1.1,1.9-1.7,3.9-1.9,5.8c0,1.8,0.3,2.7,0.8,2.9c2.5,0,5.9-1.4,10.4-4.3c1.4-1.1,3.9-3.2,7.4-6.4c3-2.6,5.1-4.1,6.1-4.5
			c0.5-0.2,0.4,0.5-0.5,2.1c-0.9,1.4-1.7,2.5-2.4,3.2c4.2,2.5,8.9,4.1,13.8,4.8c-0.7-6.4-2-10.9-4-13.6c-2.5-3-4.2-6-5-9
			c-1.6-4.2-2-8.9-1.3-14.1c0.7-4.1,4-10.2,9.8-18.3c3.9-5.5,6.6-11.1,8-16.7c4.4,3.4,10.8,6.1,19.1,8.2c7.8,1.9,14.9,2.7,21.2,2.4
			c15.4-0.5,28.2-2.6,38.2-6.1c0.7,4.8,1,11.9,0.8,21.5c0.2,2.7,0.5,7.1,1.1,13.3c0.2,5.5-0.4,9.8-1.9,13
			c-1.9,3.9-5.8,9.2-11.4,15.9c-5.5,2.3-9.1,4.8-10.9,7.4c4.1,0.9,8.6,1.3,13.5,1.3c1.2-1.2,3.1-2.6,5.6-4.2s3.5-2.1,2.9-1.6
			c-5.5,6.6-8.5,10.8-9,12.8c2.8,0.2,6.3-0.5,10.3-2.1c3.7-1.6,6.6-3.2,8.8-4.8c0-1.4,0.4-3,1.3-4.8c1.1-1.8,1.6-2.2,1.6-1.3
			c-0.2,1.1,0.1,3.6,0.8,7.7s1.4,6,2.1,5.8c1.2-0.2,2.8-2,4.8-5.6c1.9-3.4,3.3-6.4,4-9c0-0.7,0.3-0.3,0.8,1.3
			c0.5,1.6,0.7,3.2,0.5,4.8c2.8,2.8,5.2,4.4,7.2,4.8c1.4-3.5,1-6.7-1.3-9.6c-2.3-2.8-5.7-5-10.1-6.4c-0.9-0.2-0.6-0.4,0.8-0.8
			c1.4-0.4,2.5-0.4,3.2-0.3c-3.2-5.8-2.9-15.2,0.8-28.2c0.4-1.4,1.7-4.8,4-10.1c3-6.9,6-12.5,9-16.7c7.8,0.9,14.5,2.6,20.2,5
			c14.9,6.4,27.6,9.7,38.2,10.1c11.5,0.5,22.4-0.1,32.7-1.9c9.7-2.1,16.5-3.4,20.2-3.7c4.8,8.8,10.4,15.1,17,18.9
			c6,3.4,13.6,4.9,22.9,4.5c-0.2,1.4,3.4,4.2,10.6,8.2c1.9,1.1,8.2,4.3,18.9,9.8c16.8,9,33.4,14.3,49.6,15.9
			c15.9,1.6,34.9,1.2,56.8-1.3c14.2-1.6,23.6-2.2,28.2-1.9L565.2,375.2z"/>
	</g>
	<g>
		<defs>
			<path id="SVGID_27_" d="M3.5,130.2c0,70,57.1,126.7,127.4,126.7s127.4-56.7,127.4-126.7S201.2,3.5,130.9,3.5S3.5,60.2,3.5,130.2"
				/>
		</defs>
		<clipPath id="SVGID_28_">
			<use xlink:href="#SVGID_27_"  style="overflow:visible;"/>
		</clipPath>
		<path class="st13" d="M352.2,210.3c-1.9-0.9-10.2-4.4-24.7-10.6c-13.3-5.7-21.5-9.4-24.7-11.2l16.5,6.1
			c8.3,2.8,27.1,10.5,56.3,23.1c8.3,3.4,15.9,10.7,22.8,22c1.2,1.9,3.3,6.1,6.1,12.5c-7.1-10.4-11.4-16.7-13-18.9
			c-4.2-5.3-9.8-9.7-16.7-13.3C370.4,218,362.9,214.7,352.2,210.3"/>
	</g>
	<g>
		<defs>
			<path id="SVGID_29_" d="M3.5,130.2c0,70,57.1,126.7,127.4,126.7s127.4-56.7,127.4-126.7S201.2,3.5,130.9,3.5S3.5,60.2,3.5,130.2"
				/>
		</defs>
		<clipPath id="SVGID_30_">
			<use xlink:href="#SVGID_29_"  style="overflow:visible;"/>
		</clipPath>
		<path class="st14" d="M192.7,294.2c2.7,2.3,4.2,5,4.8,8.2c1.2,5.1,1.2,11.8-0.3,19.9c0-7.6-0.1-12.3-0.3-14.1
			C196.4,303.1,195,298.4,192.7,294.2"/>
	</g>
	<g>
		<defs>
			<path id="SVGID_31_" d="M3.5,130.2c0,70,57.1,126.7,127.4,126.7s127.4-56.7,127.4-126.7S201.2,3.5,130.9,3.5S3.5,60.2,3.5,130.2"
				/>
		</defs>
		<clipPath id="SVGID_32_">
			<use xlink:href="#SVGID_31_"  style="overflow:visible;"/>
		</clipPath>
		<path class="st15" d="M62,104.9c-2.3-0.9-2.7-2.5-1.1-4.8c1.4-1.8,3.4-3.4,5.8-4.8c-0.2,3.5,0.7,7.1,2.7,10.6
			C66.1,105.9,63.6,105.6,62,104.9"/>
	</g>
	<g>
		<defs>
			<path id="SVGID_33_" d="M3.5,130.2c0,70,57.1,126.7,127.4,126.7s127.4-56.7,127.4-126.7S201.2,3.5,130.9,3.5S3.5,60.2,3.5,130.2"
				/>
		</defs>
		<clipPath id="SVGID_34_">
			<use xlink:href="#SVGID_33_"  style="overflow:visible;"/>
		</clipPath>
		<path class="st16" d="M197.4,106.5l-3.2,0.3l1.3-3.7C198.8,104.6,199.4,105.7,197.4,106.5"/>
	</g>
	<g>
		<defs>
			<path id="SVGID_35_" d="M3.5,130.2c0,70,57.1,126.7,127.4,126.7s127.4-56.7,127.4-126.7S201.2,3.5,130.9,3.5S3.5,60.2,3.5,130.2"
				/>
		</defs>
		<clipPath id="SVGID_36_">
			<use xlink:href="#SVGID_35_"  style="overflow:visible;"/>
		</clipPath>
		<path class="st17" d="M105,293.1c4.8,3.9,9.1,6.7,13,8.5c-0.4,1.2-1.9,1.6-4.8,1.1c-3-0.4-5.9-1.6-8.8-3.7
			c-5.7-4.2-9.9-10.7-12.7-19.4C95.1,284.2,99.5,288.7,105,293.1"/>
	</g>
	<g>
		<defs>
			<path id="SVGID_37_" d="M3.5,130.2c0,70,57.1,126.7,127.4,126.7s127.4-56.7,127.4-126.7S201.2,3.5,130.9,3.5S3.5,60.2,3.5,130.2"
				/>
		</defs>
		<clipPath id="SVGID_38_">
			<use xlink:href="#SVGID_37_"  style="overflow:visible;"/>
		</clipPath>
		<path class="st18" d="M242.8,291.8c3.2,3,4,6.7,2.4,11.2c-1.4,4.4-4.5,6.9-9.3,7.4C240.4,300.8,242.7,294.6,242.8,291.8"/>
	</g>
	<g>
		<defs>
			<path id="SVGID_39_" d="M3.5,130.2c0,70,57.1,126.7,127.4,126.7s127.4-56.7,127.4-126.7S201.2,3.5,130.9,3.5S3.5,60.2,3.5,130.2"
				/>
		</defs>
		<clipPath id="SVGID_40_">
			<use xlink:href="#SVGID_39_"  style="overflow:visible;"/>
		</clipPath>
		<path class="st19" d="M232,168.1c12.7,2.7,22.3,4.7,28.7,6.1l16.5,5c4.1,1.8,6.4,4.4,6.9,8c-8.3-3-20.1-4.2-35.3-3.5
			c9.7,1.6,19,8.1,27.9,19.7c-5.8,0.4-14.5-0.4-26-2.4c8.5,4.1,15.8,11.9,22,23.6c-7.4,0.4-18.3-1.9-32.7-6.6
			c5.3,6.4,8.6,11.2,9.8,14.6c-7.1-3-10.4-4.2-10.1-3.5c1.8,3.2,3,6.2,3.7,9c-3.9,1.1-7.5,1.4-10.9,1.1c-0.7-22.5-5-39.6-12.7-51.2
			c-7.4-11-12.7-20.2-15.9-27.6C211.2,163,220.6,165.6,232,168.1"/>
	</g>
	<g>
		<defs>
			<path id="SVGID_41_" d="M3.5,130.2c0,70,57.1,126.7,127.4,126.7s127.4-56.7,127.4-126.7S201.2,3.5,130.9,3.5S3.5,60.2,3.5,130.2"
				/>
		</defs>
		<clipPath id="SVGID_42_">
			<use xlink:href="#SVGID_41_"  style="overflow:visible;"/>
		</clipPath>
		<path class="st20" d="M312.4,291.5c-2.3-5-2.9-9.9-1.9-14.9c3.5,2.5,6.2,4.2,8,5.3c3.2,1.8,6.1,3,8.8,3.7c-1.2-3.4-1.4-7-0.5-10.9
			c1.1-3.9,2.9-7,5.6-9.3c0.2,0.9,0.5,2.1,1.1,3.7c0.7,1.6,1.2,2.2,1.3,1.9c1.8-3.9,4.7-7.5,8.8-10.9c-3.9,6.6-5.9,14.7-6.1,24.4
			c0,5.3,1.2,11.7,3.7,19.1c1.4,4.1,3.5,9.5,6.1,16.2c-3.7,0.4-10.4,1.6-20.2,3.7c-4.8,0.9-9.6,1.4-14.6,1.6l-5-1.1
			c-9.2-3.2-14.8-6.9-16.7-11.2c9,1.4,16.2,1.7,21.5,0.8c-6.2-2.1-10.9-5.1-14.1-9c-3.4-3.9-4.8-8.2-4.2-13
			c6.4,3.4,11.2,5.8,14.3,7.2c5.7,2.5,10.8,3.8,15.4,4C318.4,300.5,314.7,296.7,312.4,291.5"/>
	</g>
	<g>
		<defs>
			<path id="SVGID_43_" d="M3.5,130.2c0,70,57.1,126.7,127.4,126.7s127.4-56.7,127.4-126.7S201.2,3.5,130.9,3.5S3.5,60.2,3.5,130.2"
				/>
		</defs>
		<clipPath id="SVGID_44_">
			<use xlink:href="#SVGID_43_"  style="overflow:visible;"/>
		</clipPath>
		<path class="st21" d="M315.1,225.2l0.8,1.1c-5.1-0.5-10.3-2.1-15.4-4.8c-3.7-1.9-7.9-4.8-12.5-8.5l-0.5-0.8
			c3.5,0.5,8.1,2,13.5,4.5C308.1,219.8,312.8,222.7,315.1,225.2"/>
	</g>
	<g>
		<defs>
			<path id="SVGID_45_" d="M3.5,130.2c0,70,57.1,126.7,127.4,126.7s127.4-56.7,127.4-126.7S201.2,3.5,130.9,3.5S3.5,60.2,3.5,130.2"
				/>
		</defs>
		<clipPath id="SVGID_46_">
			<use xlink:href="#SVGID_45_"  style="overflow:visible;"/>
		</clipPath>
		<path class="st22" d="M285.6,210.6c3.9-2.7,8.5-2.7,13.8,0c4.4,2.1,8.6,5.6,12.5,10.4c-2.3-1.6-5.9-3.5-10.9-5.8
			c-5.8-2.5-10.6-4-14.3-4.5c0-0.5-0.3-0.5-0.8,0L285.6,210.6L285.6,210.6z"/>
	</g>
	<g>
		<defs>
			<path id="SVGID_47_" d="M3.5,130.2c0,70,57.1,126.7,127.4,126.7s127.4-56.7,127.4-126.7S201.2,3.5,130.9,3.5S3.5,60.2,3.5,130.2"
				/>
		</defs>
		<clipPath id="SVGID_48_">
			<use xlink:href="#SVGID_47_"  style="overflow:visible;"/>
		</clipPath>
		<path class="st23" d="M316.9,235.5c4.4,1.2,7.7,3.1,9.8,5.6c-9.9,0-17.2-2.6-21.8-7.7C310.6,234.3,314.6,235,316.9,235.5"/>
	</g>
	<g>
		<defs>
			<path id="SVGID_49_" d="M3.5,130.2c0,70,57.1,126.7,127.4,126.7s127.4-56.7,127.4-126.7S201.2,3.5,130.9,3.5S3.5,60.2,3.5,130.2"
				/>
		</defs>
		<clipPath id="SVGID_50_">
			<use xlink:href="#SVGID_49_"  style="overflow:visible;"/>
		</clipPath>
		<path class="st24" d="M289.8,215.9c3.9,3,7.5,5.4,10.9,7.2c5,2.5,10.1,4,15.4,4.5c-5,0.7-9.8,0-14.6-2.1
			C296.9,223.3,293,220.1,289.8,215.9"/>
	</g>
	<g>
		<defs>
			<path id="SVGID_51_" d="M3.5,130.2c0,70,57.1,126.7,127.4,126.7s127.4-56.7,127.4-126.7S201.2,3.5,130.9,3.5S3.5,60.2,3.5,130.2"
				/>
		</defs>
		<clipPath id="SVGID_52_">
			<use xlink:href="#SVGID_51_"  style="overflow:visible;"/>
		</clipPath>
		<path class="st25" d="M352.2,240.3l0.5,0.8c-6,2.1-12,2-18.1-0.3c-5.7-2.1-10.8-5.8-15.4-10.9C332.1,236,343,239.4,352.2,240.3"/>
	</g>
	<g>
		<defs>
			<path id="SVGID_53_" d="M3.5,130.2c0,70,57.1,126.7,127.4,126.7s127.4-56.7,127.4-126.7S201.2,3.5,130.9,3.5S3.5,60.2,3.5,130.2"
				/>
		</defs>
		<clipPath id="SVGID_54_">
			<use xlink:href="#SVGID_53_"  style="overflow:visible;"/>
		</clipPath>
		<path class="st26" d="M321.4,229.7c7.1,0.5,12.3,1.2,15.7,2.1c5.7,1.4,10.3,3.8,13.8,7.2C341.7,237.7,331.9,234.6,321.4,229.7"/>
	</g>
	<g>
		<defs>
			<path id="SVGID_55_" d="M3.5,130.2c0,70,57.1,126.7,127.4,126.7s127.4-56.7,127.4-126.7S201.2,3.5,130.9,3.5S3.5,60.2,3.5,130.2"
				/>
		</defs>
		<clipPath id="SVGID_56_">
			<use xlink:href="#SVGID_55_"  style="overflow:visible;"/>
		</clipPath>
		<path class="st27" d="M565.2,375.2l-14.1-1.1c-4.6-0.4-14,0.3-28.1,1.9c-22,2.5-40.9,2.9-56.8,1.3c-16.3-1.6-32.8-6.9-49.7-15.9
			c-10.6-5.5-16.9-8.8-18.9-9.8c-7.3-4.1-10.8-6.8-10.6-8.2c3-0.2,5.8-0.6,8.5-1.3c5,4.1,9.6,7.1,14.1,9c2.7,1.2,7,2.1,13,2.7
			c6,0.5,8.7,0.6,8,0.3c-2.5-1.9-5.2-6-8.2-12.2c4.1,0.7,10,1.2,17.8,1.6c7.3,0.2,10.7,0.2,10.4,0c-10.1-6.4-16.6-14.5-19.4-24.4
			c1.6,1.8,4.6,3.5,9,5.3s6.4,2.4,5.8,1.9c-12.4-12.2-19.6-25.9-21.8-41.2c3.9,6.2,6.5,10.6,7.7,13.3c4.1,7.6,8,13.5,11.7,17.5
			c4.6,5.1,10.2,9.3,16.7,12.5c10.6,5.1,25.6,11.2,44.9,18.3l24.7,8.8c10.4,4.4,19,8.4,25.8,11.9C562,370.8,565.2,373.4,565.2,375.2
			"/>
	</g>
	<g>
		<defs>
			<path id="SVGID_57_" d="M3.5,130.2c0,70,57.1,126.7,127.4,126.7s127.4-56.7,127.4-126.7S201.2,3.5,130.9,3.5S3.5,60.2,3.5,130.2"
				/>
		</defs>
		<clipPath id="SVGID_58_">
			<use xlink:href="#SVGID_57_"  style="overflow:visible;"/>
		</clipPath>
		<path class="st28" d="M555.7,367.2c6.4,3.5,9.6,6.2,9.6,8l-14.1-1.1c-4.6-0.4-14,0.3-28.1,1.9c-22,2.5-40.9,2.9-56.8,1.3
			c-9-1.1-17.5-2.9-25.5-5.6c6,0.5,11.4-0.4,16.2-2.9c-2.8-3.4-4.8-5.9-5.8-7.7c3.5,1.1,6.3,1.8,8.2,2.1c3.2,0.5,5.9,0.3,8.2-0.8
			l-7.4-10.9c10.1,4.4,24,6.1,41.7,5c0.5,0-1.9-1.3-7.2-4c-5.5-2.7-9.7-4.4-12.7-5.3c6.6-0.5,12.9,0.5,19.1,3.2
			c0.4,0-0.3-1.1-1.9-3.2c-1.6-1.9-3-3.5-4.2-4.8l35.1,12.7C540.3,359.7,548.9,363.7,555.7,367.2"/>
	</g>
	<g>
		<defs>
			<path id="SVGID_59_" d="M3.5,130.2c0,70,57.1,126.7,127.4,126.7s127.4-56.7,127.4-126.7S201.2,3.5,130.9,3.5S3.5,60.2,3.5,130.2"
				/>
		</defs>
		<clipPath id="SVGID_60_">
			<use xlink:href="#SVGID_59_"  style="overflow:visible;"/>
		</clipPath>
		<path class="st29" d="M216.6,348.9c1.8-1.4,3.4-3.1,4.8-5c-0.9,3.9-1.1,8.1-0.5,12.7c0.7,4.8,1.9,8,3.7,9.6
			c4.1,3.5,6.6,7.4,7.7,11.7c0.9,4.1,0.3,5.9-1.9,5.6c-1.8-0.4-4.4-2.3-8-5.8c-0.2,2.3-1,4.5-2.4,6.6c-1.8,2.7-4,3.9-6.6,3.7
			c-4.6-0.2-6.9-3.3-6.9-9.3c-2.3,1.9-5.4,3.9-9.3,5.8c-4.6,2.5-8.1,3.8-10.4,4c-2.3,0-2.9-1.3-1.9-4c1.6-3.2,2.6-5.1,2.9-5.8
			c-0.4,0-2.9,0.3-7.7,0.8c-3.2,0.4-5.6,0.2-7.2-0.5c-1.9-0.7-1.1-2.7,2.7-5.8c3.4-2.8,7.3-5.3,11.7-7.4c1.9-0.9,4-4.2,6.1-9.8
			c3.2-7.8,4.5-16.9,4-27.4l3.7,12.7c1.2-2.8,4-5.7,8.2-8.5c0,11,0.4,16.1,1.1,15.4c2.1-2.5,4.1-4,5.8-4.5L216.6,348.9z"/>
	</g>
	<g>
		<defs>
			<path id="SVGID_61_" d="M3.5,130.2c0,70,57.1,126.7,127.4,126.7s127.4-56.7,127.4-126.7S201.2,3.5,130.9,3.5S3.5,60.2,3.5,130.2"
				/>
		</defs>
		<clipPath id="SVGID_62_">
			<use xlink:href="#SVGID_61_"  style="overflow:visible;"/>
		</clipPath>
		<path class="st30" d="M65.2,129.3l6.1-5.8c-3.4,10.6-3.5,19.4-0.5,26.3c0.5-1.1,1.5-2,2.9-2.9s2.7-1.2,3.7-1.1
			c-1.8,7.6-2.7,14.6-2.7,21c0.2,6.4,1.6,13.3,4.2,20.7l-3.5-2.1c0.4,9.2,1.4,16.9,3.2,23.1c-0.4,0.2-1.4-0.1-3.2-0.8
			c0.4,10.8,1.2,18.9,2.4,24.2c-2.3-1.4-4.2-3.3-5.8-5.6c-0.5,4.2-0.3,9.9,0.8,17c0.2,0.2,1.3,6.1,3.5,17.8
			c-1.9,0.4-4.4-1.5-7.4-5.6c-0.2,3.5,1.3,7.5,4.5,11.9c4.2,4.8,7.2,8.3,8.8,10.6c-0.5,0.5-1.8,0.8-3.7,0.8c-2.1,0-3.8-0.4-5-1.3
			c1.1,8.3,3.9,15.8,8.5,22.6l-7.7-2.1c-0.2,3.4,0.5,7.2,2.1,11.4c1.1,2.3,2.7,5.8,4.8,10.6c0.4,0.7,1.8-1.9,4.2-8l2.1,7.7
			c1.9-3,6.7-5.9,14.3-8.8c-0.7,1.8-1.4,4.3-2.1,7.7c-0.7,3.4-0.9,5-0.5,4.8l8.8-2.1c-4.4,6.2-7,11.3-7.7,15.4
			c-0.5,4.1,0.2,8.8,2.1,14.1c0.9,2.5,2.8,5.8,5.8,9.8c3.9,5,5.5,8.8,4.8,11.4c-0.7,2.7-3.5,2.9-8.5,0.8l-7.7-4.2
			c-6,7.6-13.1,11.5-21.2,11.7c-4.4,0-5.2-3-2.4-9c-4.2,3.7-8.1,5.7-11.4,5.8c-3.4,0-4.4-1.6-3.2-4.8c-3.5,1.9-6.8,2.3-9.8,1.1
			c-2.3-1.1-1.6-4.2,2.1-9.3c4.1-5.7,9.7-9.5,17-11.4c0.2-3.5,0.6-6.5,1.3-8.8c0.5-1.4,1.7-3.8,3.5-7.2c1.4-2.5,1.8-8.9,1.1-19.1
			c-0.5-10.3-1.8-19.3-3.7-27.1c-2.8-11-4.3-19.3-4.5-25c-0.4-9.6,1.5-24.4,5.6-44.6c1.6-7.4,2.2-16.2,1.9-26.3
			c-0.2-4.8-0.9-13.6-2.1-26.6c-0.4-2.7-1.4-8.9-3.2-18.9C66.2,140.9,65.4,134.3,65.2,129.3"/>
	</g>
	<g>
		<defs>
			<path id="SVGID_63_" d="M3.5,130.2c0,70,57.1,126.7,127.4,126.7s127.4-56.7,127.4-126.7S201.2,3.5,130.9,3.5S3.5,60.2,3.5,130.2"
				/>
		</defs>
		<clipPath id="SVGID_64_">
			<use xlink:href="#SVGID_63_"  style="overflow:visible;"/>
		</clipPath>
		<path class="st31" d="M196.4,370.9c-0.9,0.4-2.2,1.2-4,2.7c-1.9,1.8-3.5,3.5-4.5,5c-0.4-1.6,0.2-3.2,1.6-4.8
			C191.2,371.9,193.5,370.9,196.4,370.9"/>
	</g>
	<g>
		<defs>
			<path id="SVGID_65_" d="M3.5,130.2c0,70,57.1,126.7,127.4,126.7s127.4-56.7,127.4-126.7S201.2,3.5,130.9,3.5S3.5,60.2,3.5,130.2"
				/>
		</defs>
		<clipPath id="SVGID_66_">
			<use xlink:href="#SVGID_65_"  style="overflow:visible;"/>
		</clipPath>
		<path class="st32" d="M209.4,370.1c-1.9,2.7-2.9,5.5-2.9,8.5c-1.8-0.7-2.5-2.1-2.1-4.2c0.4-0.9,1.1-1.9,2.1-2.9
			C207.7,370.4,208.7,370,209.4,370.1"/>
	</g>
	<g>
		<defs>
			<path id="SVGID_67_" d="M3.5,130.2c0,70,57.1,126.7,127.4,126.7s127.4-56.7,127.4-126.7S201.2,3.5,130.9,3.5S3.5,60.2,3.5,130.2"
				/>
		</defs>
		<clipPath id="SVGID_68_">
			<use xlink:href="#SVGID_67_"  style="overflow:visible;"/>
		</clipPath>
		<path class="st33" d="M226.1,376c0.4,1.4-0.9,1.9-3.7,1.6c0.2-1.4,0.1-2.8-0.3-4.2c-0.2-1.1-0.4-1.7-0.8-1.9
			c0.5,0.2,1.3,0.7,2.4,1.6C225,374.1,225.8,375.1,226.1,376"/>
	</g>
	<g>
		<defs>
			<path id="SVGID_69_" d="M3.5,130.2c0,70,57.1,126.7,127.4,126.7s127.4-56.7,127.4-126.7S201.2,3.5,130.9,3.5S3.5,60.2,3.5,130.2"
				/>
		</defs>
		<clipPath id="SVGID_70_">
			<use xlink:href="#SVGID_69_"  style="overflow:visible;"/>
		</clipPath>
		<path class="st34" d="M77.9,357.7c-4.4,0.2-8.8,2.2-13,6.1c-3.4,3-5.5,5.8-6.4,8.5c-0.7-0.7-0.6-2.2,0.3-4.5
			c0.9-2.8,2.7-5.2,5.6-7.2C70.6,356.7,75.1,355.7,77.9,357.7"/>
	</g>
	<g>
		<defs>
			<path id="SVGID_71_" d="M3.5,130.2c0,70,57.1,126.7,127.4,126.7s127.4-56.7,127.4-126.7S201.2,3.5,130.9,3.5S3.5,60.2,3.5,130.2"
				/>
		</defs>
		<clipPath id="SVGID_72_">
			<use xlink:href="#SVGID_71_"  style="overflow:visible;"/>
		</clipPath>
		<path class="st35" d="M96.8,368.6c1.6-1.6,2.6-3.4,2.9-5.3c3.2,3.2,3.9,5.1,2.1,5.8C100.2,369.8,98.6,369.6,96.8,368.6"/>
	</g>
	<g>
		<defs>
			<path id="SVGID_73_" d="M3.5,130.2c0,70,57.1,126.7,127.4,126.7s127.4-56.7,127.4-126.7S201.2,3.5,130.9,3.5S3.5,60.2,3.5,130.2"
				/>
		</defs>
		<clipPath id="SVGID_74_">
			<use xlink:href="#SVGID_73_"  style="overflow:visible;"/>
		</clipPath>
		<path class="st36" d="M86.7,361.4c-3,0.4-5.8,1.3-8.2,2.9c-2.7,1.9-4.4,4.2-5.3,6.9c-0.7-3.7,0.7-6.8,4.2-9.3
			c3.2-2.3,6.6-2.6,10.4-0.8L86.7,361.4z"/>
	</g>
	<g>
		<defs>
			<path id="SVGID_75_" d="M3.5,130.2c0,70,57.1,126.7,127.4,126.7s127.4-56.7,127.4-126.7S201.2,3.5,130.9,3.5S3.5,60.2,3.5,130.2"
				/>
		</defs>
		<clipPath id="SVGID_76_">
			<use xlink:href="#SVGID_75_"  style="overflow:visible;"/>
		</clipPath>
		<path class="st37" d="M52.7,107.5c-0.5-0.7-1-1.9-1.3-3.7c-0.4-4.1,1.2-7.3,4.8-9.6c3-2.1,6.6-3.3,10.9-3.5
			C56.4,93.8,51.7,99.4,52.7,107.5"/>
	</g>
	<g>
		<defs>
			<path id="SVGID_77_" d="M3.5,130.2c0,70,57.1,126.7,127.4,126.7s127.4-56.7,127.4-126.7S201.2,3.5,130.9,3.5S3.5,60.2,3.5,130.2"
				/>
		</defs>
		<clipPath id="SVGID_78_">
			<use xlink:href="#SVGID_77_"  style="overflow:visible;"/>
		</clipPath>
		<path class="st38" d="M209.4,110.4c1.2-3.2,0.5-6-2.1-8.5c-2.7-2.5-6.6-3.6-11.7-3.5v-1.1c3.4-1.1,6.9-0.5,10.6,1.6
			c4.1,2.1,5.6,5,4.5,8.8L209.4,110.4z"/>
	</g>
	<g>
		<defs>
			<path id="SVGID_79_" d="M3.5,130.2c0,70,57.1,126.7,127.4,126.7s127.4-56.7,127.4-126.7S201.2,3.5,130.9,3.5S3.5,60.2,3.5,130.2"
				/>
		</defs>
		<clipPath id="SVGID_80_">
			<use xlink:href="#SVGID_79_"  style="overflow:visible;"/>
		</clipPath>
		<path class="st39" d="M211.5,200.2c-2.3-4.1-6.5-9.8-12.5-17.3c-5.3-6.7-8.2-12.3-8.7-16.7c0.2-8,0.3-14,0.5-18.1
			c0.4-7.4-1.4-12.8-5.3-16.2c-3.5-5-12.2-11.4-26-19.1l-50.1-0.2c-10.7,6.1-18.4,13.3-23,21.7c-6.7,13.6-7.3,27.4-1.9,41.2
			c0,0.4-1-0.1-2.9-1.3c-2.1-1.1-3.6-2.1-4.5-3.2c1.2,7.3,5.2,16.8,12,28.7l-2.9-2.4c-2.1-2.1-3.8-3.5-5-4c-0.4,8,2,18.9,7.2,32.7
			c0.2,0.4-1-0.1-3.4-1.3c-2.5-1.2-4.3-2.3-5.3-3.2c0.9,6.5,3.9,14.3,9,23.4c0.2,0.4-1.3-0.2-4.5-1.6c-3.2-1.4-5.7-2.7-7.4-3.7
			c2.6,7.3,6.5,14.5,11.7,21.8c0.2,0.2-1.8-0.1-5.8-0.8c5.3,8.3,16,18,32.1,29.2c8.3,5.7,21.2,7.8,38.8,6.4c1.2,1.8,1.3,4.1,0.3,6.9
			c4.1,0.9,8.9,0.2,14.6-2.1c3.9-1.4,7.1-3,9.6-4.8c3.5,0.9,5.8,1.7,6.9,2.4c1.2-2.3,1.3-4.7,0.3-7.2c3,0,4.9,0.2,5.6,0.5l-4.8-11.1
			c8.1,2.6,15.1,6.2,21,10.6c0.7-3.7,0.5-8.6-0.5-14.6c1.8,1.1,3.2,1.9,4.2,2.4c1.8,1.1,3.1,2.1,4,3.2c0.9-4.8,1.3-7.8,1.3-9
			c0.2-3.2-0.2-6.1-1.1-8.8c0.7,0,1.9,0.4,3.7,1.3s2.8,1.7,3.2,2.4c0.7-7.8-0.7-14.1-4.2-18.9c-0.4-0.4,0.3-0.6,1.9-0.8
			c1.8-0.4,3.7-0.2,5.8,0.5c-0.4-2.8-1.7-7-4-12.5c-2.5-5.8-3.9-10.1-4.2-12.7c-1.1-8.7-1.6-13.1-1.6-13.3
			C214.5,207.2,213.3,203.7,211.5,200.2"/>
	</g>
	<g>
		<defs>
			<path id="SVGID_81_" d="M3.5,130.2c0,70,57.1,126.7,127.4,126.7s127.4-56.7,127.4-126.7S201.2,3.5,130.9,3.5S3.5,60.2,3.5,130.2"
				/>
		</defs>
		<clipPath id="SVGID_82_">
			<use xlink:href="#SVGID_81_"  style="overflow:visible;"/>
		</clipPath>
		<path class="st40" d="M152.5,174.8c-11.7,3.4-23.5,3.8-35.4,1.2C130.1,183.5,141.9,183.1,152.5,174.8"/>
	</g>
	<g>
		<defs>
			<path id="SVGID_83_" d="M3.5,130.2c0,70,57.1,126.7,127.4,126.7s127.4-56.7,127.4-126.7S201.2,3.5,130.9,3.5S3.5,60.2,3.5,130.2"
				/>
		</defs>
		<clipPath id="SVGID_84_">
			<use xlink:href="#SVGID_83_"  style="overflow:visible;"/>
		</clipPath>
		<path class="st41" d="M128.8,106.2c-9.3,0.5-15.8,2-19.6,4.5c-4.1,2.7-4.3,6.1-0.7,10.1c4.7,5.2,10.5,8.9,17.5,11.2
			c11.3,3.6,21.7,1.7,31.3-5.6c9.6-7.3,9.5-12.7-0.1-16C147.6,107.1,138.1,105.7,128.8,106.2"/>
	</g>
	<g>
		<defs>
			<path id="SVGID_85_" d="M3.5,130.2c0,70,57.1,126.7,127.4,126.7s127.4-56.7,127.4-126.7S201.2,3.5,130.9,3.5S3.5,60.2,3.5,130.2"
				/>
		</defs>
		<clipPath id="SVGID_86_">
			<use xlink:href="#SVGID_85_"  style="overflow:visible;"/>
		</clipPath>
		<path class="st42" d="M124.5,111.5c-5-2.3-5-3.1,0-2.4c9.9,1.4,17.7,1.7,23.4,0.8c3-0.5,3.2,0.2,0.5,2.1
			c-2.5,1.6-5.8,2.5-10.1,2.7C134.1,114.9,129.5,113.8,124.5,111.5"/>
	</g>
	<g>
		<defs>
			<path id="SVGID_87_" d="M3.5,130.2c0,70,57.1,126.7,127.4,126.7s127.4-56.7,127.4-126.7S201.2,3.5,130.9,3.5S3.5,60.2,3.5,130.2"
				/>
		</defs>
		<clipPath id="SVGID_88_">
			<use xlink:href="#SVGID_87_"  style="overflow:visible;"/>
		</clipPath>
		<path class="st43" d="M310.8,212.9l-0.5-0.5c6.4,3.4,11.1,5.8,14.1,7.2l9.6,4.8c-3.7,0.5-8.1-0.6-13.3-3.5
			C316.2,218.4,312.9,215.8,310.8,212.9"/>
	</g>
	<g>
		<defs>
			<path id="SVGID_89_" d="M3.5,130.2c0,70,57.1,126.7,127.4,126.7s127.4-56.7,127.4-126.7S201.2,3.5,130.9,3.5S3.5,60.2,3.5,130.2"
				/>
		</defs>
		<clipPath id="SVGID_90_">
			<use xlink:href="#SVGID_89_"  style="overflow:visible;"/>
		</clipPath>
		<path class="st44" d="M326.5,216.7c8,3.9,11.1,6.4,9.3,7.4l-12.7-6.4c-7.6-4.1-11.7-6.2-12.2-6.4
			C313.3,211,318.5,212.8,326.5,216.7"/>
	</g>
	<g>
		<defs>
			<path id="SVGID_91_" d="M3.5,130.2c0,70,57.1,126.7,127.4,126.7s127.4-56.7,127.4-126.7S201.2,3.5,130.9,3.5S3.5,60.2,3.5,130.2"
				/>
		</defs>
		<clipPath id="SVGID_92_">
			<use xlink:href="#SVGID_91_"  style="overflow:visible;"/>
		</clipPath>
		<path class="st45" d="M317.5,209.8c3.2-0.2,5.9,0.3,8.2,1.3c2.5,1.1,4.9,2.8,7.2,5.3c2.3,2.5,2.5,3.2,0.5,2.1
			c-7.3-4.2-13.2-6.9-17.8-8C313.5,210,314.1,209.8,317.5,209.8"/>
	</g>
	<g>
		<defs>
			<path id="SVGID_93_" d="M3.5,130.2c0,70,57.1,126.7,127.4,126.7s127.4-56.7,127.4-126.7S201.2,3.5,130.9,3.5S3.5,60.2,3.5,130.2"
				/>
		</defs>
		<clipPath id="SVGID_94_">
			<use xlink:href="#SVGID_93_"  style="overflow:visible;"/>
		</clipPath>
		<path class="st46" d="M342.4,228.6c-3.4-0.5-2.8-0.7,1.6-0.5c4.1,0,7.5,0.4,10.4,1.3c2.7,0.9,5.8,3,9.6,6.4
			c4.1,3.5,4.3,4.2,0.8,1.9C357.5,232.9,350,229.8,342.4,228.6"/>
	</g>
	<g>
		<defs>
			<path id="SVGID_95_" d="M3.5,130.2c0,70,57.1,126.7,127.4,126.7s127.4-56.7,127.4-126.7S201.2,3.5,130.9,3.5S3.5,60.2,3.5,130.2"
				/>
		</defs>
		<clipPath id="SVGID_96_">
			<use xlink:href="#SVGID_95_"  style="overflow:visible;"/>
		</clipPath>
		<path class="st47" d="M359.7,237.1c-2.3-0.4-4.5-0.9-6.6-1.6c-2.7-1.2-5.3-2.6-8-4c-3-1.8-4-2.6-2.9-2.4c1.4,0.2,4.8,1.2,10.1,3.2
			c5.7,2.1,9,3.7,10.1,4.8C362.9,237.5,362,237.5,359.7,237.1"/>
	</g>
	<g>
		<defs>
			<path id="SVGID_97_" d="M3.5,130.2c0,70,57.1,126.7,127.4,126.7s127.4-56.7,127.4-126.7S201.2,3.5,130.9,3.5S3.5,60.2,3.5,130.2"
				/>
		</defs>
		<clipPath id="SVGID_98_">
			<use xlink:href="#SVGID_97_"  style="overflow:visible;"/>
		</clipPath>
		<path class="st48" d="M376.7,238.2l-1.3-0.8c1.2-0.4,3.3,0,6.1,1.1c3,1.2,5.7,2.7,8,4.5c4.1,3.5,7.2,7.9,9.3,13
			c-2.5-2.8-6.5-6.6-12.2-11.2C382.3,241.6,379,239.4,376.7,238.2"/>
	</g>
	<g>
		<defs>
			<path id="SVGID_99_" d="M3.5,130.2c0,70,57.1,126.7,127.4,126.7s127.4-56.7,127.4-126.7S201.2,3.5,130.9,3.5S3.5,60.2,3.5,130.2"
				/>
		</defs>
		<clipPath id="SVGID_100_">
			<use xlink:href="#SVGID_99_"  style="overflow:visible;"/>
		</clipPath>
		<path class="st49" d="M386.8,246.7c5.3,4.1,9.5,8.1,12.5,11.9c0,1.2-1.2,0.7-3.7-1.6c-10.6-10.1-17.1-15.8-19.4-17.3l-1.1-1.1
			L386.8,246.7z"/>
	</g>
	<g>
		<defs>
			<path id="SVGID_101_" d="M3.5,130.2c0,70,57.1,126.7,127.4,126.7s127.4-56.7,127.4-126.7S201.2,3.5,130.9,3.5S3.5,60.2,3.5,130.2
				"/>
		</defs>
		<clipPath id="SVGID_102_">
			<use xlink:href="#SVGID_101_"  style="overflow:visible;"/>
		</clipPath>
		<path class="st50" d="M376.1,245.9c-3.2-4.8-3.5-5.9-1.1-3.5l20.2,17.5c1.9,1.4,1.2,1.5-2.1,0.3c-3.4-1.2-6.2-2.7-8.5-4.5
			C382.3,253.7,379.5,250.5,376.1,245.9"/>
	</g>
	<g>
		<defs>
			<path id="SVGID_103_" d="M3.5,130.2c0,70,57.1,126.7,127.4,126.7s127.4-56.7,127.4-126.7S201.2,3.5,130.9,3.5S3.5,60.2,3.5,130.2
				"/>
		</defs>
		<clipPath id="SVGID_104_">
			<use xlink:href="#SVGID_103_"  style="overflow:visible;"/>
		</clipPath>
		<path class="st51" d="M341.9,209.8c-4.6-3.7-5-4.6-1.1-2.7c16.3,7.3,26.7,11.9,31.3,14.1c3.7,1.6,2.5,1.9-3.7,1.1
			c-6-0.9-10.7-2.2-14.1-4C350.5,216.1,346.3,213.3,341.9,209.8"/>
	</g>
	<g>
		<defs>
			<path id="SVGID_105_" d="M3.5,130.2c0,70,57.1,126.7,127.4,126.7s127.4-56.7,127.4-126.7S201.2,3.5,130.9,3.5S3.5,60.2,3.5,130.2
				"/>
		</defs>
		<clipPath id="SVGID_106_">
			<use xlink:href="#SVGID_105_"  style="overflow:visible;"/>
		</clipPath>
		<path class="st52" d="M406.4,263.7c-1.6-4.2-1.3-4.9,0.8-1.9c3.5,4.8,8,11.9,13.3,21.2c1.4,2.1,0.6,1.9-2.4-0.8
			c-3.2-2.7-5.5-5.2-6.9-7.7C409.4,271.4,407.8,267.7,406.4,263.7"/>
	</g>
	<g>
		<defs>
			<path id="SVGID_107_" d="M3.5,130.2c0,70,57.1,126.7,127.4,126.7s127.4-56.7,127.4-126.7S201.2,3.5,130.9,3.5S3.5,60.2,3.5,130.2
				"/>
		</defs>
		<clipPath id="SVGID_108_">
			<use xlink:href="#SVGID_107_"  style="overflow:visible;"/>
		</clipPath>
		<path class="st53" d="M304.7,192.2c-3.5-3.2-4-4-1.3-2.4c2.7,1.9,10.9,5.8,24.7,11.4c1.8,0.9,0.4,0.9-4.2,0
			c-4.4-0.9-7.9-1.9-10.4-2.9C311.2,197.3,308.3,195.2,304.7,192.2"/>
	</g>
	<g>
		<defs>
			<path id="SVGID_109_" d="M3.5,130.2c0,70,57.1,126.7,127.4,126.7s127.4-56.7,127.4-126.7S201.2,3.5,130.9,3.5S3.5,60.2,3.5,130.2
				"/>
		</defs>
		<clipPath id="SVGID_110_">
			<use xlink:href="#SVGID_109_"  style="overflow:visible;"/>
		</clipPath>
		<path class="st54" d="M133.3,138.4c15.4,0.2,27.5-0.4,36.4-1.6c0.4,8.9-2.5,16.3-8.5,22.3c-7.3,7.6-18.2,10.9-32.9,9.8
			c-8.7-0.7-15.8-4.3-21.5-10.9c-5.5-6.4-8.1-13.8-8-22.3C105.9,137.3,117.4,138.2,133.3,138.4"/>
	</g>
	<g>
		<defs>
			<path id="SVGID_111_" d="M3.5,130.2c0,70,57.1,126.7,127.4,126.7s127.4-56.7,127.4-126.7S201.2,3.5,130.9,3.5S3.5,60.2,3.5,130.2
				"/>
		</defs>
		<clipPath id="SVGID_112_">
			<use xlink:href="#SVGID_111_"  style="overflow:visible;"/>
		</clipPath>
		<path class="st55" d="M137.6,146.4c9,0.7,15.7,6,19.9,15.9c-7.3,5.5-17,7.7-29.2,6.6c-6.7-0.5-12.6-2.8-17.5-6.9l4-4.8
			C121.8,149.5,129.4,145.8,137.6,146.4"/>
	</g>
	<g>
		<defs>
			<path id="SVGID_113_" d="M3.5,130.2c0,70,57.1,126.7,127.4,126.7s127.4-56.7,127.4-126.7S201.2,3.5,130.9,3.5S3.5,60.2,3.5,130.2
				"/>
		</defs>
		<clipPath id="SVGID_114_">
			<use xlink:href="#SVGID_113_"  style="overflow:visible;"/>
		</clipPath>
		<path class="st56" d="M107.3,148.5c-2.3-1.8-3.7-5.8-4.2-11.9c8.1,1.2,19.2,1.9,33.2,1.9c13.3,0,24.1-0.5,32.4-1.6
			c-2.5,6.4-5,10.1-7.7,11.2c-1.4-0.9-2.5-2-3.2-3.5c-5.8,2.3-14.2,3.4-25,3.2c-9.9,0-16.8-0.8-20.7-2.4
			C110.1,147.1,108.5,148.1,107.3,148.5"/>
	</g>
	<g>
		<defs>
			<path id="SVGID_115_" d="M3.5,130.2c0,70,57.1,126.7,127.4,126.7s127.4-56.7,127.4-126.7S201.2,3.5,130.9,3.5S3.5,60.2,3.5,130.2
				"/>
		</defs>
		<clipPath id="SVGID_116_">
			<use xlink:href="#SVGID_115_"  style="overflow:visible;"/>
		</clipPath>
		<path class="st57" d="M146.1,157.3c1.2,0.5,2.7,2,4.5,4.5c1.8,2.1,2.6,3.3,2.4,3.5c-6.7,3.2-15,4.4-24.7,3.7
			c-7.4-0.5-13.7-3.2-18.9-8c2.5-3.7,4.5-5.6,6.1-5.6c0.2,0.2,0.6,1.8,1.3,4.8c7.4,3.9,16.4,4.3,26.8,1.3
			C144.2,159.6,145,158.1,146.1,157.3"/>
	</g>
	<g>
		<defs>
			<path id="SVGID_117_" d="M3.5,130.2c0,70,57.1,126.7,127.4,126.7s127.4-56.7,127.4-126.7S201.2,3.5,130.9,3.5S3.5,60.2,3.5,130.2
				"/>
		</defs>
		<clipPath id="SVGID_118_">
			<use xlink:href="#SVGID_117_"  style="overflow:visible;"/>
		</clipPath>
		<path class="st58" d="M103.9,101.5c0.2,0.2,0.1,0.3-0.3,0.3h-4.8c-0.4,0.2-0.6,0.1-0.8-0.3c0-0.2,0.2-0.3,0.5-0.3
			C100,100.9,101.8,101,103.9,101.5"/>
	</g>
	<g>
		<defs>
			<path id="SVGID_119_" d="M3.5,130.2c0,70,57.1,126.7,127.4,126.7s127.4-56.7,127.4-126.7S201.2,3.5,130.9,3.5S3.5,60.2,3.5,130.2
				"/>
		</defs>
		<clipPath id="SVGID_120_">
			<use xlink:href="#SVGID_119_"  style="overflow:visible;"/>
		</clipPath>
		<path class="st59" d="M169.6,102.9c0.2,0,0.1,0.4-0.3,1.1c-2.7-1.6-4.8-1.8-6.4-0.5l-0.3-0.3C164.1,101.4,166.5,101.3,169.6,102.9
			"/>
	</g>
	<g>
		<defs>
			<path id="SVGID_121_" d="M3.5,130.2c0,70,57.1,126.7,127.4,126.7s127.4-56.7,127.4-126.7S201.2,3.5,130.9,3.5S3.5,60.2,3.5,130.2
				"/>
		</defs>
		<clipPath id="SVGID_122_">
			<use xlink:href="#SVGID_121_"  style="overflow:visible;"/>
		</clipPath>
		<path class="st60" d="M103.6,68.3c0.7-0.4,1.2-0.1,1.3,0.8c0.2,0.7-0.1,1.2-0.8,1.3c-3.4,1.1-5.7,3.2-6.9,6.4
			c-0.7,0.2-1,0.1-0.8-0.3c0.4-2.5,1.2-4.3,2.4-5.6C100.1,69.7,101.7,68.8,103.6,68.3"/>
	</g>
	<g>
		<defs>
			<path id="SVGID_123_" d="M3.5,130.2c0,70,57.1,126.7,127.4,126.7s127.4-56.7,127.4-126.7S201.2,3.5,130.9,3.5S3.5,60.2,3.5,130.2
				"/>
		</defs>
		<clipPath id="SVGID_124_">
			<use xlink:href="#SVGID_123_"  style="overflow:visible;"/>
		</clipPath>
		<path class="st61" d="M158.4,70c6.2,0.9,9.8,4.2,10.9,10.1l-0.3,0.3c-1.9-5.1-5.6-7.9-10.9-8.2c-0.7-0.2-1-0.5-0.8-1.1
			C157.3,70.3,157.7,70,158.4,70"/>
	</g>
	<g>
		<defs>
			<path id="SVGID_125_" d="M3.5,130.2c0,70,57.1,126.7,127.4,126.7s127.4-56.7,127.4-126.7S201.2,3.5,130.9,3.5S3.5,60.2,3.5,130.2
				"/>
		</defs>
		<clipPath id="SVGID_126_">
			<use xlink:href="#SVGID_125_"  style="overflow:visible;"/>
		</clipPath>
		<path class="st62" d="M162,84.3c-1.3-1.1-2.7-1.8-4.3-2.2c-1.6-0.3-3,0.2-4.3,1.6c-0.5,0.5-0.8,1.2-1.1,1.9
			c-0.8,1.7-1.3,3.5-1.5,5.5c-0.1,1.3,0.1,2.5,0.5,3.7c0.5,1.9,1.2,3.5,2.2,5s2.2,2.5,3.5,3.1c1.4,0.5,2.7,0.7,4.1,0.5
			c1.6-0.1,2.9-1,3.8-2.7c0.3-0.6,0.6-1.2,0.7-1.7c0.5-1.7,0.7-3.5,0.7-5.3c0-2.1-0.5-4-1.4-5.7C164.2,86.4,163.2,85.2,162,84.3"/>
	</g>
	<g>
		<defs>
			<path id="SVGID_127_" d="M3.5,130.2c0,70,57.1,126.7,127.4,126.7s127.4-56.7,127.4-126.7S201.2,3.5,130.9,3.5S3.5,60.2,3.5,130.2
				"/>
		</defs>
		<clipPath id="SVGID_128_">
			<use xlink:href="#SVGID_127_"  style="overflow:visible;"/>
		</clipPath>
		<path class="st63" d="M161.4,92.3c0.2,1.8-0.1,3.4-1,4.8c-0.7,1.4-1.6,2.2-2.7,2.4c-3.2,0.9-5-0.8-5.5-5.1c-0.2-1.8,0-3.4,0.7-4.8
			c0.9-1.4,1.9-2.2,3.1-2.4c1.4-0.2,2.6,0.1,3.8,1C160.6,89.1,161.1,90.5,161.4,92.3"/>
	</g>
	<g>
		<defs>
			<path id="SVGID_129_" d="M3.5,130.2c0,70,57.1,126.7,127.4,126.7s127.4-56.7,127.4-126.7S201.2,3.5,130.9,3.5S3.5,60.2,3.5,130.2
				"/>
		</defs>
		<clipPath id="SVGID_130_">
			<use xlink:href="#SVGID_129_"  style="overflow:visible;"/>
		</clipPath>
		<path class="st64" d="M109.7,80.5c-1.6,0.4-3,1.1-4.3,2.2c-1.2,0.9-2.2,2.1-2.9,3.7c-0.9,1.7-1.4,3.6-1.4,5.7
			c0,1.8,0.2,3.6,0.7,5.3c0.1,0.6,0.4,1.1,0.7,1.8c0.9,1.7,2.2,2.6,3.8,2.7c1.4,0.2,2.8,0,4.1-0.5c1.3-0.6,2.5-1.6,3.5-3.1
			s1.7-3.1,2.2-5c0.4-1.2,0.6-2.4,0.5-3.7c-0.1-2-0.6-3.9-1.5-5.5c-0.3-0.8-0.7-1.4-1.1-1.9C112.7,80.7,111.3,80.2,109.7,80.5"/>
	</g>
	<g>
		<defs>
			<path id="SVGID_131_" d="M3.5,130.2c0,70,57.1,126.7,127.4,126.7s127.4-56.7,127.4-126.7S201.2,3.5,130.9,3.5S3.5,60.2,3.5,130.2
				"/>
		</defs>
		<clipPath id="SVGID_132_">
			<use xlink:href="#SVGID_131_"  style="overflow:visible;"/>
		</clipPath>
		<path class="st65" d="M113.9,90.2c0.4,1.7,0.4,3.3,0,4.8c-0.4,1.7-1.2,2.8-2.2,3.2c-1.1,0.6-2.1,0.6-3.2,0c-1.3-0.6-2-1.7-2.2-3.2
			c-1.1-3.8-0.3-6.5,2.2-8c1.1-0.6,2.1-0.6,3.2,0S113.5,88.7,113.9,90.2"/>
	</g>
</g>
<g>
	<g>
		<defs>
			<rect id="SVGID_133_" x="2" y="2" width="257.9" height="256.4"/>
		</defs>
		<clipPath id="SVGID_134_">
			<use xlink:href="#SVGID_133_"  style="overflow:visible;"/>
		</clipPath>
		<ellipse class="st66" cx="130.9" cy="130.2" rx="127.4" ry="126.7"/>
	</g>
</g>
</svg>
