<?xml version="1.0" encoding="utf-8"?>
<!-- Generator: Adobe Illustrator 24.1.2, SVG Export Plug-In . SVG Version: 6.00 Build 0)  -->
<svg version="1.1" id="Layer_1" xmlns="http://www.w3.org/2000/svg" xmlns:xlink="http://www.w3.org/1999/xlink" x="0px" y="0px"
	 viewBox="0 0 262.1 261.3" style="enable-background:new 0 0 262.1 261.3;" xml:space="preserve">
<style type="text/css">
	.st0{clip-path:url(#SVGID_2_);fill:#C29591;}
	.st1{clip-path:url(#SVGID_4_);fill:#A7754C;}
	.st2{clip-path:url(#SVGID_4_);fill:#BD8B64;}
	.st3{clip-path:url(#SVGID_4_);fill:#ECB940;}
	.st4{clip-path:url(#SVGID_4_);fill:#CFA33C;}
	.st5{clip-path:url(#SVGID_4_);fill:#CCA07D;}
	.st6{clip-path:url(#SVGID_4_);fill:#BC8F6C;}
	.st7{clip-path:url(#SVGID_4_);fill:#D9B392;}
	.st8{clip-path:url(#SVGID_4_);fill:#865A38;}
	.st9{clip-path:url(#SVGID_4_);fill:#E1BB9D;}
	.st10{clip-path:url(#SVGID_4_);fill:#D3AD90;}
	.st11{clip-path:url(#SVGID_4_);fill:#7A5333;}
	.st12{clip-path:url(#SVGID_4_);fill:#C28E68;}
	.st13{clip-path:url(#SVGID_4_);fill:#B58766;}
	.st14{clip-path:url(#SVGID_4_);fill:#1D1D1E;}
	.st15{clip-path:url(#SVGID_4_);fill:#C4274E;}
	.st16{clip-path:url(#SVGID_4_);fill:#F6E3A7;}
	.st17{clip-path:url(#SVGID_4_);fill:#F1D6C2;}
	.st18{clip-path:url(#SVGID_4_);fill:#703C18;}
	.st19{clip-path:url(#SVGID_4_);fill:#FFFFFF;}
	.st20{clip-path:url(#SVGID_4_);fill:#502E17;}
	.st21{clip-path:url(#SVGID_6_);fill:none;stroke:#9E6F6B;stroke-width:4;}
</style>
<g>
	<defs>
		<rect id="SVGID_1_" x="5.1" y="4.6" width="252" height="252"/>
	</defs>
	<clipPath id="SVGID_2_">
		<use xlink:href="#SVGID_1_"  style="overflow:visible;"/>
	</clipPath>
	<path class="st0" d="M131.1,254.6c68.5,0,124-55.5,124-124s-55.5-124-124-124s-124,55.5-124,124S62.6,254.6,131.1,254.6"/>
</g>
<g>
	<defs>
		<path id="SVGID_3_" d="M42.8,43.5c-1.5,1.5-2.9,3-4.3,4.6v165c22.7,25.5,55.8,41.5,92.6,41.5c51.9,0,96.3-31.8,114.8-77V83.7
			c-6.2-15.1-15.3-28.7-26.6-40.2H42.8z"/>
	</defs>
	<clipPath id="SVGID_4_">
		<use xlink:href="#SVGID_3_"  style="overflow:visible;"/>
	</clipPath>
	<path class="st1" d="M156.2,345c-8.9,17-17.3,31.1-25.3,42.1c-8.4,11.6-16.1,19.6-23.1,24.2c1,5.5,3.2,11.2,6.6,17.1
		c2.2,3.9,5.5,8.6,9.7,13.9l18.6-42.7c-0.8,3.9-2,9.4-3.5,16.4c-1.2,5.9-2,10.8-2.5,14.7c-1.1,10.2-0.1,19.5,3,27.9
		c0.9,2.3,2.4,3,4.5,1.9c2-1,4.3-3.3,7-7c5.7-7.9,10.3-17.2,13.7-28c0.4,10.2,2.3,19.1,5.7,26.8c3.3,7.5,7.8,13.1,13.4,16.6
		c1.3,0.8,2.9-0.1,4.6-2.8c1.7-2.7,3.2-6.6,4.6-11.7c3.3-12.5,4.2-25.5,2.5-38.9c5.8,10.3,11.9,18.6,18.4,24.9
		c4.8,4.7,11.5,9.6,20.2,14.9l11.7,0.8c-13.4-25.6-22.7-44.8-28-57.4c-8.8-21-14.4-40.7-16.9-59c-4.9,1-12.4,1.9-22.4,2.7
		C168.6,343.1,161.1,344,156.2,345"/>
	<path class="st1" d="M89.1,253.1c-2.3-31.3-3.9-53.9-4.8-67.7c-11,5.7-19.7,11.5-26,17.4c-6.1,5.7-10.7,12.1-13.9,19.3
		c-1.5,3.4-1.5,9.3,0.2,17.4c1.7,8.3,4.6,17.4,8.9,27.1c4.7,10.7,10.3,20.5,16.7,29.5c7.3,10.2,15.2,18.4,23.6,24.7
		C93,306.7,91.4,284.1,89.1,253.1"/>
	<path class="st2" d="M84.6,190l-0.3-4.5c-11,5.7-19.7,11.5-26,17.4c-6.1,5.7-10.7,12.1-13.9,19.3c-0.8,1.8-1.1,4.2-1,7.4
		c0.1,3.1,0.5,6.8,1.4,10.9c-1-6.4-0.8-11,0.4-14c3.2-7.2,7.7-13.6,13.8-19.2C65.2,201.4,73.8,195.6,84.6,190"/>
	<polygon class="st3" points="96.7,327.3 85.1,345.2 116.5,353.5 109.6,333.8 	"/>
	<path class="st3" d="M75.3,337.7c-0.4,3.3,0.4,6.7,2.3,10.3c1.9,3.6,4.1,6.1,6.5,7.5c1,0.6,2.2,0.3,3.6-0.9c1.4-1.3,2.2-3,2.1-5.1
		c0.8-1.9,2.4-4.5,4.8-7.8c2.4-3.3,4-5.9,4.8-7.8c-0.1,0-1.4-0.5-3.9-1.4c-1.6-0.6-3.3-1.6-5.1-3.1c-1.9-1.5-4.7-1.3-8.6,0.5
		C77.8,331.8,75.7,334.4,75.3,337.7"/>
	<path class="st4" d="M98.6,343.7c-0.9-1.7-0.6-3.5,0.9-5.4c0.9-1.1,1.5-1.9,2-2.5c0.7-1,1.2-2,1.4-2.9c-5.5-1.1-9.6-0.7-12.5,1.1
		c-2.8,1.9-4.9,3.8-6.2,5.7c-1.3,1.9-1.7,4.2-0.9,6.7c0.7,2.6,1.8,4.9,3.3,7.1c3.8,5.7,7.5,7.6,11.1,5.7c2.3-1.2,3.4-3.5,3.5-6.8
		C101.2,349.2,100.4,346.3,98.6,343.7"/>
	<path class="st3" d="M98.6,343.7c0.3-1.4,1-2.8,2.1-4.1c1.1-1.3,1.8-2.6,2.1-4.1c-4.3-3.5-8-4.4-11.3-2.8c-3.2,1.6-5.2,3.8-5.8,6.4
		c-0.7,2.7-0.6,5,0.2,7c0.7,1.9,1.8,3.8,3.1,5.8c1.4,2,2.8,3.5,4.1,4.4c1.5,1.1,2.8,1.2,3.7,0.3c1.3-1.2,2.1-3.1,2.2-5.9
		C99.2,349,99,346.6,98.6,343.7"/>
	<path class="st5" d="M179.1,253.4c-5-9.3-8.6-16.3-10.5-21c-3.3-8-5.4-15.5-6.1-22.6l-94.9-0.9c-9.1,12.9-14.3,23.9-15.6,32.9
		c-0.5,3.6,0.4,9.8,2.8,18.4c2.6,9.4,6.4,19.2,11.3,29.3c5.7,11.8,12.2,22.5,19.4,32c8.5,11.1,17.6,20,27.3,26.6h0.1
		c21.8,2.4,41.4,5.1,58.6,7.9c6-5.8,10.9-13.1,14.9-21.7c4.8-10.4,7.9-22.5,9.5-36.5c-0.7-7.3-2.8-15-6.2-23.1
		C187.6,269.7,184.1,262.6,179.1,253.4"/>
	<path class="st6" d="M132.2,230.8c-3.3,4.5-5.8,9.6-7.6,15.2c-1.8,5.6-1,13.4,2.2,23.5c2.5,7.8,5.8,15.3,10,22.5
		c2.3,4,7.5,11,15.6,20.9c10,12.2,19.5,22.7,28.5,31.3c3.6-5.6,6.6-12,9-19.1c-5.7-9.3-12.1-17.4-19.4-24.3
		c-3.7-14.6-7.1-29.6-10-45c-2.7-14.2-5.2-29.5-7.5-45.9l-5.1-0.1c-0.4,2.1-0.7,3.7-1.1,5c-0.5,1.6-1.1,3-1.7,4.1
		C140.1,221.8,135.8,225.8,132.2,230.8"/>
	<path class="st7" d="M72.8,208.9l-5.3,0c-9.1,12.9-14.3,23.9-15.6,32.9c-0.5,3.6,0.4,9.8,2.8,18.4c2.6,9.4,6.4,19.2,11.3,29.3
		c5.7,11.8,12.2,22.5,19.4,32c8.5,11.1,17.6,20,27.3,26.6h0.1l0.9,0.1c-9.3-6.7-18.1-15.6-26.3-26.7c-7-9.4-13.2-19.9-18.7-31.5
		c-4.7-9.9-8.3-19.4-10.8-28.5c-2.3-8.3-3.2-14.3-2.7-17.9c1.3-9,6.6-20,15.6-32.9C71.4,210,72.1,209.5,72.8,208.9"/>
	<path class="st3" d="M141,340.9l-0.4,10.6c7.3,1,13.3,1.9,18,2.6c0.4-2,0.5-4,0.3-5.9c-0.3-3.3-1.5-6-3.4-7.9
		c-1.5-1.4-3-2.4-4.8-3.1c-1.3-0.4-2.7-0.7-4.3-0.7c-0.5,1-1.4,1.7-2.7,2.2C142.4,339.2,141.5,339.9,141,340.9"/>
	<path class="st3" d="M122.9,340.2c-2.6,2.1-3.9,3.8-4,5c-0.5,4.2,1.2,8.2,5,12c1.2,1.2,2.6,1.6,4.3,1.1c2-0.6,3.2-2.4,3.8-5.6
		c0.5-2.6,2.2-5.9,5.1-9.9c1.6-2.2,2.5-3.4,2.6-3.6c0.7-1,0.8-1.6,0.5-1.8c-4.1-2.5-7.3-3.3-9.4-2.3
		C128.1,336.4,125.4,338.1,122.9,340.2"/>
	<path class="st1" d="M164.2,189.9c-6.8,2.6-12.3,4.7-16.7,6.3l19,103.2l29.3-1.9c1.9-3.9,3-11.8,3.4-23.9c0.4-11.6-0.1-19.3-1.4-23
		c-3.6-10-8.5-20.5-14.9-31.5C178.2,210.8,171.9,201.1,164.2,189.9"/>
	<path class="st2" d="M164.2,189.9c-6.8,2.6-12.3,4.7-16.7,6.3l0.9,4.7c4-1.5,9.2-3.5,15.8-6c7.8,11.2,14.1,21,18.8,29.3
		c6.3,11,11.3,21.5,14.9,31.5c0.9,2.5,1.4,7.3,1.5,14.6c0.1-4.4,0-8.4-0.3-11.9c-0.3-3.7-0.7-6.3-1.2-7.8
		c-3.6-10-8.5-20.5-14.9-31.5C178.2,210.8,171.9,201.1,164.2,189.9"/>
	<path class="st8" d="M200.8,288.9c-2.1-6.9-5.6-13.6-10.4-20.1c-3.3,6.8-7.1,12.7-11.3,17.8c-3.8,4.6-8.5,9-13.9,13.3
		c5,5.1,11.2,12,18.9,20.6c7.6,8.6,13.9,15.4,18.9,20.6c2.4-3.1,3.7-8.7,4-16.6c0.2-7-0.3-12.7-1.6-17.3c-0.6-2.1-1.4-5.2-2.3-9.4
		C202.2,293.9,201.4,291,200.8,288.9"/>
	<path class="st1" d="M197.1,287.3c-2.1-7.1-4.3-13.3-6.7-18.5c-3.4,2.7-8.8,6.6-16.1,11.6c-7.3,5-12.7,8.9-16.2,11.6l44.9,46.2
		c0.9-4.2,1.3-9.6,1.2-16.2c-0.1-6.6-0.7-11.8-1.9-15.7C200,297.8,198.3,291.4,197.1,287.3"/>
	<path class="st8" d="M205,352.5c1.1-7.7-0.8-18.5-5.6-32.4c-4.8-13.7-9.9-23.4-15.5-29c-5.6,4.2-8.9,6.5-9.9,7
		c-3.3,1.7-7.1,2.3-11.5,1.8c5.1,6.9,12.2,15.7,21.3,26.3C192.9,336.9,200,345.6,205,352.5"/>
	<path class="st1" d="M202.6,349.6c0.8-6.9-1.1-16.5-5.6-28.9c-2.7-7.2-7-17.1-13.1-29.6c-3.3-0.4-7.8-1-13.4-1.7
		c-5.7-0.8-10.1-1.3-13.4-1.7L202.6,349.6z"/>
	<path class="st1" d="M149.4,207.4c-5.1,5.6-9.2,10.9-12.3,15.8c-3.7,5.9-6.5,12-8.3,18.2c-1.6,5.7-0.9,13.4,2.2,23.3
		c2.4,7.8,5.7,15.3,9.7,22.3c1.3,2.2,4.2,6.2,8.8,12c5,6.3,10.5,12.8,16.5,19.6c15.9,17.9,29.1,30.7,39.7,38.3
		c-4-9.7-9.1-20-15.3-30.7c-5.1-8.8-11.3-18.6-18.7-29.4l-14.3-110.8c-1.7,5.8-2.9,9.4-3.3,10.8C152.5,201.2,151,204.8,149.4,207.4"
		/>
	<path class="st9" d="M171.8,193.2c-0.1-2.5-0.8-4.3-2.1-5.4c-10.8-0.6-25.7-2.3-44.7-5.1c-18.9-2.8-33.8-4.6-44.7-5.1
		c-6.6,2-11.9,5.5-16,10.6c-4.4,5.6-5.2,10.7-2.2,15.5c0.6-0.8,1.3-2,2-3.6c0.7-1.6,1.4-2.9,2-3.7c-0.9,5.3-1.3,9.5-1.3,12.7
		c0.1,4.5,1,8.4,2.7,11.7l2.3-9.5c0.9,5.3,2.7,10.6,5.6,16c2.8,5.3,6.1,10,10,13.8c5-4.9,9.5-8.9,13.6-11.8
		c5.7-4.1,10.9-6.6,15.5-7.4l-9,7.7c8.8-2.9,16.2-5.8,22.3-8.5c8.6-3.9,15.9-8.1,22-12.7l-7.4,8.4c5.7-2,11.2-5,16.7-9.2
		c6.3-4.8,9.4-9,9.5-12.7c0.8,1,1.3,2.2,1.5,3.6C171.4,197.5,171.9,195.8,171.8,193.2"/>
	<path class="st10" d="M171.4,190.7c-0.4-1.3-0.9-2.3-1.6-2.9c-10.8-0.6-25.7-2.3-44.7-5.1c-18.9-2.8-33.8-4.6-44.7-5.1
		c-4.4,1.3-8.4,3.6-12,6.6c6.5,5.7,13.7,10.2,21.7,13.7c8.1,3.5,16.3,5.5,24.8,6.2c8,0.7,16.2,0.2,24.6-1.4c8.8-1.6,17.1-4.3,24.9-8
		C166.8,193.6,169.1,192.2,171.4,190.7"/>
	<path class="st8" d="M77.9,302.5c1.6,1.1,3,1.5,4.2,1.2c1.5-0.3,2.2-1.6,2.2-3.9c1.3,2.8,2.8,4.8,4.5,6.2c1.1,0.9,2.5,1.5,4,1.8
		c2.9,0.6,6.6-0.3,11.1-2.9c5.4-3,9.2-7.3,11.4-12.6c-6.3-1.8-15.3-2.9-26.8-3.2c-10.7-0.3-17,0.1-18.8,1c0.6,2.3,1.7,4.7,3.4,7.1
		C74.6,299.6,76.2,301.4,77.9,302.5"/>
	<path class="st8" d="M75.5,277.1c1.7,2.2,3.6,3.9,5.7,4.9c2.2,1,4.2,0.8,6.1-0.8c1.9-1.5,3.2-3.9,3.7-7.2c0.8,2.7,2,4.6,3.6,5.6
		c1.4,0.9,3.1,1.2,5,0.8c2.5-0.6,5-1.8,7.6-3.8c2.7-2.1,4.9-4.6,6.5-7.4c-7.5-2.4-18-4.7-31.4-6.9c-2.2-0.4-9.6-1.4-22.1-3.2
		c0.3,2.6,0.8,5,1.7,7.1c1.1,2.6,2.7,4.7,4.6,6.3c1.4,1.1,2.5,1.5,3.5,1.2c1.1-0.4,1.4-1.7,0.9-4.1
		C72.7,272.9,74.2,275.5,75.5,277.1"/>
	<path class="st5" d="M81.9,257.7c-4.9-0.7-9.4-0.9-13.4-0.6c-3.8,0.3-6.6,1-8.3,2c0.9,2.8,1.8,4.9,2.7,6.5c1.3,2.4,2.9,4.3,4.8,5.8
		c1.1,0.9,1.7,0.3,1.9-1.8c0.1-2.1-0.3-4.3-1.3-6.7c4.9,9.1,9.3,14.5,13,16.3c2.1,1,4.1,0.5,6.1-1.5c1.9-1.9,3.1-4.6,3.6-7.9
		c0.9,2.9,2.1,5.2,3.7,6.8c1.6,1.7,3.3,2.3,5,1.9c3.8-0.8,8.5-3.9,14.1-9.2C104.7,263.2,94.1,259.3,81.9,257.7"/>
	<path class="st5" d="M75.6,287.3c-3.5,0.6-5.5,1.6-5.9,2.8c1.2,2.3,2.6,4.5,4.3,6.5c1.8,2.2,3.6,3.8,5.2,4.7c1.4,0.8,2.4,0.6,3-0.7
		c0.6-1.3,0.7-3.4,0.3-6.2c1.5,3.2,3,5.7,4.4,7.3c1.6,1.7,3.5,2.8,5.8,3.3c2.5,0.6,6.2-0.4,11.1-2.9c5.3-2.7,9.2-6,11.6-9.7
		c-6.8-3.2-16-5-27.4-5.5C83,286.6,78.9,286.7,75.6,287.3"/>
	<path class="st4" d="M145.8,336.1c0.1-0.1,0.1-0.1,0.2-0.2C145.7,335.7,145.7,335.8,145.8,336.1 M132.2,341.3c-1-0.2-1.9,1-2.6,3.5
		c-0.8,2.5-0.8,5.9,0,10.2c0.8,4.2,3.2,7.2,7.2,8.7c0.9,0.4,2.1,0.1,3.4-0.6c1.4-0.8,2.6-2,3.7-3.6c2.8-4,3.7-8.5,2.6-13.4
		c-1.7-1.9-2.5-3.5-2.6-4.8c-0.1-0.8,0.1-1.8,0.6-2.8c-1.9-0.3-3.7-0.1-5.4,0.7C135.4,340.8,133.2,341.6,132.2,341.3"/>
	<path class="st3" d="M138.5,338.8c-3.8,1.7-6.2,3.2-7.3,4.8c-0.4,0.5-0.6,1.6-0.6,3.2c0,1.7,0.2,3.4,0.6,5.2c1.1,4.8,3,7.6,5.8,8.6
		c1.7,0.6,3.6-0.8,5.5-4.2c1.6-2.8,3-6.3,4-10.3c-0.1-1.6-0.1-3.2,0-4.8c0.1-1.6,0.1-3.2,0-4.8C144.7,336.5,142,337.3,138.5,338.8"
		/>
	<path class="st1" d="M152.7,191.9c1.6-2.2,3.7-17.7,6.3-46.5c2.8-33.3,4.7-54.9,5.6-64.8l-98.2-3.8c-2.4,3-5.3,8.6-8.7,16.9
		c-5.3,12.9-8.1,19.8-8.5,20.6c-1.7,3.7-5.3,7.5-10.8,11.4c1.7,0.1,3.6-0.3,5.9-1.4c-3.1,3.8-4.7,6.8-4.8,9.1
		c0.7-0.3,1.5-0.7,2.3-1.4c0.9-0.7,1.5-1.5,1.9-2.3c-0.2,0.7-0.6,1.9-1.1,3.6c-0.4,1.5-0.6,2.8-0.5,3.7c0.4,4,1.8,8.4,4,13.4
		c2.3,5.1,5.2,10.1,8.9,15c8.5,11.5,18.3,19.5,29.4,24.1c11.1,4.6,22.5,7.2,34.2,7.7C131,197.7,142.3,196,152.7,191.9"/>
	<path class="st1" d="M94.2,128c3.9-2.6,10.7-6.5,20.4-11.7c9.7-5.2,16.5-9.1,20.4-11.7c6.5-4.4,10.6-8.5,12.1-12.3l-0.7-12.6
		l-80-3.1c-2.4,3-5.3,8.6-8.7,16.9c-5.3,12.9-8.1,19.8-8.5,20.6c-1.7,3.7-5.3,7.5-10.8,11.4c1.7,0.1,3.6-0.3,5.9-1.4
		c-3.1,3.8-4.7,6.8-4.8,9.1c0.7-0.3,1.5-0.7,2.3-1.4c0.9-0.7,1.5-1.5,1.9-2.3c-0.2,0.7-0.6,1.9-1.1,3.6c-0.4,1.5-0.6,2.8-0.5,3.7
		c0.7,6.2,3.3,13.1,7.9,20.8c4.9,8.3,10.9,15.5,18,21.5c-1.3-6.2,0.1-13.2,4-20.8c0.7-1.5,2.5-4.5,5.3-9.2c2.2-3.7,3.7-6.7,4.6-8.9
		C83.6,136.5,87.6,132.4,94.2,128"/>
	<path class="st5" d="M88.8,122.7c2.1-7.8,1.6-16.3-1.5-25.5c-1.2-3.7-3.5-6.5-6.9-8.5c-3.8-2.3-7.7-2.4-11.6-0.3
		c-7.5,4.1-13,13.6-16.5,28.7c-0.2,2.2,0.3,4.9,1.6,8c1.3,3.3,3.1,6.2,5.3,8.7c5.8,6.4,12.1,7.7,19,3.9
		C83.3,134.9,86.8,129.9,88.8,122.7"/>
	<path class="st11" d="M54.9,52.1c0.3,4.9,1,9.7,2,14.4c1.2,5.3,2.6,9.3,4.4,12.1c0.4,0.6,1.2,1.2,2.3,1.8c1.4,0.7,2.7,0.8,3.8,0.4
		c-0.5-0.2-1.1-0.8-1.9-1.9c-0.8-1.1-1.2-1.9-1.2-2.4c0.6,0.7,1.4,1.5,2.4,2.3c1.3,1.2,2.4,1.9,3.3,2.3c4.6,1.9,8.3,2.2,11.1,1.2
		L54.9,52.1z"/>
	<path class="st1" d="M203.6,122.5c-0.8-8.3-1.5-14.3-2.3-18.1l9.6-9.5l-39.3-13.5l-61.5,12c-0.9,4.2-1.4,8.6-1.5,13.1
		c0,2.7,0.2,6.5,0.6,11.6c0.4,5,0.6,8.9,0.6,11.6c0,4.5-0.5,8.8-1.5,13.1c1.5,2.4,3.8,6.2,7.2,11.4c3,4.9,5.6,9.2,7.5,12.9
		c5.7,10.6,9.1,20.4,10.4,29.5c8.3,0.8,20.1-2.1,35.4-8.9c6.3-2.8,12.3-5.8,17.8-9.1c5.4-3.2,9.5-6.1,12.1-8.7
		c0.7-0.6,1.4-2.2,2.3-4.6c0.9-2.7,1.7-5.8,2.2-9.2c0.2,3.2,0.8,6.2,1.8,8.9c0.9-2.2,1.5-4.8,1.8-7.9c0.3-3.3,0.2-6.1-0.4-8.3
		c0.8,1.3,1.9,2.3,3.1,2.8c0-0.1-0.7-2.1-2.1-5.7c-0.8-2.3-1.3-4-1.5-5.1C205.1,136.9,204.3,130.8,203.6,122.5"/>
	<path class="st11" d="M217.6,94.6c6-6.7,10.1-12.9,12.3-18.7c-5.9,1.5-15.3,4.1-28.3,7.7c-12.7,3.5-22.1,6.1-28.3,7.7
		c5.2,3.6,16,5.6,32.4,6c-4.5,1.5-9.6,2-15.4,1.6c2,2.1,3.9,3.8,5.9,5c2.7,1.7,5,2.3,6.9,1.9C206.8,105,211.6,101.3,217.6,94.6"/>
	<path class="st1" d="M229.9,75.9c-4.4,1.1-11.6,1.5-21.4,1.2c-8.1-0.2-16.1-0.8-24.1-1.6c-1.7-2.1-6.4-5.5-14.1-10
		c-9.2-5.4-18.1-9.4-26.6-12.1c-2.3-0.7-5.4-2.2-9.2-4.4c-3.8-2.2-6.4-4.1-7.9-5.6c0,0.4,0.6,1.4,1.8,3.1c1.4,2,2.7,3.5,4.1,4.5
		c-3.7-1.9-8.9-2.8-15.6-2.7c-2.5,0-4.6,0.2-6.5,0.5c-1.8,0.3-2.7,0.6-2.6,0.9c2.2,0.1,5.1,0.5,8.8,1c4.8,0.7,8,1.5,9.6,2.3
		c-9.7-1.2-19.4-0.4-29.3,2.6c-5.7,1.7-12.4,4.5-20.1,8.5c-3.3-1.2-7.5-3.3-12.4-6.1c-3.9-2.3-7.1-4.3-9.5-6.1
		c0.6,4,3.5,10,8.9,17.8c5.8,8.4,11.5,14.5,17.1,18.3c1.6,1,3,2.3,4.2,3.9c1.2,1.6,2.1,3.3,2.6,5c2.1,7.6,2.7,15,1.8,22.3
		c-1.1,7.9-3.7,13.5-8.1,16.7c2.3,3,6.5,5.1,12.6,6.3c5.9,1.2,11.9,1.2,17.7,0c-2.4-2.2-3.4-6.1-2.8-11.6c0.5-5.5,2.4-11,5.7-16.6
		c3.6-6.1,8.1-10.8,13.6-14.1c6.4-3.8,13.4-5.2,21.1-4.3c2.9,0.4,7.8,0.2,14.7-0.6c7.3-0.8,14.9-2.1,22.9-3.8
		C207.4,87.1,221.7,81.9,229.9,75.9"/>
	<path class="st12" d="M129.5,49.9c-3.9-1.2-8.7-1.7-14.2-1.4c-5,0.2-7.5,0.7-7.5,1.4c1.4,0.1,3.4,0.3,6,0.7c3.3,0.4,6,0.9,8.3,1.4
		c4.8,0.3,8.7,1.2,11.5,2.6C132.3,53.5,131,51.9,129.5,49.9 M127.2,56.6c-1.7-0.8-4.9-1.5-9.6-2.3c-3.7-0.6-6.6-0.9-8.8-1l0-0.1
		c-6.1,0.8-12.3,2.4-18.6,4.9c-3.7,1.4-8.2,3.5-13.5,6.2c-3.3-1.2-7.5-3.3-12.4-6.1c-3.9-2.3-7.1-4.3-9.5-6.1c0.1,1,0.5,2.1,1,3.5
		v-0.1c2.4,1.8,5.6,3.8,9.5,6.1c4.9,2.9,9.1,4.9,12.4,6.1c7.7-4,14.4-6.8,20.1-8.5C107.8,56.2,117.6,55.3,127.2,56.6 M222.2,80.4
		c3.1-1.5,5.7-3,7.7-4.5c-4.4,1.1-11.6,1.4-21.4,1.2c-8.1-0.2-16.1-0.8-24.1-1.6c-1.7-2.1-6.4-5.5-14.1-10
		c-9.2-5.4-18.1-9.4-26.6-12.1c-2.3-0.7-5.4-2.2-9.2-4.4c-3.8-2.2-6.4-4.1-7.9-5.6c0,0.3,0.4,1,1.2,2.2c0.9,1.4,1.9,2.7,2.9,3.8
		c2.1,1.5,4.5,2.9,7.2,4.4c2.8,1.5,5,2.5,6.7,3c8.5,2.6,17.3,6.7,26.6,12.1c7.7,4.5,12.3,7.8,14.1,9.9c5.7,0.7,11.7,1.1,18,1.5
		C210.8,80.7,217.1,80.7,222.2,80.4"/>
	<path class="st13" d="M85.7,118.5c1.5-6.9,0.7-12.2-2.2-15.8c-2.8-3.5-6.6-4.5-11.4-3.1c-2.5,0.7-4.7,2.3-6.7,4.7
		c-2.4,2.8-3.9,6.2-4.6,10.3c-0.5,3.2-0.1,6.5,1.5,10.1c1.7,4,4.4,6.9,8,8.5c3.8,1.7,7,1.1,9.8-1.8
		C82.5,128.7,84.4,124.4,85.7,118.5"/>
	<path class="st8" d="M89.9,109c0.1,3.8,0.3,6,0.3,6.5c1.2-6,1-11.9-0.7-17.5c-1.7-5.9-4.7-10.4-9-13.5c-5.1-3.7-10.3-8.9-15.5-15.6
		c-4.8-6.2-8.2-11.9-10.2-16.8l0,0c0.5,3.8,2.7,8.9,6.6,15.4c4.5,7.4,9.3,13,14.4,16.7c7.1,5.2,11.4,11,13.1,17.3
		C89.5,103.6,89.8,106.1,89.9,109"/>
	<path class="st5" d="M114.8,113.8c-3.2,5.4-5.3,11.2-6.2,17.3c-0.9,5.8-0.6,10.4,0.9,13.9c1.7,3.9,5.2,7.2,10.4,9.9
		c5.3,2.7,11.3,4.2,17.9,4.5c7.3,0.3,14.1-0.8,20.7-3.5c7.4-3,13.6-7.7,18.7-14.1c0.4-12.2-2.1-22.8-7.5-31.7
		c-5.4-8.8-12.2-13.6-20.3-14.4c-7.7-1-14.7,0.4-21,4.1C123,103,118.5,107.6,114.8,113.8"/>
	<path class="st13" d="M137.1,104.8c-6.4,1.5-11.3,5.5-14.6,12c-2.8,5.5-3.8,11.6-2.8,18.4c0.9,6.3,3,11,6.4,14
		c2.3,2,3.8,3.2,4.7,3.6c1.6,0.7,3.6,0.9,6.3,0.5c5.9-0.9,10.8-3.2,14.8-7.1c3.6-3.5,6.1-7.8,7.4-12.9c1.3-4.9,1.4-9.6,0.4-14.2
		c-1.1-4.7-3.3-8.4-6.5-10.9C148.5,104.5,143.1,103.4,137.1,104.8"/>
	<path class="st14" d="M95,161c1.7-1.8,4.5-4.2,8.4-7.4c3.9-3.2,6.7-5.7,8.4-7.4c-3.2-0.4-8.5-1.3-16-2.9c-7.4-1.6-12.8-2.5-16-2.9
		c3.3,2.4,5.8,6,7.3,10.8c0.6,1.9,0.9,3.6,1,5.1c0,1.5-0.2,2.4-0.7,2.7C90,160.8,92.5,161.5,95,161"/>
	<path class="st15" d="M96.1,159.3c1.7-0.9,3.9-2.6,6.5-4.9c-3.4-0.8-6.6-0.5-9.5,1c-2.7,1.4-3.7,2.9-3.2,4.4
		C91.6,160.8,93.6,160.6,96.1,159.3"/>
	<path class="st3" d="M105.2,151.2c-3.9,3.8-6.7,6.2-8.6,7.3c-3.7,2-7.9,1.5-12.7-1.6c2.4,2.9,4.9,4.7,7.7,5.6
		c2.2,0.7,4.7,0.7,7.6,0.1c1.1-0.2,3.3-2.9,6.4-8c3.4-5.6,6.3-9.1,8.6-10.5C111.9,145.1,108.9,147.5,105.2,151.2"/>
	<path class="st3" d="M99.6,132.6c-1.3-1.5-2.9-2.5-4.8-2.9c-3.6,2.9-7.3,5-10.9,6.3c-4.1,1.4-8.5,1.9-13.2,1.5
		c5.1,6.7,12.1,10.5,20.9,11.6c8.5,1.1,16-0.7,22.6-5.1c-3-0.2-5.4-0.9-7.3-2.3c-1.4-0.9-2.7-2.4-4-4.4
		C101,134.5,99.9,133,99.6,132.6"/>
	<path class="st16" d="M97.1,130.5c-0.8-0.4-1.5-0.7-2.3-0.9c-3.6,2.9-7.3,5-10.9,6.3c-4.1,1.4-8.5,1.9-13.2,1.5l0.3,0.3l0-0.1
		c4.6,1.1,9.2,1.1,13.8-0.2C89.5,136.3,93.6,133.9,97.1,130.5"/>
	<path class="st8" d="M191.3,91.8c16.8-4,29.7-9.3,38.7-15.9C208.1,83.6,188.7,88.6,172,91c-3.8,0.5-8.5,0.9-14.1,1.1
		c-6.2,0.1-10.7,0.2-13.4,0.3c-8,0.2-14.9,2.7-20.5,7.5c-5.3,4.5-9.5,10.9-12.6,19.3c3.9-7.7,9-13.8,15.3-18
		c7-4.8,14.6-6.7,22.6-5.6C160.8,97,174.8,95.7,191.3,91.8"/>
	<path class="st17" d="M65.8,198.8c-0.7,4.5-1,8.3-0.9,11.4c0.2,4,1.1,7.5,2.7,10.5l0.7-3c-1.3-3.1-1.9-6.8-1.9-10.9
		c0-3,0.5-6.9,1.3-11.7C67.1,196,66.5,197.2,65.8,198.8 M63.2,191.6c1.4-3.3,3.9-6.4,7.5-9.2c-4.2,3-7.2,6.3-8.9,10
		c-1.9,4.1-1.8,7.9,0.4,11.3c0.4-0.6,0.8-1.2,1.1-1.9C61.7,198.6,61.7,195.2,63.2,191.6 M85.4,241.1L85.4,241.1
		c-3.4-3.8-6.4-8.7-9-14.7c-2.4-5.6-4.1-11-4.9-16.3l-1,4.1c1.1,4.9,3,9.7,5.7,14.5C78.8,233.4,81.9,237.6,85.4,241.1"/>
	<path class="st18" d="M143.3,147.1v-0.4c2-0.8,5-0.7,9.3,0.4c0.6,0.3,0.8,0.7,0.8,1.3c-0.3,0.6-0.7,0.7-1.3,0.4
		C147.6,147.4,144.7,146.8,143.3,147.1"/>
	<path class="st18" d="M57,129.2c-0.3-0.5-0.1-0.8,0.4-0.8c4.1-0.5,6.8,0.3,8.4,2.3l-0.4,0.4c-2-1.3-4.4-1.8-7.2-1.5
		C57.6,129.8,57.2,129.7,57,129.2"/>
	<path class="st18" d="M129,106c-0.3-1.1,0.3-1.8,1.7-2.1c4.5-1.1,9.3-0.1,14.3,2.9c3.6,2.5,6,7.3,7.2,14.3h-0.8
		c-0.8-1.1-1.7-2.9-2.5-5.5c-1.1-2.2-2.4-3.9-3.8-5c-3.9-3.4-8.4-4.3-13.5-2.9C130.1,108,129.3,107.4,129,106"/>
	<path class="st18" d="M74.3,95.8c-4.6,1.8-7.4,2.9-8.4,3.4c-3,1.8-5.6,5.3-7.6,10.6c0,0.5-0.3,0.5-0.8,0c0.5-4.8,1.6-8.5,3.4-11
		c1.5-2,5.3-4.3,11.4-6.8c1.3-0.3,2.3,0.3,3,1.5C75.9,94.8,75.5,95.6,74.3,95.8"/>
	<path class="st19" d="M146.5,123c-1.2-2.6-2.9-4.7-4.9-6.2c-2.2-1.7-4.5-2.9-7-3.6c-2.6-0.5-5,0.4-7,2.7c-0.8,0.9-1.4,1.9-1.8,3.1
		c-1.4,2.7-2.2,5.8-2.5,9.1c-0.1,2.1,0.1,4.1,0.8,6.1c0.8,3.1,1.9,5.8,3.6,8.2c1.6,2.4,3.5,4.1,5.8,5.1c2.2,0.8,4.5,1.1,6.8,0.8
		c2.6-0.2,4.7-1.6,6.3-4.4c0.5-1,0.9-1.9,1.1-2.8c0.8-2.9,1.2-5.8,1.2-8.8C148.8,128.9,148,125.8,146.5,123"/>
	<path class="st20" d="M129.3,125c1.1-2.3,2.7-3.6,4.6-3.9c2,0,3.9,0.9,5.5,2.5c1.7,1.9,2.7,4.2,3.2,7c0.2,2.9-0.3,5.3-1.5,7.4
		c-1.1,2.3-2.7,3.6-4.6,3.9c-2,0.2-3.8-0.6-5.4-2.5c-1.7-1.9-2.6-4.2-2.8-7.1C127.7,129.5,128.1,127.1,129.3,125"/>
	<path class="st19" d="M78.5,127.3c1.3-1.8,2.2-4,2.8-6.4c0.5-1.6,0.8-3.2,0.7-4.8c-0.2-2.6-0.8-4.9-1.8-7c-0.4-1-0.9-1.8-1.5-2.6
		c-1.6-1.7-3.4-2.4-5.4-2c-2.1,0.4-3.9,1.4-5.6,2.8c-1.5,1.2-2.7,2.7-3.7,4.8c-1.2,2.2-1.7,4.6-1.7,7.2c0,2.4,0.3,4.7,0.8,6.9
		c0.2,0.7,0.5,1.5,0.9,2.3c1.2,2.1,2.9,3.2,4.9,3.3c1.8,0.2,3.5,0,5.2-0.5C75.8,130.5,77.3,129.2,78.5,127.3"/>
	<path class="st20" d="M74.2,112.1c1.9-1.1,3.6-1.3,5.3-0.6c1.3,0.9,2.3,2.3,2.8,4.3c0.3,1.9,0,3.9-0.8,6.1c-2.4,5.1-5.4,7-8.9,5.5
		c-3.5-1.7-4.2-5.2-2.3-10.5C70.9,114.8,72.3,113.2,74.2,112.1"/>
</g>
<g>
	<defs>
		<rect id="SVGID_5_" x="5.1" y="4.6" width="252" height="252"/>
	</defs>
	<clipPath id="SVGID_6_">
		<use xlink:href="#SVGID_5_"  style="overflow:visible;"/>
	</clipPath>
	<circle class="st21" cx="131.1" cy="130.6" r="124"/>
</g>
</svg>
