<?xml version="1.0" encoding="utf-8"?>
<!-- Generator: Adobe Illustrator 24.1.2, SVG Export Plug-In . SVG Version: 6.00 Build 0)  -->
<svg version="1.1" id="Layer_1" xmlns="http://www.w3.org/2000/svg" xmlns:xlink="http://www.w3.org/1999/xlink" x="0px" y="0px"
	 viewBox="0 0 257.9 256.4" style="enable-background:new 0 0 257.9 256.4;" xml:space="preserve">
<style type="text/css">
	.st0{clip-path:url(#SVGID_2_);fill:#C29591;}
	.st1{clip-path:url(#SVGID_4_);fill:#EDEDED;}
	.st2{clip-path:url(#SVGID_4_);fill:#616161;}
	.st3{clip-path:url(#SVGID_4_);fill:#484848;}
	.st4{clip-path:url(#SVGID_4_);fill:#333333;}
	.st5{clip-path:url(#SVGID_4_);fill:#C7C7C6;}
	.st6{clip-path:url(#SVGID_4_);fill:#F7F5F5;}
	.st7{clip-path:url(#SVGID_4_);fill:#666766;}
	.st8{clip-path:url(#SVGID_4_);fill:#FFFFFF;}
	.st9{clip-path:url(#SVGID_4_);fill:#645C64;}
	.st10{clip-path:url(#SVGID_4_);fill:#572927;}
	.st11{clip-path:url(#SVGID_4_);fill:#F4868D;}
	.st12{clip-path:url(#SVGID_4_);fill:#F3F0D9;}
	.st13{clip-path:url(#SVGID_6_);fill:none;stroke:#9E6F6B;stroke-width:3;}
</style>
<g>
	<defs>
		<rect id="SVGID_1_" width="257.9" height="256.4"/>
	</defs>
	<clipPath id="SVGID_2_">
		<use xlink:href="#SVGID_1_"  style="overflow:visible;"/>
	</clipPath>
	<path class="st0" d="M128.9,254.9c70.4,0,127.4-56.7,127.4-126.7S199.3,1.5,128.9,1.5S1.5,58.2,1.5,128.2S58.6,254.9,128.9,254.9"
		/>
</g>
<g>
	<defs>
		<path id="SVGID_3_" d="M1.5,128.2c0,70,57.1,126.7,127.4,126.7s127.4-56.7,127.4-126.7c0-70-57.1-126.7-127.4-126.7
			S1.5,58.2,1.5,128.2"/>
	</defs>
	<clipPath id="SVGID_4_">
		<use xlink:href="#SVGID_3_"  style="overflow:visible;"/>
	</clipPath>
	<path class="st1" d="M204.1,274.7c-6.7-4.7-12.6-8.3-17.7-11c-10.6-5.9-21.6-9.4-33-11c-22.8-2.8-46.8,1.6-71.6,12.6
		c-8.7,3.9-18.1,9.4-28.3,16.5c-10.6,7.1-19.3,14.2-25.9,20.8c7.9,17.3,5.5,27.9-7.5,31.5c0.4,6.7-1.6,13-6.3,18.9
		c-5.5,6.7-12.2,8.3-20,4.7c-1.2,16.1,1.6,33.4,7.5,51.9c6.3,19.3,14.5,34.6,24.8,45.6c2.8,3.1,7.9,6.7,15.3,10.6
		c6.3,3.5,14.5,7.1,25.2,10.2c23.6,6.7,49.1,8.6,76.3,5.9c25.9-2.8,50.3-9.8,73.5-20.4c12.2-5.5,22-11.8,29.9-18.1
		c5.9-4.7,11-14.2,15.3-28.7c4.7-16.1,5.1-30.7,0.8-42.9c-2,0-6.7-3.5-13.4-10.6c-5.5-5.9-9.4-9.8-11-12.2
		c-13.8,7.1-23.2,6.3-27.9-2.4c-6.3,1.2-11,0-13.4-3.5c-2.8-3.1-3.5-8.6-2.4-16.1c1.2-6.3,5.9-14.2,13.8-23.6
		c6.3-7.1,11-11.8,14.2-14.5C219.8,286.1,213.5,281.4,204.1,274.7"/>
	<path class="st2" d="M181.7,201.6c-8.6,10.6-16.5,17.7-24.4,20.8c-10.2,4.3-22,5.5-35,2.8c-15.3-3.1-29.1-9-41.7-18.5
		c-11.4-8.6-20.4-21.2-27.5-37.3c-16.1,7.1-32.2,23.2-49.1,48c-14.2,20.8-24,42.5-29.5,64.9c5.9,0.8,17.3,2,33.8,3.9
		c14.2,2.8,23.6,8.3,28.3,15.7c9.8-9.4,20.8-17.7,33-24.8c18.1-9.8,35-15.7,50.7-17.7c19.7-2.4,38.5,0,56.6,7.1
		c14.9,5.9,26.7,14.2,35.8,24.4c-11.8,10.6-18.9,21.6-21.2,33.4c-1.6,7.9-1.2,14.2,1.2,19.7c1.2,3.1,3.5,5.5,6.3,7.1
		c2.4,0.8,5.5,1.6,9.4,1.6c0.8,3.9,4.3,6.7,10.2,7.9c6.3,1.6,12.2,0,17.7-4.3c0.4,3.5,2,6.7,4.7,9.8c2.8,3.5,6.3,5.9,10.2,6.3
		c6.3,0.8,11.8,0.4,16.5-2c3.1-1.2,6.7-3.9,11.4-7.5c6.7,3.9,12.6,6.3,18.1,6.7c7.9,0.4,13.8-2.8,17.7-9.8
		c3.9-7.1,6.3-16.9,7.1-28.7c0.8-12.2,0-24-2.8-35.4c-4.3-17.3-11.4-33-21.6-47.2c-9.8-13.8-20-23.2-31.1-28.3
		c-7.5-13.8-17.3-25.9-29.1-37c-11.8-10.6-23.6-18.9-35.8-24c-1.6,9-3.9,16.5-7.5,23.2C192.7,187.4,187.9,193.7,181.7,201.6"/>
	<path class="st3" d="M181.7,201.6c-8.6,10.6-16.5,17.7-24.4,20.8c-10.2,4.3-22,5.5-35,2.8c-12.6-2.4-26.3-8.6-41.7-18.5
		c-10.6-7.1-20-20.1-27.5-38.5c-0.8,0.4-1.2,1.6-2,3.5c-0.8,2.8-0.8,5.9,0,9.8c0.8,4.7,2.8,10.2,5.9,17.3
		c3.1,7.9,7.1,14.2,11.4,19.7c6.7,8.7,14.5,15.3,23.6,20.1c8.3,4.3,18.1,7.5,29.9,9.8c11,2,21.6,1.2,31.5-3.1
		c9.8-3.9,18.5-10.2,26.3-19.7c7.5-8.6,13.8-19.3,18.9-31.5c5.5-14.2,7.1-25.6,5.1-34.6c-0.4,0-2.8,5.1-7.1,15.7
		C191.1,187.4,186,196.1,181.7,201.6"/>
	<path class="st2" d="M-28.7,384.4c6.7-0.4,11.8-2.8,16.1-6.3c4.7-3.9,7.5-9.4,8.3-16.5c1.6,3.1,4.3,5.1,7.9,6.7
		c4.3,1.6,8.3,1.2,12.2-1.6c4.7-3.1,7.9-6.3,9.8-9.4c2.4-3.9,3.9-9,3.9-14.9c2,1.6,4.7,1.6,7.9-0.8c3.1-2.4,4.7-6.7,4.3-12.2
		c-0.4-4.7-1.6-9.8-4.3-15.7c-2.8-6.3-5.5-11.4-9-15.7c-5.1-5.9-11.8-10.6-20.4-13.8c-10.2-3.9-20.4-5.1-30.7-3.1
		C-18.1,263.7-9,242.5,4,217.7c-15.3,8.3-29.9,24.8-43.6,49.9c-14.9,27.5-20.8,52.7-18.1,75.1c1.6,11.8,5.1,22,10.2,29.9
		C-41.6,380.9-35.7,384.8-28.7,384.4"/>
	<path class="st3" d="M-31,290.8c1.2-2,3.9-4.3,7.9-6.3c2.4-9,5.9-19.3,10.6-31.1c4.7-11.4,9.4-22,14.2-31.1
		c-8.3,9.8-15.3,20.1-20.4,31.1C-25.9,267.2-29.9,279.8-31,290.8"/>
	<path class="st3" d="M91.2,68.7L91.2,68.7c-4.7-2.4-9.8-2.4-15.7,0C68,71.1,62.9,75,59.4,80.1c-2.8,3.5-3.9,6.3-3.1,7.9
		c1.2,2,3.1,3.1,5.9,3.9c1.6,0.4,4.3,0.8,7.9,1.2C76.3,85.6,83,77.4,91.2,68.7"/>
	<path class="st4" d="M90.8,68.3c-2-0.8-4.3-1.6-7.1-1.6c-13,11.8-20,18.1-21.2,19.3c-3.5,3.1-5.1,5.5-4.7,7.1
		c1.2,0.8,3.1,1.2,5.9,0.8c3.9-0.4,5.9-0.8,6.3-0.8C76.3,85.6,83,77.4,90.8,68.3"/>
	<path class="st3" d="M78.7,71.5h4.7c2.8,0.4,4.3,0.4,4.7,0.8l4.7-5.1c0-5.1-1.6-9-4.7-11.4c-3.1-2.4-7.5-2.4-12.6-0.8
		C68,57.7,61,62.8,54.3,70.7c-3.5,3.9-5.9,8.3-7.1,13c-1.6,6.3-0.4,10.6,3.5,13.4c2.8,2,6.3,2.4,10.2,1.6c3.1-0.8,6.7-2.8,10.2-5.5
		l0.8-1.2c0,0-1.6,0-4.7,0.8c-1.6,0.4-3.1-0.4-4.3-2c-0.4-0.4-0.4-0.8-0.4-2V86c-0.4-1.2,0-2.8,0.4-3.9C64.9,76.6,70,73,78.7,71.5"
		/>
	<path class="st4" d="M72.4,92.3c-5.9,0.8-9.4-1.2-9.8-5.9l-1.2,1.2l-7.9,10.6L53.1,99c5.1,1.6,11,0,18.1-5.1L72.4,92.3z"/>
	<path class="st4" d="M91.6,60.1l-1.6,1.2C86.9,64,83,67.1,78.7,71.5c4.3,0,7.5,0.4,9.4,0.8l4.7-5.1C92.8,64.4,92.4,62,91.6,60.1"/>
	<path class="st3" d="M189.9,91.5c4.7-0.4,9-2.4,12.2-5.5c2.4-2.4,3.9-5.1,3.9-8.3s-1.2-5.9-3.5-8.3c-4.7-4.7-9.4-7.5-14.2-7.9
		c-5.9-0.8-9.4,1.2-10.6,5.9C182.8,77,186.8,84.8,189.9,91.5"/>
	<path class="st4" d="M199,89.1c-4.3-10.2-9-19.3-14.2-27.9c-3.5,0.4-5.9,2.4-7.1,5.9c5.1,9.4,9,17.3,12.2,24
		C193.5,91.5,196.6,90.7,199,89.1"/>
	<path class="st3" d="M212.7,65.9c-2.4-5.5-5.9-9.8-10.2-13c-7.1-5.1-13-5.9-17.7-2.4c-4.3,3.1-7.5,7.9-9,13.8l3.1,4.7
		c1.2-2.4,3.1-3.9,5.9-4.3c4.3-0.4,9,1.2,13.8,4.7c2.8,2,4.3,4.3,4.7,7.1c0.8,3.1,0,5.9-2,8.3c-0.8,1.2-2,2-3.5,3.1
		c-2.4,1.6-4.7,2.8-7.5,3.1c3.1,5.1,7.1,7.5,11.4,7.1c2,0,3.5-0.4,5.1-1.6c4.7-3.1,7.5-8.3,7.9-15.3
		C215.5,75.8,214.7,71.1,212.7,65.9"/>
	<path class="st4" d="M186.4,64.4c-2-2.8-3.9-5.9-6.7-9c-1.6,2.4-3.1,5.5-3.9,8.6l3.1,4.7c1.2-2.4,3.1-3.9,5.9-4.3H186.4z"/>
	<path class="st4" d="M202.1,97.8c-1.6-4.7-2.8-7.9-3.9-10.2c-3.1,1.6-5.5,2.8-7.5,3.1C192.3,95.8,196.2,98.2,202.1,97.8"/>
	<path class="st1" d="M157.3,46.2c-4.4-2.3-9.7-3.7-15.8-3.9c-10-0.6-19.4,1.6-28.1,6.7c-9.9,5.3-21.1,15.2-33.9,29.7
		c-11,12.6-18.3,22.6-21.8,29.8c-6.8,14.3-9.9,28.9-9.1,43.8c0.5,11.7,3.2,22.3,7.9,32.1c8,16.6,20,29,36.1,37.2
		c4.9,2.6,10.6,4.7,17.2,6.3c8.1,1.8,16.2,2.6,24.2,2.2c12.1-0.6,23.1-3.6,32.8-8.8c7.9-4.2,14.2-9.2,18.9-15.3
		c10.1-13.1,16-26.4,17.9-40c2-14.6,2-27.5,0-39.1c-2-10.9-5.6-22.3-10.9-34.4c-4.8-11.2-10-20.5-15.3-27.7
		C170.6,55.9,164,49.8,157.3,46.2"/>
	<path class="st5" d="M146.9,159.5c1.6-2.5,2.3-5.5,2.3-8.7c0-5.5-2.5-9.2-7.6-11c-3.7-1.4-8.5-1.8-14.2-1.1
		c-6,0.7-10.8,2.1-14.5,4.1c-1.6,0.9-3,2.3-4.1,4.4c-1.1,2.1-1.6,3.9-1.4,5.7c0.2,3.2,1.6,6.2,3.9,9c2.5,3.2,5.7,5.3,9.6,6.4
		c3.2,0.9,6.7,1.1,10.1,0.7c3.4-0.5,6.4-1.4,9-2.8C143,164.3,145.3,162.2,146.9,159.5"/>
	<path class="st6" d="M173.8,60.4c-5.9-7.1-11.8-12.2-17.7-14.9c-4.3-2-9-3.1-14.5-3.5c-9.8-0.8-19.3,1.6-27.9,6.7
		c-5.5,3.1-11,7.1-16.9,12.6c16.5-11,31.8-15.7,46.8-14.2C152.2,48.3,162.4,52.6,173.8,60.4"/>
	<path class="st3" d="M108.1,151.9c3,4.6,8.3,6.9,16.1,7.3c6,0.2,11-0.7,14.9-2.3c5.7-2.8,9-6,9.9-9.6c0.9-3.7-0.7-6.7-4.6-8.5
		c-6.4-3.2-14.2-3.4-23.4-0.9c-4.6,1.4-8.3,3.4-10.8,6.2C106.9,146.6,106.5,149.4,108.1,151.9"/>
	<path class="st4" d="M148.9,146.6c0.5-1.6,0-3.2-0.9-4.8c-0.9-1.6-2.3-3-4.1-3.9c-7.3-3.4-15.8-3.7-25.5-0.9
		c-3.9,1.1-6.9,3-9.2,5.7c-2.1,2.8-2.8,5.3-1.8,7.8c-0.2-3.4,1.8-6.4,6-8.7c3.7-2.1,8.5-3.2,14-3.7c5.5-0.5,10.3,0,14.2,1.4
		C146.4,141.3,148.7,143.6,148.9,146.6"/>
	<path class="st3" d="M115.6,125.4c3.6-4.7,5.8-10.1,6.6-16.3c1.1-7.7-1.3-14.1-7.1-19.4c-6.5-5.9-13.6-6.8-21.3-2.6
		c-7.2,3.9-12.1,9.7-14.4,17.4c-2.2,6.9-2.7,13.9-1.6,20.9c0.1,0.8,0.3,1.6,0.5,2.4c0.5,2.6,2,4.5,4.2,5.7c4,2.2,8.3,3.2,13,3
		c6.3-0.4,11.7-2.6,16.3-6.8C113.1,128.2,114.4,126.9,115.6,125.4"/>
	<path class="st3" d="M166.5,87c-7.7-4.1-14.8-3.2-21.3,2.6c-5.9,5.3-8.2,11.7-7.1,19.4c0.8,6.2,3,11.7,6.6,16.3
		c1.1,1.5,2.4,2.9,3.9,4.2c4.5,4.2,9.9,6.5,16.2,6.8c4.7,0.2,9-0.8,13-3c2.3-1.1,3.7-3,4.2-5.7c0.2-0.8,0.3-1.6,0.5-2.4
		c1.1-7,0.6-14-1.6-21C178.5,96.7,173.7,90.9,166.5,87"/>
	<path class="st3" d="M108,78.2c0.2-0.4,0.3-0.7,0-0.9c-3.2-3.3-6.9-3.8-11.6-2.1c-4.2,1.5-7.3,4.3-9,8.8c-0.2,0.4,0.2,0.5,0.4,1.1
		c0.4,0.2,0.4,0.2,0.5-0.2c6.2-6.6,12.9-8.6,18.6-5.9C107.5,78.4,107.5,78.4,108,78.2"/>
	<path class="st3" d="M176.8,87.7c0.3-0.2,0.5-0.7,0-0.9c-3.2-3.7-5.9-6.3-7.8-7.5c-3.7-2.1-8.1-2-12.5-0.2
		c-0.3,0.2-0.7,0.4-0.5,0.7c0.2,0.3,0.4,0.7,0.7,0.5c3.7-0.6,7.4-0.3,10.6,1.6c2.3,1,5.1,3.1,7.8,5.7
		C175.9,87.7,176.4,87.9,176.8,87.7"/>
	<path class="st7" d="M94.5,124C94.5,123.6,94.5,123.6,94.5,124c-0.9-1.4-1.8-1.8-2.7-2.3s-2.3,0-3.2,0.9c-0.5,0.5-0.5,0.9,0,0.9
		c1.4,0,3.2,0,5.5,0.9C94,124.5,94.5,124,94.5,124"/>
	<path class="st7" d="M174.2,123.7c0,0,0-0.4-0.4-0.4c-1.3-0.9-3.1-0.9-4.4-0.4c-1.8,0-2.6,0.9-3.5,2.2c0,0.9,0,0.9,0.4,0.4
		c3.1-1.8,5.3-2.2,7.1-1.3L174.2,123.7z"/>
	<path class="st8" d="M114.5,113.6c0.6-1.8,0.9-3.7,0.7-5.5c-0.2-3-0.9-5.8-2.2-8.3c-0.4-1.1-1-2-1.7-2.8c-1.9-2.1-4-2.9-6.4-2.5
		c-2.3,0.6-4.4,1.7-6.4,3.3c-1.8,1.3-3.3,3.2-4.4,5.5c-1.4,2.6-2,5.4-2,8.5c0,2.7,0.4,5.3,1.1,7.9c0.2,0.9,0.5,1.8,1,2.7
		c1.4,2.5,3.3,3.8,5.7,4c2.1,0.3,4.1,0,6.2-0.8c2-0.9,3.8-2.5,5.2-4.6C112.7,118.8,113.8,116.4,114.5,113.6"/>
	<path class="st9" d="M110.7,107.1c-1.5-2-3-2.5-5-2.5c-1.5,0-3,1-4.5,2.5c-1,2-1.5,4-1.5,6.5s0.5,5,1.5,6.4c1,2,2.5,2.5,4.5,2.5
		s3.5-1,4.5-2.5c1.5-1.5,2-4,2-6.4C112.6,111,112.1,109,110.7,107.1"/>
	<path class="st8" d="M156.3,96.4c-2.3-0.4-4.3,0.4-6.2,2.3c-0.6,0.8-1.2,1.7-1.6,2.8c-1.2,2.4-1.9,5-2.2,8
		c-0.1,1.8,0.2,3.6,0.8,5.3c0.7,2.7,1.7,5.1,3.1,7.1c1.4,2.1,3.1,3.6,5,4.5c1.9,0.8,3.9,1,6,0.7c2.2-0.2,4.1-1.5,5.4-3.9
		c0.5-0.9,0.8-1.7,1-2.6c0.7-2.4,1-5,1-7.6c0-2.9-0.7-5.7-2-8.2c-1.1-2.3-2.5-4-4.2-5.3C160.5,98,158.5,96.9,156.3,96.4"/>
	<path class="st9" d="M150.6,108.5c1.4-1.9,2.9-2.4,4.8-2.4c1.4,0,2.9,1,4.3,2.4c1,1.9,1.9,3.8,1.9,6.2c0,2.4-0.5,4.8-1.9,6.2
		c-1,1.9-2.4,2.4-4.3,2.4s-3.3-1-4.3-2.4c-1.4-1.4-1.9-3.8-1.9-6.2C149.2,112.3,149.6,110.4,150.6,108.5"/>
	<path class="st10" d="M173.3,161.7c-10.1,3.4-19.7,5.9-28.5,7.1c-23.9,3.8-42.4,2.1-56.3-5.5c0.8,13.4,6.3,24.3,16,32.7
		c8.8,8,18.5,11.8,29.4,11.3c12.2-0.8,21.8-5.9,29.8-15.5C171.2,182.7,174.5,172.6,173.3,161.7"/>
	<path class="st11" d="M156.5,179.8c-4.2-3.8-8.8-5.5-13.4-5.5c-9.7,0-16.8,1.7-21.8,5c-5.9,4.2-9.2,11.8-9.7,22.2
		c7.1,4.2,14.7,6.3,22.2,5.9c11.8-0.8,21.8-5.9,29.8-15.5C163.2,187.3,160.7,183.1,156.5,179.8"/>
	<path class="st12" d="M163.6,171.6c0.4-2.5,0.4-4.6,0-7.6c-6.7,1.7-12.6,3.4-18.9,4.2c-18.9,2.9-34.8,2.5-47.4-1.7
		c-0.4,2.9,0.4,6.3,1.7,10.5c8.4,4.2,19.3,5.9,32.7,4.6C145.6,180.4,156.1,177,163.6,171.6"/>
	<path class="st12" d="M154.8,200.5l-0.8-3.8c-24.8-0.8-39.5-0.8-44.5,0.8v3.4c8,5.5,16.4,7.6,24.3,7.1
		C141.4,207.3,148.5,204.7,154.8,200.5"/>
</g>
<g>
	<defs>
		<rect id="SVGID_5_" width="257.9" height="256.4"/>
	</defs>
	<clipPath id="SVGID_6_">
		<use xlink:href="#SVGID_5_"  style="overflow:visible;"/>
	</clipPath>
	<ellipse class="st13" cx="128.9" cy="128.2" rx="127.4" ry="126.7"/>
</g>
</svg>
