<?xml version="1.0" encoding="utf-8"?>
<!-- Generator: Adobe Illustrator 24.1.2, SVG Export Plug-In . SVG Version: 6.00 Build 0)  -->
<svg version="1.1" id="Layer_1" xmlns="http://www.w3.org/2000/svg" xmlns:xlink="http://www.w3.org/1999/xlink" x="0px" y="0px"
	 viewBox="0 0 261.2 259.8" style="enable-background:new 0 0 261.2 259.8;" xml:space="preserve">
<style type="text/css">
	.st0{clip-path:url(#SVGID_2_);fill:#BADEDA;}
	.st1{clip-path:url(#SVGID_4_);fill:#434D6E;}
	.st2{clip-path:url(#SVGID_6_);fill:#434D6E;}
	.st3{clip-path:url(#SVGID_8_);fill:#434D6E;}
	.st4{clip-path:url(#SVGID_10_);fill:#6A769F;}
	.st5{clip-path:url(#SVGID_12_);fill:#3D4667;}
	.st6{clip-path:url(#SVGID_14_);fill:#404454;}
	.st7{clip-path:url(#SVGID_16_);fill:#AD5141;}
	.st8{clip-path:url(#SVGID_18_);fill:#8D4235;}
	.st9{clip-path:url(#SVGID_20_);fill:#8D4235;}
	.st10{clip-path:url(#SVGID_22_);fill:#F5876D;}
	.st11{clip-path:url(#SVGID_24_);fill:#E56D50;}
	.st12{clip-path:url(#SVGID_26_);fill:#CC634A;}
	.st13{clip-path:url(#SVGID_28_);fill:#FFFFFF;}
	.st14{clip-path:url(#SVGID_30_);fill:#CFB051;}
	.st15{clip-path:url(#SVGID_32_);fill:#9E6F29;}
	.st16{clip-path:url(#SVGID_34_);fill:#F3744F;}
	.st17{clip-path:url(#SVGID_36_);fill:#CFB051;}
	.st18{clip-path:url(#SVGID_38_);fill:#E7C35D;}
	.st19{clip-path:url(#SVGID_40_);fill:#24211F;}
	.st20{clip-path:url(#SVGID_42_);fill:#6A769F;}
	.st21{clip-path:url(#SVGID_44_);fill:#4D5162;}
	.st22{clip-path:url(#SVGID_46_);fill:#4D5264;}
	.st23{clip-path:url(#SVGID_48_);fill:#404454;}
	.st24{clip-path:url(#SVGID_50_);fill:#E0A326;}
	.st25{clip-path:url(#SVGID_52_);fill:#9E6F29;}
	.st26{clip-path:url(#SVGID_54_);fill:#8D4235;}
	.st27{clip-path:url(#SVGID_56_);fill:#8D4235;}
	.st28{clip-path:url(#SVGID_58_);fill:#8D4235;}
	.st29{clip-path:url(#SVGID_60_);fill:#3D4667;}
	.st30{clip-path:url(#SVGID_62_);fill-rule:evenodd;clip-rule:evenodd;fill:#A78441;}
	.st31{clip-path:url(#SVGID_64_);fill-rule:evenodd;clip-rule:evenodd;fill:#C1A15E;}
	.st32{clip-path:url(#SVGID_66_);fill-rule:evenodd;clip-rule:evenodd;fill:#A78441;}
	.st33{clip-path:url(#SVGID_68_);fill-rule:evenodd;clip-rule:evenodd;fill:#C1A15E;}
	.st34{clip-path:url(#SVGID_70_);fill-rule:evenodd;clip-rule:evenodd;fill:#D0B572;}
	.st35{clip-path:url(#SVGID_72_);fill:#E7C35D;}
	.st36{clip-path:url(#SVGID_74_);fill:#E0A326;}
	.st37{clip-path:url(#SVGID_76_);fill:#E7C35D;}
	.st38{clip-path:url(#SVGID_78_);fill:#E0A326;}
	.st39{clip-path:url(#SVGID_80_);fill:#E7C35D;}
	.st40{clip-path:url(#SVGID_82_);fill:#E0A326;}
	.st41{clip-path:url(#SVGID_84_);fill:#E7C35D;}
	.st42{clip-path:url(#SVGID_86_);fill:#E0A326;}
	.st43{clip-path:url(#SVGID_88_);fill:#E7C35D;}
	.st44{clip-path:url(#SVGID_90_);fill:#E0A326;}
	.st45{clip-path:url(#SVGID_92_);fill:#E7C35D;}
	.st46{clip-path:url(#SVGID_94_);fill:#E0A326;}
	.st47{clip-path:url(#SVGID_96_);fill:#989898;}
	.st48{clip-path:url(#SVGID_98_);fill:#E3E3E3;}
	.st49{clip-path:url(#SVGID_100_);fill:#FFFFFF;}
	.st50{clip-path:url(#SVGID_102_);fill:#54413D;}
	.st51{clip-path:url(#SVGID_104_);fill:none;stroke:#628377;stroke-width:3;}
</style>
<g>
	<g>
		<defs>
			<rect id="SVGID_1_" x="1.7" y="1.4" width="257.9" height="256.4"/>
		</defs>
		<clipPath id="SVGID_2_">
			<use xlink:href="#SVGID_1_"  style="overflow:visible;"/>
		</clipPath>
		<path class="st0" d="M130.6,256.3c70.4,0,127.4-56.7,127.4-126.7S201,2.9,130.6,2.9S3.2,59.6,3.2,129.6S60.2,256.3,130.6,256.3"/>
	</g>
</g>
<g>
	<g>
		<defs>
			<path id="SVGID_3_" d="M51.6,30.1C22.1,53.3,3.2,89.3,3.2,129.6c0,70,57.1,126.7,127.4,126.7c39.5,0,74.8-17.9,98.2-45.9V48.8
				c-5.7-6.9-12.2-13.2-19.2-18.7C209.6,30.1,51.6,30.1,51.6,30.1z"/>
		</defs>
		<clipPath id="SVGID_4_">
			<use xlink:href="#SVGID_3_"  style="overflow:visible;"/>
		</clipPath>
		<path class="st1" d="M49.2,291.7l5.7,1.9c-8.1,16.3-13.8,30.4-17,42.3c-2.8,9.9-4.8,22.5-6.2,37.7c-1.1,12.3-4.2,18.2-9.3,17.5
			c-2-0.2-3.6-1.8-4.7-4.7c-1.2-3.3-1.5-7.5-0.9-12.4c1.7-13.7,5.8-27.9,12.3-42.5C30.7,327.7,37.4,314.4,49.2,291.7"/>
	</g>
	<g>
		<defs>
			<path id="SVGID_5_" d="M51.6,30.1C22.1,53.3,3.2,89.3,3.2,129.6c0,70,57.1,126.7,127.4,126.7c39.5,0,74.8-17.9,98.2-45.9V48.8
				c-5.7-6.9-12.2-13.2-19.2-18.7C209.6,30.1,51.6,30.1,51.6,30.1z"/>
		</defs>
		<clipPath id="SVGID_6_">
			<use xlink:href="#SVGID_5_"  style="overflow:visible;"/>
		</clipPath>
		<path class="st2" d="M44.7,290.5l6.1,3.1c-11.9,16.9-20.7,31.7-26.4,44.4c-4.8,10.8-9.2,24.6-13.2,41.4
			c-1.6,6.6-3.7,11.5-6.4,14.8c-2.4,2.8-4.7,4-7.1,3.3c-2.3-0.6-3.8-2.6-4.6-6.1c-0.9-3.9-0.5-8.5,1-14
			c4.3-15.1,11.3-30.3,21.1-45.6C17.3,328.6,27.1,314.9,44.7,290.5"/>
	</g>
	<g>
		<defs>
			<path id="SVGID_7_" d="M51.6,30.1C22.1,53.3,3.2,89.3,3.2,129.6c0,70,57.1,126.7,127.4,126.7c39.5,0,74.8-17.9,98.2-45.9V48.8
				c-5.7-6.9-12.2-13.2-19.2-18.7C209.6,30.1,51.6,30.1,51.6,30.1z"/>
		</defs>
		<clipPath id="SVGID_8_">
			<use xlink:href="#SVGID_7_"  style="overflow:visible;"/>
		</clipPath>
		<path class="st3" d="M39.4,292.7l4.7,3.6C30.8,308.8,20.7,320,13.6,330c-6.1,8.4-12.3,19.5-18.7,33.2
			c-5.1,11.1-10.1,15.5-14.8,13.2c-1.9-0.9-2.8-2.9-2.9-6.1c-0.1-3.5,1-7.4,3.3-11.8c6.3-12.2,15.1-24,26.2-35.4
			C9.3,320.4,20.1,310.3,39.4,292.7"/>
	</g>
	<g>
		<defs>
			<path id="SVGID_9_" d="M51.6,30.1C22.1,53.3,3.2,89.3,3.2,129.6c0,70,57.1,126.7,127.4,126.7c39.5,0,74.8-17.9,98.2-45.9V48.8
				c-5.7-6.9-12.2-13.2-19.2-18.7C209.6,30.1,51.6,30.1,51.6,30.1z"/>
		</defs>
		<clipPath id="SVGID_10_">
			<use xlink:href="#SVGID_9_"  style="overflow:visible;"/>
		</clipPath>
		<path class="st4" d="M194.4,230.4c-10.1-14.5-21.1-22.5-32.7-24c-9.6-1.3-23.1,1.9-40.3,9.7c-1.8,4-9.3,17.1-22.6,39.4
			c-9.8,19.1-8.6,26.2,3.6,21.1c-3,7.5-6.6,15.3-10.9,23.2c-1.3,2.5-4.6,6.5-10,12c-5.3,5.4-2.7,9.1,7.6,11
			c10.4,2,22.3-1.2,35.7-9.6c1.1,8.3,6.3,8.6,15.8,1c12.8-10.4,23.8-23,32.8-37.9C180.1,264.8,187.2,249.6,194.4,230.4"/>
	</g>
	<g>
		<defs>
			<path id="SVGID_11_" d="M51.6,30.1C22.1,53.3,3.2,89.3,3.2,129.6c0,70,57.1,126.7,127.4,126.7c39.5,0,74.8-17.9,98.2-45.9V48.8
				c-5.7-6.9-12.2-13.2-19.2-18.7C209.6,30.1,51.6,30.1,51.6,30.1z"/>
		</defs>
		<clipPath id="SVGID_12_">
			<use xlink:href="#SVGID_11_"  style="overflow:visible;"/>
		</clipPath>
		<path class="st5" d="M192.4,227.7c-9.8-13.1-20.4-20.3-31.7-21.4c-9.5-0.9-22.6,2.3-39.4,9.8c-0.4,0.8-4.9,8.6-13.6,23.3
			c-7.8,13.2-12.7,22.8-14.6,28.9c1.4,1.8,4.5,1.7,9.3-0.3c-1,2.8-2.4,6.1-4.1,9.9l3.9-1.3c-3,7.5-6.6,15.3-10.9,23.2
			c-1.3,2.5-5.4,9.9-12.4,22c-0.3,0.6-0.6,1.1-1,1.6c2.3-0.6,5.1-1.3,8.5-2c16.1-3.3,28.9-8.9,38.4-16.7c0.7,4.5,2.5,6.6,5.7,6.4
			c2.5-0.2,5.9-2,10.2-5.4c12.2-9.9,22.6-21.7,31.2-35.5C178.8,259.1,185.6,245,192.4,227.7"/>
	</g>
	<g>
		<defs>
			<path id="SVGID_13_" d="M51.6,30.1C22.1,53.3,3.2,89.3,3.2,129.6c0,70,57.1,126.7,127.4,126.7c39.5,0,74.8-17.9,98.2-45.9V48.8
				c-5.7-6.9-12.2-13.2-19.2-18.7C209.6,30.1,51.6,30.1,51.6,30.1z"/>
		</defs>
		<clipPath id="SVGID_14_">
			<use xlink:href="#SVGID_13_"  style="overflow:visible;"/>
		</clipPath>
		<path class="st6" d="M191,188.7c6.6,9.4,8.8,23,6.6,40.8c-0.7,4.9-2,8.2-4.1,9.7c-2.5,1.7-4.9,0.1-7.3-5
			c-11.5,37.3-22.4,43.5-32.5,18.5c-12.2,11.4-20.7,14.6-25.2,9.7c-3.5-3.7-5.7-14.1-6.5-31.3c-8.9,5.4-13.9,6.7-15,4.1
			c-0.7-1.7,0.4-6.3,3.5-13.9c5.4-13.3,13.5-24.2,24.4-32.6c10.1-7.9,20.5-12,31-12.2C176.7,176.2,185.1,180.3,191,188.7"/>
	</g>
	<g>
		<defs>
			<path id="SVGID_15_" d="M51.6,30.1C22.1,53.3,3.2,89.3,3.2,129.6c0,70,57.1,126.7,127.4,126.7c39.5,0,74.8-17.9,98.2-45.9V48.8
				c-5.7-6.9-12.2-13.2-19.2-18.7C209.6,30.1,51.6,30.1,51.6,30.1z"/>
		</defs>
		<clipPath id="SVGID_16_">
			<use xlink:href="#SVGID_15_"  style="overflow:visible;"/>
		</clipPath>
		<path class="st7" d="M56.1,219c7.2-38.8,12.8-61,16.5-66.4l95.1-16.1c6.2,12.5,11.3,25.7,15.4,39.4c4.6,15.3,7.3,29,7.9,41.2
			c0.9,16.4-1.4,20.7-6.9,13c-7,28.8-19.7,51.2-38,67.1c-3.4,3-5.4,2.1-5.9-2.6c-12.8,10-26.5,18.1-41.1,24.2
			c-12.4,5.3-24.1,8.7-35.2,10.2c-3.4,0.4-5.7,0.3-6.7-0.4c-1.5-1.1-1.6-3.7-0.3-7.7c-4.8,9.1-8,12.7-9.6,10.8
			c-1.3-1.6-2.1-7.9-2.3-19C44.7,291.7,48.3,260.5,56.1,219"/>
	</g>
	<g>
		<defs>
			<path id="SVGID_17_" d="M51.6,30.1C22.1,53.3,3.2,89.3,3.2,129.6c0,70,57.1,126.7,127.4,126.7c39.5,0,74.8-17.9,98.2-45.9V48.8
				c-5.7-6.9-12.2-13.2-19.2-18.7C209.6,30.1,51.6,30.1,51.6,30.1z"/>
		</defs>
		<clipPath id="SVGID_18_">
			<use xlink:href="#SVGID_17_"  style="overflow:visible;"/>
		</clipPath>
		<path class="st8" d="M52.1,242.1c4.3-26.9,9-50.3,14.1-70.1c9.6-4.1,18.6-4.3,27-0.7c7.7,3.5,13.9,9.8,18.6,19
			c4.6,9.1,6.8,19.5,6.8,31.2c-0.1,12.5-2.8,24.6-8.3,36.3c-2.7,5.6-4.7,9.2-6,11c-2.1,2.7-4,3.1-5.5,1.3
			c-5.2,17.7-9.6,29.7-13,36.1c-5.4,9.8-9.9,9.6-13.7-0.5c-3.7,7.7-6.9,15.5-9.7,23.6c-2.8,0.2-4.7-0.1-5.5-1
			c-1.2-1.2-1.1-3.7,0.1-7.4c-4.8,9.1-8,12.7-9.6,10.8c-1.3-1.6-2.1-7.9-2.3-19C44.8,296.4,47.1,272.9,52.1,242.1"/>
	</g>
	<g>
		<defs>
			<path id="SVGID_19_" d="M51.6,30.1C22.1,53.3,3.2,89.3,3.2,129.6c0,70,57.1,126.7,127.4,126.7c39.5,0,74.8-17.9,98.2-45.9V48.8
				c-5.7-6.9-12.2-13.2-19.2-18.7C209.6,30.1,51.6,30.1,51.6,30.1z"/>
		</defs>
		<clipPath id="SVGID_20_">
			<use xlink:href="#SVGID_19_"  style="overflow:visible;"/>
		</clipPath>
		<path class="st9" d="M66.5,170.9c2.6-10.1,4.6-16.2,6.1-18.3l95.1-16.1c5,10.2,9.2,20.5,12.7,30.9c0.1,3.1-0.6,4.7-2.3,4.8
			c-2,0-5.5-1.9-10.8-5.8c-0.3,8.8-2.6,12.7-7,11.6c-2.8-0.7-7.8-4.3-15-11.1c-4.1,9.5-7.9,14.3-11.4,14.3c-3.1,0.1-8.4-3.8-16-11.7
			c-5.6,5-9.1,7.3-10.4,6.8c-1.4-0.4-2.9-4.3-4.5-11.5c-10,9.9-16.1,15.2-18.2,16.1c-4.9,2-7.4-3-7.5-14.9
			C72.9,168.5,69.2,170.1,66.5,170.9"/>
	</g>
	<g>
		<defs>
			<path id="SVGID_21_" d="M51.6,30.1C22.1,53.3,3.2,89.3,3.2,129.6c0,70,57.1,126.7,127.4,126.7c39.5,0,74.8-17.9,98.2-45.9V48.8
				c-5.7-6.9-12.2-13.2-19.2-18.7C209.6,30.1,51.6,30.1,51.6,30.1z"/>
		</defs>
		<clipPath id="SVGID_22_">
			<use xlink:href="#SVGID_21_"  style="overflow:visible;"/>
		</clipPath>
		<path class="st10" d="M198.8,48.7c-4.1-5.5-13.2-9.6-27.3-12.4c-32-6.2-56.4-2.9-73.1,9.8c-2.2,1.6-4.2,3.4-6.1,5.4
			C116,31.6,151.5,30.7,198.8,48.7"/>
	</g>
	<g>
		<defs>
			<path id="SVGID_23_" d="M51.6,30.1C22.1,53.3,3.2,89.3,3.2,129.6c0,70,57.1,126.7,127.4,126.7c39.5,0,74.8-17.9,98.2-45.9V48.8
				c-5.7-6.9-12.2-13.2-19.2-18.7C209.6,30.1,51.6,30.1,51.6,30.1z"/>
		</defs>
		<clipPath id="SVGID_24_">
			<use xlink:href="#SVGID_23_"  style="overflow:visible;"/>
		</clipPath>
		<path class="st11" d="M199.8,50.2c-0.3-0.5-0.6-1-1-1.5c-47.3-17.9-82.8-17-106.4,2.8C81.6,62.6,75.2,78.7,73.3,99.9
			c-1.2,13-3.2,28.9-5.9,47.6c-0.7,5.1-1.7,10.6-2.9,16.5c0.7,2.6,5.8,1.3,15.4-3.8c0.2,11.9,2.5,16.8,7.1,14.8
			c2-0.9,7.7-6.2,17.2-16.1c1.6,7.2,3,11.1,4.3,11.5s4.6-1.8,9.8-6.7c7.1,7.9,12.1,11.8,15,11.7c3.4-0.1,7-4.9,10.8-14.5
			c6.9,6.7,11.6,10.4,14.3,11.1c4.1,1.1,6.2-2.8,6.5-11.6c6.7,5.2,10.6,6.8,11.7,4.8c0.6-1,0.4-5.5-0.4-13.5
			c-2.6-22.8,0.5-48.6,9.3-77.3C199.1,65.5,204,57.5,199.8,50.2"/>
	</g>
	<g>
		<defs>
			<path id="SVGID_25_" d="M51.6,30.1C22.1,53.3,3.2,89.3,3.2,129.6c0,70,57.1,126.7,127.4,126.7c39.5,0,74.8-17.9,98.2-45.9V48.8
				c-5.7-6.9-12.2-13.2-19.2-18.7C209.6,30.1,51.6,30.1,51.6,30.1z"/>
		</defs>
		<clipPath id="SVGID_26_">
			<use xlink:href="#SVGID_25_"  style="overflow:visible;"/>
		</clipPath>
		<path class="st12" d="M81.3,119.6c0.2,5.2,0.8,8.3,1.6,9.4c1.2,1.4,3.6,0.2,7.1-3.5c-0.7,10.1-0.8,18-0.3,23.5
			c0.5,7,2.1,13.8,4.7,20.3c-4.8,4.7-8.2,6.7-10.3,6.1c-2.6-0.9-3.9-5.9-4-15.1c-9.7,5.1-14.9,6.4-15.4,3.8c-0.3-1,0-3.2,0.8-6.4
			c1.1-4.8,1.8-8.2,2.1-10.1c2.7-18.7,4.6-34.6,5.9-47.6c2.2-24,10.2-41.6,23.8-52.7c-5.5,13-9.5,24.7-12,35.1
			C82.1,95,80.8,107.5,81.3,119.6"/>
	</g>
	<g>
		<defs>
			<path id="SVGID_27_" d="M51.6,30.1C22.1,53.3,3.2,89.3,3.2,129.6c0,70,57.1,126.7,127.4,126.7c39.5,0,74.8-17.9,98.2-45.9V48.8
				c-5.7-6.9-12.2-13.2-19.2-18.7C209.6,30.1,51.6,30.1,51.6,30.1z"/>
		</defs>
		<clipPath id="SVGID_28_">
			<use xlink:href="#SVGID_27_"  style="overflow:visible;"/>
		</clipPath>
		<path class="st13" d="M117.5,57.4c5.1-3.4,12.5-4,22.2-1.8c7.5,1.7,17.1,5.4,28.7,10.9c4.6,2.1,10.7,2.1,18.5,0L183.4,81l-7,41.4
			c-11.7,6.7-21.4,8.8-29.1,6.4c-6.7-2-14.4-8.6-23.3-19.6l-1.6,4.1c-6.8-9.1-11.3-18.6-13.4-28.5C106.4,72.2,109.3,63,117.5,57.4"
			/>
	</g>
	<g>
		<defs>
			<path id="SVGID_29_" d="M51.6,30.1C22.1,53.3,3.2,89.3,3.2,129.6c0,70,57.1,126.7,127.4,126.7c39.5,0,74.8-17.9,98.2-45.9V48.8
				c-5.7-6.9-12.2-13.2-19.2-18.7C209.6,30.1,51.6,30.1,51.6,30.1z"/>
		</defs>
		<clipPath id="SVGID_30_">
			<use xlink:href="#SVGID_29_"  style="overflow:visible;"/>
		</clipPath>
		<path class="st14" d="M155.3,123.7c3.1-4.8,7.6-7.5,13.5-8.1c8.5,9.2,13.6,19,15.3,29.5c-5.7,4-12.1,5.2-19.4,3.8
			c-6.5-1.3-11.7-4.4-15.5-9C151.3,132.1,153.4,126.7,155.3,123.7"/>
	</g>
	<g>
		<defs>
			<path id="SVGID_31_" d="M51.6,30.1C22.1,53.3,3.2,89.3,3.2,129.6c0,70,57.1,126.7,127.4,126.7c39.5,0,74.8-17.9,98.2-45.9V48.8
				c-5.7-6.9-12.2-13.2-19.2-18.7C209.6,30.1,51.6,30.1,51.6,30.1z"/>
		</defs>
		<clipPath id="SVGID_32_">
			<use xlink:href="#SVGID_31_"  style="overflow:visible;"/>
		</clipPath>
		<path class="st15" d="M177.5,128.8c0.3,0.7,1.8,5.5,4.5,14.2c-11.6-6.4-16.9-15-16-25.9C171,119.2,174.8,123.1,177.5,128.8"/>
	</g>
	<g>
		<defs>
			<path id="SVGID_33_" d="M51.6,30.1C22.1,53.3,3.2,89.3,3.2,129.6c0,70,57.1,126.7,127.4,126.7c39.5,0,74.8-17.9,98.2-45.9V48.8
				c-5.7-6.9-12.2-13.2-19.2-18.7C209.6,30.1,51.6,30.1,51.6,30.1z"/>
		</defs>
		<clipPath id="SVGID_34_">
			<use xlink:href="#SVGID_33_"  style="overflow:visible;"/>
		</clipPath>
		<path class="st16" d="M173.6,136l-0.4,0.7c-5.5-5.4-7.9-11.9-7.3-19.5C172.5,121.3,175,127.6,173.6,136"/>
	</g>
	<g>
		<defs>
			<path id="SVGID_35_" d="M51.6,30.1C22.1,53.3,3.2,89.3,3.2,129.6c0,70,57.1,126.7,127.4,126.7c39.5,0,74.8-17.9,98.2-45.9V48.8
				c-5.7-6.9-12.2-13.2-19.2-18.7C209.6,30.1,51.6,30.1,51.6,30.1z"/>
		</defs>
		<clipPath id="SVGID_36_">
			<use xlink:href="#SVGID_35_"  style="overflow:visible;"/>
		</clipPath>
		<path class="st17" d="M160.1,118.6c-0.8-14,0.9-25,5.2-33.2c4.3-8.3,12.3-15.4,23.8-21.5c22.8,7.2,35.3,21.7,37.4,43.5
			c1.8,18.8-3.9,38.8-17.1,60c-2-14.2-6.6-24.1-13.9-29.6C190.4,134.1,178.6,127.6,160.1,118.6"/>
	</g>
	<g>
		<defs>
			<path id="SVGID_37_" d="M51.6,30.1C22.1,53.3,3.2,89.3,3.2,129.6c0,70,57.1,126.7,127.4,126.7c39.5,0,74.8-17.9,98.2-45.9V48.8
				c-5.7-6.9-12.2-13.2-19.2-18.7C209.6,30.1,51.6,30.1,51.6,30.1z"/>
		</defs>
		<clipPath id="SVGID_38_">
			<use xlink:href="#SVGID_37_"  style="overflow:visible;"/>
		</clipPath>
		<path class="st18" d="M168.5,102.9c-2.8-2.9-4.5-7.1-5.3-12.7c2-5.5,5.1-10.4,9.3-14.6s9.7-8.1,16.6-11.7
			c18.8,5.9,30.6,16.9,35.4,32.9c4.2,13.9,2.9,30-4,48.3c-2.2,0.5-4.2,0.1-5.9-1.2c-2-1.4-4.1-4.3-6.4-8.7
			c-3.7-7.2-7.2-12.4-10.7-15.5c-3-2.8-7.2-5.3-12.7-7.4C177,109.2,171.5,106.1,168.5,102.9"/>
	</g>
	<g>
		<defs>
			<path id="SVGID_39_" d="M51.6,30.1C22.1,53.3,3.2,89.3,3.2,129.6c0,70,57.1,126.7,127.4,126.7c39.5,0,74.8-17.9,98.2-45.9V48.8
				c-5.7-6.9-12.2-13.2-19.2-18.7C209.6,30.1,51.6,30.1,51.6,30.1z"/>
		</defs>
		<clipPath id="SVGID_40_">
			<use xlink:href="#SVGID_39_"  style="overflow:visible;"/>
		</clipPath>
		<path class="st19" d="M162.5,46.6l0.9,0.4c-8.1,1-13.3,1.5-15.4,1.4c-2.2-0.1-5.4,0.7-9.5,2.4l-0.9-2.6c4-3,7.9-4.7,11.6-5.1
			C153.4,42.7,157.8,43.8,162.5,46.6"/>
	</g>
	<g>
		<defs>
			<path id="SVGID_41_" d="M51.6,30.1C22.1,53.3,3.2,89.3,3.2,129.6c0,70,57.1,126.7,127.4,126.7c39.5,0,74.8-17.9,98.2-45.9V48.8
				c-5.7-6.9-12.2-13.2-19.2-18.7C209.6,30.1,51.6,30.1,51.6,30.1z"/>
		</defs>
		<clipPath id="SVGID_42_">
			<use xlink:href="#SVGID_41_"  style="overflow:visible;"/>
		</clipPath>
		<path class="st20" d="M41.7,192.7c17.5-2.5,30.7,0,39.8,7.5c7.5,6.2,14.4,18.3,20.4,36.2c-1.7,4.1-6.2,18.5-13.4,43.3
			c-7.4,20.3-13.4,24.2-17.9,11.8c-3.5,7.4-6.7,15.3-9.6,23.6c-1.4,4.1-3.9,12.1-7.6,24.1c-4.9,15.7-10.1,17.3-15.7,4.9
			c-4.9-10.9-8-25.7-9.1-44.1c-5.4,3.8-8.9,2.4-10.5-4.3c-3.7-14.7-2.6-32.4,3.4-53.1C25.5,228.6,32.3,211.9,41.7,192.7"/>
	</g>
	<g>
		<defs>
			<path id="SVGID_43_" d="M51.6,30.1C22.1,53.3,3.2,89.3,3.2,129.6c0,70,57.1,126.7,127.4,126.7c39.5,0,74.8-17.9,98.2-45.9V48.8
				c-5.7-6.9-12.2-13.2-19.2-18.7C209.6,30.1,51.6,30.1,51.6,30.1z"/>
		</defs>
		<clipPath id="SVGID_44_">
			<use xlink:href="#SVGID_43_"  style="overflow:visible;"/>
		</clipPath>
		<path class="st21" d="M41.7,192.7c17.5-2.5,30.7,0,39.8,7.5c7.5,6.2,14.4,18.3,20.4,36.2c-1.3,3-4.3,12.9-9,29.9
			c-2.5-2-4.6-4.7-6.3-8.3c-11.6,7.8-20.2,11.1-25.8,10.1C54.5,267,49.5,259.9,46,247c-5.3,2-10.1,2.4-14.5,1.4
			c-4.6,7.6-7.2,17.8-7.8,30.5c-0.7,13.8,3.2,17.3,11.7,10.7c-1.9,10.8-1.9,21.4,0,31.9c2.1,11.5,6.3,21.2,12.5,29.1
			c-4.1,4.2-8.3,0.1-12.4-12.3c-3.6-11.1-5.9-23.8-6.8-38.3c-5.4,3.8-8.9,2.4-10.5-4.3c-3.7-14.7-2.6-32.4,3.4-53.1
			C25.5,228.6,32.3,211.9,41.7,192.7"/>
	</g>
	<g>
		<defs>
			<path id="SVGID_45_" d="M51.6,30.1C22.1,53.3,3.2,89.3,3.2,129.6c0,70,57.1,126.7,127.4,126.7c39.5,0,74.8-17.9,98.2-45.9V48.8
				c-5.7-6.9-12.2-13.2-19.2-18.7C209.6,30.1,51.6,30.1,51.6,30.1z"/>
		</defs>
		<clipPath id="SVGID_46_">
			<use xlink:href="#SVGID_45_"  style="overflow:visible;"/>
		</clipPath>
		<path class="st22" d="M36,199.2c-0.4-2.5,1.1-5.7,4.2-9.6c11.5-13.6,23-21.3,34.4-22.9c10.1-1.4,18.8,2,26.1,10.1
			c7,7.8,11.1,18.2,12.3,31c1.2,13.6-1.2,27-7.3,40c-3.6,7.4-6.2,11.4-7.9,12.1c-2.6,0.9-5-3.7-7.2-13.8
			c-13.2,11-22.3,16.5-27.4,16.5c-6.7,0-10.1-8.3-10.1-25c-15.4,5.9-22.4,3.7-21.2-6.6c0.7-6.4,5-16.3,12.7-29.8
			C39.2,202.9,36.3,202.2,36,199.2"/>
	</g>
	<g>
		<defs>
			<path id="SVGID_47_" d="M51.6,30.1C22.1,53.3,3.2,89.3,3.2,129.6c0,70,57.1,126.7,127.4,126.7c39.5,0,74.8-17.9,98.2-45.9V48.8
				c-5.7-6.9-12.2-13.2-19.2-18.7C209.6,30.1,51.6,30.1,51.6,30.1z"/>
		</defs>
		<clipPath id="SVGID_48_">
			<use xlink:href="#SVGID_47_"  style="overflow:visible;"/>
		</clipPath>
		<path class="st23" d="M62,182.6c-5.6,8-10,15.9-13.2,23.6c-3.6,8.7-4.6,15.1-3,19.4c1.7,4.9,7,6.1,15.8,3.6
			c-2.2,9.7-3.1,16.5-2.8,20.4c0.6,6.5,4,10.4,10.2,11.7c-5.3,2.2-9.2,1.7-11.7-1.7c-2.8-3.7-4.1-11-4.1-22
			c-15.4,5.9-22.4,3.7-21.2-6.6c0.7-6.4,5-16.3,12.7-29.8c-5.4,1.7-8.2,1-8.6-2c-0.4-2.5,1.1-5.7,4.2-9.6
			c12.2-14.4,24.2-22.1,36.1-23C72.3,169.5,67.5,174.8,62,182.6"/>
	</g>
	<g>
		<defs>
			<path id="SVGID_49_" d="M51.6,30.1C22.1,53.3,3.2,89.3,3.2,129.6c0,70,57.1,126.7,127.4,126.7c39.5,0,74.8-17.9,98.2-45.9V48.8
				c-5.7-6.9-12.2-13.2-19.2-18.7C209.6,30.1,51.6,30.1,51.6,30.1z"/>
		</defs>
		<clipPath id="SVGID_50_">
			<use xlink:href="#SVGID_49_"  style="overflow:visible;"/>
		</clipPath>
		<path class="st24" d="M183.5,85.4c0.9-0.7,1.9-1,2.9-1s1.7,0.3,2.2,0.9c0.4,0.7,0.5,1.4,0.1,2.4c-0.4,0.9-1.2,1.6-2.2,2.3
			c-0.9,0.7-1.9,1.1-2.9,1.1s-1.7-0.3-2.1-0.9c-0.4-0.7-0.5-1.4-0.1-2.4C181.8,86.9,182.5,86.2,183.5,85.4"/>
	</g>
	<g>
		<defs>
			<path id="SVGID_51_" d="M51.6,30.1C22.1,53.3,3.2,89.3,3.2,129.6c0,70,57.1,126.7,127.4,126.7c39.5,0,74.8-17.9,98.2-45.9V48.8
				c-5.7-6.9-12.2-13.2-19.2-18.7C209.6,30.1,51.6,30.1,51.6,30.1z"/>
		</defs>
		<clipPath id="SVGID_52_">
			<use xlink:href="#SVGID_51_"  style="overflow:visible;"/>
		</clipPath>
		<path class="st25" d="M182.1,90.8c-0.2-1.4,0.5-2.7,2.3-3.9c1.8-1.2,3.3-1.5,4.6-0.8c0.1,1.4-0.7,2.8-2.4,3.9
			C184.8,91.2,183.3,91.5,182.1,90.8"/>
	</g>
	<g>
		<defs>
			<path id="SVGID_53_" d="M51.6,30.1C22.1,53.3,3.2,89.3,3.2,129.6c0,70,57.1,126.7,127.4,126.7c39.5,0,74.8-17.9,98.2-45.9V48.8
				c-5.7-6.9-12.2-13.2-19.2-18.7C209.6,30.1,51.6,30.1,51.6,30.1z"/>
		</defs>
		<clipPath id="SVGID_54_">
			<use xlink:href="#SVGID_53_"  style="overflow:visible;"/>
		</clipPath>
		<path class="st26" d="M162.2,230.2c0.6-2,1.6-10.8,3-26.4c1.6,5.5,2.3,11.6,2.2,18.3c-0.1,6.5-1.1,11.8-2.8,16
			c-1.8,4.4-4.2,6.3-7.1,5.7c-3.4-0.8-7.1-5-11-12.6C154.2,239.6,159.4,239.3,162.2,230.2"/>
	</g>
	<g>
		<defs>
			<path id="SVGID_55_" d="M51.6,30.1C22.1,53.3,3.2,89.3,3.2,129.6c0,70,57.1,126.7,127.4,126.7c39.5,0,74.8-17.9,98.2-45.9V48.8
				c-5.7-6.9-12.2-13.2-19.2-18.7C209.6,30.1,51.6,30.1,51.6,30.1z"/>
		</defs>
		<clipPath id="SVGID_56_">
			<use xlink:href="#SVGID_55_"  style="overflow:visible;"/>
		</clipPath>
		<path class="st27" d="M136.7,252.4c8.2,11.5,15.1,6.7,20.7-14.3c0.5,10-1.7,17.8-6.7,23.5C145.3,267.5,140.6,264.4,136.7,252.4"/>
	</g>
	<g>
		<defs>
			<path id="SVGID_57_" d="M51.6,30.1C22.1,53.3,3.2,89.3,3.2,129.6c0,70,57.1,126.7,127.4,126.7c39.5,0,74.8-17.9,98.2-45.9V48.8
				c-5.7-6.9-12.2-13.2-19.2-18.7C209.6,30.1,51.6,30.1,51.6,30.1z"/>
		</defs>
		<clipPath id="SVGID_58_">
			<use xlink:href="#SVGID_57_"  style="overflow:visible;"/>
		</clipPath>
		<path class="st28" d="M127.7,230.8c6.4,11.8,11.7,7,15.9-14.3c0.4,10.1-1.3,17.9-5.1,23.6C134.4,246,130.9,242.9,127.7,230.8"/>
	</g>
	<g>
		<defs>
			<path id="SVGID_59_" d="M51.6,30.1C22.1,53.3,3.2,89.3,3.2,129.6c0,70,57.1,126.7,127.4,126.7c39.5,0,74.8-17.9,98.2-45.9V48.8
				c-5.7-6.9-12.2-13.2-19.2-18.7C209.6,30.1,51.6,30.1,51.6,30.1z"/>
		</defs>
		<clipPath id="SVGID_60_">
			<use xlink:href="#SVGID_59_"  style="overflow:visible;"/>
		</clipPath>
		<path class="st29" d="M46,295.1c-2,17.9,0,23.2,6.1,16c-4,7-7,10.3-9.1,9.7c-2-0.6-2.9-4.1-2.7-10.7c0.4-15.2,4.5-33.3,12.5-54.4
			C48.7,278,46.5,291.1,46,295.1"/>
	</g>
	<g>
		<defs>
			<path id="SVGID_61_" d="M51.6,30.1C22.1,53.3,3.2,89.3,3.2,129.6c0,70,57.1,126.7,127.4,126.7c39.5,0,74.8-17.9,98.2-45.9V48.8
				c-5.7-6.9-12.2-13.2-19.2-18.7C209.6,30.1,51.6,30.1,51.6,30.1z"/>
		</defs>
		<clipPath id="SVGID_62_">
			<use xlink:href="#SVGID_61_"  style="overflow:visible;"/>
		</clipPath>
		<path class="st30" d="M117.5,336.2l5.1,110c-5.3,1.7-10.6,1.6-15.8,0.2l-1.2-110.3L117.5,336.2z"/>
	</g>
	<g>
		<defs>
			<path id="SVGID_63_" d="M51.6,30.1C22.1,53.3,3.2,89.3,3.2,129.6c0,70,57.1,126.7,127.4,126.7c39.5,0,74.8-17.9,98.2-45.9V48.8
				c-5.7-6.9-12.2-13.2-19.2-18.7C209.6,30.1,51.6,30.1,51.6,30.1z"/>
		</defs>
		<clipPath id="SVGID_64_">
			<use xlink:href="#SVGID_63_"  style="overflow:visible;"/>
		</clipPath>
		<path class="st31" d="M117.7,341.2l4.9,105c-2,0.6-3.9,1-5.9,1.2C112.6,413.9,103.7,354.2,117.7,341.2"/>
	</g>
	<g>
		<defs>
			<path id="SVGID_65_" d="M51.6,30.1C22.1,53.3,3.2,89.3,3.2,129.6c0,70,57.1,126.7,127.4,126.7c39.5,0,74.8-17.9,98.2-45.9V48.8
				c-5.7-6.9-12.2-13.2-19.2-18.7C209.6,30.1,51.6,30.1,51.6,30.1z"/>
		</defs>
		<clipPath id="SVGID_66_">
			<use xlink:href="#SVGID_65_"  style="overflow:visible;"/>
		</clipPath>
		<path class="st32" d="M177,319.6l-133.8,3.2l-0.6,19.4l134.8-8C187,333.6,185.5,319.4,177,319.6"/>
	</g>
	<g>
		<defs>
			<path id="SVGID_67_" d="M51.6,30.1C22.1,53.3,3.2,89.3,3.2,129.6c0,70,57.1,126.7,127.4,126.7c39.5,0,74.8-17.9,98.2-45.9V48.8
				c-5.7-6.9-12.2-13.2-19.2-18.7C209.6,30.1,51.6,30.1,51.6,30.1z"/>
		</defs>
		<clipPath id="SVGID_68_">
			<use xlink:href="#SVGID_67_"  style="overflow:visible;"/>
		</clipPath>
		<path class="st33" d="M177,319.6l-134.8,3.1l0.8,8.4c15.6,1.7,33.5,2.6,52.6,2.6c36.1,0,68.1-3.4,88.2-8.7
			C183,322,180.6,319.5,177,319.6"/>
	</g>
	<g>
		<defs>
			<path id="SVGID_69_" d="M51.6,30.1C22.1,53.3,3.2,89.3,3.2,129.6c0,70,57.1,126.7,127.4,126.7c39.5,0,74.8-17.9,98.2-45.9V48.8
				c-5.7-6.9-12.2-13.2-19.2-18.7C209.6,30.1,51.6,30.1,51.6,30.1z"/>
		</defs>
		<clipPath id="SVGID_70_">
			<use xlink:href="#SVGID_69_"  style="overflow:visible;"/>
		</clipPath>
		<path class="st34" d="M42.6,342.2c-3.8,0-6.8-4.4-6.8-9.8s3.1-9.8,6.8-9.8c3.8,0,6.8,4.4,6.8,9.8S46.4,342.2,42.6,342.2"/>
	</g>
	<g>
		<defs>
			<path id="SVGID_71_" d="M51.6,30.1C22.1,53.3,3.2,89.3,3.2,129.6c0,70,57.1,126.7,127.4,126.7c39.5,0,74.8-17.9,98.2-45.9V48.8
				c-5.7-6.9-12.2-13.2-19.2-18.7C209.6,30.1,51.6,30.1,51.6,30.1z"/>
		</defs>
		<clipPath id="SVGID_72_">
			<use xlink:href="#SVGID_71_"  style="overflow:visible;"/>
		</clipPath>
		<path class="st35" d="M130.1,315.7c2.8-0.4,5.5,0.4,8,2.5c2.8,2.2,4.2,4.7,4.5,7.4c0.2,3.1-1.3,6.3-4.7,9.5
			c-1.5,1.4-2.3,1.8-2.4,1.2c0-0.1,0.2-1.4,0.7-4c0.6-3.3-0.4-6.2-2.8-8.6c-2.5-2.4-5.9-3.5-10.2-3.4
			C125.2,317.6,127.5,316.1,130.1,315.7"/>
	</g>
	<g>
		<defs>
			<path id="SVGID_73_" d="M51.6,30.1C22.1,53.3,3.2,89.3,3.2,129.6c0,70,57.1,126.7,127.4,126.7c39.5,0,74.8-17.9,98.2-45.9V48.8
				c-5.7-6.9-12.2-13.2-19.2-18.7C209.6,30.1,51.6,30.1,51.6,30.1z"/>
		</defs>
		<clipPath id="SVGID_74_">
			<use xlink:href="#SVGID_73_"  style="overflow:visible;"/>
		</clipPath>
		<path class="st36" d="M136.9,322.8l1.6-4.5c0.9,0.8,1.7,1.7,2.4,2.6L136.9,322.8 M138.2,329.9l4.3-2.6c-0.1,0.9-0.4,1.8-0.9,2.7
			L138.2,329.9z"/>
	</g>
	<g>
		<defs>
			<path id="SVGID_75_" d="M51.6,30.1C22.1,53.3,3.2,89.3,3.2,129.6c0,70,57.1,126.7,127.4,126.7c39.5,0,74.8-17.9,98.2-45.9V48.8
				c-5.7-6.9-12.2-13.2-19.2-18.7C209.6,30.1,51.6,30.1,51.6,30.1z"/>
		</defs>
		<clipPath id="SVGID_76_">
			<use xlink:href="#SVGID_75_"  style="overflow:visible;"/>
		</clipPath>
		<path class="st37" d="M96.3,316.3c3-0.5,5.8,0.4,8.5,2.6c2.9,2.3,4.4,4.9,4.6,7.8c0.3,3.3-1.3,6.6-4.8,9.9c-1.7,1.5-2.5,2-2.6,1.4
			c0-0.1,0.3-1.6,0.8-4.3c0.6-3.5-0.4-6.5-3-9c-2.8-2.6-6.4-3.8-10.9-3.6C90.9,318.4,93.4,316.8,96.3,316.3"/>
	</g>
	<g>
		<defs>
			<path id="SVGID_77_" d="M51.6,30.1C22.1,53.3,3.2,89.3,3.2,129.6c0,70,57.1,126.7,127.4,126.7c39.5,0,74.8-17.9,98.2-45.9V48.8
				c-5.7-6.9-12.2-13.2-19.2-18.7C209.6,30.1,51.6,30.1,51.6,30.1z"/>
		</defs>
		<clipPath id="SVGID_78_">
			<use xlink:href="#SVGID_77_"  style="overflow:visible;"/>
		</clipPath>
		<path class="st38" d="M103.4,323.9l1.7-4.8c0.8,0.7,1.6,1.6,2.5,2.7L103.4,323.9 M104.8,331.3l4.6-2.7c-0.1,0.8-0.4,1.7-0.9,2.8
			L104.8,331.3z"/>
	</g>
	<g>
		<defs>
			<path id="SVGID_79_" d="M51.6,30.1C22.1,53.3,3.2,89.3,3.2,129.6c0,70,57.1,126.7,127.4,126.7c39.5,0,74.8-17.9,98.2-45.9V48.8
				c-5.7-6.9-12.2-13.2-19.2-18.7C209.6,30.1,51.6,30.1,51.6,30.1z"/>
		</defs>
		<clipPath id="SVGID_80_">
			<use xlink:href="#SVGID_79_"  style="overflow:visible;"/>
		</clipPath>
		<path class="st39" d="M125.2,315.7c2.9,0,5.4,1.4,7.6,4.2c2.6,3.4,3.7,6.7,3.3,9.9c-0.6,3.8-3.2,7-7.9,9.6
			c-2.2,1.2-3.2,1.5-3.2,0.8c0-0.2,0.7-1.7,2-4.5c1.7-3.6,1.7-6.7,0.1-9.6c-1.7-3-4.9-5-9.7-6.1C119.6,317,122.2,315.6,125.2,315.7"
			/>
	</g>
	<g>
		<defs>
			<path id="SVGID_81_" d="M51.6,30.1C22.1,53.3,3.2,89.3,3.2,129.6c0,70,57.1,126.7,127.4,126.7c39.5,0,74.8-17.9,98.2-45.9V48.8
				c-5.7-6.9-12.2-13.2-19.2-18.7C209.6,30.1,51.6,30.1,51.6,30.1z"/>
		</defs>
		<clipPath id="SVGID_82_">
			<use xlink:href="#SVGID_81_"  style="overflow:visible;"/>
		</clipPath>
		<path class="st40" d="M130.4,325.5l3.2-4.6c0.9,1.3,1.5,2.5,1.8,3.6L130.4,325.5 M129.8,333.7l5.7-1.6c-0.2,0.7-0.8,1.7-1.7,2.8
			L129.8,333.7z"/>
	</g>
	<g>
		<defs>
			<path id="SVGID_83_" d="M51.6,30.1C22.1,53.3,3.2,89.3,3.2,129.6c0,70,57.1,126.7,127.4,126.7c39.5,0,74.8-17.9,98.2-45.9V48.8
				c-5.7-6.9-12.2-13.2-19.2-18.7C209.6,30.1,51.6,30.1,51.6,30.1z"/>
		</defs>
		<clipPath id="SVGID_84_">
			<use xlink:href="#SVGID_83_"  style="overflow:visible;"/>
		</clipPath>
		<path class="st41" d="M91,316.2c3.1,0.1,5.8,1.6,8.2,4.6c2.8,3.6,3.9,7.1,3.4,10.4c-0.6,3.9-3.4,7.3-8.4,10.1
			c-2.2,1.2-3.3,1.5-3.3,0.8c0-0.1,0.7-1.7,2.1-4.7c1.7-3.8,1.8-7.1,0.1-10.1c-1.8-3.2-5.3-5.4-10.3-6.5
			C85,317.7,87.8,316.2,91,316.2"/>
	</g>
	<g>
		<defs>
			<path id="SVGID_85_" d="M51.6,30.1C22.1,53.3,3.2,89.3,3.2,129.6c0,70,57.1,126.7,127.4,126.7c39.5,0,74.8-17.9,98.2-45.9V48.8
				c-5.7-6.9-12.2-13.2-19.2-18.7C209.6,30.1,51.6,30.1,51.6,30.1z"/>
		</defs>
		<clipPath id="SVGID_86_">
			<use xlink:href="#SVGID_85_"  style="overflow:visible;"/>
		</clipPath>
		<path class="st42" d="M96.5,326.6l3.4-4.9c1.1,1.8,1.7,3.1,2,3.8L96.5,326.6 M95.9,335.3l6-1.7c-0.6,1.3-1.2,2.3-1.8,3L95.9,335.3
			z"/>
	</g>
	<g>
		<defs>
			<path id="SVGID_87_" d="M51.6,30.1C22.1,53.3,3.2,89.3,3.2,129.6c0,70,57.1,126.7,127.4,126.7c39.5,0,74.8-17.9,98.2-45.9V48.8
				c-5.7-6.9-12.2-13.2-19.2-18.7C209.6,30.1,51.6,30.1,51.6,30.1z"/>
		</defs>
		<clipPath id="SVGID_88_">
			<use xlink:href="#SVGID_87_"  style="overflow:visible;"/>
		</clipPath>
		<path class="st43" d="M125.3,322.6c1.5,3.3,1.7,6.3,0.7,8.9c-1.2,2.9-4,5-8.5,6.3c-2,0.6-2.9,0.6-2.7,0c0-0.2,0.8-1.3,2.5-3.3
			c1.8-2.3,2.2-5,1.1-8c-0.9-2.5-2.5-4.7-5-6.7h-3.5c1.5-3.1,3.8-4.6,7-4.6C120.3,315.3,123.2,317.8,125.3,322.6"/>
	</g>
	<g>
		<defs>
			<path id="SVGID_89_" d="M51.6,30.1C22.1,53.3,3.2,89.3,3.2,129.6c0,70,57.1,126.7,127.4,126.7c39.5,0,74.8-17.9,98.2-45.9V48.8
				c-5.7-6.9-12.2-13.2-19.2-18.7C209.6,30.1,51.6,30.1,51.6,30.1z"/>
		</defs>
		<clipPath id="SVGID_90_">
			<use xlink:href="#SVGID_89_"  style="overflow:visible;"/>
		</clipPath>
		<path class="st44" d="M122.2,326.6l3.6-3.2c0.3,0.7,0.6,1.8,0.9,3.4L122.2,326.6 M120.1,333.5l5-0.3c-0.5,0.7-1.2,1.3-2,2.1
			L120.1,333.5z"/>
	</g>
	<g>
		<defs>
			<path id="SVGID_91_" d="M51.6,30.1C22.1,53.3,3.2,89.3,3.2,129.6c0,70,57.1,126.7,127.4,126.7c39.5,0,74.8-17.9,98.2-45.9V48.8
				c-5.7-6.9-12.2-13.2-19.2-18.7C209.6,30.1,51.6,30.1,51.6,30.1z"/>
		</defs>
		<clipPath id="SVGID_92_">
			<use xlink:href="#SVGID_91_"  style="overflow:visible;"/>
		</clipPath>
		<path class="st45" d="M74.9,320.6c1.7-3.3,4.1-4.9,7.3-4.8c3.7,0.1,6.7,2.7,9,7.8c1.6,3.6,1.8,6.7,0.8,9.3c-1.3,3.2-4.3,5.4-9,6.7
			c-2.2,0.7-3.2,0.7-2.9,0c0-0.1,0.9-1.2,2.6-3.5c1.9-2.3,2.3-5.1,1.2-8.4c-0.9-2.7-2.5-5.1-5-7.3h-4V320.6z"/>
	</g>
	<g>
		<defs>
			<path id="SVGID_93_" d="M51.6,30.1C22.1,53.3,3.2,89.3,3.2,129.6c0,70,57.1,126.7,127.4,126.7c39.5,0,74.8-17.9,98.2-45.9V48.8
				c-5.7-6.9-12.2-13.2-19.2-18.7C209.6,30.1,51.6,30.1,51.6,30.1z"/>
		</defs>
		<clipPath id="SVGID_94_">
			<use xlink:href="#SVGID_93_"  style="overflow:visible;"/>
		</clipPath>
		<path class="st46" d="M87.8,327.8l3.8-3.3c0.5,1.3,0.8,2.5,0.9,3.5L87.8,327.8 M91,334.8c-0.9,1-1.6,1.7-2.2,2.2l-3.3-1.8
			L91,334.8z"/>
	</g>
	<g>
		<defs>
			<path id="SVGID_95_" d="M51.6,30.1C22.1,53.3,3.2,89.3,3.2,129.6c0,70,57.1,126.7,127.4,126.7c39.5,0,74.8-17.9,98.2-45.9V48.8
				c-5.7-6.9-12.2-13.2-19.2-18.7C209.6,30.1,51.6,30.1,51.6,30.1z"/>
		</defs>
		<clipPath id="SVGID_96_">
			<use xlink:href="#SVGID_95_"  style="overflow:visible;"/>
		</clipPath>
		<path class="st47" d="M132,91c-0.2,0-0.1,0.5,0.3,1.4c3.5-2.1,6.3-2.3,8.4-0.7l0.4-0.4C139.2,89.1,136.2,88.9,132,91"/>
	</g>
	<g>
		<defs>
			<path id="SVGID_97_" d="M51.6,30.1C22.1,53.3,3.2,89.3,3.2,129.6c0,70,57.1,126.7,127.4,126.7c39.5,0,74.8-17.9,98.2-45.9V48.8
				c-5.7-6.9-12.2-13.2-19.2-18.7C209.6,30.1,51.6,30.1,51.6,30.1z"/>
		</defs>
		<clipPath id="SVGID_98_">
			<use xlink:href="#SVGID_97_"  style="overflow:visible;"/>
		</clipPath>
		<path class="st48" d="M158.7,59.5c-2.8-3.2-6.1-4.4-9.8-3.6c-3.6,0.9-6.9,2.6-9.9,5c-2.8,2-5.1,4.9-6.7,8.6
			c-2.1,4-3.2,8.4-3.2,13.1c0,4.2,0.5,8.3,1.6,12.2c0.3,1.3,0.8,2.6,1.6,4.1c2.1,3.8,5,5.8,8.7,6.1c3.2,0.4,6.4,0,9.5-1.2
			c3.1-1.4,5.8-3.7,8-7.1c2.3-3.3,4-7.2,5.1-11.5c1-2.7,1.3-5.5,1-8.4c-0.3-4.7-1.4-8.9-3.3-12.8C160.7,62.1,159.8,60.7,158.7,59.5"
			/>
	</g>
	<g>
		<defs>
			<path id="SVGID_99_" d="M51.6,30.1C22.1,53.3,3.2,89.3,3.2,129.6c0,70,57.1,126.7,127.4,126.7c39.5,0,74.8-17.9,98.2-45.9V48.8
				c-5.7-6.9-12.2-13.2-19.2-18.7C209.6,30.1,51.6,30.1,51.6,30.1z"/>
		</defs>
		<clipPath id="SVGID_100_">
			<use xlink:href="#SVGID_99_"  style="overflow:visible;"/>
		</clipPath>
		<path class="st49" d="M149.8,60.3c-2.4,0.6-4.6,1.7-6.6,3.3c-1.9,1.4-3.4,3.3-4.5,5.7c-1.4,2.7-2.1,5.6-2.1,8.7
			c0,2.8,0.4,5.5,1.1,8.2c0.2,0.9,0.6,1.8,1.1,2.7c1.4,2.6,3.4,4,5.8,4.1c2.1,0.3,4.3,0.1,6.4-0.7c2.1-0.9,3.9-2.5,5.4-4.7
			s2.6-4.8,3.3-7.6c0.7-1.9,0.9-3.8,0.8-5.7c-0.2-3.1-1-5.9-2.2-8.5c-0.4-1.2-1-2.1-1.7-2.9C154.4,60.7,152.3,59.8,149.8,60.3"/>
	</g>
	<g>
		<defs>
			<path id="SVGID_101_" d="M51.6,30.1C22.1,53.3,3.2,89.3,3.2,129.6c0,70,57.1,126.7,127.4,126.7c39.5,0,74.8-17.9,98.2-45.9V48.8
				c-5.7-6.9-12.2-13.2-19.2-18.7C209.6,30.1,51.6,30.1,51.6,30.1z"/>
		</defs>
		<clipPath id="SVGID_102_">
			<use xlink:href="#SVGID_101_"  style="overflow:visible;"/>
		</clipPath>
		<path class="st50" d="M152.9,72.6c0.6,2.6,0.6,5,0,7.3c-0.6,2.6-1.8,4.2-3.4,4.9c-1.6,1-3.2,1-4.9,0c-1.9-1-3.1-2.6-3.4-4.9
			c-1.6-5.8-0.5-9.9,3.4-12.2c1.6-1,3.2-1,4.9,0C151.2,68.7,152.3,70.4,152.9,72.6"/>
	</g>
</g>
<g>
	<g>
		<defs>
			<rect id="SVGID_103_" x="1.7" y="1.4" width="257.9" height="256.4"/>
		</defs>
		<clipPath id="SVGID_104_">
			<use xlink:href="#SVGID_103_"  style="overflow:visible;"/>
		</clipPath>
		<ellipse class="st51" cx="130.6" cy="129.6" rx="127.4" ry="126.7"/>
	</g>
</g>
</svg>
