<?xml version="1.0" encoding="UTF-8"?>
<svg id="Layer_1" data-name="Layer 1" xmlns="http://www.w3.org/2000/svg" viewBox="0 0 719.86 754.8">
  <defs>
    <style>
      .cls-1 {
        fill: #fff;
      }

      .cls-2 {
        fill: #e9e1a4;
      }
    </style>
  </defs>
  <path class="cls-2" d="M426.7.4c171.98-8.49,246.22,120.28,274.16,271.46,50.73,124.96-6.3,258.12-97.85,347.48-100.23,140.11-218.76,176.66-369.96,85.52C90.01,617.12-3.65,588.44.11,396.38c1.79-89.55,35.31-172.79,70.45-253.66,18.34-42.3,50.85-70.43,97.53-84.41C257.34,45.25,335.47-.25,426.72.4h-.03Z"/>
  <g>
    <g>
      <path class="cls-1" d="M322.04,354.87c2.03-6.14-1.39-12.72-7.64-14.71l-21.19-6.75-17.35-21c-6.18-7.48-15.36-11.77-25.17-11.77h-23.12c-27.25,0-47.92,45.81-53.61,59.85-2.43,5.98.55,12.77,6.65,15.16,1.44.56,2.93.83,4.39.83,4.73,0,9.2-2.78,11.05-7.35,4.88-12,11.51-23.85,17.67-32.41l-1.64,45.58-18.73,85.63c-1.54,7,3.01,13.9,10.14,15.4.94.2,1.86.29,2.79.29,6.09,0,11.57-4.16,12.9-10.25l18.5-84.58h5.18v81.86c0,7.16,5.91,12.97,13.21,12.97s13.21-5.81,13.21-12.97v-87.21s-1.58-43.87-1.58-43.87l9.27,11.22c1.44,1.76,3.38,3.05,5.56,3.75l24.54,7.82c6.27,2.03,12.96-1.37,14.97-7.5Z"/>
      <ellipse class="cls-1" cx="240.66" cy="267.64" rx="26.43" ry="25.95"/>
      <path class="cls-1" d="M305.88,443.34c0,13.08,10.79,23.68,24.1,23.68s24.12-10.6,24.12-23.68-10.8-23.68-24.12-23.68-24.1,10.6-24.1,23.68Z"/>
      <path class="cls-1" d="M352.3,472.87c-6.25,4.56-13.95,7.3-22.32,7.3s-16.07-2.74-22.31-7.3c-6.48,3.9-11.09,10.57-12.07,18.46l-2.51,20.48c-.32,2.65,1.42,5.17,4.08,5.73,10.34,2.16,21.36,3.32,32.8,3.32s22.46-1.16,32.8-3.32c2.66-.56,4.42-3.07,4.09-5.73l-2.51-20.48c-.95-7.89-5.57-14.56-12.06-18.46Z"/>
      <path class="cls-1" d="M484.37,443.34c0,13.08,10.79,23.68,24.1,23.68s24.11-10.6,24.11-23.68-10.8-23.68-24.11-23.68-24.1,10.6-24.1,23.68Z"/>
      <path class="cls-1" d="M542.84,491.33c-.95-7.89-5.57-14.56-12.05-18.46-6.25,4.56-13.95,7.3-22.32,7.3s-16.07-2.74-22.31-7.3c-6.48,3.9-11.09,10.57-12.07,18.46l-2.51,20.48c-.32,2.65,1.42,5.17,4.08,5.73,10.34,2.16,21.36,3.32,32.81,3.32s22.46-1.16,32.8-3.32c2.66-.56,4.42-3.07,4.09-5.73l-2.51-20.48Z"/>
      <path class="cls-1" d="M395.12,443.34c0,13.08,10.79,23.68,24.1,23.68s24.11-10.6,24.11-23.68-10.8-23.68-24.11-23.68-24.1,10.6-24.1,23.68Z"/>
      <path class="cls-1" d="M441.54,472.87c-6.25,4.56-13.95,7.3-22.32,7.3s-16.07-2.74-22.31-7.3c-3.88,2.34-7.1,5.67-9.26,9.66-1.44,2.67-2.42,5.64-2.81,8.8l-1.07,8.72-1.44,11.76c-.16,1.33.19,2.62.92,3.65.7.98,1.75,1.7,2.99,2.01.06.01.1.06.17.07,2,.42,4.04.77,6.09,1.11.95.16,1.89.32,2.85.46,7.68,1.14,15.65,1.75,23.87,1.75,11.45,0,22.46-1.16,32.8-3.32.33-.07.6-.25.9-.38,2.11-.89,3.47-3.03,3.18-5.35l-2.51-20.48c-.95-7.89-5.57-14.56-12.05-18.46Z"/>
    </g>
    <path class="cls-1" d="M506.59,219.94h-174.7c-6.41,0-11.61,5.1-11.61,11.4v92.64c15.09,5.11,23.38,21.19,18.44,36.21-2.94,8.85-9.89,15.53-18.44,18.41v10.2c0,6.27,5.17,11.35,11.56,11.35h174.75c6.38,0,11.55-5.08,11.55-11.35v-157.51c0-6.27-5.17-11.35-11.55-11.35ZM462.2,313.82l-37.05,36.39c-1.99,1.96-5.23,1.96-7.22,0l-36.11-35.46c-8.71-8.56-10.84-22.34-3.64-32.16,9.17-12.51,27.05-13.54,37.67-3.12l5.69,5.59,4.76-4.67c8.71-8.55,22.74-10.64,32.73-3.57,12.74,9.01,13.8,26.56,3.18,36.99Z"/>
  </g>
</svg>