<?xml version="1.0" encoding="UTF-8"?>
<svg id="_x2014_ÎÓÈ_x5F_1" xmlns="http://www.w3.org/2000/svg" version="1.1" viewBox="0 0 4000 4000">
  <!-- Generator: Adobe Illustrator 29.7.0, SVG Export Plug-In . SVG Version: 2.1.1 Build 60)  -->
  <rect width="4000" height="4000" fill="none"/>
  <g>
    <path d="M3833.22,2443.67c-63.81,204.5-220.7,461.8-367.89,617.24-775.62,818.97-2211.47,799.16-2965.24-39.07C-133.82,2316.89-38.16,1420.56,640.84,791.95c25.41-23.48,133.95-94.39,142.01-110.53,11.02-22.09-87.59-92.29-8.67-185.72,64.78-76.82,308.83-123.77,409.3-138.82,435.25-65.26,1503.75-87.59,1901.5,65.26,121.91,46.9,248.27,131,134.19,264.82,533.86,429.05,826.85,1074.28,614.05,1756.71Z" fill="#9bcbca"/>
    <path d="M444.11,1095.52c1044.87,7.33,2089.75,14.66,3134.62,21.99-62.41-90.56-124.97-182.71-187.6-276.46-61.2-91.61-121.02-182.56-179.49-272.81-17.12-23.56-47.43-59.42-94.86-88.26-51.11-31.08-98.44-39.64-118.21-43.03-505.62-86.59-675.21-87.81-675.21-87.81-432.22-3.12-648.34-4.67-896.93,37.32-245.19,41.42-443.77,102.1-581.07,150.76,5.23,33.5,10.47,67.01,15.7,100.51-138.98,152.6-277.97,305.19-416.95,457.79Z" fill="#deede2"/>
    <path d="M1065.61,3132c-109.42-74.25-173.62-156.6-208.87-210.44-47.25-72.17-105.72-161.5-81.66-259.12,2.17-8.82,24.73-95.74,83.23-108.36,16.94-3.65,48.36-3.55,113.07,53.4,44.91,39.52,114.57,114.09,164.9,243.42-5.54-42.3,11.23-83.81,43.97-108.36,35-26.25,83.53-29.56,116.21-10.99,52.45,29.79,54.34,110.32,56.54,204.16,1.25,53.26-2.39,128.71-25.13,218.29-22.63,30.82-47.42,43.33-61.25,48.68-62.41,24.19-142.87-3.66-201.02-70.67Z" fill="#a1a543"/>
    <path d="M1254.88,3206.55c-62.34-53.23-144.17-134.16-217.54-248.48-68.12-106.14-108.28-208.85-102.47-212.01,5.55-3.02,48.92,87.22,137.81,191.99,58.92,69.45,115.73,119.22,155.34,150.93-3.68-22.93-7.33-55.95-5.75-95.57,2.72-68.53,19.99-130.33,25.91-129.56,5.83.76-4.95,61.59,2.36,143.7,6.8,76.4,26.32,138.19,43.04,180.6-12.9,6.14-25.79,12.28-38.69,18.41Z" fill="#949536"/>
    <path d="M766.83,3143.38c45.77-16.31,111.19-33.56,190.81-35.34,130.68-2.91,231.64,37.4,285.04,63.6,18.66-19.39,139.66-141,325.08-131.92,137.39,6.73,228.78,81.23,256.77,106.01,36.95-17.55,127.41-54.27,242.63-37.69,75.9,10.92,132.37,40.63,164.9,61.25,8.82-9.92,129.64-141.52,296.82-113.07,89.24,15.19,146.96,68.37,169.61,91.87,15.13-13.13,82.56-68.72,183.74-65.96,96.38,2.63,158.79,56.45,174.32,70.67,11.74-10.63,32.98-26.81,63.6-35.34,58.43-16.27,107.44,7.48,120.14,14.13-257.67,231.62-511.53,334.37-659.59,381.62-568.44,181.38-1056.3,16.47-1222.6-42.4-271.46-96.11-469.65-231.26-591.27-327.44Z" fill="#fcc987"/>
    <path d="M1572.87,3371.49c-4.86,14.92-40.97,20.24-68.31,11.78-42.92-13.29-71.45-62.8-61.25-77.74,9.97-14.61,57.38,3.25,61.25,4.71,34.6,13.04,74.14,43.36,68.31,61.25Z" fill="#eeab58"/>
    <path d="M1703.61,3270.2c-.28-16.96,64.25-43.02,124.85-30.62,46.36,9.48,91.5,41.7,87.16,58.89-4.66,18.48-66.05,18.1-89.52,16.49-33.93-2.33-58.61-12.04-78.92-20.02-28.97-11.4-43.46-17.09-43.58-24.73Z" fill="#eeab58"/>
    <path d="M2200.26,3329.21c-1.61-19.21,69.47-54.51,129.96-36.63,29.52,8.72,61.05,31.45,57.71,45.94-5.07,22-88.96,17.89-93.05,17.67-26.45-1.44-93.1-8.83-94.62-26.97Z" fill="#eeab58"/>
    <path d="M2541.44,3264.31c-3.18-17.41,43.3-44.12,84.8-48.29,14.31-1.44,46.34-4.66,65.96,16.49,7.45,8.03,18.36,25.24,12.96,37.69-15.36,35.38-158.45,22.95-163.72-5.89Z" fill="#eeab58"/>
    <path d="M1123.72,3240.36c.98-9.7,49.72-10.54,54.18-10.6,21.52-.29,49.97-.66,60.07,16.49.49.83,6.75,11.76,2.36,18.85-13.58,21.9-118.07-10.3-116.61-24.74Z" fill="#eeab58"/>
    <path d="M1971.36,3454.85c-.22-11.91,33.57-28.94,66.74-26.3,33.4,2.66,67.55,25.38,66.74,37.8-.94,14.49-49.42,15.6-82.75,9.86-11.71-2.02-50.48-8.69-50.72-21.37Z" fill="#eeab58"/>
    <path d="M2031.05,3225.83c.59-7.64,29.02-13.12,52.61-11.78,33.2,1.89,66.6,17.87,65.17,26.3-1.38,8.16-35.37,9.65-58.89,7.07-26.6-2.92-59.54-13.21-58.89-21.59Z" fill="#eeab58"/>
    <path d="M2856.71,3287.08c-2.57-12.38,27.74-27.44,29.45-28.27,34.61-16.87,81.22-10.64,84.8,3.53,2.8,11.06-20.5,27.28-38.87,34.16-32.36,12.11-72.63,3.88-75.38-9.42Z" fill="#eeab58"/>
    <path d="M444.11,1095.52c2.02-82.66,887.58-134.27,1555.53-129.56,660.44,4.66,1563.24,67.58,1564.16,151.45.89,81.07-840.87,181.85-1639.55,168.93-705.44-11.41-1482.05-113.22-1480.15-190.81Z" fill="#b2dad3"/>
    <path d="M2015.93,869.37c-101.44,0-201.68-3.38-298.89-10.22-211.56-14.89-446.58-48.13-628.68-88.9-102.95-23.05-184.89-47.59-243.54-72.92-55.4-23.93-128.98-63.88-128.38-134.32h0c.16-18.87,6.4-47.28,35.19-75.49,78.56-76.98,313.28-126.92,496.36-155.26,245.65-38.03,534.29-58.1,792-55.08,260.37,3.06,557.21,29.62,794.04,71.04,125.77,22,226.35,46.73,298.95,73.5,65.55,24.18,152.81,65.1,153.77,141.03.26,20.47-6.36,51.4-39.32,82.52-104.46,98.61-436.45,156.6-574.33,176.96-211.03,31.16-436.82,47.13-657.16,47.13ZM848.34,563.66c27.61,18.17,104.47,55.59,306.11,97.69,169.66,35.42,383.13,64.47,571.06,77.69,309.06,21.75,660.75,6.72,964.96-41.24,300.49-47.38,427.91-104.98,466.15-132.99-36.4-24.2-146.47-66.46-387.78-105.45-222.28-35.92-495.27-59.01-730.25-61.78-260.54-3.11-550.09,17.78-794.45,57.19-249.14,40.18-358.65,84.94-395.8,108.9Z" fill="#cfe5dc"/>
    <path d="M2068.96,3723.11c-9.87,0-19.71-.08-29.59-.25-550.49-9.14-1139.53-279.28-1537.24-705.01-150.51-161.12-266.22-336.31-343.9-520.73-83.37-197.9-120.35-400.9-109.92-603.38,33.56-651.97,548.84-1098.98,768.83-1260.91,26.76-19.71,64.45-13.98,84.17,12.79,19.71,26.78,13.98,64.46-12.8,84.17-206.17,151.77-689.04,569.59-719.96,1170.14-18.39,357.2,131.32,725.03,421.57,1035.73,376.19,402.7,932.28,658.21,1451.26,666.82,8.98.15,18.05.22,26.96.22,721.01.05,1208-480.08,1261.75-535.46,387.2-398.92,559.89-876.06,486.25-1343.53-95.81-608.29-556.81-947.1-695.82-1036.45-27.97-17.98-36.07-55.22-18.09-83.19,17.98-27.96,55.21-36.08,83.19-18.09,149.67,96.2,646.04,461.2,749.64,1119,79.67,505.79-104.57,1019.36-518.78,1446.11-38.5,39.66-181.91,179.34-411.22,311.76-299.17,172.76-614.05,260.25-936.3,260.26Z" fill="#cfe5dc"/>
  </g>
</svg>