<?xml version="1.0" encoding="UTF-8"?>
<svg xmlns="http://www.w3.org/2000/svg" viewBox="0 0 598.51 717.69">
  <defs>
    <style>
      .cls-1 {
        fill: #f7f4ef;
      }

      .cls-2 {
        opacity: .15;
      }

      .cls-2, .cls-3, .cls-4, .cls-5, .cls-6 {
        mix-blend-mode: multiply;
      }

      .cls-3 {
        opacity: .1;
      }

      .cls-7 {
        fill: #794e3e;
      }

      .cls-8 {
        fill: #493431;
      }

      .cls-9 {
        fill: #775747;
      }

      .cls-10, .cls-6 {
        fill: #643c2a;
      }

      .cls-11 {
        isolation: isolate;
      }

      .cls-12 {
        fill: #aa734f;
      }

      .cls-4 {
        fill: #a0694a;
      }

      .cls-4, .cls-5 {
        opacity: .5;
      }

      .cls-13 {
        fill: #fff;
      }

      .cls-14 {
        fill: #483431;
      }

      .cls-5 {
        fill: #9e8f85;
      }

      .cls-15 {
        fill: #8c6854;
      }

      .cls-16 {
        fill: #d39979;
      }

      .cls-17 {
        fill: #ec786d;
      }

      .cls-18 {
        fill: #f8f5df;
      }

      .cls-19 {
        fill: #1e2829;
      }

      .cls-6 {
        opacity: .49;
      }
    </style>
  </defs>
  <g class="cls-11">
    <g id="Beaver">
      <g id="Tail">
        <path class="cls-7" d="M380.85,544.46c-9.1-11.75-23.83-19.5-39.68-21.01-1.2-.22-2.46-.32-3.72-.27-.14,0-.29,0-.43.01-1.3-.03-2.61,0-3.92.05-3.87-1.06-7.9-1.8-12.05-2.17-6.74-.6-13.59-.38-20.31-.17-1.1.03-2.21.07-3.31.1-68.9,15.78-113.97,5.31-143.46-8.97-46.82-22.69-71.67-63.43-107.08-55.69-20.83,4.55-32.29,23.03-36,29.03-22.24,35.87-6.81,85.55,14.15,114.44,39.74,54.81,116.22,58.13,192.71,61.45,0,0,93.4,2.59,160.06-42.82,4.76-3.24,4.82-7.9,2.47-11.54,3.46-3.42,6.57-7.06,8.61-11.1,7.89-15.64,3-37.1-8.02-51.34Z"/>
        <path class="cls-6" d="M50.79,576.52c.82.86,1.66,1.7,2.52,2.54,6.76,6.56,14.48,12.23,22.81,17.03.67.39,1.35.76,2.03,1.13,2.89,7.09,6.14,14.02,9.77,20.77.33.61,1.42.13,1.09-.48-.56-1.04-1.11-2.09-1.66-3.14-2.74-5.3-5.24-10.73-7.53-16.24,7.3,3.92,15,7.23,22.95,10.01,6.7,2.35,13.58,4.28,20.56,5.94,1.3,3.39,2.62,6.77,3.94,10.15.25.64,1.34.17,1.09-.48-1.21-3.11-2.42-6.22-3.62-9.33,2.71.63,5.43,1.21,8.16,1.76,5.41,1.07,10.88,1.98,16.37,2.78,1.8,5.3,3.82,10.53,6.06,15.66.28.63,1.37.16,1.09-.48-2.14-4.92-4.07-9.93-5.82-15,5.19.73,10.41,1.37,15.64,1.93,11.24,1.2,22.54,2.08,33.84,2.95.75.06.93-1.03.18-1.09-1.38-.11-2.76-.21-4.13-.32-11.21-.87-22.41-1.78-33.55-3.05-4.14-.47-8.27-1.02-12.39-1.6-.86-2.55-1.69-5.11-2.45-7.7-2.11-7.2-3.85-14.54-5.19-21.97,12.11,3.44,24.47,6.27,36.94,8.68,13.72,2.65,27.59,4.83,41.47,6.89.74.11.91-.98.18-1.09-1.69-.25-3.38-.5-5.07-.76-13.79-2.08-27.54-4.32-41.14-7.07-11-2.23-21.89-4.81-32.59-7.87-1.24-7.1-2.14-14.28-2.67-21.5-.4-5.49-.44-11.03-.09-16.58,7.35,2.66,14.86,4.97,22.52,6.91,12.29,3.11,24.94,5.26,37.77,6.37.75.07.92-1.02.18-1.09-1.55-.14-3.1-.28-4.65-.45-12.76-1.36-25.31-3.75-37.49-7.09-6.18-1.7-12.27-3.64-18.24-5.82.11-1.51.23-3.01.4-4.52.32-2.87.57-5.85,1.38-8.68.24-.83.49-1.66.75-2.48.13-.42.48-1.08.41-1.52-.05-.31-.44-.6-.8-.39-.56.32-.7,1.31-.89,1.82-.05.14-.03.26,0,.37-.01.04-.03.09-.04.13-.28.9-.57,1.8-.79,2.71-.42,1.67-.6,3.41-.83,5.1-.28,2.07-.51,4.14-.69,6.21-.02.28-.03.55-.05.83-5.38-1.99-10.66-4.16-15.84-6.53-6.21-2.84-12.26-5.95-18.13-9.3.25-4.22.9-8.44,2.06-12.6.12-.08.22-.19.27-.35.39-1.36.77-2.73,1.16-4.09.17-.61-.9-.81-1.12-.22-2.02,5.43-3.09,11.02-3.49,16.62-4.36-2.52-8.63-5.18-12.79-7.97-9.84-6.62-19.06-13.99-27.55-22.04.42-8.47,1.29-16.96,2.65-25.41.11-.7-1.05-.79-1.16-.09-.19,1.2-.38,2.4-.55,3.6-1.01,6.93-1.69,13.89-2.06,20.83-8.55-8.24-16.32-17.17-23.19-26.71-.41-.56-1.34.16-.94.72.85,1.17,1.7,2.34,2.58,3.5,6.45,8.55,13.65,16.58,21.47,24.03-.1,2.17-.19,4.33-.23,6.5-.19,9.65.23,19.26,1.25,28.77.46,4.27,1.05,8.51,1.75,12.74-8.45-6.74-16.13-14.3-22.73-22.67-.43-.55-1.37.18-.94.72.93,1.18,1.88,2.35,2.86,3.5,6.24,7.38,13.36,14.08,21.07,20.13.8,4.66,1.75,9.29,2.85,13.89,2.2,9.23,4.97,18.29,8.32,27.14.44,1.15.91,2.28,1.36,3.42-1.2-.68-2.39-1.38-3.57-2.1-8.17-5-15.68-10.86-22.18-17.63-.48-.5-1.42.22-.94.72ZM103.38,532.21c-.08,1.54-.12,3.09-.11,4.63.07,6.85,1,13.61,2.31,20.26,1.25,6.33,2.81,12.58,4.58,18.76-3.7-1.56-7.35-3.2-10.94-4.95-11.14-5.42-21.74-11.75-31.44-19.1-.58-.44-1.14-.89-1.71-1.33-.98-5.74-1.76-11.52-2.3-17.34-.88-9.53-1.16-19.15-.82-28.79.02-.63.07-1.27.1-1.9.57.53,1.13,1.07,1.7,1.6,8.92,8.18,18.6,15.63,28.91,22.27,3.18,2.05,6.43,4.01,9.73,5.9ZM141.12,586.71c-2.01-.58-4.02-1.15-6.01-1.77-8.01-2.5-15.89-5.31-23.57-8.5-2.05-7.09-3.83-14.26-5.17-21.54-1.32-7.18-2.17-14.61-1.86-22.05,7.05,3.99,14.35,7.63,21.86,10.89,3.98,1.72,8.02,3.33,12.11,4.84-.44,6.69-.34,13.36.26,19.96.55,6.1,1.35,12.16,2.37,18.17ZM124.25,613.16c-1.77-4.61-3.52-9.23-5.19-13.87-2.56-7.07-4.98-14.22-7.11-21.45,8.9,3.65,18.07,6.81,27.4,9.56.66.2,1.34.37,2,.56.2,1.15.4,2.31.62,3.45,1.73,8.95,4.05,17.75,6.92,26.36-6.47-.95-12.91-2.04-19.27-3.39-1.8-.38-3.58-.8-5.36-1.22ZM79.11,596.44c-1.06-2.62-2.09-5.25-3.06-7.91-3.22-8.92-5.87-18.05-7.92-27.34-.66-2.98-1.24-5.99-1.77-9,1.35,1.04,2.72,2.06,4.11,3.06,9.95,7.15,20.77,13.27,32.08,18.51,2.64,1.22,5.32,2.39,8.01,3.51.24.84.48,1.68.73,2.52,3.37,11.19,7.38,22.16,11.56,33.06-7.73-1.87-15.33-4.11-22.69-6.84-7.28-2.7-14.34-5.87-21.04-9.56Z"/>
      </g>
      <g id="feet">
        <g>
          <path id="lFoot_primaryDark" class="cls-15" d="M434.15,665.91c6.65,7.45,13.67,5.04,43.4,11.68,13.3,2.97,19.95,4.46,25.16,6.86,16.64,7.68,19.07,16.2,34.21,19.37,2.9.61,14.94,3.13,20.81-2.99.78-.82,4.61-4.81,3.62-9.24-.29-1.3-.91-2.27-1.39-2.9,21.81,5.36,30.99-9.6,16.23-20.75,4.59-2.43,6.62-5.94,6.62-9.33,0-4.34-2.95-8.19-7.02-9.4-1.47-.42-7.09-2.03-8.58-2.45-26.69-7.64-40.04-11.46-40.96-11.84-17.73-7.31-23.33-14.76-35.4-12.82-3.82.62-6.8,1.94-8.65,2.9-16.51-9.18-34.6-8.99-44.96.18-6.66,5.89-8.61,14.14-8.87,15.31-1.86,8.31-.28,18.63,5.78,25.43Z"/>
          <path class="cls-4" d="M559.79,688.74c2.5.29,4.98.81,7.48,1.12-8.23-9.17-19.37-15.73-31.76-18.48-1.28-.29-2.52.96-2.63,2.09-.13,1.37.91,2.27,2.18,2.55,9.13,2.03,17.6,6.54,24.46,12.71.09,0,.18,0,.28.01Z"/>
          <path class="cls-4" d="M576.87,667.52c.58-.66,1.3-1.17,2.11-1.44.09-.06.17-.13.26-.19-6.29-4.42-13.89-8.04-22.2-10.42-3.74-1.07-5.88,2.5-2.14,3.57,7.54,2.17,14.37,5.39,20.04,9.35.51-.3,1.07-.54,1.66-.7.06-.06.17-.11.28-.17Z"/>
        </g>
        <g id="rFoot">
          <path id="rFoot_primaryDark" class="cls-15" d="M310.27,635.47c-.44-1.11-3.65-8.96-11.15-13.74-11.67-7.45-29.56-4.81-44.44,6.83-1.98-.67-5.12-1.5-8.99-1.52-12.22-.04-16.59,8.19-32.97,18.18-.85.52-13.44,6.37-38.61,18.08-1.4.65-6.7,3.11-8.09,3.76-3.83,1.83-6.14,6.1-5.47,10.38.53,3.35,3.07,6.5,7.99,8.19-12.84,13.32-1.44,26.66,19.27,17.97-.38.69-.84,1.75-.92,3.08-.28,4.53,4.12,7.88,5.02,8.57,6.75,5.13,18.25.77,21.02-.29,14.46-5.49,15.53-14.28,30.77-24.46,4.77-3.19,11.11-5.69,23.78-10.7,28.33-11.2,35.64-9.91,41.05-18.3,4.93-7.66,4.88-18.1,1.75-26.02Z"/>
          <path class="cls-4" d="M187.13,668.81c-7.06,3.45-13.35,7.81-18.52,12.66-.49,1.74.35,2.99,1.9,3.14.22,0,.43,0,.65,0,.18-.02.36-.02.55-.07.05,0,.11,0,.16,0,4.87-4.83,10.99-9.16,17.99-12.58,3.5-1.71.76-4.85-2.73-3.15Z"/>
          <path class="cls-4" d="M211.13,685.27c-.37-1.08-1.86-2-3.04-1.43-8.49,4.1-15.81,10.09-21.45,17.33,0,.27,0,.55,0,.82.01.33.05.91.04.9.26.31.84.57,1.58.8.88-.06,1.8-.26,2.7-.52,4.99-6.22,11.37-11.41,18.63-14.92,1.18-.57,1.98-1.69,1.54-2.99Z"/>
        </g>
      </g>
      <g id="arms">
        <path id="rArm_primary" class="cls-12" d="M219.35,439.95c-.7-1.55-1.4-3.1-2.1-4.65-.8-2.07-.57-4.33.7-5.72,1.84-2.03,5.83-2.15,8.56.57-.87-1.38-2-3.51-2.7-6.3-.34-1.33-.7-3.08-.59-4.65.36-5.06,5.59-6.38,9.47-8.35,2.31-.79,3.93-2.7,4.13-4.87.17-1.89-.79-3.31-1.11-3.74-1.44-.14-3.05-.37-4.78-.74-1.66-.35-3.15-.78-4.48-1.22-7.54-5.56-15.15-12.47-23.71-19.5-5.7-4.68-10.93-9.86-15.66-15.47,43.56-22.03,83.5-50.7,118.56-84.69,7.59-7.36-2.77-18.06-10.95-13.84-.06-.19-.14-.37-.21-.56.94-3.44,0-7.26-3.42-9.33-1.18-3.26-4.03-5.9-8.46-5.9-23.09-.01-46.63,4.07-67.19,13.76-31.07,9.59-59.06,29.37-84.05,49.82-8.36,6.84-17.05,13.66-22.63,23.1-5.3,8.98-6.28,19.92-3.12,29.79.21.94.46,1.87.75,2.79,4.6,14.76,18.06,24.48,30.2,32.84,5.13,3.53,10.39,6.87,15.77,10.05,3.84,2.74,7.72,5.41,11.69,7.96,13.97,8.99,28.68,16.68,43.57,24.01.39.38,1,.87,1.86,1.14,2.11.66,4.09-.56,5.39-1.36,2.46-1.51,3.82-3.6,4.52-4.94Z"/>
        <path id="shadowElbow" class="cls-2" d="M187.62,367.13c.87-1.04.77-2.39-.15-3.35-3.72-3.87-8.98-6.02-14.32-6.08-1.24-.01-2.37,1.24-2.26,2.47.12,1.34,1.14,2.25,2.47,2.26.29,0,.59.01.88.03.02,0,.08,0,.15,0,.07,0,.17.02.2.02.55.06,1.1.15,1.64.27.54.12,1.08.26,1.61.43.16.05.31.1.47.15.02,0,.03,0,.04.01.25.1.5.2.75.31,1.02.45,1.96,1,2.89,1.6,0,0,0,0,0,0,.1.08.21.16.31.24.23.18.46.36.69.56.45.38.87.79,1.28,1.21.86.9,2.56.79,3.35-.15Z"/>
        <path id="lArm_primary" class="cls-12" d="M502.88,416.57c.35-1.66.7-3.33,1.05-4.99.33-2.19-.38-4.35-1.91-5.44-2.24-1.59-6.16-.85-8.24,2.4.55-1.54,1.2-3.86,1.28-6.73.04-1.37.02-3.16-.43-4.67-1.44-4.87-6.84-5.03-11.05-6.12-2.42-.27-4.42-1.79-5.08-3.86-.58-1.81.06-3.4.28-3.9,1.38-.45,2.9-1.02,4.5-1.75,1.54-.7,2.91-1.44,4.11-2.16,6.17-7.05,12.11-15.44,18.96-24.15,4.56-5.8,8.55-11.99,11.96-18.48-47.28-12.13-92.46-31.52-134.02-57.16-9-5.55-1.18-18.23,7.71-15.88.02-.2.05-.39.09-.59-1.66-3.16-1.56-7.09,1.33-9.85.45-3.44,2.67-6.63,6.99-7.59,22.54-4.99,46.42-6.07,68.57-1.04,32.41,2.67,64,15.96,92.81,30.55,9.64,4.88,19.59,9.67,27.07,17.69,7.11,7.63,10.42,18.1,9.47,28.42,0,.96-.05,1.92-.13,2.88-1.31,15.41-12.36,27.8-22.42,38.58-4.24,4.55-8.67,8.94-13.24,13.21-3.16,3.5-6.38,6.95-9.7,10.29-11.7,11.79-24.42,22.47-37.38,32.83-.3.46-.79,1.07-1.57,1.51-1.92,1.09-4.11.33-5.56-.17-2.73-.95-4.51-2.69-5.48-3.85Z"/>
        <g id="rHand">
          <path id="lHand_primaryDark" class="cls-15" d="M473.95,435.55c-.1-6.9,1.25-13.96,2.51-20.78,2.29-12.38,3.88-18.51,5.48-22.46,2.2-5.44,6.37-13.65,14.58-22.5,3.26-.37,6.28,1.14,7.53,3.67,1.5,3.06-.35,6.07-.52,6.34.35-.4,2.88-3.24,6.95-3.31,2.62-.05,4.47,1.08,5.14,1.53-1.05,3.44-.47,4.73.21,5.29,1.26,1.03,3.64-.83,6.78.28.49.17,1.43.51,2.21,1.29,2.51,2.55.24,6.78,1.68,7.63.71.42,2.29.03,6.03-3.11-.52,1.26-.2,2.62.75,3.39,1.21.98,3.29.86,4.62-.44.06.58.13,1.16.18,1.75.87,9.26.16,17.26-.77,23.08-.67,4.23-1.82,9.56-3.86,15.59-1.75-3.18-3.45-6.32-3.33-6.38.07-.04,1.71,4.49,3.87,4.48,3.34-.02,4.16-10.87,8.93-11.75,3.06-.57,6.54,3.18,8.09,6.22,3.92,7.68.22,20.09-9.42,25.4-7.3,4.02-15.05,2.36-17.22,1.82-.13,1.23-.53,3.07-1.81,4.85-3.53,4.9-10.66,5.09-12.58,5.14-8.25.22-13.78-4.86-15.07-6.1-5.24-.09-10.53-1.4-14.33-4.72-4.66-4.07-6.55-10.24-6.63-16.2Z"/>
          <path class="cls-2" d="M518.17,338.62c-1.07-.82-1.27-2.17-.58-3.3,2.8-4.58,7.47-7.81,12.67-9.02,1.21-.28,2.58.7,2.74,1.93.17,1.33-.63,2.44-1.93,2.74-.29.07-.57.14-.86.22-.02,0-.08.02-.14.04-.07.02-.16.05-.19.06-.52.18-1.04.39-1.55.62-.51.23-1,.49-1.48.76-.14.08-.28.17-.42.25-.02.01-.02.01-.04.02-.22.15-.45.3-.67.46-.9.65-1.7,1.4-2.48,2.19,0,0,0,0,0,0-.08.1-.17.2-.26.3-.19.23-.37.46-.55.69-.35.47-.68.96-.99,1.46-.65,1.06-2.33,1.32-3.3.58Z"/>
        </g>
        <path id="shadowArm" class="cls-3" d="M475.67,326.85c2.55-3.73,3.04-8.71-3.01-30.27-2.68-9.54-5.29-17.57-7.4-23.66.71.96,4.24,5.59,8,5,3.77-.59,5.48-6.06,7.15-11.37,2.66-8.46,4.49-14.3,1.85-18.63-6.65-10.88-37-4.65-37-4,0,.05.16.08.24.1,5.59,1.62,13.75,81.7,15.3,88.07,1.28,5.24,11.98-1.03,14.87-5.24Z"/>
      </g>
      <g id="torso">
        <path id="torsoBG_primary" class="cls-12" d="M559.26,529.49c-.36-7.34-1.93-23.67-21-61.38-6.71-13.27-16.58-31.15-30.34-51.23-16.92-60.07-36.42-119.75-59.95-177.12-24.91-56.98-16.93-26.81-76.14-26.87-27.48.66-54.04-15.95-81.36-6.25-25.73,8.81-29.95,4.45-41.32,45.73-5.9,25.7-13.08,62.93-18.76,90.51-6.94,37.65-17.72,74.73-19.24,113.33-6.53,8.42-17.98,25.44-23.65,50.49-5.27,23.28-15.13,42.82-13.24,53.49-1.22,3.28-2.27,6.94-3,10.96-1.11,6.16-2.63,14.53,1,17.54,1.23,1.02,2.76,1.18,4,1.1-.67,14.55,1.48,25.07,5.84,26.28.89.25,2.15.18,3.88-.95-.37,4.29-.41,11.14,2.28,18.5,6.89,18.91,37.77,24.95,42,26.31,20.89,6.69,45.61-3.78,63.96-25.65,13.02,6.67,34.5,15.45,62.04,16.88,37.9,1.97,66.95-11.06,81-18.63,8.09,4.96,26.88,14.75,51,12.06,26.71-2.98,52.58-20.45,65-46.04,2.54-5.23,4.08-9.89,5-13.15l4,2.19c.58-.78,3.63-5,3-10.96-.49-4.65-2.92-7.6-3.75-8.52,2,2.01,3.49,2.09,4.18,2.03,4.66-.46-1.66-10.63-1.7-15.48,1.81-7.08-4.08-11.63-4.74-25.15Z"/>
        <path id="tummyPatch_secondary" class="cls-16" d="M268.43,276.92c-2.13,12.9-2.3,13.44-6.16,36-14.72,86.03-11.54,74.6-19.86,121.44-1.89,10.65-3.59,22.02-5.31,37.97-1.84,17.06-2.9,31.79.85,50.15.83,4.03,4,18.58,12.77,35.87,4.9,9.66,13.66,26.55,30.49,40.99,20.68,17.76,42.81,22.62,57.5,25.66,11.99,2.48,53.7,10.5,96.88-10.94,10.32-5.13,28.82-14.57,43.24-34.35,9.13-12.52,14.53-26.32,18.29-35.92,3.51-8.97,6.01-15.34,7.56-24.57.74-4.4,2.96-19.57-1.54-39.17-3.83-16.66-10.5-27.75-13.9-33.94-11.91-21.7-5.79-23.6-23.98-95.19-8.23-32.39-14.58-52.1-22.36-76.05-4.17-12.83-6.56-19.13-7.66-21.52-18.67-40.54-147.22-41.07-162.06-4.18-.83,2.07-.55,2.27-4.75,27.76Z"/>
        <path id="bellyShadow" class="cls-2" d="M445.26,436.92h0c-19.83-6.34-45.17-11.6-74.48-10.84-6.86.18-13.42.67-19.63,1.39.74-.53,1.71-1.37,1.54-2.08-.33-1.41-4.9-1.46-6.44-1.48-14.68-.17-35,12-35,12-14.92,8.93-27.79,19.36-27.31,20.04.27.39,4.75-2.52,8.44-4.56,15.72-8.69,32.24-15.89,49.24-21.63-.88.99-1.77,1.97-2.69,2.92-1.06.86-2.05,1.83-2.96,2.94-.02.02-.05.05-.07.07,0,0,0,0,0,0-.86.98-1.2,1.61-1.01,1.91.41.63,3.19-.27,8.34-2.7,3.1-.58,7.69-1.36,13.29-2.01,10.58-1.23,21.97-1.66,46.71.01,11.15.76,25.39,1.96,42,4Z"/>
        <path id="neckShadow" class="cls-2" d="M450.26,229.92c1.57-10.73-1.2-20.27-2.83-24.09-16.05-37.76-192.47-44.29-241.17,37.09-13.93,23.28-17.04,53.12-10,57,7.91,4.35,22.83-27.19,55-32,16.56-2.48,19.24,4.89,54,13,19.05,4.44,47.69,11.22,81,5,18.47-3.45,34.84-6.75,48-21,11.42-12.38,14.82-26.93,16-35Z"/>
      </g>
      <g id="rHand-2" data-name="rHand">
        <path id="rHand_primaryDark" class="cls-15" d="M251.69,452.26c-1.39-6.76-4.22-13.36-6.92-19.75-4.9-11.6-7.77-17.24-10.19-20.75-3.33-4.84-9.16-11.96-19.09-18.83-3.26.34-5.89,2.46-6.56,5.21-.81,3.31,1.65,5.85,1.88,6.08-.42-.32-3.51-2.55-7.5-1.74-2.57.52-4.13,2.02-4.69,2.61,1.76,3.13,1.48,4.52.94,5.21-1.01,1.28-3.74-.02-6.56,1.74-.44.28-1.29.8-1.88,1.74-1.91,3.03,1.23,6.67,0,7.82-.6.56-2.23.52-6.56-1.74.78,1.12.76,2.52,0,3.47-.97,1.22-3.03,1.55-4.61.57.06.58.13,1.16.2,1.74,1.15,9.23,3.56,16.89,5.72,22.37,1.57,3.99,3.84,8.94,7.13,14.4,1.03-3.49,2.01-6.91,1.88-6.95-.08-.02-.7,4.75-2.81,5.21-3.27.7-6.4-9.72-11.25-9.55-3.11.1-5.7,4.51-6.56,7.82-2.18,8.35,4.11,19.67,14.67,22.78,7.99,2.36,15.21-.94,17.21-1.94.39,1.17,1.18,2.88,2.81,4.34,4.5,4.02,11.5,2.67,13.39,2.31,8.11-1.56,12.42-7.71,13.4-9.21,5.1-1.22,9.98-3.64,12.98-7.7,3.68-4.97,4.19-11.41,2.99-17.25Z"/>
        <path class="cls-5" d="M235.3,477.05c.68-.44,1.51-.72,2.51-.75.98-4.74.34-9.68-1.82-14.08-.62-1.26-2.58-.16-1.96,1.1,2.1,4.27,2.51,9.17,1.27,13.73Z"/>
        <path class="cls-5" d="M214.35,468.36c-1.62,4.49-4.76,8.36-8.77,11.09.44.6.74,1.31.89,2.05,4.62-3.02,8.22-7.43,10.07-12.56.48-1.33-1.71-1.89-2.19-.58Z"/>
      </g>
      <g id="Head">
        <g id="lEar">
          <path id="lEarOuter_primary" class="cls-12" d="M405.54,56.34c1.86-.43,3.49-1.16,4.95-2.12.85-.81,1.77-1.52,2.7-2.2,6.69-6.63,9.31-18.57,15.27-25.32,6.14-6.95,19.26-12.28,26.53-3.73,7.99,9.4-2,21.98-8.51,28.95-8.5,9.11-19.31,15.38-31.22,18.85-3.72,1.09-5.43-3.13-3.95-5.88-.61-.42-1.1-.89-1.58-1.51-.88.32-1.8.61-2.75.83-5.02,1.16-6.45-6.72-1.44-7.87Z"/>
          <path id="lEarInner_primaryDark" class="cls-15" d="M386.05,77.59c4.79-3.95,11.12-6.62,17.04-10.39,9.73-6.03,16.24-13.74,23.61-21.08,6.02-6.17,17.78-15.18,27.11-13.79,5.74,1.51,2.74,8.01.03,12.16-4.93,7.57-13.21,15.64-23.28,21.65-10.01,5.82-21.1,9.98-32.37,13.41-4.51,1.39-19.23,4.69-12.25-1.88l.09-.08Z"/>
        </g>
        <path id="headBG_primary" class="cls-12" d="M435.71,109.94c-2.83-13.37-9.58-36.69-27.26-60.08-9.87-13.06-26.92-35.8-57.11-45.46-42.87-13.73-81.6,8.63-90.07,13.53-47.85,27.62-61.5,78.54-66.99,99.03-6.04,22.51-6.78,42.11-6.34,55.6-8.25,11.21-13.07,21.55-15.98,29.35-5.44,14.58-7.83,29.85-4.44,31.31,1.57.68,3.12-1.73,8.67-2.6,2.29-.36,5.81-.92,7.25.71,2.34,2.65-3.26,8.45-5.61,19.33-1.84,8.51-1.13,17.41,1.27,18.07,2.68.73,5.49-9.34,13.32-10.57,2.45-.38,4.65.22,6.26.89-1.64,4.54-3.54,11.45-3.47,19.95.01,1.86.12,14.76,3.86,15.56,2.24.48,4.1-3.76,8.58-8.69,4.88-5.37,9.51-7.86,18.05-12.45,11.62-6.25,32.53-17.49,58.84-11.78.4.09.5.11,2.16.51,39.13,9.31,58.69,13.96,62.53,14.09,0,0,26.39.93,67.6-19.48,3.5-1.73,7.62-3.08,15.86-5.78,0,0,7.57-2.48,14.27-1.77.63.07,1.08.12,1.61.2,2.54.36,12.8,1.81,17.72,5.41,7.81,5.72,4.14,18.34,7.53,18.95,3.81.69,13.44-14.39,13.83-29.98.09-3.42-.22-9.02,1.33-9.39,1.15-.28,2.75,2.46,3.85,4.38,4.73,8.23,4.57,14.13,5.65,14.22,2.02.16,9.74-19.79,5.59-41.69-3.53-18.63-14.21-31.16-19.99-37.01-2.26-8.89-7.34-23.99-19.36-39.15-10.27-12.96-21.52-20.8-29.01-25.19Z"/>
        <path id="snout_secondary" class="cls-16" d="M399.75,113.46c13.51-7.63,55.53,16.42,66.46,54.04,7.75,26.67-2.88,49.93-5.7,55.82-15.8,33.01-49.15,44.5-62.2,48.99-3.65,1.26-17.46,5.82-36.4,6.66-11.15.49-44.26,1.32-76.76-19.5-10.02-6.42-29.02-18.96-38.33-42.8-2.96-7.57-8.39-22.01-2.9-38.1,7.3-21.38,28.55-29.73,32.88-31.43,12.5-4.91,13.59-.45,32.82-3.97,33.8-6.19,37.9-21.35,59.37-20.01,4.01.25,13.51,1.38,22.86-3.77,4.61-2.54,5.48-4.56,7.9-5.93Z"/>
        <g id="nose">
          <path class="cls-7" d="M411.12,108.5c3.91,3.13,4.84,7.76,6.04,12.49,2.48,10.34.62,19.82-2.97,28.07-5.87,13.2-23.29,16.73-35.04,17.31-23.27-.07-52.19-17.32-49.63-34.2,4.22-14.39,32.97-20.57,44.71-23.26,9.24-1.9,31.09-4.93,36.71-.54l.17.12Z"/>
          <path class="cls-10" d="M416.65,142.13c.21-.11.62-.42,1.07-4.89.32-3.24.48-4.86.19-6-.56-2.19-2.22-4.73-4.35-5.65-5.3-2.28-13.59,5.46-17.93,12.1-5.03,7.69-5.23,16.13.06,23.14,1.07,1.41,2.95,1.95,4.6,1.31,1.47-.57,2.94-1.2,4.28-2,1.64-.97,2.02-3.19.82-4.68-2.08-2.57-3.3-5.46-2.08-8.81.57-1.56,2.32-7.47,5.63-8.07,3.32-.6,5.91,4.5,7.71,3.54Z"/>
          <path class="cls-10" d="M375.25,146.39c-9.28-7.11-24.65-3.77-28.15,6.81-1.46,3.76,1.48,5.93,4.93,7.16,1.54.55,3.62,1.46,4.73.52,1.02-.82.74-3.53,1.81-5.06,2.62-3.68,9.13-2.07,11.61,1.13,2.14,2.11,2.71,6.31,4.28,8.22.85.89,2.14,1.06,3.34,1.09,3.08-.05,6.53.25,6.54-2.97-.52-6.46-3.97-12.95-8.93-16.78l-.16-.12Z"/>
          <path class="cls-10" d="M371.73,116.56c3.76-1.38,11.94-4.3,22.56-3.67,3.58.21,9.81.96,9.76,1.83-.11,1.72-24.8.55-43.83,9.04-1.83.81-4.82,2.26-4.97,2.05-.23-.35,6.89-5.71,16.48-9.24Z"/>
        </g>
        <g id="lEye">
          <g id="lEye-2" data-name="lEye">
            <path id="eyeWhite" class="cls-1" d="M400.06,101.59c6.91,1.87,11.39-6.35,11.31-12.35.17-8.45-5.77-17.39-13.14-20.89-10.43-4.67-11.77,6.74-10.12,14.5,1.39,7,4.87,16.26,11.78,18.7l.17.05Z"/>
            <path id="lLid2_primaryDark" class="cls-9" d="M386.54,64.77c6.92-2.75,14.76-1.22,20.21,3.81.99.92.67,2.72-.27,3.53-1.12.97-2.53.65-3.53-.27.25.23-.05-.04-.15-.13-.12-.1-.25-.2-.37-.3-.28-.22-.57-.43-.87-.64-.3-.2-.6-.39-.91-.57-.14-.08-.28-.16-.42-.23-.03-.02-.05-.03-.06-.03-.03-.01-.06-.03-.12-.05-.66-.3-1.32-.58-2-.8-.34-.11-.69-.21-1.04-.3-.02,0-.16-.04-.25-.06-.11-.02-.42-.08-.4-.08-.67-.12-1.35-.2-2.03-.24-.36-.02-.72-.03-1.08-.03.01,0-.3.01-.41.01-.09,0-.21.02-.23.02-.72.06-1.43.17-2.13.33-.35.08-.7.17-1.04.27.26-.07.14-.05-.05.02-.23.08-.45.17-.67.26-1.21.48-2.78.14-3.34-1.16-.5-1.17-.14-2.82,1.16-3.34Z"/>
            <path id="lLid1_primaryDark" class="cls-9" d="M391.87,103.72c-.19-.36,1.57-1.96,3.73-2.83,1.17-.47,2.23-.53,4.7-.72,3.2-.24,6.42.05,9.42,1.26,1.19.48.51,2.37-.68,1.88-2.96-1.2-6.16-1.44-9.32-1.09-1.5.17-2.98.45-4.68.85-2.12.5-3.04.88-3.16.65Z"/>
          </g>
          <path id="lEyebrow_primaryDark" class="cls-9" d="M381.97,45.32c7.33,2.95,14.84,5.03,22.67,6.18,4.43.65,3.86,7.63-.62,6.97-8.4-1.24-16.56-3.4-24.44-6.58-4.17-1.68-1.81-8.27,2.39-6.58Z"/>
          <g>
            <ellipse class="cls-19" cx="397.63" cy="86.96" rx="6.89" ry="10.77" transform="translate(-9.35 93.34) rotate(-13.23)"/>
            <path class="cls-13" d="M393.53,83.88c.05-.35.18-.68.4-.97.16-.17.31-.35.47-.52.37-.32.8-.52,1.29-.61.24-.01.49-.02.73-.03.48.04.92.2,1.31.47.08.05.16.11.23.16.31.2.54.45.71.76.23.29.37.62.42.99.08.37.07.73-.04,1.08-.05.35-.18.68-.4.97-.16.17-.31.35-.47.52-.37.32-.8.52-1.29.61-.24.01-.49.02-.73.03-.48-.04-.92-.2-1.31-.47l-.23-.16c-.31-.2-.54-.45-.71-.76-.23-.29-.37-.62-.42-.99-.08-.37-.07-.73.04-1.08Z"/>
          </g>
        </g>
        <g id="rEye">
          <g>
            <path id="rEyeWhite" class="cls-1" d="M321.12,116.2c-5.58,5.5-14.26.06-17.41-5.7-4.7-7.96-3.83-19.67,1.31-26.96,7.43-10.05,14.83.1,17.42,8.38,2.43,7.41,4.09,18.11-1.19,24.15l-.13.14Z"/>
            <path id="rLid2_primaryDark" class="cls-9" d="M314.25,73.86c-8.07,1.09-14.72,6.76-17.22,14.47-.46,1.41.82,2.95,2.15,3.22,1.59.32,2.76-.74,3.22-2.15-.12.36.02-.06.08-.21.06-.16.13-.33.19-.49.15-.36.31-.72.49-1.07.18-.35.36-.7.56-1.04.09-.15.18-.3.27-.45.02-.04.03-.05.04-.06.02-.03.04-.06.09-.12.46-.64.94-1.26,1.48-1.84.27-.29.54-.57.83-.84.02-.02.13-.12.21-.19.09-.08.35-.3.34-.29.57-.47,1.18-.91,1.8-1.31.33-.21.67-.41,1.01-.6,0,0,.29-.15.4-.21.09-.04.21-.1.23-.11.72-.32,1.45-.6,2.21-.83.38-.11.76-.21,1.14-.3-.28.07-.16.03.05-.01.26-.04.52-.08.78-.12,1.41-.19,2.72-1.36,2.56-2.9-.15-1.39-1.39-2.76-2.9-2.56Z"/>
            <path id="rLid1_primaryDark" class="cls-9" d="M328.48,116.09c.06-.48-2.76-1.39-5.71-1.32-1.6.04-2.88.46-5.88,1.41-3.89,1.23-7.55,3.05-10.51,5.77-1.18,1.08.49,2.81,1.68,1.72,2.93-2.69,6.6-4.44,10.48-5.54,1.85-.52,3.72-.91,5.91-1.27,2.74-.45,3.99-.47,4.03-.78Z"/>
          </g>
          <path id="rEyebrow_primaryDark" class="cls-9" d="M306.64,60.36c-8.79,6.15-15.32,13.33-23.38,20.82-4.57,4.24-11.1-2.36-6.49-6.64,8.65-8.04,18.04-15.02,28.19-20.83,5.37-3.07,5.52,3.96,1.68,6.65Z"/>
          <g>
            <ellipse class="cls-19" cx="313.36" cy="101.31" rx="7.54" ry="11.78" transform="translate(-15.81 91.17) rotate(-16.15)"/>
            <path class="cls-13" d="M311,100.19c-.17-.55-.2-1.1-.09-1.67.09-.27.18-.55.28-.82.26-.53.64-.97,1.13-1.31.03-.01.78-.4.82-.41,0,0,0,0,.01,0,0,0,.88-.18.89-.18,0,0,0,0,.01,0,0,0,.87.06.88.06.14.03.49.16.42.14.25.08.29.08.43.15,0,0,.72.47.73.48,0,0,0,0,.01,0,.01.01.58.64.59.66,0,0,0,0,0,0,0,0,0,0,0,.01.02.03.39.78.41.81,0,0,0,.02.01.03,0,0,0,0,0,.01,0,.01.18.88.18.89,0,0,0,.02,0,.03,0,0,0,0,0,0,0,.15-.02.29-.03.44,0,.15-.02.29-.03.44,0,0,0,0,0,0,0,0,0,0,0,.01,0,.01-.27.81-.28.82,0,0,0,0,0,.01,0,0-.47.72-.48.73,0,0,0,0,0,0,0,0-.65.58-.66.59,0,0,0,0-.01,0,0,0-.81.41-.81.41,0,0,0,0-.01,0-.03.01-.87.18-.9.18-.45.04-.88-.02-1.28-.2-.42-.11-.8-.31-1.13-.61-.36-.29-.62-.64-.79-1.06-.13-.22-.22-.45-.29-.69Z"/>
          </g>
        </g>
        <path id="rEarOuter_primary" class="cls-12" d="M155.73,66.27c4.54-13.43,21.79-13.22,33.16-10.22,7.09,1.87,13.46,5.45,18.98,10.24,5.47,4.75,11.25,10.39,14.45,17.01.42.41.78.94,1.03,1.64,1.63,4.7,2.81,9.44,1.05,14.28-.05.14-.11.28-.18.42-.04,3.02-4.83,5-7.04,1.75-.1-.15-.21-.28-.31-.42-2.1-1.64-3.94-3.52-5.86-5.33-4.15-2.48-9.14-3.61-14.01-3.91-7.73-.48-15.61,1.57-23.27.39-12.19-1.87-22.25-13.24-18-25.84Z"/>
        <path id="rEarInner_primaryDark" class="cls-15" d="M155.26,68.92c-2.73,4.84,1.62,12.36,2,13,1.15,1.93,3.99,5.89,12,9,15.35,5.96,21.48-2.13,35,3,9.72,3.69,15.02,11.07,18,9,1.57-1.09,1.42-4.06,1.04-6.4-4.9-8.26-14.42-20.97-30.62-27.53-12.97-5.25-33.11-7.73-37.43-.07Z"/>
        <g id="mouth">
          <path class="cls-14" d="M318.71,187.25c8.02,1.68,20.34,3.39,44.9.93,17.25-1.73,41.68-5.62,70.58-15.2.54-.26,1.42-.57,2.17-.2.93.45,1.19,1.67,1.29,2.13.18.84,3.6,19.3-7.52,36.7-17.22,26.93-55.07,29.38-60.8,29.3-9.91-.13-35.71-1.82-61.04-20.16-19.78-14.33-29.88-32.02-34.34-41.22-1.05,1.71-2.5,4.31-3.86,7.67-1.96,4.85-2.66,7.55-3.38,7.47-.91-.1-1.92-4.75-1.17-9.3,2.04-12.33,16.12-18.14,16.9-18.45,4.25-1.68,9.62-2.62,10.09-1.49.51,1.25-5.18,4.89-10.03,7.74,7.95,4.67,20.24,10.72,36.2,14.07Z"/>
          <path class="cls-18" d="M409.51,180.28c-1.21-.85-2.98-.52-4.41-.22-4.62,1.1-9.37,2.08-14.15,2.86-6.51,1.02-12.96,2.32-19.46,2.97-13.7.88-12.55,4.33-9.51,16.03,2.36,9.51,4.08,21.18,16.29,19.12,9.35-1.54,18.38-4.48,27.14-8.34,2.75-1.23,5.33-3.15,6.03-6.2.96-6.81-.33-14.18-.34-21.09-.09-1.7-.17-3.97-1.5-5.05l-.1-.08Z"/>
          <path class="cls-17" d="M324.34,232.46c11.93,4.63,24.98,7.66,37.85,8.5,8.65.46,20.47.93,14.69-10.72-10.85-20.62-42.16-23.13-61.86-13.19-12.01,5.61,2.67,12.41,9.12,15.33l.19.08Z"/>
          <path class="cls-8" d="M386.86,195.31c-.28-1.91,2.67-2.45,2.95-.54,1.64,11.23,3.16,22.47,4.57,33.73.24,1.91-2.71,2.46-2.95.54-1.41-11.26-2.93-22.5-4.57-33.73Z"/>
        </g>
      </g>
    </g>
  </g>
</svg>