<?xml version="1.0" encoding="UTF-8"?>
<svg xmlns="http://www.w3.org/2000/svg" viewBox="0 0 757.06 824.69">
  <defs>
    <style>
      .cls-1 {
        fill: #e0e0e0;
      }

      .cls-2 {
        fill: #1d1b1b;
      }

      .cls-3 {
        opacity: .15;
      }

      .cls-3, .cls-4, .cls-5 {
        mix-blend-mode: multiply;
      }

      .cls-4 {
        opacity: .28;
      }

      .cls-5 {
        opacity: .2;
      }

      .cls-6 {
        fill: #ec9c93;
      }

      .cls-7 {
        fill: #faf3d9;
      }

      .cls-8 {
        fill: #1d1a19;
      }

      .cls-9 {
        isolation: isolate;
      }

      .cls-10 {
        fill: #59554c;
      }

      .cls-11 {
        fill: #d7d7d7;
      }

      .cls-12 {
        fill: #383431;
      }

      .cls-13 {
        fill: #6b3938;
      }
    </style>
  </defs>
  <g class="cls-9">
    <g id="collie">
      <g id="lEar">
        <path id="lEarBG_primary" class="cls-10" d="M685.08,87.01c-.02,1.46-.24,3.69-1.24,6.17-1.5,3.69-3.92,5.92-5.21,6.95-18.73-14.74-37.45-29.47-56.18-44.21,7.09-7.17,20.05-18.46,39.38-26.45,19.22-7.94,36.27-9.12,46.33-9.07,4.4,6.67,7.61,12.41,9.75,16.46,0,0,18.72,35.47,15.93,70.99-.19,2.4-.7,6.51-3.69,8.73-3.66,2.71-9.05,1.1-11.56.35-14.92-4.46-29.47-24.22-33.51-29.91Z"/>
        <path id="lEarShadow" class="cls-4" d="M667.52,63.15c-7-6-17-9-26-6-3.48,1.39-7.43,2.79-9.86,5.86,15.56,12.25,31.12,24.49,46.69,36.74,1.29-1.03,3.72-3.26,5.21-6.95,1-2.48,1.22-4.7,1.24-6.17,1.25,1.77,3.52,4.9,6.5,8.5-1.97-13.89-14.24-23.39-23.78-31.98Z"/>
      </g>
      <g id="rEar">
        <path id="rEarBG_primary" class="cls-10" d="M540.26,59.61c-4.29-10.48-13.65-28.83-33.03-42.37-22.24-15.54-53.68-21.95-59.13-13.5-1.46,2.26-1.62,4.4,5.84,21.56,4.59,10.56,7.88,21.95,8.3,33.65.31,5.65-.07,11.44.43,16.95.63,6.44,3.08,12.64,6,18.61,6.52,12.65,18.09,27.98,33.37,29.55,7.91.81,13.98-4.05,17.23-6.38,23.13-16.6,21.35-52.66,21.01-58.09Z"/>
        <path id="rEarShadow" class="cls-4" d="M495.56,34.65c-18-11.32-35.87-10.27-41.44-9.73,4.45,10.39,7.63,21.56,8.04,33.04.31,5.65-.07,11.44.43,16.95.63,6.44,3.08,12.64,6,18.61,6.52,12.65,18.09,27.98,33.37,29.55,7.91.81,13.98-4.05,17.23-6.38,8.25-5.92,13.32-14.32,16.43-22.93-3.89-7.64-9.23-14.88-12.31-22.88-1.55-5.01-8.03-23.85-27.75-36.25Z"/>
      </g>
      <path id="lPaw_secondary" class="cls-11" d="M712.86,716.6c-7.95-39.5-14.57-87-16.22-140.93-1.69-55.45,2.29-104.48,8.11-145.18-20.59,23.81-41.19,47.62-61.78,71.43-3.24,61.38.35,133.92,19.82,212.52,3.94,15.91,8.31,31.18,13,45.79,4.19,2.11,10.51,4.96,18.53,7.34,9.79,2.89,21.72,6.42,35.91,3.47,6.79-1.41,13.73-2.85,19.31-8.82,7.86-8.42,10.24-22.91,3.86-34.42-.43-.77-7.79-13.53-22.78-15.06-8.62-.88-15.23,2.42-17.76,3.86Z"/>
      <path id="rPaw_secondary" class="cls-11" d="M570.09,554.77c-8.83,19.47-6.44,32.21,2.32,98.84,11.96,90.96,15.81,130.34,40.16,141.32,5,2.26,14.2,4.82,22.78,6.31,14.91,2.6,28.5,4.96,42.09-1.68,4.31-2.11,17.73-8.66,21.24-23.55,2.63-11.19-1.19-23.46-9.65-31.27-10.71-9.89-27.57-11.47-41.31-3.48-6.66-21.63-14.93-54.98-16.6-96.14-3.41-83.72,23.13-133.28,6.59-142.86-14.21-8.23-51.88,17.87-67.59,52.51Z"/>
      <path id="bodyshadow" class="cls-3" d="M703.48,434.52c-8.49,22.46-18.57,46.38-30.59,71.29-8.66,17.94-17.49,34.67-26.28,50.2-.9.04-1.79.07-2.69.11-.34,9.06-.68,18.13-1.02,27.19,9.91-14.44,20.3-31.25,30.34-50.49,11.34-21.73,20.01-42.29,26.67-60.67,1.19-12.54,2.38-25.09,3.56-37.63Z"/>
      <path id="body_primary" class="cls-10" d="M492.81,122.89c1.37-6.02,3.65-13.99,7.59-22.91,2.77-6.27,8.93-19.88,21.75-33.46,7.25-7.68,19.31-20.46,39.77-26.64,3.47-1.05,19.95-5.77,40.54-1.54,22.91,4.7,37.74,17.76,48.26,27.03,4.54,4,11.49,10.19,18.53,19.95,6.86,9.5,7.57,13.73,13.51,21.36,4.18,5.37,11.15,12.68,22.78,19.31-.18,1.9-.55,4.18-1.29,6.69-.65,2.21-1.43,4.11-2.19,5.66,1.4.02,6.14.28,10.42,3.86,3.77,3.15,5.02,7.06,5.41,8.49-4.38,3.73-8.75,7.46-13.13,11.2,3.91,6.25,9.49,17.03,11.44,31.46,3.13,23.18-5.09,41.18-8.69,48.07-1.8-.51-3.6-1.03-5.41-1.54-.03,4.88-.77,14.3-6.23,24.33-3.85,7.09-8.62,11.84-11.97,14.67,14.93,37.87,19.85,70.79,21.54,93.25,1.77,23.64,3.56,50.82-6.48,83.59-5.27,17.21-11.73,28.48-22.78,48.65-9.4,17.16-26.8,46.38-54.06,78.77-19.86,23.59-49.42,54.18-90.74,83.79-2.71,9.99-7.32,23.04-15.44,37.07-8.97,15.5-19.1,26.79-27.03,34.36,10.59,5.55,19.83,8.02,26.82,9.2,11.94,2.03,17.8.39,23.68,4.89,6.81,5.2,9.86,15.71,8.75,23.17-4.76,32.19-92.13,43.61-101.16,44.79-11.01,1.44-36.53,4.13-72.11.48-27.36-2.8-65.94-9.9-109.93-28.86-17.96,4.36-75.81,15.99-138.61-13.13-58.91-27.32-86.17-73.79-97.69-93.44-4.76-8.12-21.88-38.43-26.64-79.92-4.97-43.36,8.35-57.16,11.58-60.23,4.03-3.83,8.24-6.05,11.2-7.34-1.67-22.96.36-54.77,18.08-84.6,7.31-12.3,22.65-38.13,41.38-35.87,12,1.45,19.89,13.75,23.17,19.69,8.29-16.18,17.76-27.53,24.71-34.75,10.28-10.67,20.53-21.02,35.91-22.78,4.96-.57,12.97-1.49,16.99,3.09,6.43,7.33-2.25,23.19-10.42,43.24,0,0-1.37,3.36-18.43,60.18-20.25,67.44,1.18,137.31,10.71,168.4,6.64,21.63,14.12,38.9,19.69,50.58,7.1,12.85,18.39,29.74,35.91,45.95,10.01,9.27,19.89,16.31,28.57,21.62-10.13-19.14-24.13-51.43-27.8-93.44-5.02-57.46,12.1-100.83,22.01-125.1,28.56-69.96,76.47-113.95,95.76-130.12,26.86-22.53,45.94-31.17,90.41-70.66,16.86-14.97,36.59-33.69,48.59-64.09,6.06-15.35,8.33-29.08,9.27-38.61-2.49,2.73-6.65,6.62-12.74,9.65-4.46,2.22-7.52,3.74-9.65,2.7-5.69-2.78-1.43-22.25.21-29.12,1.34-8.31,2.69-16.62,4.03-24.93-1.26-3.94-2.95-10.97-1.93-19.69.85-7.23,3.22-12.79,5.02-16.22-2.1.61-6.47,1.52-10.68-.51-1.34-.65-2.88-1.39-3.2-2.8-.59-2.55,3.21-5.45,6.29-7.76,6.33-4.74,9.92-4.93,10.04-6.95.13-2.35-4.67-2.84-9.52-7.98-3.27-3.46-6.89-9.38-5.15-12.16,1.47-2.34,5.76-.88,11.32-1.48,5.03-.54,11.8-2.85,19.43-10.55Z"/>
      <path id="headpatch_secondary" class="cls-11" d="M618.89,58.65c-.42-3.93-1.56-10.09-5.24-17.51-5.58-2.03-13.69-4.3-23.69-4.86-9.94-.55-18.21.79-23.96,2.18-3.03,9.96-2.39,17.36-1.43,22.01,4.13,19.94,19.43,25.53,20.86,42.08.78,9.03-2.5,11.97-1.41,28.61.72,11.02,2.46,14.43,4.6,16.78,6.1,6.71,18.66,8.27,24.1,2.98,2.87-2.79,3.05-6.8,2.57-17.11-.83-17.83-2.22-23.72-2.57-31.27-.94-20.07,8.09-25.9,6.18-43.9Z"/>
      <path id="tummy_secondary" class="cls-11" d="M684.37,278.88c3.38-2.99,8-7.77,11.97-14.67,4.37-7.6,6.15-14.66,6.95-19.31.95-.08,2.54-.08,4.06.76,5.14,2.84,4.17,12.38,5.98,12.55,1.57.14,3.31-6.66,3.31-6.66,4.67-18.29,3.45-33.5,3.45-33.5-.42-5.19-1.33-12.33-3.5-20.73-21.02-4.68-38.63-19.7-55.69-35.27-14-12-35-3-54,1-15,3-24-7-37-10-20.77-4.79-37.35,10.95-43,15-17.86,12.79-25.29,29.2-32.04,44.08-10.35,22.83-12.74,43.71-11.17,44.24.42.14,1.76-.94,3.47-2.32.53-.43,1.01-.85,1.45-1.25-1.61,10.34-4.48,22.7-9.65,36.1-2.9,7.51-6.09,14.2-9.27,20.08.85.75,2.2,1.97,3.77,3.56,3.68,3.74,5.99,6.91,6.43,7.51,4.6,6.14,17.71,13.43,22,17,12,10,24,19,36,29,6,5,13,12,13,18,3,42-3,84-21,123-4,10-1,22-5,32-15,36-51,61-91,68-4,0-8,4-12,6-4,1-8,1-12,3-23,7-44,26-38,53,5,17,18,31,14,50-4.83,22.93-8.9,30.29-12,62-1.71,17.46-.21,31.87,1.2,40.91,17.68,2.1,43.2,3.92,73.74,1.71,34.49-2.49,114.76-7.95,127.03-46.33.34-1.06,5.38-17.62-3.09-30.5-9.15-13.93-28.69-15.35-40.54-16.22-17.89-1.3-32.81,3.29-42.86,7.72,7.92-7.58,18.05-18.86,27.03-34.36,8.12-14.03,12.73-27.08,15.44-37.07,28.17-17.86,62.67-44.47,95.05-83.09,22.75-27.13,55.89-66.87,72.52-128.11,11.41-41.99,9.94-74.99,9.53-82.43-2.32-42.32-15.2-75.08-24.59-94.41Z"/>
      <path id="tailfluff_secondary" class="cls-11" d="M117.37,608.02c1.65-3.5,2.47-6.65,2.9-8.88,1.8,1.37,11.95,8.82,24.17,6,3.94-.91,7.02-2.64,9.19-4.18-7.51-51.61-1.39-90.41,5.7-116.48,13.13-48.24,40-91.11,26.13-103.48-4.51-4.02-11.85-3.69-17.11-3.09-15.49,1.77-25.81,12.11-36.17,22.78-7,7.21-16.54,18.57-24.89,34.75-3.3-5.94-11.25-18.24-23.33-19.69-18.87-2.26-34.32,23.57-41.68,35.87-17.84,29.83-19.89,61.63-18.21,84.6-2.98,1.28-7.21,3.5-11.28,7.34-3.26,3.07-16.67,16.87-11.67,60.23,1.22,10.57,3.25,20.41,5.68,29.34,13.13,5.45,27.59,7.12,40.96-.99,7.05-4,15.11-13,14.1-23,3.01,3.47,9.62,10.03,20.14,13,4.26,1.2,16.84,4.76,26.19-2,5.25-3.8,8.12-9.86,9.19-12.12Z"/>
      <g id="rEye">
        <path id="reyewhite" class="cls-1" d="M554.85,108.19c-9.11,4.11-12.71,19-9.55,28.09,5.09,13.7,16.18,3.57,19.28-8.25,2.52-7.18,1.96-23.6-9.57-19.9l-.15.06Z"/>
        <path id="reyepupil" class="cls-8" d="M556.1,115.23c-5.13,2.91-6.44,11.85-4.09,17.02,3.73,7.77,9.7,1.22,10.88-5.89,1.09-4.35-.13-13.97-6.7-11.17l-.09.05Z"/>
        <path id="reyeshine" class="cls-1" d="M556.76,120.73c-1.79,1.97-1.34,4.48.2,5.17,2.39.99,4.12-2.08,3.82-4.11-.03-1.33-1.6-3.39-3.99-1.09l-.03.03Z"/>
      </g>
      <g id="lEye">
        <path id="leyewhite" class="cls-1" d="M639,104.33c9.11,4.11,12.71,19,9.55,28.09-5.09,13.7-16.18,3.57-19.28-8.25-2.52-7.18-1.96-23.6,9.57-19.9l.15.06Z"/>
        <path id="leyepupil" class="cls-8" d="M637.76,111.37c5.13,2.91,6.44,11.85,4.09,17.02-3.73,7.77-9.7,1.22-10.88-5.89-1.09-4.35.13-13.97,6.7-11.17l.09.05Z"/>
        <path id="leyeshine" class="cls-1" d="M637.1,116.86c1.79,1.97,1.34,4.48-.2,5.17-2.39.99-4.12-2.08-3.82-4.11.03-1.33,1.6-3.39,3.99-1.09l.03.03Z"/>
      </g>
      <path id="rEyebrow" class="cls-12" d="M560.05,87.03l-23.68,18.15c-.64.21-1.43.38-1.8,0-1.1-1.12,2.36-6.17,3.36-7.64,5.16-7.54,15.82-18.89,20.19-16.43.97.54,1.98,1.96,1.93,5.92Z"/>
      <path id="lEyebrow" class="cls-12" d="M627.2,85.75c9.26,3.62,18.52,7.25,27.78,10.87.67.03,1.48-.03,1.73-.5.75-1.38-3.98-5.28-5.35-6.41-7.05-5.81-20.44-13.76-23.96-10.19-.78.79-1.35,2.43-.21,6.22Z"/>
      <g id="mouth">
        <path id="mouth-2" data-name="mouth" class="cls-13" d="M536.42,208.85c-.28-10.47,6.45-8.1,12.99-4.75,9.42,4.58,33.04,11.67,47.55,2.1,1.84-1.26,3.36-3.95,5.77-4.82,2.98-1.23,5.36,1.2,7.42,2.69,4.92,3.07,18.42,4.56,29.04-.29,4.44-2.06,8.17-4.62,12.32-7.39,4.1-2.8,4.87-3.56,7.14-5.23,1.52-1.11,2.63-1.58,3.59-1.3,1.58.46,2.12,3.03,2.29,3.85,4.36,20.77-3.6,39.58-3.6,39.58-5.72,13.51-12.73,30.08-30.94,38.64-21.2,9.97-42.2,1.86-46.94.03-37.92-14.65-46.1-59.9-46.63-63.12Z"/>
        <ellipse id="tongue" class="cls-6" cx="606.59" cy="261.12" rx="34.56" ry="12.22" transform="translate(-19.01 49.55) rotate(-4.61)"/>
        <path id="topteeth" class="cls-7" d="M548.08,203.12c.5,2.77,1.28,5.95,2.51,9.37.83,2.31,1.73,4.38,2.64,6.22,0,0,3.35,6.56,8.69,9.56.42.23,1.21.65,2.12.48,2.83-.5,3.77-5.94,3.86-6.47,9.95,1.73,24.77,3.04,42.19-.15,11.09-2.03,20.32-5.35,27.41-8.54.28,1.01.8,2.48,1.83,4.05.97,1.48,1.91,2.92,3.28,3.09,1.66.21,3.12-1.55,3.76-2.32,4.35-5.21,7.52-20.97,8.24-24.71-13.13,9.87-26.18,13.55-33.01,12.61-3.25-.45-10.24-1.41-12.81-3.72-.36-.33-1.8-1.72-3.86-1.88-.21-.02-.88-.05-1.71.15-2.36.59-3.79,2.56-4.08,2.93-2.47,3.18-12.39,5.82-19.76,6.37-8.54.65-15.05-1.39-22.14-3.6-3.83-1.2-6.95-2.47-9.17-3.47Z"/>
        <path id="botteeth" class="cls-7" d="M565.3,262.28c1.7-3.87,3.01-6.74,3.54-7.85.07-.15.23-.48.58-.64.84-.41,2.05.49,2.51.84,2.37,1.77,2.9,6.02,3.02,7.27,5.95,2.44,16.6,5.91,30.18,5.47,15.9-.51,27.71-6.11,33.53-9.38,1.01-2.44,1.93-4.44,2.64-5.93.32-.67.48-.99.84-1.2,1.96-1.14,6.35,3.14,7.92,4.74-2.52,4.15-7.83,11.65-17.31,17.44-6.77,4.13-12.88,5.7-15.7,6.31-15.2,3.25-27.52-1.67-31.97-3.51-9.21-3.82-15.69-9.32-19.77-13.54Z"/>
      </g>
      <g id="nose">
        <path id="nosebg" class="cls-12" d="M555.03,159.75c3.14-22.52,45.99-25.77,64.27-22.37,8.29,1.55,14.51,3.8,19.06,9.01,8.56,9.49,4.08,25.63-3.77,34.81-9.33,11.46-23.54,15.05-38.11,14.14-11.8-.83-24.15-4.45-32.69-12.89-5.55-5.55-9.89-14.21-8.79-22.51l.02-.18Z"/>
        <path id="rnostril" class="cls-2" d="M566.83,185.12c4.43,3.62,8.58,5.27,11.78,6.51,4.66,1.81,8.79,2.62,11.77,3.02,1.44-2.3,3.49-6.37,3.47-11.53-.05-11.69-10.74-23.47-23.12-23.87-7.73-.25-13.5,4.01-15.74,5.88.25,1.76.77,4.27,1.92,7.1,2.88,7.05,7.71,11.09,9.91,12.89Z"/>
        <path id="lnostril" class="cls-2" d="M609.54,194.79c2.29-.02,5.68-.29,9.51-1.57,8.3-2.79,13.03-8.46,15.37-11.34,5.75-7.08,7.61-14.47,8.29-18.42-2.24-1.4-6.28-3.47-11.55-3.75-9.5-.5-21.02,4.94-24.48,15.59-3.11,9.56,1.98,18.06,2.86,19.5Z"/>
      </g>
      <g id="bodyshadows">
        <path id="_15" data-name="15" class="cls-5" d="M568.93,296.26c-.52,1.36,14.43,12,33.85,13.56,24.16,1.93,44.12-11.1,43.65-12.53-.42-1.27-16.67,7.16-41.29,6.15-21.64-.88-35.72-8.48-36.2-7.19Z"/>
        <path id="_14" data-name="14" class="cls-5" d="M540.43,190.24c-.17-.67-10.31-1.54-15.53,4.82-5.69,6.92-1.81,17.84-1.03,17.83.73,0-1.37-9.52,4.38-16.22,4.85-5.66,12.33-5.85,12.19-6.44Z"/>
        <path id="_13" data-name="13" class="cls-5" d="M46.88,583.93c-1.14-5.66-17.44-38.58-21.73-47.21,3.93,15.01,12.95,48.02,17.8,50.3.66.31,2.53,1.19,3.51.42.98-.77.57-2.79.42-3.51Z"/>
        <path id="_12" data-name="12" class="cls-5" d="M113.42,566.39c-3.06-14.68-5.26-93.15-5.43-103.52-.11-6.96-.17-14.82-.17-14.82-.03-4.72-.05-12.11-.05-12.11,0,0,0,.03-.02.07-.01.04-1.97,7.65-2.05,7.98-4.3,16.99-4.63,59.58-4.63,59.58s-.42,53.71,9.28,65.27c.57.68,2.26,2.7,3.08,2.31.95-.45.18-3.91,0-4.77Z"/>
        <path id="_11" data-name="11" class="cls-5" d="M527.76,810.09c1.14,1.57,3.38.13,4.38-1.02,2.98-2.59,4.56-18.98-.32-20.57-3.43.01-2.86,6.23-3.04,8.81-.06,2.19-.25,4.39-.68,6.5-.58,2.72-1.15,5.01-.4,6.19l.06.09Z"/>
        <path id="_10" data-name="10" class="cls-5" d="M554.36,799.65c1.02,1.26,2.92-.1,3.94-.87,7.55-5.4,7.51-30.06-4.2-33.61-2.74.28.18,5.17.86,6.84,1,2.03,1.8,4.13,2.18,6.26,1.01,5.47.19,10.9-1.69,15.83-.49,1.69-1.76,3.86-1.14,5.49l.04.06Z"/>
        <path id="_9" data-name="9" class="cls-5" d="M640.85,800.65c1.04,1.05,3.04,1.7,4.06.35.82-1.07.27-3.61-.21-5.87-.53-2.3-1.1-5.06-2.53-6.67-2.88-2.91-5.02.45-4.21,3.59.73,2.67.97,6.48,2.76,8.47l.13.13Z"/>
        <path id="_8" data-name="8" class="cls-5" d="M670.63,800.44c1.45,1.1,2.91-.28,3.35-1.7,1.75-5-4.12-19.79-10.23-20.43-4.14.47.26,6.86,1.39,8.99,1.11,1.97,1.95,4.02,2.53,6.15.8,2.93,1.1,5.44,2.85,6.92l.1.08Z"/>
        <path id="_7" data-name="7" class="cls-5" d="M690.07,789.48c.81.43,1.88-.6,2.38-1.47,3.89-6.69-.66-16.1-6.33-20.68-1.8-1.8-8.43-3.68-6.56.89,1.45,2.82,4.24,4.77,5.93,7.63,1.09,1.77,1.83,3.74,2.31,5.77.76,2.39.4,6.17,2.19,7.81l.08.04Z"/>
        <path id="_6" data-name="6" class="cls-5" d="M721.4,770.7c2.24.8,3.3.57,3.83.08,1.83-1.68-.06-8.69-3.95-9.82-.35-.1-1.79-.52-2.56.22-1.87,1.78,2.05,8.46,2.68,9.53Z"/>
        <path id="_5" data-name="5" class="cls-5" d="M743.24,765.99c.12,0,.32-.02.54-.07,0,0,1.51-.32,2.65-1.94,1.44-2.06-1.91-7.89-5.88-13.62-1.24-1.79-7.67-7.58-8.35-3.14,1.67,1.93,3.44,4.21,5.15,6.88,2.78,4.33,4.63,8.44,5.89,11.89Z"/>
        <path id="_4" data-name="4" class="cls-5" d="M754.69,752.34c.47-.8,1.06-2.04,1.32-3.65.75-4.67-2.04-8.19-2.59-8.88-.58-.74-3.34-4.23-6.78-3.95-.53.04-1.28.1-1.53.58-.62,1.21,2.75,3.52,5.33,6.84,1.48,1.9,3.2,4.78,4.23,9.06Z"/>
        <path id="_3" data-name="3" class="cls-5" d="M566.33,617.62c1.1,7.73,2.61,14.08,3.81,18.52.61-7.66.85-16.18.44-25.41-.25-5.47-.7-10.65-1.29-15.5-1.7-13.63-2.66-16.5-3.22-16.47-1.43.08-2.55,19.23.26,38.87Z"/>
        <path id="_2" data-name="2" class="cls-5" d="M435.44,574.5c-8.49-3.15-15.75-3.11-21.19-3.03-53.49.77-87.45,57.09-93.1,66.76-10.76,22.78-21.73,55.53-20.08,93.81.31,7.23,1.68,16.98,3.09,16.99,3.22.02-4.58-50.62,16.6-97.05,18.44-40.42,60.66-81.61,99.62-75.55,3.07.48,14.31,2.37,24.69,10.88,46.23,37.91,29.54,169.62,28.97,172.43-.1.51-.04.95.14,1.31,0,0,.77.86,4.03-.6,6.84-3.07,23.2-161.48-42.78-185.95Z"/>
      </g>
    </g>
  </g>
</svg>