<?xml version="1.0" encoding="UTF-8"?>
<svg xmlns="http://www.w3.org/2000/svg" viewBox="0 0 590.34 436.15">
  <defs>
    <style>
      .cls-1 {
        fill: #918d8c;
      }

      .cls-2 {
        fill: #dba39e;
      }

      .cls-3, .cls-4, .cls-5, .cls-6 {
        mix-blend-mode: multiply;
      }

      .cls-3, .cls-7 {
        opacity: .25;
      }

      .cls-4 {
        opacity: .26;
      }

      .cls-5 {
        opacity: .23;
      }

      .cls-6 {
        opacity: .2;
      }

      .cls-8 {
        fill: #f7edd7;
      }

      .cls-9 {
        fill: #666066;
      }

      .cls-10 {
        isolation: isolate;
      }

      .cls-11 {
        fill: #e2c2bb;
      }

      .cls-12 {
        fill: #736e6e;
      }

      .cls-13 {
        fill: #acaaa9;
      }

      .cls-14 {
        fill: #fff;
      }

      .cls-15 {
        fill: #4c3a3b;
      }

      .cls-16 {
        opacity: .13;
      }

      .cls-16, .cls-7, .cls-17 {
        mix-blend-mode: overlay;
      }

      .cls-17 {
        opacity: .24;
      }

      .cls-18 {
        fill: #928d8c;
      }

      .cls-19 {
        fill: #f6e4b1;
      }

      .cls-20 {
        fill: #fcfcfc;
      }
    </style>
  </defs>
  <g class="cls-10">
    <g id="Elephant">
      <g id="rFoot">
        <path id="rFoot_primary" class="cls-13" d="M363.78,326.25c-1.26,2.58-2.73,13.58-5.66,35.58,0,0-.56,4.24,0,10.89.35,4.17.9,5.67,1.72,6.88,1.98,2.93,5.34,3.91,7.38,4.43,12.87,3.28,29.17,2.8,31.97,2.7,9.05-.31,14.9-.79,21.64-3.44,4.15-1.63,6.68-3.32,8.36-5.9,2.69-4.13,2.06-8.82,1.72-11.8,0,0-.63-5.5-.74-31.47-.08-18.18,3.87-20,1.08-24.1-8.81-12.92-56.16-6.87-67.47,16.23Z"/>
        <path class="cls-7" d="M430.08,317.24c-4.33-10.5-49.12-9.18-64.98,12.68-3.72,5.12-4.11,11.54-4.11,11.54-.85,2.05-1.41,4.49-.33,6.36,5.99,10.34,59.72-1.33,68.98-25.43.8-2.08,1.04-3.67.44-5.13Z"/>
        <path class="cls-19" d="M358.04,375.4c-.14-.82-.26-1.78-.28-2.85-.03-1.06.04-2,.13-2.82.15-.33.69-1.43,1.92-1.95,1.45-.62,2.83,0,3.15.14,2.57,1.15,3.17,4.71,3.44,6.27.69,4.06-.61,7.49-1.49,9.31-1.04-.38-4.11-1.67-5.83-4.92-.62-1.17-.91-2.29-1.04-3.17Z"/>
        <path class="cls-19" d="M370.35,384.77c-.08-1.55-.41-10.19,3.99-14.7.7-.71,1.99-2.04,4.01-2.33,2.45-.35,4.41,1.03,4.97,1.43,3.02,2.14,3.8,5.69,4.5,8.96.42,1.94.82,4.86.47,8.46-3.44.2-7.56.13-12.14-.59-2.09-.33-4.03-.76-5.8-1.23Z"/>
      </g>
      <g id="rArm">
        <path id="rArm_primary" class="cls-13" d="M166.06,243.85c-2.76,3.43-1.92,10.44-2.21,15.15-.12,14.07-1.43,26.15-3.18,36.25-6.46,29.57-10.94,59.76-16.35,89.56-.65,3.43-1.26,7.05-1.31,10.48-.69,12.32,9.13,18.63,19.71,21.61,8.14,2.56,15.4,2.89,24.42,2.12,10.46-1.12,23.11-1.51,30.87-9.4,4.36-4.64,6.54-11.21,7.09-17.41.4-6.11-.29-11.37.48-17.84,1.27-14.37,5.01-29.95,7.51-43.91,1.7-9.88-3.37-18.77-9.93-25.86-16.4-18.75-32.73-37.62-49.19-56.3-2.04-2.17-5.44-6.01-7.84-4.5l-.08.06Z"/>
        <path class="cls-7" d="M230.52,329.52c-7.88-18.24-45.05-37.25-46.82-53.22-.47-4.23-2.64-8.03-6.23-9.79-1.33-.65-2.97-.82-4.6-1.03-1.52-.2-5.95-.78-7.51,0-3.88,1.94-2.72,18.13,4.67,33.64,0,0,16.17,33.92,53.03,40.33,1.79.31,6.33,1.1,8.2-1.23.6-.74,1.79-2.86-.74-8.69Z"/>
        <path class="cls-6" d="M167.98,354.85c-7.36-2.51-11.1-4.62-11.49-3.97-.43.71,3.35,4.43,8.05,6.76,8.9,4.4,18.92,2.69,19.02,1.64.07-.76-5.11-.85-15.57-4.43Z"/>
        <path class="cls-6" d="M178.49,370.68c-6.84-.6-12.23-1.95-16.08-3.17-5.58-1.77-10.3-4.02-10.7-3.41-.35.54,2.94,2.86,3.29,3.12,1.35.97,9.09,6.34,19.59,5.59,2.74-.2,6.35-.86,6.34-1.41,0-.33-1.31-.57-2.44-.72Z"/>
        <path class="cls-19" d="M143.13,401.48c-.16-.92-.28-1.99-.3-3.2-.02-1.19.05-2.25.17-3.16.17-.37.79-1.6,2.17-2.18,1.64-.69,3.18.01,3.54.18,2.93,1.33,3.57,5.47,3.81,7.06.77,4.99-1.25,9.12-2.37,11.04-1.05-.64-4.27-2.73-5.88-6.16-.76-1.62-1.13-3.47-1.15-3.57Z"/>
        <path class="cls-19" d="M155.15,414.26c.03-1.63.32-10.11,5.03-14.34.76-.68,2.16-1.93,4.22-2.09,2.51-.19,4.4,1.35,4.95,1.79,3.32,2.7,3.74,7.04,3.96,9.39.41,4.46-.83,8.08-1.78,10.18-3.04-.2-7-.81-11.32-2.51-1.91-.75-3.6-1.59-5.05-2.43Z"/>
        <path class="cls-19" d="M176.49,419.5c-.3-2-1.14-9.02,2.42-13.75.76-1.01,1.93-2.51,3.93-2.88,2.31-.42,4.14.95,4.32,1.09.9.7,1.3,1.54,2.09,3.23.39.84.92,2,1.27,3.54.03.15.2.88.3,1.83.26,2.41-.05,4.73-.37,6.35-2.09.3-4.4.53-6.9.64-2.55.11-4.92.07-7.06-.05Z"/>
      </g>
      <path id="body_primary" class="cls-13" d="M572.89,340.31c-12.56-23.85-20-43.24-21.81-48.04-8.6-22.78-12.8-41.38-20.84-77.65-6.68-30.13-7.13-36.1-9.31-46.82,0,0-1.33-6.36-2.81-12.4-12.14-49.53-33.99-80.24-33.99-80.24-29.15-40.96-68.37-57.94-77.37-61.64C379.24,2.24,355.76.95,344.08.41c-16.73-.77-42.96-1.71-72.63,10.16-40.15,16.07-62.09,45.91-70.46,57.32-8.01,10.92-17.66,32.97-36.94,77.05-5,11.42-9.29,21.72-11.4,36.35-1.09,7.62-2.3,21.32,2.68,49.1,6.14,34.27,9.26,51.66,20.88,69.34,18.09,27.5,44.54,37.09,57.82,40.59,22.76,6.45,53.79,12.31,90.55,10.85,53.01-2.1,94.8-18.5,120.7-31.43,15.67-8.78,39.46-25.34,59.18-55.08,7.2-10.85,12.55-21.48,16.55-31.05,1.65,6.66,4.07,16.11,7.27,27.37,4.42,15.58,7.33,25.8,12.05,37.92,2.91,7.48,7.53,19.34,15.1,31.91,6.19,10.28,17.01,25.48,34.9,39.66-4.94-7.79-11.01-17.94-17.45-30.17Z"/>
      <path id="tailshadow" class="cls-5" d="M523.51,184.04c-.34,10.14-.5,20.86-.41,32.09.07,9.09.3,17.83.65,26.18.78-3.82,1.23-6.98,1.49-9.1,1.87-15.08.59-28.01-.75-40.82-.38-3.6-.75-6.52-.99-8.35Z"/>
      <g id="head">
        <path id="rEar_primary" class="cls-13" d="M168.5,66.59c-1.93-3.91-10.72-20.68-29.07-25.79-20.23-5.64-37.6,6.95-46.38,13.32-20.69,15-27.8,36.08-30.6,44.77-9.54,29.66-1.9,55.11,1.41,65.6,1.88,5.96,9.62,28.82,30.44,48.76,9.23,8.84,16.94,16.03,28.99,17.63,18.4,2.44,33.3-10.17,37.51-13.99,2.57-50.1,5.13-100.19,7.7-150.29Z"/>
        <path id="rinnerEar_secondary" class="cls-11" d="M161.83,88.66c-1.15-2.96-6.46-15.71-19.46-20.6-14.34-5.39-27.76,2.63-34.55,6.69-16,9.57-22.52,24.43-25.1,30.56-8.84,20.94-4.92,39.92-3.19,47.75.98,4.45,5.14,21.56,18.98,37.38,6.14,7.02,11.28,12.73,19.93,14.67,13.21,2.96,24.85-5.25,28.15-7.76,5.08-36.23,10.17-72.46,15.25-108.69Z"/>
        <path class="cls-17" d="M246.33,65.04c-32.09-24.58-85.36-8.61-107.41,19.18-5.86,7.39-9.67,15.77-16.71,32.78-9.95,24.05-12.61,38.89-13.63,45.73-.6,4.05-.95,7.41-1.15,9.68-4.88,9.56-7.23,17.8-8.46,23.44-.95,4.34-4.23,19.33.33,21.8.66.36,1.86.65,2.9.23,2.2-.88,2.32-4.58,2.82-6,1.88-5.38,1.53-9.36,4.32-16.54,2.55-6.55,7.24-13.41,8.14-20.45,1.19-9.31-1.77-10.52-.37-19.5,1.41-9,4.69-8.34,8.9-20.48,4.35-12.55,2.08-16.84,7.63-25.87.4-.65.39-.59,2.93-3.55,1.71-2,4.63-5.44,4.94-5.8,5.46-6.32,112.8,24.71,125.98,6.94,6.16-8.31-6.16-30.13-21.15-41.61Z"/>
        <path class="cls-16" d="M390.58,109.72c-1.24-4.8-13.52-49.51-49.63-60.92-3.98-1.26-17.3-5.28-32.5-.3-21.22,6.95-36.69,28.13-40.33,54.65,2.22-4.47,9.98-18.7,26.82-25.8,20.24-8.53,43.57-2.47,57.49,11.16,10.95,10.72,15.06,25.9,15.48,40.85,1.44,32.1-4.45,59.47-23.21,85.77-14.72,21.33-30.51,43.32-52.61,57.26-10.12,6.5-20.12,8.22-28.93,6.02-12.88-3.21-22.86-15.29-26.14-27.21-4.25-15.42,3.17-28.96-.85-30.79-2.01-.91-4.14,2.32-13.18,8.23-8.33,5.44-11.34,4.6-16.04,8.8-2.86,2.55-5.97,6.46-8.17,12.63,4.05-.65,9.56-1.98,15.58-4.91,7.74-3.77,13.05-8.58,16.22-11.96-.1,6.77.6,17.7,5.57,29.83,2.13,5.2,10.25,24.99,23.82,30.65,28.97,12.1,76.49-45.9,83.03-53.88,21.29-26,61.76-75.4,47.57-130.1Z"/>
        <path id="headbg_primary" class="cls-13" d="M268.85,100.41c-1.5-5.68-4.64-14.53-11.67-22.96-18.12-21.73-50.38-26.69-74.61-19.39-17.94,5.4-29.1,16.18-32.41,19.51-10.43,10.52-16.41,25.27-27.94,54.36-5.93,14.96-8.75,22.5-9.53,26.82-6.96,38.95,17.19,69.21,18.27,70.52,5.79,7.02,15.24,18.48,31.03,23.13,24.09,7.09,52.61-4.73,73.42-29.03-1.3,5.68-3.61,19.38,2.32,34.72,1.29,3.33,9.04,23.34,24.38,28.38,21.04,6.9,45.39-17.97,57.88-30.73,3.3-3.37,5.68-5.92,6.18-6.5,5.31-6.02,75.11-85.14,48.6-149.78-7.12-17.36-27.17-48.27-55.99-46.56-21.46,1.27-41.58,20.25-49.93,47.51Z"/>
        <path class="cls-6" d="M137.67,199.45c.32,15.13-2.44,20.13-5.22,21.72-1.01.58-2.84,1.17-3.33,2.95-.74,2.7,1.72,6.81,3.79,6.77,2.6-.05,3.21-6.66,8.28-20.96,4.71-13.27,8.22-18.96,6.63-20.1-1.39-1-5.95,2-8.37,5.66-.98,1.48-1.5,2.91-1.79,3.97Z"/>
        <path class="cls-3" d="M134.88,144.79c-14.28,6.8-20.56,20.38-20.56,20.38-1.62,3.51-2.45,6.68-2.89,8.97.85,1.64,1.85,1.96,2.16,2.03,1.96.48,4.8-1.67,6.17-5.75,1.62-2.51,6.48-9.36,15.8-13.01,6.69-2.62,12.29-1.7,23.65-.2,22.82,3.02,34.22,4.54,34.44,3.91,1.05-2.97-34-28.13-58.78-16.33Z"/>
        <path id="snoutshadow" class="cls-1" d="M10.46,210.93c-1.07,0-1.86,1.24-2.96,2.95-2.96,4.62-2.99,9.11-3.28,12.79-.96,12.19-4.88,16.09-2.73,17.87,2.46,2.05,9.83-.99,13.6-6.15,7.25-9.94-.6-27.47-4.62-27.46Z"/>
        <path id="nose_primary" class="cls-13" d="M177.02,152.47c-12.68-5.48-23.85-10.11-36.14-6.28-7.53,2.35-12.9,6.94-15.78,9.54-8.15,7.36-12.66,15.28-14.9,19.99-16.48,34.65-19.21,100.76-36.37,104.01-4.84.92-9.89-3.3-11.98-5.15-6.22-5.5-6.41-11.5-10.56-26.14-3.87-13.63-5.8-20.44-9.71-25.2-8.14-9.92-18.93-12.22-24.79-13.46-3.85-.82-6.72-.86-8.84.77-2.35,1.8-3.48,5.39-2.48,8.15,1.15,3.16,4.18,2.72,7.16,6.78.6.82,3.85,5.25,2.12,8.26-1.24,2.15-4.75,3.1-7.37,2.6-2.23-.43-3.14-1.78-4.66-1.29-1.55.5-2.16,2.4-2.36,3.02-.58,1.81-.61,4.78,1.13,6.46,1.16,1.12,2.85,1.42,15.24.51,3.6-.27,4.66-.38,6.04.29,3.17,1.55,4.21,5.44,4.96,8.85.98,4.51,1.85,6.67,2,10.94.33,9.59,7.03,26.55,18.63,36.98,3.4,3.06,16.38,14.73,30.16,12.46,27.6-4.54,46.67-63.05,56.19-92.25,2.26-6.92,6.49-26.93,15.28-27.74,1.99-.18,3.38.69,4.92,1.45,14.47,7.12,36.01,1.08,49.21-7.59,3.11-2.04,7.44-5.34,11.83-10.45-15-13.83-29.38-21.38-38.92-25.5Z"/>
        <g id="rEye">
          <path class="cls-20" d="M145.38,114.5c-4.5,2.08-6.09,6.65-7.43,10.48-1.86,5.33-1.85,10.35-1.33,14.19,1.6-.81,3.81-1.7,6.55-2.17,4.91-.85,8.96.07,11.18.77,4.52-11.66,3.23-21.4-1.28-23.76-3.04-1.6-7.3.3-7.7.49Z"/>
          <ellipse class="cls-9" cx="150.44" cy="128.93" rx="7.78" ry="4.23" transform="translate(-7.94 247.99) rotate(-77.53)"/>
          <circle class="cls-14" cx="150.8" cy="127.33" r="1.68"/>
          <path class="cls-18" d="M143.7,135.49c-2.15.37-3.81,1.22-4.96,1.98-1.2.72-2.4,1.53-2.24,1.81.26.46,3.67-1.05,7.85-1.52,7.05-.79,11.9,1.86,12.08,1.37.21-.57-6.09-4.79-12.73-3.64Z"/>
        </g>
        <g id="lEye">
          <path class="cls-20" d="M209.25,122.16c4.7,4.15,4.26,10.71,4,14.63-.54,8.12-4.73,13.92-6.95,16.56-1.7-1.27-4.01-2.71-6.92-3.87-5.09-2.02-9.67-2.24-12.51-2.13-.77-2.61-2.45-9.64.79-17.07,1.27-2.9,4.23-9.68,10.94-10.99,3.68-.72,7.79.34,10.65,2.87Z"/>
          <ellipse class="cls-9" cx="201.25" cy="137.25" rx="8.95" ry="5.06" transform="translate(23.77 304.11) rotate(-77.53)"/>
          <circle class="cls-14" cx="200.47" cy="136.6" r="1.68"/>
          <path class="cls-18" d="M193.48,147.08c-4.15-.56-8.22.35-8.23.95-.01.62,4.36.57,10.52,2.46,7.68,2.36,11.34,5.66,11.64,5.22.4-.58-5.44-7.49-13.93-8.63Z"/>
        </g>
        <path id="lEyebrow" class="cls-12" d="M201.26,104.25c-.45.01-2.96.07-3.15.89-.28,1.24,5.14,3.02,12.26,6.79,8.94,4.73,11.61,7.87,12.02,7.41.86-.96-10.3-15.36-21.13-15.09Z"/>
        <path id="rEyebrow" class="cls-12" d="M148.5,102.67c-5.69,2-10.05,6.37-9.62,6.99.36.52,3.41-2.47,9.75-3.73,3.94-.78,7.25-.52,7.5-1.69.16-.74-1.02-1.56-1.24-1.71-.66-.44-2.36-1.28-6.4.14Z"/>
        <g id="mouthsmile">
          <path id="chinshadow" class="cls-3" d="M168.69,242.45c5.48,1.03,11.12-4.08,10.96-4.39-.05-.1-.64.25-2.48.78-.41.12-3.96,1.11-6.56,1.14-4.94.06-8.1-3.34-8.44-2.87-.34.47,2.35,4.55,6.52,5.34Z"/>
          <path id="mouth" class="cls-15" d="M146.1,193.43c.12,4.09.81,10.61,4.04,17.73,2.12,4.69,7.93,17.5,19.32,19.98,9.87,2.15,18.63-4.64,23.26-8.21,18.07-13.95,21.01-36.98,21.65-44.37-17.52,8.38-25.88,12.29-27.89,13.1,0,0,0,0,0,0-8.57,3.44-21.5,6.01-40.38,1.77Z"/>
          <path id="tongue" class="cls-2" d="M175.03,215.89c-5.25,2.58-10.82,6.69-12.74,12.51,2.13,1.54,4.55,2.75,7.3,3.35,9.87,2.15,18.63-4.64,23.26-8.21,2.21-1.71,4.2-3.55,5.98-5.49-7.23-3.89-14.89-5.86-23.8-2.17Z"/>
          <path id="teeth" class="cls-8" d="M214.97,178.05c-17.52,8.38-25.88,12.29-27.89,13.1,0,0,0,0,0,0-3.42,1.32-7.96,2.7-13.41,3.45-5.46.75-10.2.64-13.86.3-.23,1.57-.81,6.78,2.36,9.68,2.16,1.98,5.07,1.96,8.22,1.82,12.9-.58,19.36-.87,28.35-4.51,3.25-1.32,7.82-3.46,12.9-6.93.92-2.93,1.78-6.26,3.33-16.91Z"/>
          <path id="smileshadow" class="cls-3" d="M214.28,171.6c-.69-.05-2.68-.18-2.89.37-.29.76,3.12,1.7,5.73,4.15,4.33,4.07,3.49,9.5,4.31,9.45.98-.07,3.48-7.88-.83-11.68-2.29-2.02-5.77-2.26-6.33-2.3Z"/>
        </g>
        <g id="snoutshadows">
          <path class="cls-3" d="M158.92,164.43c-2.71-3.02-8.23-8.3-16.34-10.72-2.44-.73-5.3-1.98-8.69-1.27-2.43.51-5.08,1.9-4.93,2.75.21,1.13,5.25.63,9.87,1.06,5.04.47,11.97,2.27,20.09,8.17Z"/>
          <path class="cls-3" d="M85.56,277.84c-1.72-1.81-3.59-2.85-4.93-3.45.23.58.57,1.34,1.04,2.21.7,1.27,1.41,2.24,2,2.97,1.3,1.61,4.82,5.61,5.45,5.17.54-.38-.91-4.1-3.57-6.89Z"/>
          <path class="cls-3" d="M77.63,282.52c-.9-1.42-2.51-3.3-3.07-3.01-.64.34.11,3.46,1.6,5.9.91,1.48,2.55,3.47,3.12,3.17.65-.33-.07-3.56-1.65-6.06Z"/>
          <path class="cls-3" d="M68.84,279.48c-.67-.24-2.32,2.62-3.13,4.52-.67,1.56-1.57,4.28-.98,4.61.51.28,2.03-1.25,2.95-2.77,1.62-2.68,1.85-6.12,1.17-6.36Z"/>
          <path class="cls-3" d="M133.39,198.25c-2.02-3.02-6.14-8.3-12.2-10.72-3.04-1.21-5.49-1.28-6.49-1.27-3.59.04-7.3,1.32-7.26,2.09.05.88,5.04.25,10.95,1.73,6.48,1.62,11.54,5.16,15.01,8.17Z"/>
          <path class="cls-3" d="M122.21,218.68c-.93-1.6-2.78-4.19-6.21-6.36-1.5-.95-4.5-2.8-8.67-3.1-3.24-.24-6.67.5-6.67,1.16,0,.64,3.16,1.01,6.36,1.76,3.95.92,9.24,2.72,15.19,6.54Z"/>
          <path class="cls-3" d="M140.44,178.56c-2.27-2.76-6.8-7.53-12.81-9.24-3.01-.85-5.33-.64-6.28-.51-3.38.46-6.73,2.15-6.6,2.91.15.87,4.79-.34,10.54.45,6.31.86,11.51,3.79,15.14,6.39Z"/>
        </g>
        <path id="linnerEar_secondary" class="cls-11" d="M280.56,115.99c4.5-15.97,17.66-24.27,19.76-25.55,9.26-5.65,17.52-5.48,19.81-5.36,1.98.1,11.35.77,20.06,8.58,9.12,8.18,11.94,19.21,13.67,25.96,4.33,16.96,1.7,31.84.17,40.03-2.78,14.82-7.55,24.44-15.78,41-9.86,19.85-18.4,31.2-27.68,43.54-2.41,3.21-10.25,13.45-21.54,19.81-4.18,2.36-8.2,3.82-12.69,3.31-4.53-.52-7.63-2.84-9.02-3.9-5.23-4-7.43-9.55-8.72-12.91-1.24-3.23-3.16-8.22-2.64-14.43.6-7.21,4.17-12.3,6.14-15.4,6.02-9.49,8.34-18.21,12.92-35.48,5.72-21.53,5.47-41.45,5.37-45.73-.28-13.11-1.99-15.84.16-23.48Z"/>
      </g>
      <g id="lArm">
        <path id="lArm_primary" class="cls-13" d="M252.17,306.67c-2.17,2.05-1.32,6.48-1.03,9.48.7,6.14,1.1,12.92,1.11,18.78-.01,9.77-.77,19.69-1.35,29.46-.86,16.13-2.48,30.48-5.57,44.98-1.39,8.18.65,16.22,9.21,19.48,6.98,2.99,14.75,4.66,22.23,5.85,11.77,1.9,21.25.89,32.59-.59,15.6-1.92,33.5-6.39,33.62-25.32.72-14.87.67-30.27.25-48.8-.32-12.64-.71-21.99.6-35.39.92-7.82-.48-13.62-9.56-13.97-24.6-1.81-49.3-3.58-73.89-5.34-2.68-.18-6.3-.29-8.11,1.28l-.11.1Z"/>
        <path class="cls-4" d="M255.22,314.85c-1.17-.11-3.12,10.47-3.81,17.96-.48,5.18-.68,12.32.16,12.43.54.07,1.35-2.85,1.79-4.44,3.26-11.93,3.19-25.82,1.86-25.95Z"/>
        <path class="cls-4" d="M341.93,318.79c-1.25.11-1,12.43-.87,16.11.22,6.1,1.03,15.12,2.07,15.12.81,0,1.49-5.34,1.73-7.82,1.15-12-1.71-23.52-2.94-23.41Z"/>
        <path class="cls-6" d="M265.95,371.14c-3.46-1.34-6.79-3.08-7.02-2.64-.3.56,4.61,4.81,10.17,7.1,11.86,4.88,24.26-.15,24.16-1.13-.1-.98-12.54,2.39-27.31-3.33Z"/>
        <path class="cls-6" d="M272.69,388.19c-9.39-1.56-16.24-5.29-16.59-4.55-.23.49,2.61,2.36,4.48,3.42,1.79,1.02,12.05,6.62,24.82,4.23,3.67-.69,7.68-2.03,7.58-2.63-.14-.88-8.95,1.42-20.29-.47Z"/>
        <path class="cls-19" d="M244.86,418.29c-.15-1.03-.25-2.24-.24-3.58,0-1.32.13-2.51.28-3.53.2-.41.93-1.76,2.49-2.37,1.85-.72,3.55.11,3.94.3,3.17,1.54,3.78,6.04,4.05,7.99.7,5.12-1.07,9.36-2.25,11.6-1.28-.52-5.08-2.26-7.11-6.4-.73-1.5-1.04-2.91-1.17-4.02Z"/>
        <path class="cls-19" d="M259.99,431.47c.08-1.92.62-12.58,6.52-17.65.94-.8,2.67-2.29,5.19-2.43,3.05-.17,5.32,1.76,5.96,2.31,3.48,2.96,4.05,7.41,4.56,11.53.3,2.44.48,6.07-.35,10.46-4.26-.13-9.32-.67-14.87-2.06-2.54-.64-4.88-1.38-7-2.16Z"/>
        <path class="cls-19" d="M288.32,435.98c-.48-2.22-1.76-9.38,2.15-14.89.93-1.31,2.33-3.22,4.85-3.77,2.9-.63,5.27,1.01,5.51,1.18,1.17.84,1.71,1.88,2.78,3.96.73,1.4,1.8,3.57,2.21,6.65.3,2.27.14,4.25-.13,5.78-2.87.58-6.22,1.05-9.97,1.21-2.69.11-5.17.05-7.41-.12Z"/>
      </g>
      <g id="lFoot">
        <path id="lFoot_primary" class="cls-13" d="M422.2,298.46c4.49,15.19,11.16,34.79,15.31,50.23,3.3,13.85,7.1,28.37,3.1,42.46-5.47,21.8,5.42,28.38,25.69,29.36,13.98.44,29.06-.96,42.43-5.79,13.31-4.34,19.42-17.78,17.29-31.1-.88-6.72-3.25-12.84-4.82-19.43-3.99-15.93-4.79-32.86-5.08-48.71-.42-15.19,1.11-29.49,2.8-44.78.88-7.97,1.73-14.73,2.71-21.67.87-6.82,2.07-12.76,1.98-18.76-.11-4.47-2.55-8.14-5.99-11.17-20.65-17.52-72.59-16.53-90.89,12.17-13.64,20.19-8.6,53.29-4.55,67.07l.03.11Z"/>
        <path class="cls-4" d="M431.03,323.71c-.22-2.13-.65-5.12-1.53-8.6-1.44-5.72-4.11-12.76-4.99-12.55-.92.23-.17,8.54,2.74,16.23,1.26,3.34,3.34,7.63,3.89,7.44.28-.1.11-1.36-.11-2.53Z"/>
        <path class="cls-6" d="M453,363.31c-3.55-.53-7.11-1.52-7.18-1-.09.67,5.7,3.89,11.45,4.89,12.26,2.13,21.83-6.28,21.42-7.29-.41-1-10.54,5.67-25.69,3.4Z"/>
        <path class="cls-6" d="M463,377.41c-9.18.25-16.41-2.1-16.58-1.3-.12.53,2.95,1.81,4.93,2.49,1.9.66,12.72,4.19,24.28-.58,3.32-1.37,6.82-3.44,6.61-4.01-.32-.84-8.15,3.09-19.23,3.39Z"/>
        <path class="cls-19" d="M439.25,406.06c-.11-.92-.17-2-.13-3.2.04-1.18.17-2.24.34-3.14.19-.36.87-1.55,2.28-2.05,1.67-.6,3.16.18,3.51.37,2.79,1.45,3.23,5.48,3.42,7.23.5,4.59-1.18,8.33-2.29,10.3-1.13-.5-4.48-2.14-6.19-5.89-.62-1.35-.86-2.62-.95-3.61Z"/>
        <path class="cls-19" d="M454.24,419.38c-.09-1.74-.51-11.41,4.39-16.48.78-.8,2.21-2.29,4.47-2.63,2.74-.41,4.94,1.13,5.57,1.58,3.4,2.38,4.28,6.35,5.09,10.01.48,2.17.94,5.43.57,9.47-3.85.24-8.47.19-13.59-.6-2.34-.36-4.52-.83-6.5-1.35Z"/>
        <path class="cls-19" d="M482.33,420.62c-.65-2.05-2.49-8.68.71-14.23.76-1.31,1.91-3.25,4.24-3.98,2.68-.85,5.06.49,5.3.63,1.18.69,1.78,1.62,2.97,3.48.81,1.26,2.01,3.2,2.67,6.07.49,2.11.51,3.99.39,5.46-2.65.8-5.77,1.54-9.29,2.02-2.53.35-4.87.5-6.99.55Z"/>
      </g>
    </g>
  </g>
</svg>