<?xml version="1.0" encoding="UTF-8"?>
<svg xmlns="http://www.w3.org/2000/svg" viewBox="0 0 342.51 602.98">
  <defs>
    <style>
      .cls-1 {
        fill: #dbb79c;
      }

      .cls-2 {
        mix-blend-mode: multiply;
        opacity: .15;
      }

      .cls-3 {
        fill: #f0d6c2;
      }

      .cls-4 {
        fill: #e8c3a3;
      }

      .cls-5 {
        fill: #d3ae91;
      }

      .cls-6 {
        isolation: isolate;
      }

      .cls-7 {
        fill: #704b3d;
      }

      .cls-8 {
        fill: #fff;
      }

      .cls-9 {
        fill: #895f4a;
      }

      .cls-10 {
        fill: #875c4b;
      }

      .cls-11 {
        fill: #df9c8d;
      }

      .cls-12 {
        fill: #c78779;
      }

      .cls-13 {
        fill: #333;
      }
    </style>
  </defs>
  <g class="cls-6">
    <g id="Meerkat">
      <g id="Tail">
        <path id="tail_primary" class="cls-1" d="M198.18,429.22c-21.24-2.17-41.02,33.61-77.68,63.78-21.28,17.51-55.85,39.38-112.83,55.35,16.23.13,42.68-1.04,73.52-9.26,69.94-18.63,141.38-67.85,133.49-95.92-1.76-6.26-7.92-13.08-16.51-13.95h0Z"/>
        <path id="tailEnd_primaryDark" class="cls-9" d="M0,549.29c16.16.51,42.55-.02,73.6-7.53,6.85-1.65,13.71-3.6,20.53-5.79-1.82-6.67-5.51-13.46-10.85-18.85-20.66,11.54-47.73,23.09-83.28,32.17Z"/>
      </g>
      <g id="rLeg">
        <path id="rThigh_primary" class="cls-4" d="M167.38,386.29c-2.38,8.27-4.95,15.99-6.88,28.71-2.34,15.44-8.31,41.14-5.58,60.4,3.92,27.64,16.42,31.33,30.3,77.3,2.46,8.16,4.12,14.96,5.11,19.3-2.64,5.36-3.07,11.61-.54,16.03,4.33,7.56,16.36,8.06,22.03,1.09,3.49-4.3,4.26-11.06,2.26-17.45.16-6.01-1.98-11-1.58-14.28,2.32-15.71,20.81-53.36,23.38-57.96,2.08-3.72,3.74-5.87,5.16-7.36,2.15-2.26,3.88-3.83,4.73-4.52,7.93-6.45,18.95-15,20.81-16.66,13.12-11.68,5.56-93.25-23.12-100.22-11.64-3.54-37.43-9.68-61.37.57-13.03,5.58-11.59,9.61-14.72,15.05h0Z"/>
        <path id="rFoot_primaryDark" class="cls-9" d="M208.66,565.92c2.65-.8,3.23-4.41,4.22-4.07.98.33.33,3.8,1.38,10.19.45,2.76.74,3.03.93,5.19.29,3.31-.05,5.95-.29,7.76-.97,7.1-3.71,11.49-5.9,12.44-1.38.6-2.49.51-2.49.51-1.58-.12-3.1-.83-3.1-.83,0,0-1.1,1.7-2.18,3.05-1.52,1.9-5.72,3.15-8.16,2.26-2.71-.98-4.81-4.58-4.81-4.58,0,0-1.64.27-3.27-.08-2.06-.44-3.69-1.78-4.43-2.63-2.66-3.03-1.04-8.72-.8-9.6,2.02-7.58,8.5-9.86,9.38-15.29.07-.43.2-1.49.95-2.23,1.18-1.17,2.72-.32,4.79-.44,3.72-.21,3.79-3.24,7.13-3.43,3.18-.18,4.2,2.51,6.69,1.76Z"/>
        <path id="toeline" class="cls-2" d="M189.22,597.46c.1-1.12.21-2.28.7-3.28.49-.99,1.16-1.76,1.81-2.58.21-.26.09-.72-.15-.92-.28-.23-.6-.12-.8.14-.69.87-1.41,1.72-1.9,2.77-.54,1.15-.69,2.44-.81,3.73-.08.84,1.08.97,1.15.14h0Z"/>
        <path id="toeline-2" data-name="toeline" class="cls-2" d="M204.15,596.9c.76-2.42.14-4.9-.63-7.26-.11-.34-.51-.46-.77-.33-.3.16-.37.53-.27.87.66,2.01,1.23,4.18.58,6.25-.25.79.84,1.27,1.09.48h0Z"/>
      </g>
      <g id="lLeg">
        <path id="lThigh_primary" class="cls-4" d="M327.44,385.95c-3.26-5.36-1.91-9.42-15.08-14.67-24.18-9.65-49.82-2.85-61.38.98-28.51,7.69-34.1,89.41-20.7,100.76,1.9,1.61,13.13,9.88,21.21,16.13.86.67,2.63,2.2,4.83,4.4,1.45,1.46,3.16,3.56,5.34,7.23,2.69,4.53,22.07,41.7,24.78,57.34.48,3.27-1.53,8.31-1.23,14.32-1.85,6.45-.92,13.18,2.68,17.39,5.83,6.83,17.85,6.03,22-1.64,2.43-4.48,1.85-10.72-.92-16.01.88-4.37,2.37-11.2,4.64-19.42,12.77-46.3,25.19-50.3,28.44-78.03,2.27-19.33-4.32-44.86-7.03-60.23-2.23-12.67-5-20.32-7.57-28.53h0Z"/>
        <path id="lFoot_primaryDark" class="cls-9" d="M289.2,569.42c1.93-.38,2.25.89,4.42.63,2.41-.29,2.87-1.96,4.54-1.61,1.61.34,1.56,1.99,3.24,2.22,1.15.16,1.35-.6,3.58-.83,1.73-.18,2.38.2,2.58.33.9.58,1.27,1.6,1.4,2,1.54,4.59,8.57,6.38,10.92,13.27.09.25,2.18,6.33-.57,9.62-.72.86-2.32,2.25-4.37,2.74-1.62.39-3.27.16-3.27.16,0,0-2.02,3.65-4.7,4.7-2.43.95-6.65-.2-8.22-2.06-1.12-1.32-2.26-2.99-2.26-2.99,0,0-1.51.75-3.08.91,0,0-1.11.11-2.5-.45-2.21-.89-5.06-5.21-6.2-12.28-.29-1.8-.69-4.44-.48-7.75.22-3.46.42-4.49.8-5.21.08-.16,1.56-2.88,4.18-3.39Z"/>
        <path id="toeline-3" data-name="toeline" class="cls-2" d="M310.68,597.58c.1.83,1.25.67,1.15-.17-.15-1.29-.33-2.57-.9-3.71-.51-1.03-1.26-1.87-1.97-2.72-.21-.26-.53-.36-.81-.12-.23.2-.34.66-.13.92.66.8,1.36,1.55,1.87,2.53.51.98.65,2.14.78,3.26h0Z"/>
        <path id="toeline-4" data-name="toeline" class="cls-2" d="M295.74,597.4c.27.78,1.34.27,1.08-.51-.7-2.05-.18-4.23.43-6.26.1-.34.02-.71-.29-.86-.26-.13-.67,0-.77.35-.72,2.38-1.27,4.88-.46,7.28h0Z"/>
      </g>
      <g id="Torso">
        <path id="body_primary" class="cls-4" d="M331.42,438.4c7.25-21.48,5.85-40.04,4.75-55.47-1.62-20.99-5.33-21.08-9.72-46.95-7.33-66.04.04-84.85-10.09-121.29-1.1-3.94-3.01-10.72-6.59-19.34-8.55-20.65-16.81-28.48-21.17-38.02-4.87-10.97-3.27-32.09-7.78-34.75-11.48-8.42-28.89-13.46-41.76-11.43-41.63,5.14-32.55,31.34-36.96,41.59-4.22,10.06-17.87,24.39-25.82,44.2-2.49,6.05-4.21,11.8-5.9,19.54-7.54,34.96-5.51,70.85-7.6,130.94-1.86,25.36-4.96,28.08-4.24,45.48.49,12.93,1.21,31.21,10.44,51.71,11.41,25.2,33.95,50.17,59.37,56.67,11.64,2.98,24.03,2.68,24.03,2.68,0,0,12.1-.3,23.3-3.7,24.15-7.39,46.2-33.79,55.74-61.84Z"/>
        <path id="tummy_secondary" class="cls-3" d="M202.7,210.06c-1.65.15-4.18.57-6.92,1.76-1.43.61-2.52,1.3-3.4,1.93-.21.89-.32,1.78-.42,2.66.44-.19,2.63-1.12,5.28-.38,2.76.77,3.88,2.79,4.1,3.14-.88-.16-3.31-.53-6.05.57-2.41.95-3.61,2.48-4.15,3.12-2.95,28.15,1.44,51.59-4.55,122.58-.62,5.19-1.83,17.41-2.34,34.17-.08,3.01-.06,6.34.2,10.54.65,11.84,1.46,28.26,7.56,46.77,0,.02,0,.03.11.05.11.17.12.57.12.82,0,.06.11.11.11.17,0,.02,0,.03,0,.03,1.77,1.5,4.1,3.18,6.97,4.72,3.1,1.7,5.97,2.74,8.28,3.4-1.87.33-4.73.57-8.03-.13-1.98-.43-3.64-1.09-4.97-1.73,1.01,2.61,2.14,5.2,3.37,7.77.11.12.33.25.55.37,4.87,3.2,12.16,5.95,22.93,4.86-3.29,1.5-7.79,2.99-13.18,3.49-2.09.19-4.07.21-5.83.12,1.48,5.19,6.89,20.71,23.7,30.38,4.42,2.51,13.6,7.76,25.81,7.02,11-.66,18.44-5.7,23.91-9.53,18.6-12.92,25.04-31.23,27.49-40.2-2.3.68-5.05,1.27-8.13,1.45-6.82.39-12.34-1.25-15.87-2.65,4.18-.17,10.89-1.05,18.01-4.86,4.05-2.17,7.22-4.7,9.51-6.89.42-2.21.84-4.41,1.26-6.61-2.19,1.22-5.59,2.71-9.76,3.47-4.39.78-8.03.5-10.56.1,2.53-.29,9.34-1.42,15.34-7.26,3.49-3.45,5.33-7.24,6.41-9.69.58-8.88.7-20.43-.41-34.16-1.24-15.62-3.03-19.49-5.55-31.45-.57-2.39-.92-4.52-1.27-6.4-.69-3.76-1.16-6.69-1.28-7.87,0-.04-.11-.25-.11-.49-.35-2.64-4.42-52.45-11.23-114.82-.67-.73-2-2-4.1-2.94-1.99-.92-3.97-1.11-4.96-1.15.44-.38,2.18-1.8,4.83-1.88,1.43-.04,2.54.33,3.2.58-.34-1.36-.57-2.68-.8-3.96-1.32-.34-2.54-.66-3.97-.96-2.32-.5-4.52-.87-6.5-1.14.77-.64,2.4-1.93,4.93-2.54,1.98-.45,3.63-.33,4.51-.2-6.42-17.24-7.75-31.23-7.84-40.77-.21-12.01,1.71-18.54,1.9-34.72.11-13.24-34.16-18.37-39.23-18.87-6.7,1.45-42.27,12.05-40.88,19.6,2.54,13.71.83,19.78.94,32.73-.02,10.06-1.32,25.25-8.31,43.69,1.54.19,3.19.48,5.07.94,1.54.39,2.98.84,4.19,1.29h0Z"/>
        <path id="strip1_primaryDark" class="cls-9" d="M163.24,331.08c-.21,2.03-.35,4.19-.41,6.48-.05,2.04-.02,3.98.06,5.82,25.43,2.92,31.52,3.02,31.64,2.42.16-.78-8.48-2.07-19.38-7.48-5.22-2.59-9.22-5.26-11.92-7.24Z"/>
        <path id="strip2_primaryDark" class="cls-9" d="M161.29,363.87c-.4,1.83-.75,3.77-1.03,5.83-.24,1.82-.4,3.56-.5,5.22,13.89,1.5,25.08,2.32,33.07,2.79,2.61.15,7.85.44,8-.11.2-.73-10.71-1.93-24.48-6.98-6.59-2.42-11.64-4.91-15.06-6.75Z"/>
        <path id="strip3_primaryDark" class="cls-9" d="M325.99,331.08c.14,1.92.35,3.99.67,6.17.31,2.1.69,4.06,1.1,5.89-23.62,3.21-29.24,3.31-29.36,2.66-.14-.77,7.46-2.06,17.08-7.48,4.6-2.59,8.12-5.26,10.5-7.24Z"/>
        <path id="strip4_primaryDark" class="cls-9" d="M332.45,363.87c.49,1.74,1.05,3.54,1.69,5.39.63,1.83,1.29,3.58,1.96,5.25-14.86,1.73-26.85,2.66-35.52,3.19-2.1.13-7.92.47-8.08-.11-.2-.73,10.82-1.93,24.73-6.98,6.66-2.42,11.76-4.91,15.21-6.75Z"/>
      </g>
      <path class="cls-2" d="M163.63,314.84c11.81-3.28,20.87-7.76,27.04-11.35,4.88-2.84,10.96-6.42,17.57-12.87,5.82-5.67,9.73-11.3,12.24-15.48,2.92,2.56,8.9,6.96,17.29,7.91,5.33.6,9.63-.43,12.54-1.15,6.36-1.58,11.09-4.3,13.98-6.26,3.65,4.08,8.91,9.75,15.54,16.22,8.94,8.73,13.42,13.09,19.87,17.22,5.24,3.35,13.57,7.7,25.33,10.22-.28-5.63-.56-11.26-.84-16.89-3.88-4.65-26.91-31.59-60.41-38.65-18.4-3.88-36.65-1.1-36.65-1.1-3.57.54-9.39,1.63-16.47,3.95-36.24,11.9-44.36,32.5-44.36,32.5-1.23,3.1-2.84,8.37-2.67,15.74Z"/>
      <path class="cls-2" d="M223.3,247.09c-14.8,5.34-29.11,11.74-42.79,19.09-3.14,1.69.08,5.72,3.21,4.04,13.26-7.13,27.13-13.3,41.48-18.48,3.38-1.22,1.5-5.88-1.9-4.65Z"/>
      <path class="cls-2" d="M181.72,278.84c3.1-5.47,7.43-14.54,8.96-25.42,1.22-8.69.53-17.62.33-20.11-.14-1.67-.29-3.06-.41-4.02-8.42,29.08-13.49,46.23-13.99,47.17-.02.03-.09.15,5.11,2.38Z"/>
      <path class="cls-2" d="M246.87,141.58c-17.94,1.35-33.18-5.49-43.68-11.92,6.27,9.34,13.04,13.95,17.03,16.19,23.48,13.13,48.13-1.77,52.95-4.68,6.44-3.9,12.8-9.33,12.2-10.65-.94-2.1-18.09,9.53-38.5,11.06Z"/>
      <path class="cls-2" d="M254.83,244.88c.19-.39,2.42.32,3.12.54,0,0,27.83,8.72,41.95,18.47.38.26,1.01.84,1.13,1.5.32,1.83-2.29,3.77-4.61,2.3-9.99-6.31-31.47-15.15-40.09-21.33-.4-.29-1.64-1.17-1.49-1.49Z"/>
      <path class="cls-2" d="M303.65,275.93c-7.73-15.88-16.07-53.47-14.87-49.67,5.09,16.12,12.54,32.02,20.04,47.42,1.77,3.63-3.39,5.91-5.17,2.25Z"/>
      <g id="Head">
        <g id="lEar">
          <path id="Louter_primary" class="cls-5" d="M318.83,74.57s.08-.06.12-.1c-.01-.03-.03-.05-.04-.08.13-.07.25-.13.37-.2,4.18-2.36,7.55-5.6,10.12-9.7,2.7-4.29,4.3-8.99,4.8-14.09.3-3.1.1-6.12-.61-9.09-.62-2.57-1.64-4.97-3.06-7.19-2.67-4.23-6.07-7.65-10.2-10.27-.23-.16-.48-.32-.74-.46-4.59-2.75-9.56-3.89-14.91-3.41-4.95.52-9.68,1.8-14.21,3.84-.07.03-.12.05-.17.08"/>
          <path id="Linner_primaryDark" class="cls-10" d="M314.73,69.47s.06-.05.09-.08c-.01-.02-.02-.04-.03-.06.1-.05.2-.1.29-.16,3.29-1.84,5.94-4.35,7.96-7.54,2.12-3.34,3.38-6.99,3.77-10.96.24-2.41.08-4.76-.48-7.07-.49-2-1.29-3.87-2.4-5.59-2.11-3.29-4.78-5.95-8.02-7.99-.18-.13-.38-.25-.58-.36-3.61-2.14-7.52-3.02-11.72-2.65-3.89.4-7.62,1.4-11.18,2.99-.05.02-.1.04-.14.06"/>
        </g>
        <g id="rEar">
          <path id="Router_primary" class="cls-5" d="M188.89,24.21c-.25.07-.49.12-.72.16-.05-.03-.11-.05-.17-.08-4.53-2.05-9.26-3.34-14.21-3.87-5.35-.49-10.32.63-14.92,3.37-.26.15-.51.3-.74.46-4.13,2.61-7.54,6.02-10.22,10.24-1.42,2.22-2.45,4.61-3.07,7.18-.72,2.96-.93,5.99-.64,9.08.49,5.1,2.08,9.8,4.76,14.1,2.56,4.11,5.93,7.35,10.1,9.72.12.07.24.14.37.2-.01.03-.03.05-.04.08.04.04.08.07.12.1"/>
          <path id="Rinner_primaryDark" class="cls-10" d="M186.88,30.98s-.09-.04-.14-.06c-3.56-1.6-7.28-2.6-11.17-3.01-4.2-.38-8.12.49-11.73,2.62-.21.11-.4.24-.58.36-3.25,2.03-5.93,4.68-8.04,7.97-1.12,1.73-1.92,3.59-2.42,5.59-.57,2.3-.73,4.66-.5,7.07.38,3.97,1.63,7.62,3.75,10.97,2.01,3.19,4.66,5.72,7.94,7.56.09.05.19.1.29.16-.01.02-.02.04-.03.06.03.03.06.06.09.08"/>
        </g>
        <path id="headBG_primary" class="cls-4" d="M297.72,22.96s-.03-.03-.04-.04c-3.2-4.22-6.88-7.8-11.05-10.75-1.55-1.09-3.16-2.1-4.84-3.01-5.58-3.08-11.48-5.28-17.71-6.62-.75-.16-1.51-.31-2.26-.45-1.73-.32-3.46-.61-5.19-.85-.85-.14-1.65-.26-2.4-.37-7.25-.96-14.55-1.12-21.9-.45-1.03.13-2.06.27-3.08.42-2.46.39-4.89.94-7.3,1.65-2.18.64-4.32,1.41-6.44,2.29-5.83,2.44-11.27,5.53-16.33,9.25-1.64,1.21-3.24,2.49-4.81,3.83-1.37,1.17-2.72,2.41-4.05,3.73-.03.03-.05.05-.08.08l-8.78,9.64c-.04.05-.05.17-.04.34.01.09-.02.04-.1-.16-1.67,2.41-3.27,4.84-4.79,7.28-1.43,2.33-2.75,4.73-3.95,7.22-1.23,2.54-2.37,5.13-3.43,7.75-1.11,2.77-2.26,5.5-3.47,8.19-.23.53-.47,1.05-.7,1.57l-3.99,8.76s-.08-.06-.12-.1c-2.01,4.05-4.32,7.89-6.94,11.52-2.68,3.7-5.83,6.88-9.42,9.54-.34.23-.66.48-.96.75-.17.15-.21.32-.14.53.08.23.21.36.41.4,4.54-.28,9.07-.51,13.59-.71,1.68-.05,3.38-.08,5.09-.1-1.85,1.75-3.63,3.56-5.36,5.44-.93,1.03-1.67,2.19-2.25,3.47.61.66,1.46.81,2.54.45,2.33-.8,4.69-1.54,7.07-2.21,1.75-.47,3.37-.17,4.88.91,2.39,1.69,4.67,3.5,6.84,5.44.05.03.12.04.21.04,2.87,3.03,5.86,5.92,8.97,8.67,1.85,1.62,3.7,3.26,5.56,4.93,2.39,2.16,4.9,4.21,7.53,6.17,8.84,6.66,18.53,11.46,29.06,14.39,6.78,1.87,13.63,2.53,20.57,2,5.57-.51,10.95-1.9,16.15-4.18,5.48-2.36,10.65-5.3,15.51-8.82,7.63-5.55,15.3-11.03,22.99-16.43.03-.03.06-.05.1-.06,1.39-.98,2.82-1.89,4.3-2.72.29-.16.58-.32.88-.48,6.67-3.58,13.68-6.12,21.05-7.61.33-.05.53-.25.63-.61-.57-1.29-1.31-2.48-2.22-3.58-1.03-1.24-2.19-2.33-3.49-3.27,4.7.19,9.13,1.54,13.31,4.03.82.47,1.67.8,2.54.97l.35-.71-16.58-27.56h.02s-3.33-6.46-3.33-6.46h.02s-15.85-32.56-15.85-32.56l-6.78-10.79"/>
        <path id="snout_secondary" class="cls-3" d="M299.5,74.46c-4.33-2.63-8.76-5.05-13.3-7.26-4.04-1.94-8.27-3.38-12.68-4.32-5.11-.94-8.33-1.3-9.64-1.1-1.33.19-5.38.94-12.14,2.27-6.78,1.32-13.5,1.07-20.16-.75-5.65-1.55-9.9-2.41-12.76-2.56-3.58.04-7.16.22-10.75.55-7.44.77-14.27,3.3-20.46,7.59-6.61,4.57-10.81,10.87-12.59,18.9-.42,1.98-.7,4-.85,6.06-.16,2.38-.1,4.75.19,7.09.53,4.25,2.25,7.88,5.18,10.87,2.6,2.68,5.27,5.24,8.01,7.68,3.56,3.17,7.25,6.21,11.06,9.14,3.57,2.74,7.27,5.22,11.08,7.44,3.82,2.2,7.79,4.06,11.9,5.59,4.36,1.65,8.81,2.78,13.36,3.41,5.05.77,10.07.88,15.07.32,4.59-.55,9.05-1.71,13.37-3.48,4.54-1.84,8.86-4.14,12.95-6.91,4.06-2.77,8.09-5.62,12.09-8.57,4.09-2.97,8.12-5.97,12.09-9.01,1.63-1.26,3.02-2.78,4.16-4.54,2.93-4.42,4.54-9.32,4.82-14.69.29-5.4-.57-10.59-2.6-15.59-1.68-3.41-4.14-6.12-7.39-8.12"/>
        <path id="eyepatches_primaryDark" class="cls-10" d="M224.24,28.97c-1.27-1.55-2.79-2.79-4.56-3.72-4.73-2.52-9.43-2.5-14.09.06-1.29.7-2.46,1.58-3.52,2.66-3.54,3.59-6.53,7.64-8.95,12.14-2.4,4.43-4.27,9.07-5.62,13.94-1.4,5.07-1.29,10.07.31,15,.67,2.06,1.64,3.96,2.88,5.7,2.23,3.1,5.21,5.07,8.93,5.91,5.06,1.15,10.03.87,14.91-.83,4.86-1.66,8.84-4.56,11.95-8.69,3.27-4.34,5.21-9.23,5.81-14.67,0-.01-.02-.03-.06-.04.14-5.17-.46-10.22-1.78-15.17-1.23-4.59-3.31-8.69-6.23-12.3M282.19,27.66c-1.05-1.08-2.22-1.97-3.51-2.67-4.66-2.58-9.35-2.61-14.09-.1-1.77.93-3.29,2.16-4.57,3.71-2.93,3.6-5.02,7.7-6.26,12.29-1.33,4.94-1.94,9.99-1.82,15.16-.04.01-.06.03-.06.04.59,5.44,2.52,10.33,5.78,14.68,3.1,4.14,7.08,7.04,11.93,8.72,4.88,1.72,9.85,2,14.91.87,3.72-.83,6.7-2.79,8.95-5.88,1.25-1.73,2.22-3.63,2.89-5.69,1.62-4.92,1.74-9.92.35-15-1.34-4.87-3.2-9.53-5.58-13.96-2.41-4.51-5.39-8.57-8.92-12.16"/>
        <path id="lEyebrow_primaryDark" class="cls-7" d="M294.56,32.1c-.51-1.73-1.26-3.34-2.25-4.84-.53-.81-1.13-1.59-1.81-2.34-1.94-2.14-3.99-4.13-6.14-5.97-3.92-3.37-8.37-5.55-13.35-6.54-1.53-.31-3.01-.19-4.43.34-.29.12-.42.33-.39.64,3.74,2.74,7.73,5.23,11.97,7.49,4.91,2.65,9.41,5.84,13.51,9.56.73.66,1.45,1.34,2.15,2.04.17.17.33.16.49-.04.1-.1.18-.22.25-.34h0Z"/>
        <path id="rEyebrow_primaryDark" class="cls-7" d="M216.51,13.81c.24-.14.39-.33.44-.57-.55-1.01-1.52-1.38-2.93-1.11-2.58.17-5.06.75-7.44,1.75-3.22,1.41-6.18,3.29-8.89,5.64-.84.75-1.66,1.51-2.44,2.3-.28.29-.57.59-.85.88-1.49,1.58-2.87,3.25-4.14,5.03-1.07,1.22-1.66,2.6-1.77,4.13,0,.04.02.09.06.15.2.16.37.16.54.01,6.75-6.14,14.2-11.28,22.36-15.42,1.71-.85,3.4-1.78,5.05-2.79h0Z"/>
        <g id="nose">
          <path id="nose-2" data-name="nose" class="cls-11" d="M252.21,75.85c-30.22-7.14-40.59,17.76-10.77,25.85,16.05,3.23,33.83-22.26,10.77-25.85"/>
          <path id="nostrils" class="cls-12" d="M227.52,86.72c-1.68,2.41-1.41,4.64.81,6.7.35.32.73.57,1.15.75,1.25.55,2.56.72,3.94.51,2.77-.47,4.3-2.12,4.59-4.96.17-1.72-.47-2.94-1.91-3.64-3.03-1.42-5.89-1.2-8.59.63M254.76,96.28c2.84-.28,4.69-1.91,5.55-4.9.24-.82.17-1.55-.19-2.18-1.6-2.88-4.08-3.79-7.43-2.74-1.08.33-1.9.99-2.46,1.97-1.33,2.38-.99,4.5,1.03,6.36,1,.9,2.17,1.39,3.51,1.48h0Z"/>
          <path id="shadow" class="cls-12" d="M254.58,80.86l6.91.84c-8.77-6.89-26.14-7.46-34.12-.95,9.09-.81,18.21-1.17,27.21.12Z"/>
        </g>
        <path id="mouth" class="cls-7" d="M283.67,96.96c-4.57.78-.64,1.73,1.42.75-16.22,23.15-49.99,19.59-72.85,10.41,21.18,11.9,51.44,12.72,70.27-4.38,2.63-2.13,3.28-7.16,7.15-4.58,2.54-1.52-4.38-3.39-5.99-2.21h0Z"/>
        <g id="rEye">
          <path id="rEye-2" data-name="rEye" class="cls-8" d="M219.88,35.66c-3.16-1.48-6.59-.52-9.89,2.11-5.45,4.47-9.3,12.7-9.43,20.06-.35,12.3,10.89,18.1,19.71,9.95,5.54-5.24,7.2-14.55,5.69-22.43-.76-3.81-2.61-7.99-6.01-9.66l-.07-.03h0Z"/>
          <path id="rPupil" class="cls-13" d="M210.83,48.96c.74-3.82,2.84-6.27,6.28-7.34.46-.14.88-.07,1.25.21,2.47,1.91,3.75,4.52,3.84,7.83.17,5.74-1.66,10.62-5.48,14.64-.4.42-.91.65-1.51.69-2.84.43-4.52-.78-5.04-3.61-.76-4.17-.54-8.31.66-12.41Z"/>
          <path id="rReflection" class="cls-8" d="M219.01,49.45c-1.01-2.34-3.67-1.43-4.03.8-.4,2.39,1.88,4.95,3.58,2.74.76-.92.98-2.37.48-3.47l-.03-.07Z"/>
        </g>
        <g id="lEye">
          <path id="leye" class="cls-8" d="M269.53,36.32c-2.22-1.47-4.53-1.68-6.91-.64-1.69.77-2.82,2.07-3.38,3.91-1.48,4.91-2.22,9.95-2.22,15.12,0,5.53,1.98,10.08,5.92,13.64,1.17,1.07,2.52,1.85,4.06,2.35,3.6,1.26,7.15,1.23,10.66-.09.99-.38,1.82-.99,2.5-1.83,2.09-2.61,3-5.66,2.74-9.14-.16-5.32-1.69-10.16-4.59-14.54-2.35-3.57-5.28-6.5-8.77-8.77h0Z"/>
          <path id="lpupil" class="cls-13" d="M272.4,49.56c-.73-3.83-2.82-6.28-6.26-7.35-.46-.14-.87-.07-1.25.21-2.48,1.9-3.76,4.51-3.86,7.82-.18,5.74,1.64,10.63,5.45,14.65.4.42.91.65,1.51.69,2.84.44,4.52-.77,5.05-3.6.77-4.17.56-8.31-.63-12.41Z"/>
          <path id="lreflection" class="cls-8" d="M269.56,51.86c-.23-4.26-5.29-2.98-4.83.79.68,3.76,4.81,2.55,4.83-.71"/>
        </g>
      </g>
      <g id="lArm">
        <path id="lArm_primary" class="cls-4" d="M289.45,203.53c-.52,9.21,1.3,17.71,2.51,22.37,5.82,22.49,3.07,20.16,6.45,29.48,9.36,25.85,30.26,43.12,31.45,42.2.29-.22-.04-1.9-1.41-3.4-11.69-12.82-23.11-22.09-31.71-28.25-10.68-7.65-20.48-13.02-32.87-17.9-2.74-1.13-9.86-3.55-16.87-.15-2.02.98-4.83,2.34-6.04,5.6-2.12,5.69,1.45,14.94,8.04,18.66,5.81,3.28,12.96,1.67,17-4.16-1.37,3.71,5.27,10.76,12.17,17.84,12.92,13.28,25.67,25.62,50.06,30.1,4.02-5.87,6.6-11.49,8.15-17.05,3.74-13.41,2.11-25,.37-33.2-6.66-31.38-28.35-88.48-39.78-85.67-6.26,1.54-7.33,20.5-7.5,23.52Z"/>
        <path id="lHand_primaryDark" class="cls-9" d="M253.01,242.73s.11.03.19.06c2.29.73,4.21,1.57,6.65,2.79,2.99,1.5,4.49,2.24,4.85,2.78,1.01,1.48.74,2.97,1.77,4.51,0,0,.59,1.01.55,1.86-.05.95-.26,1.02-.36,2.32-.19,2.6.69,3.32.6,5.49-.08,1.76-.69,1.86-1.04,3.78-.25,1.34-.33,3.36.61,6.05-3.68,1.98-6.93,3.35-9.4,4.27-9.31,3.48-13.46,2.92-15.56,2.43-.37-.09-.69-.15-1.13-.3-4.75-1.66-8.61-6.77-9.99-11.87-2.51-9.34,3.67-17.28,8.39-20.83.6-.45,7.31-5.18,13.86-3.33Z"/>
      </g>
      <g id="rArm">
        <path id="rArm_primary" class="cls-4" d="M187.38,183.3c-11.64-2.28-33.03,59.94-37.56,76.29-.21.74-.41,1.55-.65,2.47-1.94,7.43-4.47,19.11-1.3,33.17,1.27,5.63,3.57,11.37,7.29,17.44,24.58-3.25,37.93-14.94,51.5-27.55,7.24-6.73,14.23-13.43,13.05-17.21,3.74,6.03,10.8,7.99,16.77,5.01,6.77-3.38,10.79-12.44,8.96-18.23-1.05-3.32-3.78-4.82-5.75-5.9-6.83-3.75-14.06-1.69-16.86-.7-12.62,4.25-22.67,9.12-33.73,16.23-8.9,5.72-20.77,14.41-33.09,26.62-1.38,1.37-1.89,3.04-1.58,3.32,1.22,1.12,23.82-12.04,31.95-33.47,7.92-20.89-2.7-37,5.6-53.67.69-1.39,2.59-5.96,1.87-11.64-.5-3.92-2.68-11.44-6.48-12.19Z"/>
        <path id="rHand_primaryDark" class="cls-9" d="M247.91,247.6c5.91,4.7,9.53,13.34,7.05,20.98-1.63,5.03-5.75,9.94-10.57,11.35-.37.11-.74.19-1.14.24-1.33.16-5.33.66-13.14-4.04-2.77-1.67-6.52-4.28-10.39-8.24.89-2.3.62-3.42.16-4.02-.4-.51-1.04-.77-1.15-1.49-.07-.44.2-.53.43-1.47.15-.6.36-1.51.44-2.7.11-1.84-.24-2.57-.24-3.61,0-1.17.45-2.89,2.52-5.18.21-.63.61-1.54,1.42-2.34,1.19-1.19,2.61-1.49,3.72-1.74,4.72-1.1,4.77-1.7,6.93-2.01,4.46-.64,9.96,1.07,13.97,4.26Z"/>
      </g>
      <path class="cls-2" d="M242.5,244.35c-.56.45,2.64,5,3.97,7.54,2.63,5.01,3.85,13.33-2.37,27.86,0,0,.53-.38,1.08-.77.68-.48,1.2-.86,1.22-.87,1.4-1.01,9.29-20.9-.51-31.22-1.03-1.08-3-2.85-3.39-2.54Z"/>
      <path class="cls-2" d="M250.89,253.82c-1.16-1.12-6.66.38-7.54,1.66.67,2.17,7.38.46,7.54-1.66Z"/>
      <path class="cls-2" d="M250.33,268.95c-1.41-2.43-9.18-2.03-5.39.33,1.8-1.08,6.94,3.74,5.39-.33Z"/>
    </g>
  </g>
</svg>