<?xml version="1.0" encoding="UTF-8"?>
<svg id="Meerkat" xmlns="http://www.w3.org/2000/svg" viewBox="0 0 361.08 590.74">
  <defs>
    <style>
      .cls-1 {
        fill: #c19a7c;
      }

      .cls-2 {
        fill: #dbb79c;
      }

      .cls-3 {
        fill: #f0d6c2;
      }

      .cls-4 {
        fill: #e8c3a3;
      }

      .cls-5 {
        fill: #d3ae91;
      }

      .cls-6 {
        fill: #704b3d;
      }

      .cls-7 {
        fill: #fff;
      }

      .cls-8 {
        fill: #895f4a;
      }

      .cls-9 {
        fill: #875c4b;
      }

      .cls-10 {
        fill: #df9c8d;
      }

      .cls-11 {
        fill: #c78779;
      }

      .cls-12 {
        fill: #333;
      }
    </style>
  </defs>
  <g id="Tail">
    <path id="tail" class="cls-2" d="M198.18,417.33c-21.24-2.17-41.02,33.61-77.68,63.78-21.28,17.51-55.85,39.38-112.83,55.35,16.23.13,42.68-1.04,73.52-9.26,69.94-18.63,141.38-67.85,133.49-95.92-1.76-6.26-7.92-13.08-16.51-13.95h0Z"/>
    <path id="tailEnd" class="cls-8" d="M0,537.4c16.16.51,42.55-.02,73.6-7.53,6.85-1.65,13.71-3.6,20.53-5.79-1.82-6.67-5.51-13.46-10.85-18.85-20.66,11.54-47.73,23.09-83.28,32.17Z"/>
  </g>
  <g id="rLeg">
    <path id="rThigh" class="cls-4" d="M161.23,398.59c-3.27,7.03-6.68,13.55-9.99,24.52-4.02,13.31-12.77,35.27-12.16,52.39.87,24.57,12.89,28.95,21.65,70.5,1.55,7.38,2.45,13.48,2.96,17.37-3.21,4.45-4.32,9.89-2.29,13.99,3.48,7.03,15.38,8.57,21.77,2.98,3.94-3.44,5.45-9.29,4.16-15.08.82-5.25-.76-9.82,0-12.65,4.03-13.55,26.52-44.82,29.59-48.61,2.48-3.06,4.36-4.8,5.93-5.97,2.38-1.78,4.28-3,5.19-3.53,8.59-4.92,20.48-11.39,22.51-12.67,14.32-9.02,15.74-81.17-12-89.91-11.19-4.17-36.14-11.93-61.06-5.16-13.56,3.69-12.57,7.35-16.28,11.83h0Z"/>
    <g id="rFoot">
      <path id="rFoot-2" data-name="rFoot" class="cls-4" d="M182.5,555.83c3.5,1.39,4.41,6.58,4.97,9.78.92,5.21-.13,9.09-.79,11.4-1.74,6.13-4.95,9.72-7.23,10.35-1.43.4-2.53.22-2.53.22-1.55-.25-2.99-1.02-2.99-1.02,0,0-1.28,1.39-2.51,2.47-1.72,1.52-6.03,2.23-8.36,1.23-2.58-1.11-4.28-4.45-4.28-4.45,0,0-1.66.08-3.24-.37-2-.58-3.47-1.9-4.12-2.71-2.18-2.73-.58-6.57.25-8.48,2.94-6.76,9.8-10.23,23.4-16.91,2.71-1.33,5.14-2.43,7.44-1.52h0Z"/>
      <path id="toeline" class="cls-1" d="M159.8,585.58c.22-.98.46-1.98,1.05-2.81.6-.83,1.35-1.44,2.08-2.09.23-.21.16-.62-.05-.82-.26-.23-.58-.16-.82.05-.78.7-1.59,1.38-2.19,2.25-.66.96-.95,2.07-1.21,3.19-.17.73.97.95,1.13.23h0Z"/>
      <path id="toeline-2" data-name="toeline" class="cls-1" d="M174.7,586.46c1.02-2.05.68-4.28.17-6.42-.07-.3-.46-.45-.73-.36-.32.11-.43.43-.36.73.44,1.83.76,3.77-.11,5.52-.33.67.7,1.19,1.03.52h0Z"/>
    </g>
  </g>
  <g id="lLeg">
    <path id="rThigh-2" data-name="rThigh" class="cls-4" d="M343.54,399.23c-3.42-4.7-2.2-8.29-15.51-12.82-24.45-8.32-49.84-2.14-61.27,1.33-28.24,6.99-31.32,79.09-17.6,88.99,1.95,1.4,13.41,8.61,21.68,14.06.88.58,2.7,1.92,4.96,3.84,1.5,1.27,3.27,3.12,5.55,6.33,2.82,3.98,23.32,36.6,26.5,50.37.58,2.88-1.28,7.34-.79,12.63-1.65,5.7-.51,11.63,3.21,15.31,6.03,5.98,18.01,5.18,21.92-1.62,2.29-3.97,1.52-9.46-1.41-14.11.75-3.86,2.03-9.89,4.04-17.16,11.34-40.92,23.62-44.54,26.02-69.01,1.67-17.06-5.69-39.52-8.87-53.05-2.62-11.15-5.61-17.87-8.43-25.09h0Z"/>
    <g id="rFoot-3" data-name="rFoot">
      <path id="lFoot" class="cls-4" d="M312.47,554.84c2.35-.77,4.7.48,7.33,1.98,13.16,7.51,19.79,11.41,22.29,18.34.71,1.96,2.07,5.9-.28,8.48-.69.77-2.25,2-4.28,2.45-1.61.36-3.26.17-3.26.17,0,0-1.9,3.23-4.55,4.18-2.39.85-6.64-.12-8.27-1.75-1.15-1.16-2.35-2.62-2.35-2.62,0,0-1.49.67-3.05.83,0,0-1.1.11-2.51-.38-2.24-.77-5.22-4.56-6.57-10.78-.51-2.35-1.32-6.29-.08-11.43.76-3.16,2-8.28,5.58-9.45h0Z"/>
      <path id="toeline-3" data-name="toeline" class="cls-1" d="M333.27,585.94c.12.73,1.27.58,1.14-.16-.18-1.14-.41-2.26-1.01-3.26-.54-.91-1.31-1.64-2.05-2.38-.22-.22-.54-.31-.81-.1-.23.18-.32.59-.1.81.69.7,1.4,1.36,1.94,2.22.54.86.71,1.88.87,2.87h0Z"/>
      <path id="toeline-4" data-name="toeline" class="cls-1" d="M318.35,585.89c.29.69,1.35.23,1.06-.45-.76-1.8-.31-3.73.24-5.52.09-.3,0-.62-.31-.75-.27-.11-.66.01-.75.31-.64,2.1-1.12,4.31-.24,6.42h0Z"/>
    </g>
  </g>
  <g id="Torso">
    <path id="body" class="cls-4" d="M331.42,426.5c7.25-21.48,5.85-40.04,4.75-55.47-1.62-20.99-5.33-21.08-9.72-46.95-7.33-66.04.04-84.85-10.09-121.29-1.1-3.94-3.01-10.72-6.59-19.34-8.55-20.65-16.81-28.48-21.17-38.02-4.87-10.97-3.27-32.09-7.78-34.75-11.48-8.42-28.89-13.46-41.76-11.43-41.63,5.14-32.55,31.34-36.96,41.59-4.22,10.06-17.87,24.39-25.82,44.2-2.49,6.05-4.21,11.8-5.9,19.54-7.54,34.96-5.51,70.85-7.6,130.94-1.86,25.36-4.96,28.08-4.24,45.48.49,12.93,1.21,31.21,10.44,51.71,11.41,25.2,33.95,50.17,59.37,56.67,11.64,2.98,24.03,2.68,24.03,2.68,0,0,12.1-.3,23.3-3.7,24.15-7.39,46.2-33.79,55.74-61.84h0Z"/>
    <path id="stomach" class="cls-3" d="M210.93,199.77c-1.46.16-3.7.58-6.13,1.79-1.27.62-2.23,1.32-3.01,1.96-.19.91-.28,1.81-.37,2.71.39-.19,2.33-1.14,4.68-.39,2.45.78,3.44,2.84,3.64,3.19-.78-.16-2.93-.53-5.36.58-2.14.96-3.2,2.52-3.68,3.18-2.61,28.61,1.27,52.43-4.03,124.59-.55,5.28-1.62,17.69-2.08,34.73-.07,3.05-.05,6.44.18,10.72.58,12.03,1.29,28.72,6.7,47.53,0,.02,0,.03.1.05.1.17.1.58.1.83,0,.06.1.12.1.17,0,.02,0,.03,0,.03,1.57,1.52,3.63,3.23,6.18,4.79,2.75,1.73,5.29,2.79,7.35,3.46-1.66.34-4.19.58-7.12-.13-1.76-.43-3.23-1.11-4.4-1.76.9,2.65,1.89,5.29,2.99,7.9.1.13.29.25.49.37,4.32,3.25,10.78,6.04,20.33,4.94-2.92,1.52-6.91,3.04-11.68,3.55-1.85.2-3.61.22-5.17.12,1.31,5.28,6.11,21.05,21.02,30.88,3.92,2.55,12.06,7.89,22.89,7.13,9.75-.67,16.35-5.8,21.2-9.69,16.49-13.13,22.21-31.74,24.38-40.85-2.04.69-4.48,1.29-7.21,1.47-6.05.39-10.94-1.27-14.07-2.7,3.71-.17,9.65-1.06,15.97-4.94,3.59-2.2,6.41-4.78,8.44-7.01.37-2.24.75-4.48,1.12-6.72-1.94,1.24-4.96,2.76-8.66,3.53-3.9.79-7.12.51-9.37.1,2.24-.29,8.28-1.44,13.61-7.38,3.1-3.51,4.73-7.36,5.68-9.85.52-9.03.62-20.77-.36-34.72-1.1-15.87-2.69-19.8-4.93-31.96-.51-2.42-.82-4.59-1.12-6.51-.61-3.82-1.03-6.8-1.13-8,0-.04-.1-.25-.1-.5-.31-2.68-3.92-53.31-9.96-116.7-.59-.75-1.77-2.03-3.63-2.99-1.76-.93-3.52-1.13-4.4-1.17.39-.39,1.94-1.83,4.28-1.91,1.27-.04,2.25.33,2.83.59-.3-1.38-.51-2.73-.71-4.02-1.17-.34-2.25-.67-3.52-.98-2.05-.51-4.01-.88-5.77-1.16.68-.65,2.13-1.97,4.37-2.58,1.75-.45,3.22-.34,4-.2-5.69-17.52-6.88-31.74-6.95-41.43-.19-12.2,1.52-18.84,1.68-35.29.09-13.46-30.3-18.67-34.79-19.18-5.94,1.47-37.48,12.25-36.25,19.92,2.25,13.93.74,20.11.84,33.26-.02,10.23-1.17,25.67-7.37,44.41,1.37.19,2.83.49,4.5.95,1.37.4,2.64.85,3.72,1.31h0Z"/>
  </g>
  <g id="Head">
    <g id="lEar">
      <path id="outer" class="cls-5" d="M326.74,88.74s.09-.04.13-.08c0-.03-.02-.06-.02-.09.14-.04.27-.09.4-.13,4.54-1.57,8.44-4.14,11.71-7.71,3.43-3.73,5.85-8.06,7.27-12.99.86-2.99,1.2-6.01,1.04-9.05-.15-2.64-.71-5.18-1.7-7.63-1.87-4.64-4.59-8.62-8.17-11.94-.2-.2-.42-.4-.65-.59-4.02-3.54-8.7-5.55-14.05-6.05-4.96-.38-9.85.02-14.67,1.2-.07.01-.13.03-.19.05"/>
      <path id="inner" class="cls-9" d="M323.64,82.99s.07-.03.1-.06c0-.02-.01-.04-.02-.07.11-.03.22-.07.32-.1,3.57-1.21,6.63-3.21,9.19-5.98,2.69-2.9,4.59-6.26,5.69-10.09.67-2.32.94-4.67.8-7.04-.12-2.06-.57-4.03-1.35-5.94-1.48-3.62-3.62-6.72-6.44-9.31-.16-.16-.33-.31-.51-.46-3.16-2.76-6.85-4.33-11.05-4.73-3.9-.31-7.74,0-11.54.92-.05.01-.1.02-.15.04"/>
    </g>
    <g id="rEar">
      <path id="outer-2" data-name="outer" class="cls-5" d="M208.06,15.72c-.26.02-.5.03-.74.03-.05-.04-.1-.07-.16-.11-4.08-2.84-8.5-4.96-13.27-6.38-5.17-1.45-10.26-1.24-15.28.62-.28.1-.55.2-.81.32-4.53,1.82-8.5,4.56-11.9,8.23-1.8,1.93-3.24,4.09-4.32,6.51-1.24,2.78-2,5.72-2.27,8.82-.44,5.11.27,10.01,2.14,14.73,1.77,4.5,4.5,8.3,8.17,11.39.1.09.21.18.33.27-.02.02-.04.05-.05.07.03.05.06.09.1.12"/>
      <path id="inner-2" data-name="inner" class="cls-9" d="M204.85,22.01s-.08-.06-.12-.09c-3.21-2.21-6.69-3.87-10.44-4.98-4.07-1.14-8.07-.98-12.01.46-.22.08-.43.16-.64.25-3.56,1.41-6.68,3.53-9.35,6.38-1.41,1.5-2.54,3.18-3.39,5.06-.97,2.16-1.56,4.45-1.77,6.86-.34,3.97.23,7.79,1.7,11.46,1.4,3.51,3.55,6.46,6.44,8.87.08.07.17.14.26.21-.01.02-.03.04-.04.06.03.04.05.07.08.09"/>
    </g>
    <path id="headBG" class="cls-4" d="M315.32,34.17s-.02-.03-.03-.05c-2.38-4.72-5.36-8.92-8.93-12.58-1.32-1.35-2.73-2.63-4.21-3.84-4.93-4.04-10.34-7.27-16.22-9.72-.71-.3-1.43-.58-2.14-.85-1.64-.63-3.29-1.23-4.95-1.78-.81-.29-1.57-.55-2.29-.8-6.95-2.26-14.11-3.73-21.46-4.4-1.04-.05-2.07-.1-3.11-.14-2.49-.06-4.98.04-7.48.3-2.26.24-4.5.6-6.75,1.09-6.18,1.35-12.09,3.4-17.73,6.14-1.83.89-3.64,1.86-5.42,2.9-1.56.9-3.11,1.88-4.65,2.94-.03.02-.06.04-.09.07l-10.38,7.89s-.08.16-.1.33c0,.09-.03.04-.07-.18-2.08,2.07-4.09,4.16-6.03,6.3-1.83,2.03-3.56,4.16-5.19,6.39-1.67,2.28-3.26,4.61-4.77,7-1.59,2.53-3.22,5-4.89,7.43-.33.47-.65.95-.98,1.42l-5.51,7.89s-.07-.07-.1-.12c-2.71,3.62-5.68,6.98-8.91,10.07-3.31,3.15-6.97,5.71-10.99,7.68-.37.16-.73.35-1.08.56-.19.12-.27.28-.23.49.04.24.14.4.33.47,4.52.55,9.01,1.13,13.49,1.76,1.66.25,3.34.53,5.03.83-2.14,1.39-4.22,2.85-6.25,4.39-1.1.85-2.04,1.85-2.84,3.01.48.76,1.29,1.06,2.41.9,2.44-.37,4.89-.67,7.35-.9,1.8-.15,3.34.45,4.63,1.78,2.05,2.09,3.96,4.28,5.75,6.59.05.04.11.06.2.08,2.28,3.5,4.69,6.89,7.25,10.15,1.52,1.93,3.05,3.88,4.57,5.86,1.96,2.55,4.06,5.03,6.29,7.43,7.49,8.15,16.15,14.62,25.98,19.41,6.33,3.06,12.95,4.96,19.87,5.69,5.57.51,11.11.11,16.64-1.19,5.82-1.33,11.43-3.29,16.85-5.87,8.51-4.08,17.04-8.08,25.58-12,.03-.02.06-.04.11-.04,1.55-.71,3.12-1.35,4.72-1.9.31-.11.63-.21.95-.32,7.2-2.32,14.56-3.55,22.08-3.67.33,0,.57-.15.72-.48-.33-1.38-.84-2.68-1.54-3.92-.79-1.4-1.73-2.69-2.84-3.85,4.58,1.04,8.7,3.16,12.36,6.37.72.61,1.49,1.08,2.32,1.41l.47-.63-11.32-30.1h.02s-2.11-6.96-2.11-6.96h.02s-9.7-34.89-9.7-34.89l-4.71-11.84"/>
    <path id="snout" class="cls-3" d="M307.75,85.15c-3.78-3.37-7.71-6.55-11.77-9.55-3.63-2.64-7.52-4.82-11.69-6.54-4.86-1.84-7.95-2.79-9.28-2.83-1.34-.06-5.46-.04-12.35.03-6.91.08-13.47-1.39-19.69-4.38-5.27-2.55-9.3-4.16-12.09-4.83-3.53-.61-7.09-1.08-10.68-1.4-7.46-.59-14.63.67-21.5,3.76-7.33,3.3-12.6,8.73-15.8,16.31-.77,1.87-1.41,3.8-1.93,5.8-.59,2.31-.95,4.65-1.1,7-.25,4.28.79,8.15,3.13,11.63,2.07,3.11,4.23,6.11,6.49,9,2.93,3.76,6,7.42,9.22,10.99,3.02,3.34,6.2,6.45,9.55,9.32,3.36,2.85,6.93,5.4,10.69,7.65,3.99,2.41,8.16,4.33,12.53,5.77,4.82,1.67,9.75,2.69,14.76,3.04,4.62.29,9.21-.04,13.78-1,4.8-.99,9.46-2.47,13.99-4.45,4.5-1.99,8.98-4.07,13.44-6.24,4.56-2.18,9.07-4.41,13.52-6.68,1.83-.95,3.47-2.18,4.92-3.71,3.68-3.82,6.15-8.35,7.4-13.58,1.26-5.25,1.35-10.52.27-15.8-1.03-3.65-2.96-6.76-5.8-9.33"/>
    <path id="eyepatches" class="cls-9" d="M241.96,26.79c-.97-1.75-2.24-3.25-3.81-4.48-4.2-3.34-8.82-4.17-13.87-2.49-1.39.45-2.71,1.11-3.94,1.98-4.13,2.89-7.8,6.33-11,10.32-3.16,3.92-5.84,8.15-8.05,12.7-2.29,4.74-3.09,9.67-2.41,14.81.29,2.15.89,4.19,1.8,6.12,1.64,3.45,4.21,5.93,7.72,7.42,4.77,2.05,9.71,2.67,14.82,1.88,5.08-.76,9.52-2.88,13.33-6.38,4-3.68,6.79-8.14,8.37-13.38,0-.01-.01-.03-.05-.05,1.07-5.06,1.4-10.14.99-15.24-.38-4.74-1.68-9.15-3.9-13.23M299.19,35.99c-.84-1.25-1.83-2.34-2.97-3.26-4.11-3.38-8.73-4.26-13.84-2.64-1.91.59-3.63,1.53-5.17,2.82-3.53,3.01-6.33,6.67-8.38,10.95-2.21,4.62-3.71,9.48-4.53,14.58-.04,0-.06.02-.06.03-.4,5.46.61,10.62,3.03,15.49,2.3,4.63,5.69,8.21,10.16,10.73,4.49,2.57,9.32,3.75,14.51,3.55,3.81-.14,7.1-1.53,9.86-4.17,1.54-1.48,2.84-3.17,3.88-5.07,2.48-4.55,3.5-9.45,3.06-14.69-.43-5.04-1.42-9.95-2.97-14.74-1.56-4.87-3.75-9.4-6.58-13.58"/>
    <path id="lEyebrow" class="cls-6" d="M310.55,42.59c-.19-1.79-.64-3.52-1.34-5.17-.37-.89-.83-1.77-1.36-2.63-1.52-2.46-3.17-4.78-4.95-6.98-3.24-4.02-7.23-6.97-11.95-8.85-1.45-.58-2.93-.73-4.42-.46-.31.06-.47.25-.5.56,3.18,3.37,6.65,6.54,10.42,9.53,4.35,3.5,8.2,7.45,11.56,11.85.6.78,1.18,1.58,1.74,2.39.13.2.29.22.49.05.12-.08.22-.18.3-.29h0Z"/>
    <path id="rEyebrow" class="cls-6" d="M237.1,10.49c.26-.09.44-.25.54-.48-.35-1.09-1.25-1.64-2.68-1.63-2.57-.3-5.12-.17-7.63.37-3.42.81-6.67,2.12-9.76,3.94-.97.58-1.9,1.19-2.82,1.82-.33.24-.66.48-.99.71-1.75,1.28-3.41,2.68-4.98,4.2-1.27,1.01-2.1,2.25-2.49,3.74-.01.04,0,.09.04.16.17.19.34.23.53.11,7.75-4.82,16-8.52,24.78-11.12,1.84-.53,3.66-1.14,5.47-1.83h0Z"/>
    <g id="nose">
      <path id="nose-2" data-name="nose" class="cls-10" d="M260.99,77.96c-28.43-12.49-43.13,10.13-15.27,23.48,15.2,6.08,37.3-15.77,15.27-23.48"/>
      <path id="nostrils" class="cls-11" d="M234.75,84.18c-2.09,2.06-2.23,4.31-.41,6.74.29.38.62.7,1,.94,1.13.77,2.39,1.18,3.78,1.21,2.81.04,4.62-1.31,5.41-4.05.48-1.66.07-2.97-1.22-3.92-2.72-1.94-5.58-2.25-8.56-.93M259.8,98.52c2.84.24,4.96-1.03,6.34-3.82.38-.77.45-1.49.2-2.18-1.05-3.12-3.32-4.47-6.82-4.03-1.12.13-2.05.63-2.78,1.5-1.74,2.1-1.78,4.25-.14,6.44.82,1.07,1.88,1.76,3.19,2.09h0Z"/>
      <path id="shadow" class="cls-11" d="M262.42,83.31l6.64,2.07c-7.38-8.36-24.36-12.06-33.38-7.11,9.09.84,18.12,2.14,26.74,5.04Z"/>
    </g>
    <path id="mouth" class="cls-6" d="M288.11,104.41c-4.63-.06-.94,1.59,1.26.99-20.14,19.84-52.71,10.23-73.53-2.94,18.67,15.54,48.29,21.82,69.9,8.4,2.97-1.62,4.52-6.45,7.86-3.21,2.77-1.03-3.7-4.13-5.49-3.26h0Z"/>
    <g id="rEye">
      <path id="rEye-2" data-name="rEye" class="cls-7" d="M236.46,32.58c-2.84-2.03-6.39-1.7-10.11.28-6.17,3.41-11.44,10.81-12.91,18.02-2.57,12.03,7.44,19.77,17.58,13.36,6.4-4.15,9.72-13.01,9.65-21.03-.05-3.88-1.12-8.33-4.16-10.59l-.06-.04h0Z"/>
      <path id="rPupil" class="cls-12" d="M225.16,44.03c1.42-3.63,3.93-5.65,7.51-6.08.48-.05.87.09,1.19.43,2.09,2.32,2.87,5.12,2.36,8.39-.87,5.68-3.56,10.15-8.04,13.41-.47.34-1.01.47-1.61.4-2.87-.09-4.3-1.58-4.3-4.47,0-4.24.97-8.27,2.89-12.09Z"/>
      <path id="rReflection" class="cls-7" d="M233.12,45.99c-.57-2.48-3.35-2.07-4.1.06-.83,2.28.96,5.21,3.03,3.34.92-.77,1.4-2.16,1.1-3.33l-.02-.07Z"/>
    </g>
    <g id="lEye">
      <path id="leye" class="cls-7" d="M285.17,42.21c-1.92-1.85-4.15-2.47-6.68-1.87-1.8.45-3.15,1.53-4.03,3.24-2.34,4.56-3.98,9.39-4.92,14.47-.99,5.44.12,10.27,3.35,14.48.96,1.26,2.15,2.27,3.57,3.04,3.32,1.89,6.81,2.5,10.5,1.84,1.04-.19,1.97-.64,2.79-1.35,2.52-2.19,3.97-5.02,4.35-8.5.8-5.26.17-10.3-1.88-15.13-1.67-3.94-4.01-7.34-7.04-10.22h0Z"/>
      <path id="lpupil" class="cls-12" d="M285.6,55.76c-.03-3.9-1.64-6.68-4.83-8.36-.43-.22-.85-.23-1.27-.02-2.78,1.42-4.52,3.75-5.21,6.99-1.22,5.62-.31,10.75,2.71,15.4.32.48.78.8,1.36.95,2.71.94,4.58.06,5.61-2.63,1.51-3.96,2.06-8.07,1.62-12.32Z"/>
      <path id="lreflection" class="cls-7" d="M282.4,57.5c.55-4.23-4.66-3.89-4.9-.1-.02,3.82,4.27,3.38,4.88.17"/>
    </g>
  </g>
  <g id="lArm">
    <path id="lArm-2" data-name="lArm" class="cls-4" d="M289.45,191.63c-10.09,13.74-4.56,34.66-.37,54.54,8.22,39.04,49.28,46.99,39.37,36.12-11.69-12.82-23.11-22.09-31.71-28.25-10.68-7.65-20.48-13.02-32.87-17.9-2.74-1.13-9.86-3.55-16.87-.15-2.02.98-4.83,2.34-6.04,5.6-2.12,5.69,1.45,14.94,8.04,18.66,5.81,3.28,12.96,1.67,17-4.16-1.37,3.71,5.27,10.76,12.17,17.84,12.92,13.28,25.67,25.62,50.06,30.1,11.81-17.27,11.22-32.3,8.52-50.25-3.71-24.72-10.19-67.24-27.36-72.13-10.2-2.91-19.51,9.42-19.92,9.99Z"/>
    <path id="lHand" class="cls-8" d="M253.01,230.84c1.95.5,3.8,1.46,6.82,2.35,1.61.48,3.07-.11,4.05.97.81.9.93,2.28.88,3.37,1.96,2.39,2.32,4.13,2.26,5.3-.05,1.04-.44,1.75-.42,3.6.01,1.19.18,2.11.3,2.71.42,2.16,1,3.14,1.43,4.48.41,1.29.76,3.19.4,5.79-6.13,1.03-10.54,2.84-13.52,4.38-3.45,1.78-7.72,4.35-13.33,3.37-.4-.07-.76-.17-1.13-.3-4.75-1.66-8.61-6.77-9.99-11.87-2.51-9.34,3.67-17.28,8.09-20.6.91-.69,7.12-5.36,14.16-3.55Z"/>
  </g>
  <g id="rArm">
    <path id="rArm-2" data-name="rArm" class="cls-4" d="M180.12,179.49c-17.4,4.02-26,46.16-30.95,70.67-3.59,17.79-4.94,32.77,5.99,50.61,24.58-3.25,37.93-14.94,51.5-27.55,7.24-6.73,14.23-13.43,13.05-17.21,3.74,6.03,10.8,7.99,16.77,5.01,6.77-3.38,10.79-12.44,8.96-18.23-1.05-3.32-3.78-4.82-5.75-5.9-6.83-3.75-14.06-1.69-16.86-.7-12.62,4.25-22.67,9.12-33.73,16.23-8.9,5.72-20.77,14.41-33.09,26.62-10.45,10.36,30.96,4.48,41.13-34.1,5.18-19.64,11.75-40.26,2.36-54.49-.38-.58-9.06-13.36-19.39-10.97Z"/>
    <path id="rHand" class="cls-8" d="M247.91,235.71c4.25,3.54,10.03,11.78,7.05,20.98-1.63,5.03-5.75,9.94-10.57,11.35-.37.11-.74.19-1.14.24-5.65.7-9.79-2.09-13.14-4.04-2.9-1.68-7.21-3.71-13.29-5.05-.23-2.61.22-4.5.69-5.76.5-1.32,1.13-2.27,1.65-4.41.15-.6.36-1.51.44-2.7.11-1.84-.24-2.57-.24-3.61,0-1.17.45-2.89,2.52-5.18,0-1.09.18-2.46,1.04-3.32,1.03-1.03,2.46-.37,4.1-.77,3.06-.74,4.96-1.6,6.93-2.01,7.12-1.46,13.1,3.53,13.97,4.26Z"/>
  </g>
</svg>