<?xml version="1.0" encoding="UTF-8"?>
<svg xmlns="http://www.w3.org/2000/svg" viewBox="0 0 933.68 1514.83">
  <defs>
    <style>
      .cls-1 {
        fill: #f6edd7;
      }

      .cls-2 {
        mix-blend-mode: multiply;
        opacity: .2;
      }

      .cls-3 {
        fill: #6c4c40;
      }

      .cls-4 {
        fill: #4c3b3b;
      }

      .cls-5 {
        fill: #4f3a33;
      }

      .cls-6 {
        isolation: isolate;
      }

      .cls-7 {
        fill: #d2b7a5;
      }

      .cls-8 {
        fill: #f2f2f2;
      }

      .cls-9 {
        fill: #dba39f;
      }

      .cls-10 {
        fill: #755c51;
      }

      .cls-11 {
        fill: #896f62;
      }

      .cls-12 {
        fill: #4b301a;
      }
    </style>
  </defs>
  <g class="cls-6">
    <g id="Otter">
      <g id="tail">
        <path id="tail_primary" class="cls-11" d="M540.16,1102.07c-23.99,29.61-131.37,159.3-279.29,249.87-94.26,57.71-208.36,101.72-208.36,101.72-7.42,2.72-14.84,5.43-22.26,8.15-7.36,2.69-14.72,5.39-22.08,8.08-1.4,1.21-3.07,3.02-2.78,4.88,1.75,11.44,74.94,9.09,95.63,8.42,146.28-4.71,304.64-78.16,311.06-81.2,59.26-27.98,140.38-73.51,225.6-146.83-32.51-51.03-65.02-102.07-97.53-153.1Z"/>
        <path id="tailend_secondary" class="cls-7" d="M223.49,1446.64h-8.36c4.18-23.5-8.36-19.23-27.17-25.63-6.27-2.14,4.18-8.54,2.09-12.82-2.09-2.14-8.36,0-12.54,0,0-4.27,4.18-8.54,2.09-10.68-.86-.66-1.74-1.2-2.63-1.69-69.27,35.67-129.57,59.45-129.57,59.45-7.46,2.79-14.92,5.58-22.37,8.37-7.4,2.77-14.8,5.54-22.19,8.31-1.41,1.24-3.08,3.11-2.8,5.02,1.76,11.76,75.34,9.34,96.14,8.65,43.69-1.44,88.45-9.11,129.96-19.27-.18-.16-.33-.33-.55-.48-6.27-6.41,0-12.82-2.09-19.23Z"/>
        <path class="cls-2" d="M399.19,1244.41c-21,43.99,12.15,152.56,28.41,150.1,1.76-.27,3.77-1.9,5.63-6.96-.74-5.25-2.04-13.06-4.38-22.35-5.21-20.68-12.97-33.97-14.66-40.68-7.57-30.21-6.45-54.74-4.2-70.69,1.04-9.94,1.77-22.03-1.11-22.8-2.93-.79-8.29,10.45-9.69,13.38Z"/>
      </g>
      <g id="lArm">
        <path id="lArm_primary" class="cls-11" d="M825.53,473.04c2.81,27.38,8.26,68.31,19.71,116.38,8.49,35.63,13.2,45.46,38.19,124.35,29.13,91.97,37.79,126.16,44.35,165.8,6.59,39.83,9.05,72.96,0,108.41-4.04,15.85-11.79,44.84-31.53,55.8,0,0-18.98,10.53-46.08-4.78-59.51-33.62-45.07-455.7-40.65-565.97h16.02Z"/>
        <path class="cls-2" d="M836.02,589.85s-2.99-41.75-21.65-92.98c-2.82-7.74-10.12-27.56-13.81-26.71-1.9.44-2.89,5.76-2.08,19.04,3.94,77.92,32.7,177.99,44.78,259.64,8.91,60.21,15.79,92.06,11.01,137.91-5.86,56.27-26.96,130.96-6.51,148.57,2.15,1.85,10.42,8.97,16.18,6.44,3.62-1.59,5.19-6.51,5.86-11.86,14.48-114.93-5.52-250.25-5.52-250.25-9.35-63.27-23.69-125.99-28.26-189.79Z"/>
        <path class="cls-2" d="M892.11,1001.32c-.59-1.33-1.42-2.73-2.36-2.69-2.31.08-3.36,8.6-6.32,22.28-3.61,16.69-5.97,22.23-4.68,23.01,1.59.96,7.36-6.16,10.67-14.01,4.83-11.47,3.69-22.79,2.69-28.59Z"/>
        <path class="cls-2" d="M915.35,987.53c-.66-.97-1.52-1.95-2.27-1.79-1.81.41-1.39,7.31-1.72,18.59-.39,13.75-1.45,18.5-.31,18.92,1.4.52,4.92-5.97,6.38-12.67,2.14-9.8-.44-18.6-2.09-23.05Z"/>
      </g>
      <g id="lFoot">
        <path id="lFoot_primary" class="cls-11" d="M827.96,1141c16.94,7.68,16.86,57.2,16.81,91.46-.05,32.67-5.13,57.01-7.03,65.42-9.5,42.18-26.97,75.38-42.59,98.82,6.62-1.45,16.49-2.68,28.18-.53,10.69,1.97,36.71,6.76,50.36,34.05,8.44,16.87,8.47,34.99,7.72,45.06-9.5,5.66-23.77,12.79-41.84,16.83-8.35,1.86-25.69,5.5-47.65,2.3-14.38-2.09-24.59-6.21-32.73-9.54-18.26-7.49-54.89-22.5-57.2-45.59-.55-5.46,1.4-5.64,2.54-20.93,0,0,.9-12.13,0-27.23-1.03-17.21-6.9-53.38-18.69-99.82,88.42-129.95,126.03-157.6,142.12-150.3Z"/>
        <path class="cls-2" d="M876.97,1450.71c-3.17-7.94-8.66-15.59-14.62-19.26-2.91-1.79-6.7-2.7-7.34,1.79,3.73,4.05,8.98,10.68,13.45,20.31,4.44,9.58,6.39,18.42,7.31,24.38,1.01.07,1.75-.2,2.3-.61,3.47-2.59,2.78-13.26-1.11-26.61Z"/>
        <path class="cls-2" d="M846.44,1464.05c-2.21-7.18-6.45-14.35-11.37-18.12-2.4-1.84-5.62-3.01-6.47.81,2.96,3.88,7.06,10.13,10.28,18.91,3.2,8.73,4.3,16.57,4.7,21.82.87.16,1.53,0,2.03-.3,3.18-1.89,3.29-11.19.83-23.12Z"/>
        <path class="cls-2" d="M773.43,1306.24c26.18-23.44,49-61.35,56.66-100.56,3.76-19.11,3.36-43.44-13.84-45.51-11.27,25.31-30.55,61.28-61.7,93.61-30.97,32.16-61.68,48.27-82.79,56.67.75,6.41,2.46,10.95,4.53,14.25,12.98,20.75,51.7,11.79,97.14-18.46Z"/>
      </g>
      <g id="bodyBG">
        <path id="tummybg_primary" class="cls-11" d="M835.62,678.34s-19.09-122.13-1.14-236.36c4.1-26.11,4.72-22.27,7.88-42.97,10.09-66,32.98-215.71-53.88-311.47-8.04-8.87-27.09-28.11-56.19-44.58-1.2-.97-2.39-1.93-3.61-2.87-6.24-4.83-12.71-9.86-20.05-12.89-7.16-2.95-15.08-2.5-22.32-5.25-6.59-2.5-12.28-6.85-16.72-12.3-2.2-2.7-5.63.35-5.21,3.03.11.73.1,1.43.03,2.11-.28-.09-.56-.14-.84-.21-2.98-2.4-6.26-4.36-9.87-5.86-.61-.26-1.87-.09-2.4.31-2.2,1.68-4.54,3.02-6.99,4.09-2.19-3.87-4.38-7.74-6.57-11.61-1.44-2.55-4.76-1.61-5.7.74-2.06,5.12-7.38,8.7-12.79,9.26-4.85.5-12.54-4.3-15.38,1.85-.26.56-.66,1.59-.57,2.23-.06.12-.09.22-.12.31-.94-.58-2.63-.98-3.58-1.35-2.8-1.1-5.9-1.18-8.77-.29-3.6,1.12-6.67,3.34-9.37,5.97-42.1,9.67-70.8,29.51-77.76,34.44-90.83,64.29-92.69,173.74-92.69,184.87,2.22,28.91,6.12,71.18,13.29,122.01,9.25,65.6,18.95,110.1,22.08,126.29,37.63,194.81-86.95,380.15-35.61,605.96,1.08,4.75,2.83,11.97,5.5,21.87,16.39,60.61,65.08,204.71,174.91,232.75,77.53,19.8,150.23-29.61,155.22-33.07,25.28-17.49,66.55-54.78,96.36-164.92,41.51-153.36,19.72-296.07-7.16-472.09Z"/>
        <path id="tummy_secondary" class="cls-7" d="M843.42,1044.01c-1.39-.74-4.73,4.91-6.78,4.16-2.17-.79-1.48-8.19-.57-14.21,4.83-9.9,6.64-15.26,5.41-16.08-.73-.49-2.56.66-5.47,3.43,2.04-27.6,2.76-57.76,1.32-90.09-.61-13.79-1.58-27.1-2.83-39.91,0,0-7.28-62.19-13.47-115.98,0-.04,0-.09.01-.13.27-3.33.68-8.24,1.14-13.79,1.3-15.54,1.73-20.47.4-20.87-.66-.2-1.97.66-4.86,5.96,4.24-35.92,3.06-47.7-.16-48.5-1.62-.4-3.34,2.1-5.08,1.21-2.42-1.24-.85-7-2.13-19.57-.11-1.1-.18-1.57-.26-2.34-2.37-21.22-15.87-147.06-6.24-211.95,5.08-34.28,12.17-67.89,12.17-67.89,5.27-25.03,6.55-26.98,8.67-38.36.69-3.74,6.25-27.85,6.54-53.05,2.05-10.77,3.44-18.75,4.06-21.83,0,0,.46-2.26-.35-5.58-.14-.55-.35-1.29-.8-1.38-.61-.12-1.05,1.09-2.11,1.93-.73.58-1.93,1.13-4.01,1,.38-2.31.79-5.72.71-9.87-.11-5.91-1.82-9.87-3.49-13.21-1.01-2.02-4.33-2.04-5.36-.04-2.26-3.01-4.93-5.61-8.07-7.68-16.84-11.09-42.12-.32-47.53,1.9-17.81,7.3-16.71,15.61-34,25.69-24.75,14.42-60.32,16.84-84.28,2.64-10.95-6.49-8.18-9.75-24.49-21.22-21.13-14.86-40.85-19.98-45.64-21.16-16.79-4.11-42.8-10.87-63.09,2.81-12.87,8.68-18.82,21.17-21.94,28.9-.68,1.68-1.31,3.38-1.92,5.09-.47-1.17-1.38-2.98-3.08-4.73-1.33-1.36-1.99-2.04-2.49-1.96-1.32.2-2.25,5.57-1.28,25.45-1.6-4.07-2.47-4.94-2.97-4.85-1.72.32.11,12.18.69,14.38.43,1.6,1.3,2.79,1.3,2.79-11.57,26.43-11.31,46.16-8.74,59.53,3.47,18.07,12.32,30.45,18.5,62.17,1.82,9.34,2.78,17.12,3.31,22.28.48,3.55.98,7.41,1.53,12.1,3.92,33.11,5,59.99,5.33,76.92-2.6-6.87-3.73-8.15-4.28-8.03-2.87.67.25,42.34,8.63,79.6.64,2.83,4.56,20.12,1.99,21.02-1.48.52-4.07-4.78-5.27-4.3-2.92,1.16,8.31,34.62,6.42,35.32-1.27.47-7.05-14.54-9.1-13.91-1.66.51-.3,11.13,2.32,20.34,2.76,9.7,6.74,17.2,9.88,22.25-.21,26.62-1.19,49.44-2.03,68.3-2.14,47.62-5.29,102.85-15.36,165.88-2.22,13.89-6.36,37.98-6.58,71.06-.12,17.89.95,32.54,1.87,42.09.98,5.26,1.47,9.32.68,9.56-1.22.38-4.3-8.61-5.91-8.2-1.38.35-.96,7.48.4,13.7.94,4.31,2.66,8.44,5.11,12.23.29,11.24.77,20.31,1.33,27.59-3.63-6.48-5.86-9.55-6.69-9.2-1.61.66,2.05,14.13,10.96,40.4,10.12,53.27,26.5,129.63,89.94,161.48,38.89,19.52,88.28,18.71,126.52,0,26.58-13.01,43.51-32.58,56.19-50.7,12.83-18.35,23.38-38.21,32.04-58.81,9.27-9.28,17.53-19.91,19.39-33.12.5-3.54-3.5-5.31-5.7-2.4-.38.51-.81.98-1.2,1.48,4.77-15.04,8.69-30.23,11.9-45.32,3.54-7.11,6.31-13.2,8.33-17.81.58-1.31,4.23-9.72,8.03-21.16,2.76-8.31,3.8-12.83,2.65-13.44Z"/>
        <path class="cls-2" d="M657.21,429.8c-15.84-3.15-28.02-11.82-31.42-8.86-1.13.98-.73,2.7-.37,3.62,4.67,11.76,32.33,19.19,49.04,17.58,8.19-.39,17.1-2.47,23.39-5.89.85-.46,8.65-5.83,7.08-8.44-2.47-4.1-23.08,6.89-47.71,1.99Z"/>
        <path class="cls-2" d="M782.41,810.83c-10.39-5.28-21.91-7.53-33.29-8.25-1.81-.33-3.14-2.14-5.13-2.43-9.21-1.95-18.53-2.91-27.89-2.95-2.46.27-3.91-1.99-6.44-1.94-4.76.09-6.41.87-11.9,1-4.24.1-10.77-.61-11.25-2.96-.35-1.7,2.71-3.09,2.42-3.93-1.05-3.03-42.65,9.98-43.01,8.76-.1-.35,3.37-1.65,3.18-2.63-.17-.87-3.21-1.08-4.11-.89-10.01,2.16-20.17,3.69-30.35,4.31-2.76.44-2.86-3.64-5.54-3.3-4.05,1.4-10.05,3.6-17.22,6.67-4.4,1.88-20.17,8.64-19.7,10.18.38,1.25,11.4-1.21,19.56-3.78,3.77-1.19,6.88-2.39,9.08-3.3,12.55.48,25.45-.8,37.93-3.1.82.26,1.7.48,2.62.66,5.56,1.07,10.46.02,13.91-1.19,14.25-7.06,20.16-6.74,22.85-4.88.71.49,2.39,1.91,5.06,2.45,3.76.76,6.76-.78,7.02-.15.35.85-5.04,3.7-4.72,4.52.35.9,6.96-2.62,15.32-1.46,2.96.41,2.26,1.66,5.68,1.5,8.23-.4,16.58-.35,24.75.69,1.25.12,2,.83,2.32,2.17.27,1.37,1.53,2.34,2.85,2.51,14.82-1.03,29.64.84,43.32,7.23.61.28,2.77.79,3.62-.25.96-1.17-.23-3.84-.95-5.26Z"/>
      </g>
      <g id="rFoot">
        <path id="rFoot_primary" class="cls-11" d="M449.33,986.58c-2.96,5.44-7.48,14.05-12.47,24.82-49.68,107.22-42.4,206.27-39.31,242.47,5.25,61.29,19.28,94.48,24.54,106.09,9.49,20.95,19.98,37,27.65,47.59-5.1,4.69-13.3,13.63-18.48,27.87-1.64,4.5-14.32,40.83,3.7,61.6,10.6,12.21,28.12,14.78,44.35,7.33,1.75,1.8,12.14,12.15,27.1,10.27,12.51-1.57,20.18-10.67,22.17-13.2,2.24,1.23,11.76,6.12,22.17,1.47,12.52-5.59,16.56-20.77,17.25-23.36,5.31-19.88-4.51-40.68-11.09-54.61-7.7-16.32-11.4-16.14-12.32-24.7-1.14-10.65,16.87-36.78,23.82-49.86,4-7.53,8.79-19.23,10.38-35.9-24.74-14.29-71.47-46.01-104.77-104.53-56.97-100.11-30.83-201.6-24.69-223.34Z"/>
        <path class="cls-2" d="M478.6,1460.99c-1.08-1-2.43-1.98-3.42-1.58-2.41.97-.59,9.28.99,23.11,1.93,16.87,1.33,22.93,2.97,23.15,2.01.27,5.65-8.58,6.45-17.14,1.16-12.51-3.93-22.55-6.98-27.54Z"/>
        <path class="cls-2" d="M536.27,1479.98c-1.47-7.06-5.25-14.44-10.29-18.78-2.46-2.12-5.96-3.75-7.48-.34,2.81,4.11,6.56,10.62,8.94,19.33,2.37,8.66,2.48,16.14,2.17,21.09.97.3,1.74.26,2.36.07,3.89-1.22,5.38-9.85,4.31-21.37Z"/>
        <path class="cls-2" d="M572.52,1341.44c.6-.43,1.49-1.1,2.49-2,11.02-9.98,10.35-26.05,10.22-28.43-.5-8.87-3.96-17.04-5.31-16.82-1.34.22-.34,8.57-1.13,20.27-.76,11.25-3.64,20.45-6.27,26.98Z"/>
      </g>
      <g id="rEar">
        <path id="rEar_primary" class="cls-11" d="M437.79,115.4c-14.92-8.88-34.85-1.27-38.19,0-5.23,2-20.23,7.71-27.1,23.41-6.37,14.53-1.69,28.3,0,33.26,1.53,4.49,4.71,13.85,13.55,20.94,8.87,7.12,18.69,8.17,34.49,9.86,9.53,1.02,14.3,1.53,17.25.27,20.26-8.65,27.68-71.26,0-87.74Z"/>
        <path class="cls-2" d="M414.73,128.37c-14.61.72-22.21,14.17-23.18,15.94-1.37,2.52-6.02,11.93-2.71,22.79,3.74,12.26,16.4,22.35,23.71,19.71,3.33-1.2,3.66-4.6,7.64-13.92,11.53-27.02,16.31-31.66,13.24-37.35-4.17-7.73-17.57-7.22-18.71-7.16Z"/>
      </g>
      <g id="lEar">
        <path id="lEar_primary" class="cls-11" d="M804.32,107.3c6.67-7.35,18.58-7.99,19.09-8.01,12.77-.52,21.83,7.93,25.87,11.7,3.44,3.21,11.93,12.12,14.17,26.49,2.38,15.31-3.91,26.82-6.16,30.8-2.59,4.57-11.95,21.12-23.14,20.94-21.44-.33-47.83-62.09-29.83-81.92Z"/>
        <path class="cls-2" d="M820.72,120.85c-.78.86-1.93,2.94,4.22,19.62,5.93,16.11,8.9,24.16,12.04,24.19,6.27.07,17.48-22.2,8.65-35.5-6.16-9.27-21.02-12.62-24.9-8.31Z"/>
      </g>
      <g id="mouth">
        <path class="cls-4" d="M567.2,296.58c11.97-2.32,23.84,3.1,23.6,5.08-.11.93-4.01,1.71-11.82,3.27-2.39.48-4.41.83-5.89,1.07,6.92,6.29,17.85,14.83,33.27,22.04,7.01,3.28,28.61,12.68,58.78,13.83,8.66.33,40.53.84,74.37-15.34,11.56-5.53,20.27-11.53,26.14-16.07-.04,1.67-.35,4.09-1.66,6.71-2.9,5.79-8.58,8.41-10.44,9.19-.04,5.16-.86,35.77-28.73,56.69-32.63,24.5-74.7,14.93-83.61,12.89-43.59-9.99-63.73-42.13-68.57-50.57-8.35-14.58-10.73-28.06-11.47-36.51-1.84,1.41-4.42,3.66-6.69,6.87-3.39,4.78-3.75,8.35-4.9,8.29-1.5-.08-3.77-6.37-2.02-12.31,2.29-7.75,11-13.46,19.63-15.13Z"/>
        <path class="cls-1" d="M743.47,324.56c-3.65,1.49-9.64,3.81-17.21,6.24-14.4,4.61-30.76,9.7-51.91,9.73-7.79.01-13.74-.55-18.8-1.24-14.61-1.98-24.29-3.97-32.95-6.75-2.6-.83-9.08-3.62-22.04-9.18-5.37-2.31-10.49-4.55-16.46-8.58-2.81-1.89-5-3.63-6.5-4.89-.59,5.27-1.18,10.54-1.76,15.81,2.87,2.36,7.53,5.98,13.71,9.85,42.44,26.56,89.41,22.76,106.73,21.36,2.34-.19,17.32-1.54,32.86-9.09,9.2-4.47,12.77-8.28,14.33-12.46,1.62-4.36.78-8.41,0-10.81Z"/>
        <path class="cls-9" d="M643.25,375.3c-16.03-9.31-36.94-15.77-52.3-5.09,11.11,10.48,27.17,21.24,49.28,26.31,3.12.71,9.99,2.28,18.9,3.14-1.09-9.82-5.38-18.63-15.88-24.36Z"/>
      </g>
      <g id="rEye">
        <path class="cls-8" d="M572.82,147.24c-4.22,6.7-8.88,16.69-9.59,29.21-.21,3.7-1.51,26.58,9.78,32.19,1.01.5,6.66.68,17.93,1.01,9.75.29,11.3.42,13.39-.59,3.69-1.78,7.36-6.16,9.3-17.95,3.05-18.61,1.61-54.64-14.48-58.52-1.8-.43-11.39-2.31-26.33,14.65Z"/>
        <g>
          <path class="cls-12" d="M591.38,153.66c-8.76,6.22-13.03,26.25-7.83,38.94,2.52,5.76,8.08,9.39,12.29,6.46,5.55-4.16,7.77-14.41,8-23.62.36-10.63-3.05-27.88-12.37-21.85l-.1.07Z"/>
          <circle class="cls-8" cx="594.89" cy="173.36" r="4.31"/>
        </g>
        <path class="cls-10" d="M581.58,206.33c-9.17,1.59-16.84,7.38-16.26,9.04.62,1.77,10.39-2.25,26.3-1.5,13.58.64,20.42,4.23,20.84,3.14.64-1.69-14.38-13.53-30.89-10.67Z"/>
      </g>
      <g id="lEye">
        <path class="cls-8" d="M753.3,152.56s14.6,17.42,7.71,40.77c-2.12,7.18-6.48,10.67-6.48,10.67h0c-4.15.12-7.28.91-9.32,1.58-4.17,1.37-5.91,2.93-8.7,2.44-2.37-.42-4.06-2.09-5.58-4-7.93-10-9.6-21.33-9.6-21.33-.62-4.2-5.3-38.51,7.71-43.35,9.83-3.66,23.19,11.97,24.24,13.22Z"/>
        <g>
          <path class="cls-12" d="M736.79,154.45c7.84,5.3,12.02,22.84,7.7,34.13-2.1,5.13-6.92,8.43-10.69,5.94-4.97-3.55-7.14-12.53-7.54-20.63-.54-9.36,2.1-24.61,10.44-19.5l.09.06Z"/>
          <circle class="cls-8" cx="734.04" cy="169.12" r="3.8"/>
        </g>
        <path class="cls-10" d="M743.62,202.9c-5.57,2.68-9.84,7.61-9.16,8.7.71,1.13,6.38-2.52,16.63-4.84,11.56-2.63,18.11-1.11,18.21-2.09.16-1.46-13.94-7.41-25.68-1.76Z"/>
      </g>
      <g id="nose">
        <path class="cls-3" d="M615.59,227.69c-21,17.73-5.67,43.95,11.85,59.06,10.37,8.76,24.21,13.9,38,15.26,19.29,1.9,37.14-.73,54.75-8.75,13.92-6.36,27.55-16.13,32.48-30.33,3.8-11.62,4.07-24.3-2.61-33.76-5.88-7.86-18.76-10.45-29.5-13.64-24.63-6.65-53.57-7.92-79.36-.45-9.19,2.44-19.08,6.77-25.41,12.46l-.18.15Z"/>
        <path class="cls-5" d="M673.78,270.88c-2.38-11.03-13.17-23.27-28.89-23.01-14.93.25-28.8,11.7-28.91,22.92-.09,9.9,10.55,16.34,17.54,20.57,6.95,4.21,18.65,11.29,28.94,6.91,10.41-4.43,13.34-18.03,11.32-27.38Z"/>
        <path class="cls-5" d="M700.96,267.14c4.44-8.66,14.49-16.27,26.31-15.5,6.81.45,17.45,3.89,20.04,11.76,2.9,8.82-6.27,17.19-9.95,20.54-8.91,8.12-26.46,16.45-35.13,9.44-6.88-5.56-5.28-18.44-1.28-26.24Z"/>
      </g>
      <path id="rEyebrow" class="cls-10" d="M595.95,89.88c-22.8-7.65-58.96,14.85-63.39,39.69-1.36,15.8,27.85-14.67,35.33-17.6,4.05-3.74,38.56-16.16,28.25-21.99l-.19-.1Z"/>
      <path id="lEyebrow" class="cls-10" d="M776.37,120.09c-3.78-6.87-19.9-15.77-30.92-18.39-8.73-2.25-17.96-3.34-25.64-2.04-5.2.9-4.9,3.55-1.13,5.79,2.75,2.97,62.49,26.08,57.79,14.85l-.1-.2Z"/>
      <g id="rArm">
        <path class="cls-2" d="M479.62,648.62c-4.86-1.95-53.71,92.73-42.56,161.02.39,2.39,5.56,36.54,6.4,69.99.23,9.27-.04,19.59-1.16,31.59-1.28,13.77-2.35,25.17-6.55,40.36,0,0,0,.02-.01.05,0,0-.54,1.95-1.13,3.84-.93,3-29.99,40.58-32.94,69.26-.41,3.96-.58,10.33,1.44,18.59-.15,2.86-1,23.29,8.08,28.69,10.65,6.34,27.52-12.46,32.73-18.26,4.91-5.47,23.59-26.66,30.64-72.86,7.39-48.44-.56-91.51-8.47-134.39-2.46-13.31-3.27-15.6-4.18-20.02,0,0-.68-3.42-1.21-6.96-5.08-34.21,7.59-100.01,7.59-100.01,8.99-46.68,13.48-70.03,11.32-70.9Z"/>
        <path id="rArm_primary" class="cls-11" d="M475.96,498.02c-33.17-12.5-127.02,127.96-148.79,243.93-7.88,41.98-10.45,62.79-6.47,92.13,5.98,44.12,22.4,59.36,17.79,99.38-1.77,15.33-5.69,26.26-4.62,48.19.67,13.87,1.61,29.68,10.44,45.3,11.79,20.84,29.5,26.94,32.71,27.98,27.9,9.02,50.8-11.95,54.33-15.29,22.9-21.7,26.72-56.28,29.4-83.5,5.04-51.28-4.84-89.67-8.44-109-8.38-45.01-8.85-111.79,28.42-204.77,16.98-108.92,8.3-139.42-4.76-144.34Z"/>
        <path class="cls-2" d="M401.19,990.05c-1.05-1.96-2.46-3.99-3.9-3.83-3.5.39-4.13,13.45-7.07,34.6-3.58,25.78-6.55,34.48-4.49,35.52,2.53,1.27,10.49-10.21,14.62-22.51,6.04-17.98,3.02-35.07.84-43.78Z"/>
        <path class="cls-2" d="M436.34,1002.15c-.69-1.28-1.62-2.61-2.56-2.51-2.29.25-2.71,8.82-4.64,22.69-2.35,16.91-4.3,22.62-2.95,23.3,1.66.84,6.88-6.7,9.59-14.77,3.96-11.79,1.98-23,.55-28.71Z"/>
        <path class="cls-2" d="M368.66,1002.15c-.69-1.28-1.62-2.61-2.56-2.51-2.29.25-2.71,8.82-4.64,22.69-2.35,16.91-4.3,22.62-2.95,23.3,1.66.84,6.88-6.7,9.59-14.77,3.96-11.79,1.98-23,.55-28.71Z"/>
      </g>
    </g>
  </g>
</svg>