<?xml version="1.0" encoding="UTF-8"?>
<svg xmlns="http://www.w3.org/2000/svg" viewBox="0 0 713.28 1145.26">
  <defs>
    <style>
      .cls-1 {
        fill: #424242;
        opacity: .47;
      }

      .cls-1, .cls-2, .cls-3 {
        mix-blend-mode: overlay;
      }

      .cls-4 {
        fill: #7a4f2d;
      }

      .cls-5 {
        mix-blend-mode: multiply;
        opacity: .3;
      }

      .cls-6 {
        fill: #583d25;
      }

      .cls-7 {
        opacity: .6;
      }

      .cls-7, .cls-8 {
        fill: #fff;
      }

      .cls-9 {
        fill: #e2ba57;
      }

      .cls-10 {
        isolation: isolate;
      }

      .cls-11 {
        fill: #9e7552;
      }

      .cls-12 {
        fill: #3b3e40;
      }

      .cls-13 {
        fill: #f2ca80;
      }

      .cls-14 {
        fill: #c3a180;
      }

      .cls-2 {
        opacity: .2;
      }

      .cls-3 {
        opacity: .41;
      }

      .cls-15 {
        fill: #dcbca1;
      }

      .cls-16 {
        fill: #f2f2f2;
      }

      .cls-17 {
        fill: #c2a180;
      }

      .cls-18 {
        fill: #bf5454;
      }

      .cls-19 {
        fill: #96653f;
      }

      .cls-20 {
        fill: #c28e67;
      }

      .cls-21 {
        fill: #4b301a;
      }
    </style>
  </defs>
  <g class="cls-10">
    <g id="Body">
      <g id="tail">
        <path id="tailbg_primary" class="cls-11" d="M265.92,689.23c-59.24,93.45-118.48,186.9-177.72,280.35-3.93,16.22.42,21.52,2.16,23.15,8.63,8.06,32.54.29,59.87-20.71-.73,20.01.22,48.35,8.26,80.96,7.18,29.13,21.14,85.74,47.04,91.75,29.48,6.85,73.51-52.1,112.56-140.33-2.08,12.27-3.62,32.64,5.09,54.47,3.14,7.86,5.51,13.79,8.21,14.34,10.77,2.19,42.34-78.44,129.92-417.35-65.13,11.13-130.26,22.25-195.39,33.38Z"/>
        <path id="tailline2" class="cls-2" d="M246.44,807.04c-2.44-.57-10.66,46.68-39.96,117.75-20.17,48.93-37.15,77.16-35.42,78.12,2.02,1.13,29.26-35.51,49.35-84.07,24.12-58.31,28.59-111.2,26.04-111.8Z"/>
        <path id="tailline1" class="cls-2" d="M343.9,887.57c-.1,54.83-7.39,103.75-2.22,104.65,1.48.25,3.26-3.54,3.86-4.83,16.92-36.03-3.38-202.15-10.12-200.69-2.96.64,8.61,31.12,8.48,100.87Z"/>
      </g>
      <g id="lWing">
        <path id="lwing_primary" class="cls-11" d="M520.22,359.59c7.96-2.3,28.7-7.12,49.55,2.2,7,3.13,17.28,9.31,27.72,24.04,24.04,33.91,33,90.65,23.26,147.9-8.69,51.13-29.76,87.78-40.5,106.09-.57.97-12.51,18.03-36.4,52.16,0,0-13.31,19.01-45.92,50.8-2.7,2.63-12.47,11.9-25.71,12.4-6.13.23-8.62-1.58-9.62-2.49-3.53-3.23-3.9-9.38-1.07-15.68-1.19-2.59-2.42-6.08-2.86-10.27-1.05-9.95,2.98-17.52,4.97-20.71-3.18-13.4-5.86-29.69-6.45-48.23-.8-24.89,2.42-46.04,6.24-62.18-.62-.16-2.11-.63-3.34-1.96-1.86-2.01-1.66-4.4-1.61-4.82,1.14-9.12,3.43-20,7.98-31.75,2.14-5.52,4.5-10.52,6.89-14.99-2.32-5.6-4.16-11.1-5.6-16.48-19.11-71.48,28.63-137.58,52.48-166.05Z"/>
        <path id="lfeatherline2" class="cls-1" d="M582.85,566.84c2.12,4.33,9.87.48,15.96-3.34-4.51,14.36-11.6,34.22-22.36,55.65-6.95,13.84-13.08,23.65-12.65,24.33.54.86,11.3-13.16,21.3-31.4,10.21-18.62,25.14-51.68,20.81-59.27-1.2-2.11-4.33-3.02-13.03,2.96,2.9-9.4,6.31-22.25,8.91-38.1,6.5-39.62,4.38-76.23,2.61-76.53-2.24-.38,2.42,58.16-16.07,103.27-2.41,5.87-7.77,17.78-5.48,22.44Z"/>
        <path id="lfeatherline1" class="cls-2" d="M547.57,564.29c-15.12,101.92-86.83,169.45-92.28,166.71-5-2.51,38.5-65.14,64.93-170.89,30.85-123.43,15.54-210.59,21.15-212.42,3.7-1.2,23.79,98.01,6.2,216.59Z"/>
      </g>
      <g id="stick">
        <path id="stickpiece1" class="cls-19" d="M614,799.73c-1.87,1.31-27.74,4.87-51.1,15.28-23.36,10.41-26.7,13.33-16.5,21.76,10.2,8.44,66.54,16.89,98.14,29.74,31.6,12.85,63.53,25.46,67.64,34.42,4.11,8.95-4.27,18.03-9.54,16.88-5.27-1.15-68.7-29.61-93.7-35.39-25.01-5.79-81.59-16.76-119.98-23.24-38.39-6.49-74.3-5.57-109.86.47-35.55,6.04-99.61,18.71-126.04,20.38-26.42,1.68-62.23-9.26-96.69-10.39-34.46-1.13-111.42,22.32-136.28,10.15l-2.58-73.75s43.77,6.49,71.71,4.16c27.93-2.33,88-4.52,121.89-.55,47.2,5.53,87.8,6.8,126.89,8.14,39.1,1.34,96.96.66,144.15-13.51,47.19-14.17,89.15-28.42,104.05-30.15,0,0,35.52,20.21,27.79,25.62Z"/>
        <path id="stickpiece1-2" data-name="stickpiece1" class="cls-4" d="M702.65,917.82c3.01.66,7.02-2.03,9.16-6.11-76.16-31.08-109.25-40.9-169.76-55.4-73.29-17.57-133.68-8.97-204.11-4.78-104.11,6.2-208.38,9.23-312.57,13.85-1.84.08-3.76.45-5.72,1.02l.47,13.4c24.86,12.17,101.82-11.28,136.28-10.15,34.46,1.13,70.26,12.07,96.69,10.39,26.42-1.67,90.49-14.34,126.04-20.38,35.55-6.04,71.46-6.95,109.86-.47,38.4,6.48,94.98,17.46,119.98,23.24,25.01,5.79,88.43,34.24,93.7,35.39Z"/>
        <path id="circle2" class="cls-20" d="M613.36,790.46c-6.97-14.27-37.22-23.4-28.6-9.53,8.62,13.86,38.59,29.97,28.6,9.53Z"/>
        <path id="circle" class="cls-20" d="M17.53,806.04c-11.37-1.39-19.21,15.73-17.22,35.3,1.47,14.42,12.75,44.37,27.45,39.2,18.73-6.59,9.32-72.12-10.23-74.5Z"/>
      </g>
      <path id="body_secondary" class="cls-14" d="M210.1,323.88c-24.35,45.29-36.82,85.44-43.65,113.99,0,0-37.2,155.49,43.65,319.91,4.84,9.84,13.01,22.81,27.68,34.07,30.18,23.16,67.51,21.4,79.24,20.85,7.98-.38,23.16-1.76,42.59-8.52,15.34-5.34,52.12-20.56,91.11-66.63,84.69-100.06,96.74-247.43,97.95-265.11,2.5-36.57,2.67-91.96-11.71-159.03-108.95,3.49-217.91,6.98-326.86,10.48Z"/>
      <path id="neckfur_secondaryLight" class="cls-15" d="M212.71,284.87c-8.43,9.04-12.23,19.59-12.23,19.59-3.95,10.95-3.28,20.4-2.79,26.47.83,10.16,2.66,32.68,16.16,39.71,4.43,2.31,9.87,2.82,14.63,8.5,2.86,3.42,2.53,5.2,5.63,7.55,4.46,3.4,7.56,1.54,13.43,4.63,2.94,1.54,4.73,3.47,8.33,7.34,6.97,7.49,6.02,9.67,9.89,12.78,6.55,5.27,11.89,1.15,20.37,4.82,6.96,3.01,7.12,7.42,15.74,18.25,8.16,10.26,19.22,24.16,32.77,24.33,3.31.04,9.58-.7,17.36-7.27,4.9,7.03,11.89,15.36,21.65,23.16,23.27,18.6,48.3,22.93,60.62,24.17,10.2-5.88,23.71-15.12,36.99-29.16,11.27-11.91,18.98-23.68,24.16-33.03-.17,6.46,1.02,8.44,2.27,8.92,4.2,1.63,14.08-11.58,20.04-22.51,8.27-15.18,10.26-28.33,14.2-28.06,2.28.15,2.72,4.68,4.32,4.74,5.31.19,17.79-41.24,12.42-65.6-19.8-89.88-310.83-76.25-335.94-49.32Z"/>
      <g id="shadows">
        <path id="_6" data-name="6" class="cls-2" d="M281.5,540.2c-18.17,92.78-93.37,157.57-102.66,151.47-7.66-5.03,32.86-56,63.41-167.01,18.09-65.73,19.73-105.43,27.27-105.23,9.27.25,23.76,60.58,11.97,120.77Z"/>
        <path id="_5" data-name="5" class="cls-1" d="M497.9,526.16c-8.05,18.27-17.21,24.08-24.02,26.04-12.38,3.56-20.25-4.67-35.51.41-10.75,3.57-9.69,8.22-19.82,11.06-10.38,2.9-21.5-2.18-31.53-2.57-10.68-.41-9.82,3.65-24.5,6.2-11.89,2.06-23.18,4.02-33.89-.58-15.37-6.59-19.94-22.56-22.73-21.24-2.44,1.15-1.73,14.69,6.4,23.7,13.74,15.23,41.36,9.43,45.22,8.62,13.96-2.93,13.22-7.46,25.91-8.99,18.69-2.26,23.06,7.23,35.97,2.76,12.03-4.17,13.69-14.3,25.72-14.96,6.05-.33,6.5,2.19,14.13,2.21,12.46.04,21.65-6.63,23.41-7.95,11.83-8.88,14.64-21.52,15.25-24.7Z"/>
        <path id="_4" data-name="4" class="cls-1" d="M463.46,613.19c-6.52,4.42-12.14,8.23-18.34,6.84-6.6-1.47-9.02-7.75-14.22-6.71-2.73.55-2.7,2.4-6.5,5.03-4.98,3.45-11.82,4.97-17.69,4.05-7.4-1.15-8.96-5.51-14.69-4.48-4.16.75-4.43,3.24-7.79,3.04-4.95-.29-6.36-5.82-11.59-6.24-2.84-.23-5,1.2-6.38,2.02-9.14,5.41-25.35,8.55-33.8,7.86-16.79-1.36-25.69-19.62-27.55-18.14-1.79,1.43,4.64,19.89,19.91,26.8,20.07,9.08,42.4-7.66,44.01-8.9,1.75,1.48,6.12,4.76,12.01,4.95,1.19.04,3.3.09,5.79-.89,2.91-1.14,4.71-3.04,5.57-4.08,3.01,1.75,7.86,4.01,14.16,4.7,12.98,1.41,22.71-4.9,25.59-6.93,2.75,1.22,7.42,2.87,13.06,2.5,21.15-1.39,35.08-29.82,35.32-29.64.14.11-5.07,10.19-16.87,18.2Z"/>
        <path id="_3" data-name="3" class="cls-1" d="M495.57,395.57c-.65.7-4.82,5.12-6.6,4.45-1.49-.57-.19-4.31-1.32-4.67-1.58-.49-6.14,6.19-8,8.79-7.8,10.91-17.02,18.45-31.79,30.54-7.42,6.07-12.48,9.51-12,10.06.61.7,9.57-3.9,15.91-7.72,8.1-4.88,19.23-12.89,30.34-25.97,1.2-1.88,3.02-4.33,4.48-4.12,1.87.26,1.45,4.66,3.3,5.01.56.11,2.42.05,8.1-8.94,7.19-11.37,8.76-18.49,9.18-20.52.81-4.01,1.01-7.57.49-7.63-.91-.12-2.88,10.84-12.09,20.72Z"/>
        <path id="_2" data-name="2" class="cls-2" d="M424.52,377.94c-103.34,15.32-198.51-32.62-195.57-43.46,2.42-8.94,70.44,11.29,197.32,1.23,75.13-5.96,117.09-18.27,119.66-11.12,3.15,8.78-54.37,43.41-121.4,53.35Z"/>
        <path id="_1" data-name="1" class="cls-1" d="M390.04,438.74c-.91-.29-6.7-2.15-6.85-4.04-.13-1.59,3.81-2.02,3.65-3.2-.23-1.64-8.23-2.89-11.38-3.45-13.2-2.36-23.97-7.44-41.23-15.58-8.67-4.09-13.95-7.18-14.24-6.51-.37.85,7.63,6.97,13.8,11.05,7.89,5.22,19.9,11.82,36.49,16.24,2.21.28,5.2.87,5.65,2.27.57,1.8-3.58,3.31-3.11,5.13.14.55.99,2.21,11.56,3.48,13.35,1.6,20.46-.03,22.47-.53,3.97-.99,7.26-2.34,7.1-2.84-.28-.87-11.03,2.05-23.91-2.01Z"/>
      </g>
      <g id="rWing">
        <path id="rwingbg_primary" class="cls-11" d="M183.85,336.99c19.25-6.32,31.6-3.06,35.24-1.95,4.49,1.37,17.91,7.39,33.25,28.99,28.17,39.68,36.45,103.55,21.45,166.51-13.39,56.22-41.44,95.32-55.72,114.85-.75,1.03-16.47,19.07-47.9,55.14,0,0-17.51,20.1-59.66,52.86-3.49,2.71-16.11,12.25-32.59,11.74-3.41-.1-8.08-.55-11.83-3.54-7.54-6.02-5.49-18.04-3.58-29.2.94-5.5,2.86-13.46,7.22-22.65-3.27-15.17-5.79-33.52-5.59-54.21.27-27.76,5.34-51.06,10.9-68.71-.76-.23-2.59-.87-4.05-2.46-2.21-2.39-1.84-5.03-1.76-5.49,1.88-10.06,5.28-21.99,11.52-34.71,2.94-5.98,6.12-11.35,9.33-16.13-3.71-24.23-4.66-58.29,8.41-94.91,1.9-5.31,28.7-77.51,85.36-96.12Z"/>
        <path id="rfeatherline2" class="cls-1" d="M206.48,535.2c-5.04-2.17-50.3,97.09-114.79,154.26-5.2,4.61-23.84,20.75-22.71,21.89,1,1.01,17.1-10.17,24.61-15.64,66.85-48.67,96.05-113.3,103.27-130.29,4.31-10.15,11.81-29.28,9.62-30.22Z"/>
        <path id="rfeatherline1" class="cls-1" d="M149.21,494.93c-2.48-.93-10.37,17.52-26.41,39.85-24.65,34.32-50.64,52.85-48.61,54.82,1.42,1.39,14.85-7.26,24.01-14.15,10.83-8.14,33.22-25.4,45.33-55.45,4.45-11.03,7.72-24.31,5.68-25.07Z"/>
      </g>
      <g id="rFoot">
        <path class="cls-9" d="M244.49,788.86c-2.46-1.13-10.42-4.46-18.89-2.16-6.05,1.64-9.15,5.27-14.33,11.34-4.66,5.45-10.23,11.93-7.82,14.88,3.14,3.83,15.02-4.11,25.24-.32,16.84,6.24,11.57,37.75,22.4,39.42,2.11.33,5.42-.38,10.41-5.58.05,1.51.45,5.71,4.21,9.42,3.62,3.57,10.23,6.56,17.34,5.07,8.21-1.73,11.31-8.22,11.6-8.86,1.71.26,7.81,1.02,12.45-2.05,1.94-1.29,3.93-3.45,5.15-9.36,2.21-10.8-1.11-19.85-2.28-22.75-3.01-7.47-7.01-17.39-17.55-20.5-3.65-1.07-7.03-1.03-9.33-.81-4.05-9.14-13.86-14.85-23.61-14.32-8.24.46-13.6,5.23-15.01,6.57Z"/>
        <path class="cls-3" d="M253.97,811.98c-.63-.25-1.44-.48-1.91-.19-1.8,1.11,3.33,8.2,6.24,15.84,1.56,4.11,3.15,10.13,2.82,18.05.09.47.27.98.63,1.05,1.06.19,3.71-3.62,4.16-7,.58-4.38.2-7.88-.1-9.12-2.13-8.7-8.65-15.6-11.83-18.65Z"/>
        <path class="cls-3" d="M288.61,813.19c-.7-.36-1.73-.79-2.32-.47-2.03,1.12,4.82,9.28,7.22,20.44,2.33,10.82-.75,18.78,1,19.08,1.28.22,3.58-3.95,4.61-7.16,1.08-3.39.99-6.53.43-9.63-1.78-9.72-8.23-18.73-10.94-22.26Z"/>
      </g>
      <g id="lFoot">
        <path class="cls-9" d="M389.9,782.99c-3.36-.34-23.73-2.1-35.67,11.79-6.05,7.04-10.6,18.88-6.5,23.51,4.3,4.87,13.27-3.73,23.39,1.25,9.25,4.54,16.45,18.94,19.15,29.66.9,3.6,1.49,7.55,4.13,8.45,3.45,1.18,8.26-3.6,11.94-8.08.35,1.13,1.64,4.72,5.23,6.76,3.77,2.15,7.71,1.24,8.83.96,7.41-1.83,8.6-8.97,14.13-8.91,3.03.03,3.44,2.18,6.23,2.48,6.29.68,13.57-9.18,16.49-17.37,4.71-13.24,1.77-32.62-12.39-42.47-8.73-6.07-18.18-6.07-22.01-5.85-1.45-1.38-7.57-6.89-17.09-7.15-8.25-.22-14.04,3.65-15.84,4.96Z"/>
        <path class="cls-3" d="M413.74,841.9c.11-11.39-4.34-23.76-11.86-32.54-3-3.44-6.48-5.86-7.53-4.97,2.49,3.82,5.04,8.35,7.3,13.6,5.26,12.16,6.95,23.36,7.42,31.52.57.77,1.1,1.13,1.59,1.08,1.28-.12,2.31-3.01,3.08-8.68Z"/>
        <path class="cls-3" d="M427.82,806.82c-4.26-2.86.78,6.54,2.58,11.14,2.28,5.31,4.35,10.9,5.67,16.54,1.66,7.09,2.07,12.9,3.08,13.94,1.71,1.15,2.52-6.59,2.63-8.06,1.45-11.54-5.23-27.36-13.84-33.5l-.12-.08Z"/>
      </g>
    </g>
    <g id="Head">
      <path id="headbg_primary" class="cls-11" d="M192.43,141.93c-32.12,54.22-42.13,76.32-38.78,78.67,1.42,1,5.33-1.53,5.81-.7,1.15,1.95-20.62,15.76-19.23,18.4,1.12,2.13,16.25-5.01,17.97-2.17,1.94,3.2-15.23,15.48-13.29,18.76.95,1.61,6.11.42,11.63-1.4.6,6.94,2.27,17.85,7.7,29.75,16.28,35.69,52.75,50.56,72.44,58.26,88.95,34.81,294.91,41.98,347.63-62.36,5.04-9.98,7.59-18.82,8.89-24.13,5.13,4.49,7.46,5.02,8.56,4.33,4.81-3-9.6-31.52-4.2-34.88,2.23-1.39,5.61,2.92,7.72,1.75,5.34-2.96-7.14-35.61-16.18-58.64-5.67-14.44-13.65-34.39-23.65-58.28,6.63-4.13,18.11-12.59,26.73-27.35,14.21-24.32,10.67-48.67,9.36-55.82-12.88,4.69-26.64,9.26-41.26,13.55-16.74,4.92-32.75,8.92-47.86,12.2-57.87-11.59-78.27-18.61-77.82-22.79.46-4.19,21.86-5.46,21.75-6.37-.17-1.44-52.35,4.55-52.96,1.02-.36-2.12,18.14-6.54,17.8-8.04-.28-1.21-12.66-.21-46.77,3.49-12.55,1.36-21.58,3.01-23.7-.9-2.44-4.5,6.26-12.47,4.79-14.14-1.16-1.32-8.33,1.7-35.53,21.6-8.37,1.31-19.21,3.88-31.07,9.11-15.56,6.86-26.85,15.63-34.13,22.29-64.97-23.23-93.55-39.86-107.18-51.37-2.31-1.95-8.25-7.19-12.98-5.41-9.42,3.55-8.82,32.97-3.02,55.06,8.09,30.79,27.59,52.24,41.37,67.4,7.63,8.39,14.55,14.8,19.46,19.1Z"/>
      <path id="headdark" class="cls-5" d="M592.28,84.2c2.62-5.18,4.23-10.5,5.48-14.6,3.21-10.56,4.53-19.68,5.12-26.13-9.3,6.9-27,18.12-52.02,23.15-21.94,4.41-40.28,2.19-51.19.02-3.69-1.15-31.15-9.24-56.05,7.6-7.45,5.04-17.51,18.46-25.03,34.11-4.81,10.01-5.32,14.86-8.81,15.6-9.46,2-14.7-31.85-35.67-50.51-29.76-26.48-70.76-5.24-138.49-8.31-36.3-1.64-77.31-7.94-107.9-27.92.73,5.5,1.79,11.02,3.13,16.14,6.13,23.33,18.81,41.29,30.58,55.22,5.79-.2,11.77-1.21,18.07-1.97-4.21-2.05-12.95-7.06-19.34-17.25-3.74-5.96-5.39-11.66-6.17-15.61,2.2,3.42,6.03,8.33,12.19,12.2,10.77,6.77,23.47,7.12,23.99,5.48.34-1.07-4.7-2.29-10.64-8.16-4.91-4.85-8.29-10.77-7.54-11.42.76-.67,5.33,4.49,10.63,8.1,11.75,8.01,25.26,7.2,34.76,6.81,37.15-1.53,75.13-9.22,87.89,3.3,6.3,6.18,17.42,6.23,27,5.08.16,1.37-.87,4.27-.71,5.64,44.2,21.06,17.62,77.03,28.91,113.17,9.27,30.82,46.06,25,73.11,18.96,5.31-2.03,13.69-1.65,15.93-6.09,18.82-39.76,3.63-85.15,18.01-127.16,1.04-2.9,3.12-8.71,10.29-6.8-1.7-2.57-.49-4.11,2.08-5.81,4.49,2.34,33.85,17.06,60.31,3.41,6.02-3.11,10.77-7.11,14.48-11.13.27,1.1.83,4.05-.45,7.42-1.49,3.92-4.48,5.83-5.4,6.37,2.47-.44,5.29-1.15,8.3-2.29,6.92-2.62,11.92-6.42,15.13-9.36-2.25,3.58-10.03,14.95-24.19,18.19-3.89.89-7.45.98-10.43.75,5.56,3.35,11.65,6.72,18.28,9.98,4.21,2.07,8.32,3.95,12.29,5.64-.76-1.9-1.51-3.79-2.27-5.69,16.47-9.29,23.43-20.46,26.31-26.17Z"/>
      <path id="rEyepatch_secondary" class="cls-17" d="M277.7,95.8c-28.34,21.96-42.37,56.92-47.8,91.55-3.05,18.27-2.98,38.32,5.01,55.1,7.61,16.69,25.56,29.24,43.64,33.09,35.73,7.57,66.19-21.52,84.39-48.41,17.7-27.82,29-63.89,22.8-96.65-10.79-60.33-63.89-69.42-107.85-34.84l-.2.16Z"/>
      <path id="lEyepatch_secondary" class="cls-17" d="M434.75,100.19c-7.52,12.17-9.33,27.32-9.28,41.75.43,23.05,3.63,40.39,13.26,58.96,10.85,20.33,26.41,39.07,45.12,53.04,10.64,7.38,23.63,12.24,36.36,11.49,19.06-.99,35.84-15.77,41.69-34.03,8.92-30.93.7-63.03-12.05-90.8-9.81-21.21-24.19-41.51-45.31-52.52-22.86-12.68-54.62-12.33-69.64,11.88l-.14.22Z"/>
      <path id="rEye" class="cls-16" d="M288.58,148.77c-4.59,10.59-21.01,48.45-.13,70.03,11.41,11.8,32.08,17.48,46.82,9.61,17.15-9.15,24.66-30.79,28.58-49.41,3.23-17.03,3.85-35.28-1.94-51.86-1.8-5.15-11.18-21.83-25.81-23.78-25.79-3.43-46.47,42.97-47.52,45.4Z"/>
      <path id="lEye" class="cls-16" d="M514.12,148.02c5.53,9.08,25.29,41.55,10.48,64.67-8.1,12.64-25.08,21.04-38.96,16.02-16.15-5.84-25.83-24.68-31.96-41.28-5.31-15.23-8.55-32-6-48.2.79-5.03,6.41-21.87,18.74-25.9,21.73-7.1,46.44,32.6,47.7,34.69Z"/>
      <path id="rPupil" class="cls-21" d="M310.73,169.04c-.98,5.39-4.47,24.65,7.51,32.36,6.55,4.21,16.71,4.6,22.66-.62,6.93-6.08,8.06-16.88,7.86-25.91-.35-8.21-2.03-16.71-6.5-23.74-1.39-2.18-7.52-8.87-14.49-8.19-12.28,1.2-16.81,24.87-17.04,26.1Z"/>
      <path id="lPupil" class="cls-21" d="M488.39,165.94c2.29,4.49,10.47,20.56,2.63,30.96-4.28,5.68-12.62,9.05-19,6.17-7.43-3.34-11.33-12.6-13.63-20.67-1.96-7.4-2.89-15.44-1.1-23.01.56-2.35,3.82-10.11,9.8-11.57,10.54-2.58,20.79,17.09,21.31,18.12Z"/>
      <circle id="reyeshine" class="cls-8" cx="332.38" cy="166.41" r="7.1"/>
      <circle id="leyeshine" class="cls-8" cx="469.83" cy="166.41" r="6.51"/>
      <path id="rEyebrow" class="cls-6" d="M340.57,83.02c-20.46-1.27-39.78,8.42-51.32,25.29-3.01,4.4,4.08,8.66,7.08,4.28,9.9-14.48,26.57-22.38,44.01-21.29,5.33.33,5.53-7.94.23-8.27Z"/>
      <path id="lEyebrow" class="cls-6" d="M453.2,90.32c19.57-6.1,40.64-1.28,55.85,12.37,3.97,3.56-1.91,9.39-5.86,5.84-13.05-11.71-31.13-15.42-47.81-10.23-5.09,1.59-7.26-6.4-2.18-7.98Z"/>
      <g id="mouth">
        <path class="cls-12" d="M453.18,236.84c1.25,7.6-10.78,11.18-13.7,27.43-2.96,16.44,7.24,24.46,2.95,30.16-7.3,9.7-48.27,1.68-68.62-26.58-1.87-2.59-18.81-26.12-10.25-40.59,13.93-23.54,86.67-8.34,89.63,9.57Z"/>
        <path class="cls-18" d="M416.72,272.4c1.46,4.05,3.02,12.48-.96,15.47-7.24,5.42-31.96-7.78-30.94-18.75.5-5.39,7.21-10.04,13.33-10.67,9.12-.93,16.13,7.16,18.57,13.95Z"/>
        <path class="cls-13" d="M397.85,169.15c-4.21,1.58-10.42,4.92-26.48,29.46-9.53,14.56-14.31,21.97-15.2,28.11-1.96,13.55,4.2,24.32,10.82,35.87,0,0,16.24,28.36,47.17,41.86,6.07,2.65,11.39,3.58,15.48,3.85,4.42.3,8.53.57,12.68-1.53,7.37-3.72,9.55-12.19,10.06-14.44-7.85.42-23.88.12-40.41-9.07-30.74-17.08-37.25-50.44-38.14-55.46,2.06,1.63,40.64,31.16,82.91,14.67,23.56-9.19,35.67-27.76,39.77-34.82-46.72-17.69-63.96-27.55-69.8-33.41-.83-.83-3.74-3.9-8.56-5.76-9.13-3.53-18.32-.08-20.3.66Z"/>
        <path class="cls-7" d="M488.17,219.74c1.22-1.5,2.47-3.12,3.71-4.88,1.77-2.49,3.3-4.91,4.62-7.2-46.86-17.91-64.18-27.68-69.82-33.34-.9-.9-3.8-3.93-8.56-5.78-9.15-3.55-18.39-.15-20.38.58,0,0-1.01.38-1.94.82-1.25.59-4.72,3.14-8.82,7.23,12.83,8.8,29.61,18.7,50.28,27.21,19.03,7.84,36.47,12.5,50.9,15.34Z"/>
      </g>
    </g>
  </g>
</svg>