<?xml version="1.0" encoding="UTF-8"?>
<svg xmlns="http://www.w3.org/2000/svg" viewBox="0 0 614.33 933.99">
  <defs>
    <style>
      .cls-1 {
        fill: #444;
      }

      .cls-2 {
        opacity: .4;
      }

      .cls-2, .cls-3, .cls-4, .cls-5 {
        mix-blend-mode: multiply;
      }

      .cls-6 {
        fill: #b7483d;
      }

      .cls-3, .cls-4, .cls-7, .cls-8 {
        fill: #1e1e1e;
      }

      .cls-3, .cls-7 {
        opacity: .37;
      }

      .cls-4 {
        opacity: .6;
      }

      .cls-9 {
        fill: #4d4d4d;
      }

      .cls-10 {
        isolation: isolate;
      }

      .cls-7, .cls-8 {
        mix-blend-mode: overlay;
      }

      .cls-8 {
        opacity: .39;
      }

      .cls-11 {
        fill: #fff;
      }

      .cls-12 {
        fill: #282828;
      }

      .cls-5 {
        fill: #3c3c3c;
        opacity: .2;
      }

      .cls-13 {
        fill: #494949;
      }

      .cls-14 {
        fill: #191919;
      }

      .cls-15 {
        fill: #e5dad5;
      }
    </style>
  </defs>
  <g class="cls-10">
    <g id="Panda">
      <g id="Legs">
        <path id="legs_primary" class="cls-1" d="M302.54,729.57c-6.74,15.73-12.08,33.08-12.08,33.08-3.78,12.26-6.11,22.3-7.36,28.15-1.52,7.07-4.31,21.19-6.08,40.11-3.91,41.94,2,56.16-9.8,68.98-3.51,3.82-7.36,6.17-15.04,9.57-9.78,4.33-55.81,23.68-127.7,12.61-17.15-2.64-30.14-6.15-36.68-16.92-5.3-8.72-4.01-18.33-3.71-20.53,2.18-16.25,15.69-25.48,22.4-30.07,11.65-7.96,23.48-10.2,30.76-10.88-15.69-26.87-40.57-78.39-40.72-145.85-.09-41.65-.19-83.47,23.7-97.23,51.64-29.76,176.6,93.96,210.25,148.28,17.1,27.61,29.19,53.78,29.19,53.78,7.58,16.4,5.7,14.85,22.36,53.78,13.92,32.54,14.91,32.88,15.93,39.5.48,3.11,1.07,8.35,4.86,13.37,3.86,5.11,8.9,7.18,19.45,10.94,14.9,5.31,22.35,7.96,27.35,9.12,13.35,3.09,23.26,3.6,37.68,4.25,35.03,1.6,50.35-2.3,55.21-3.65,16.95-4.68,20.95-9.68,22.57-12.15,7.88-12.05.99-28.08,0-30.39-5.54-12.9-16.66-19.16-22.57-22.49-5.94-3.34-11.39-5.1-15.23-6.08,7.51-42.22,9.25-77.68,9.27-103.31.02-16.84-.05-39.09-4.28-67.46-8.31-55.62-12.46-83.43-30.39-94.8-53.44-33.91-184.13,100.82-199.33,136.28Z"/>
        <path id="rfootline" class="cls-4" d="M212.32,854.57c-32.47-21.76-68.27-12.28-68.27-12.28-2.45.65-4.41,1.29-5.57,1.69,16.28-.8,29,.92,37.4,2.57,19.64,3.84,37.87,11.57,38.5,10.03.18-.44-1.19-1.42-2.06-2Z"/>
        <path id="rtoe2" class="cls-4" d="M115.13,883.1c-21.27,21.37-5.96,34.49-5.96,34.49,1.05.9,2.03,1.58,2.63,1.98-2.9-7.06-2.44-13.31-1.56-17.6,2.07-10.02,8.81-20.62,6.95-20.42-.54.06-1.5.98-2.07,1.55Z"/>
        <path id="rtoe1" class="cls-4" d="M152.72,888.06c-21.27,21.37-5.96,34.49-5.96,34.49,1.05.9,2.03,1.58,2.63,1.98-2.9-7.06-2.44-13.31-1.56-17.6,2.07-10.02,8.81-20.62,6.95-20.42-.54.06-1.5.98-2.07,1.55Z"/>
        <path id="lFootline" class="cls-4" d="M452.7,862.67c34.18-18.96,69.06-6.51,69.06-6.51,2.39.85,4.28,1.66,5.41,2.15-16.15-2.17-28.97-1.52-37.48-.58-19.9,2.18-38.7,8.35-39.21,6.76-.15-.46,1.31-1.31,2.22-1.82Z"/>
        <path id="ltoe2" class="cls-4" d="M541.51,891.98c21.27,21.37,5.96,34.49,5.96,34.49-1.05.9-2.03,1.58-2.63,1.98,2.9-7.06,2.44-13.31,1.56-17.6-2.07-10.02-8.81-20.62-6.95-20.42.54.06,1.5.98,2.07,1.55Z"/>
        <path id="lToe1" class="cls-4" d="M503.92,896.94c21.27,21.37,5.96,34.49,5.96,34.49-1.05.9-2.03,1.58-2.63,1.98,2.9-7.06,2.44-13.31,1.56-17.6-2.07-10.02-8.81-20.62-6.95-20.42.54.06,1.5.98,2.07,1.55Z"/>
      </g>
      <path id="rlegshadow" class="cls-8" d="M123.91,661.7c41.07,70.35,129.46,89.04,167.81,94.64,4.69-10.45,9.99-26.76,3.55-41.15-15.27-34.13-77.43-14.51-131.1-54.02-45.9-33.79-54.25-87.77-60.81-85.26-5.98,2.29-1.44,48.12,20.55,85.79Z"/>
      <path id="llegshadow" class="cls-8" d="M507.65,681.79c-29.63,39.42-71.45,53.93-92.65,61.27-30.55,10.59-59.99,13.1-78.73,13.04-7.48-12.09-14.97-24.19-22.45-36.28,45.3,1.25,104.86-5.19,153.91-43.23,44.04-34.15,63.42-81.22,70.28-77.64,5.68,2.96-4.15,47.97-30.36,82.83Z"/>
      <g id="rArm">
        <path id="rArm_primary" class="cls-1" d="M222.66,208.29c-17.24,7.21-144.3,61.32-195.85,130.48C17.22,351.62,1.61,373.06.11,402.78c-1.01,20.15,4.89,35.2,13.86,58.1,9.42,24.05,20.59,42.4,28.92,54.51-2.35,1.03-11.84,5.49-16.16,16.14-4.77,11.74.23,22.44,1.63,25.42,7.53,16.11,25.09,21.28,33.04,23.62,15.6,4.59,31.87,3.31,41.1-.25,36.25-14,36.96-92.99,41.99-142.26,5.67-55.45,23.23-134.54,78.18-229.76Z"/>
        <path id="rArmshadow" class="cls-8" d="M77.12,365.01c4.67,3.3,9.62,7.18,14.66,11.7,8.83,7.93,15.74,15.89,21.06,22.97,7.11-20.29,17.37-43.9,32.44-68.73,8.17-13.46,16.6-25.39,24.8-35.87-10.09,8.83-22.12,21.03-33.5,37.16-14.2,20.15-22.39,39.34-27.22,53.76-1.25-2.84-4.74-9.74-12.65-15-8.25-5.49-16.47-5.97-19.6-6Z"/>
      </g>
      <g id="torso">
        <path id="torsobottom_secondary" class="cls-15" d="M242.39,179.46c-89.48,108.36-126.42,205.57-142.91,262.42-20.27,69.91-19.2,111.82-6.78,149.11,16.6,49.83,49.69,80.03,62.57,91.5,64.19,57.2,140.85,61.57,160.99,62.1,17.64.46,115.05,3,182.36-68.73,51.22-54.57,54.89-120.05,57.3-163.05,5.66-101.01-38.23-176.73-59.25-211.91-26.57-44.48-56.55-76.39-78.83-97.05-58.49-8.13-116.97-16.26-175.46-24.39Z"/>
        <path id="torsotop_primary" class="cls-1" d="M308.8,356.15c68.28,14.78,113.82,48.72,135.77,65.45,45.1,34.36,73.46,72.04,89.84,97.61,5.66-32.92,17.69-129.24-37.29-224.89-25.02-43.52-55.94-73.03-79.33-91.53-59.05-7.89-118.09-15.79-177.14-23.68-24.75,28.2-52.25,64.31-77.73,108.92-16.99,29.74-30.11,58.07-40.32,83.67,31.7-12.17,101.79-33.81,186.19-15.54Z"/>
      </g>
      <g id="lArm">
        <path id="lArm_primary" class="cls-1" d="M477.41,385.25c16.58,21.47,25.28,43.03,30.11,58.44-3.36,13.59-7.52,31.98-11.33,53.98-2.36,13.62-5.17,31.51-7.35,54.56-3.14,33.19-4.7,49.79.7,70.65,3.43,13.25,9.87,38.1,31.83,52.11,4.96,3.17,20.23,12.91,37.77,8.39,6.94-1.79,12.03-5.23,15.12-7.75,2.26.47,10.38,1.89,18.45-2.74,1.63-.94,12.76-7.57,12.59-19.94-.11-8.47-5.48-16.28-13.64-19.94,1.1-7.84,1.81-19.68-1.05-33.58-2.29-11.13-6.14-20-9.44-26.23,1.11-7.95,2.76-16.62,5.19-25.83,4.65-17.62,10.92-32.47,17.02-44.36,10.71-30.48,12.03-56.22,10.33-75.96-8.46-98.19-103.69-185.47-237.82-227.04-22.05,48.24-17.65,76.19-8.77,93.03,20.1,38.13,81.69,55.17,110.29,92.2Z"/>
        <path id="lArmShadow" class="cls-8" d="M493.49,532.57c2.04.07,2.21-28.23,12.36-66.01,2.53-9.42,5.28-18.39,8.16-26.89-5.69-14.34-16.31-34.95-36.94-54.99-22.14-21.51-45.71-32.68-46.44-31.63-.78,1.13,22.68,13.85,44.99,43.03,8.59,11.23,12.88,16.84,15.94,24.91,8.72,23.02-.76,36.46-.61,82.65.05,15.08,1.11,28.88,2.53,28.93Z"/>
        <path id="lfinger" class="cls-4" d="M548.08,652.44c-.79-2.84-1.85-8.35-.13-15.72,1.67,8.13,4.59,13.71,6.81,17.19,7.66,11.99,20.52,20.08,19.71,21.25-.06.08-.17.1-.28.11-2.63.14-21.35-5.71-26.12-22.83Z"/>
      </g>
      <g id="Head">
        <g id="rEar">
          <path id="lEarbg_primary" class="cls-13" d="M444.76,64.47c1.49-2.12,12.13-16.75,29.03-17.2,18.6-.5,30.29,16.55,34.41,22.63,6.96,10.25,8.56,20.02,9.46,25.92,2.84,18.57-2.6,32.95-5.01,39.07-3.1,7.88-5.82,14.82-13.15,21.15-3,2.59-11.12,9.39-23.53,9.93-9.78.42-17.08-3.27-20.1-5.02-3.71-32.16-7.41-64.32-11.12-96.48Z"/>
          <path id="lEarShadow" class="cls-2" d="M451.79,81.87c1.03-1.47,8.41-11.62,20.13-11.93,12.9-.34,21,11.48,23.86,15.7,4.82,7.11,5.94,13.88,6.56,17.97,1.97,12.88-1.8,22.85-3.47,27.09-2.15,5.47-4.04,10.27-9.12,14.67-2.08,1.79-7.71,6.51-16.32,6.88-6.78.29-11.85-2.27-13.93-3.48-2.57-22.3-5.14-44.6-7.71-66.9Z"/>
        </g>
        <g id="lEar">
          <path id="rEarbg_primary" class="cls-13" d="M235.71,109.06c-2.52.49-20.19,3.66-32.12-7.06-13.12-11.79-9.07-31.2-7.6-38.09,2.48-11.62,8.3-19.42,11.86-24.08,11.2-14.68,25.12-21.06,31.11-23.72,7.71-3.42,14.49-6.44,24.01-6.03,3.89.17,14.29.76,23.19,8.49,7.01,6.09,9.41,13.41,10.25,16.58-20.23,24.64-40.46,49.27-60.7,73.91Z"/>
          <path id="rEarShadow" class="cls-2" d="M238.36,96.86c-1.73.34-13.86,2.51-22.05-4.85-9.01-8.1-6.23-21.42-5.22-26.15,1.7-7.98,5.7-13.33,8.14-16.53,7.69-10.08,17.25-14.46,21.36-16.29,5.29-2.35,9.95-4.42,16.48-4.14,2.67.11,9.81.52,15.92,5.83,4.81,4.18,6.46,9.2,7.03,11.38-13.89,16.91-27.78,33.82-41.67,50.74Z"/>
        </g>
        <path id="headshadow" class="cls-3" d="M265.35,81.84c-10.53,12.15-24.44,28.34-35.12,54.49-5.5,13.46-16.77,41.06-13.65,74.18,4.62,49.06,39.57,97.18,87.26,112.13,5.89,1.84,49.75,14.79,90.46-11.87,3.24-2.12,17.27-11.58,30.39-30.06,39.25-55.29,26.36-129.39,20.27-154.99-6.44-27.12-15.31-65.39-47.4-85.79-23.34-14.84-47.07-13.23-52.11-12.78-35.46,3.15-58.28,29.5-80.1,54.68Z"/>
        <path id="headBG_secondary" class="cls-15" d="M264.08,55.45c-11.45,12.25-26.57,28.55-38.21,54.88-5.99,13.55-18.27,41.34-14.94,74.66,4.93,49.35,42.77,97.7,94.5,112.66,6.38,1.85,53.96,14.79,98.18-12.1,3.52-2.14,18.76-11.68,33.03-30.3,42.68-55.7,28.82-130.22,22.27-155.96-6.94-27.27-16.49-65.76-51.29-86.23C382.32-1.83,356.57-.17,351.09.29c-38.48,3.23-63.3,29.78-87.01,55.15Z"/>
        <path id="rEyePatch_primary" class="cls-13" d="M290.56,71.46c-3.86,2.71-15.85,11.55-24.91,26.52-5.05,8.34-6.35,13.89-6.62,18.46-.22,3.62-.49,9.51,3.2,15.33,4.17,6.59,10.86,9.04,13.67,10.03,11.14,3.92,21.5.34,27.11-1.6,16.14-5.58,25.41-17.06,29.23-22.67,5.94-8.72,7.38-16.28,10.25-31.4,2.05-10.79,1.69-16.5-1.25-21.61-.75-1.31-2.9-5.03-6.84-7.23-13.2-7.39-35.61,8.38-43.84,14.17Z"/>
        <path id="lEyePatch_primary" class="cls-13" d="M373.76,77.78c-10.04,13.6-11.18,29.58-11.28,31.22-.3,5.06-1.17,24.29,12.18,41.9,4.86,6.41,11.86,15.66,24.67,18.25,2.72.55,14.1,2.5,24.16-3.89,13.76-8.75,14.28-26.29,14.5-33.38.5-16.65-7.21-28.59-11.54-35.29,0,0-10.92-16.91-29.2-25.13-4.06-1.82-8.25-3.11-12.75-2.01-4.09,1-7.31,3.69-10.73,8.33Z"/>
        <g id="rEye">
          <path id="rEyebg" class="cls-11" d="M285.14,115.1c.44-11.96,6.19-22.78,14.69-31.26,3.42-3.39,6.86-6.57,11.22-8.41,5.09-2.08,11.71-.51,14.31,4.28,1.32,2.36,1.67,5.01,1.94,7.7.37,4.08.43,8.21-.06,12.28-1.22,9.34-5.55,18.53-11.8,25.64-4.19,4.63-7.72,1.92-13.55-.53-3-1.25-6.47-2.07-9.51-2.65-4.07-.67-7.32-2.06-7.24-6.87v-.18Z"/>
          <g id="rPupil">
            <path id="rpupilbg" class="cls-14" d="M319.48,109.92c-2.56,5.83-6.73,12.33-12.37,14.48-2.72.92-4.98,0-6.23-2.45-4.66-8.8,5.47-34.13,17.06-33.54,7.32,2.3,4.11,15.45,1.63,21.27l-.1.23Z"/>
            <path id="rpupilshine" class="cls-11" d="M318.55,101.08c-.24,1.63-1.01,3.57-2.88,4.6-.91.47-1.88.45-2.66-.03-2.85-1.69-2.17-8.7,2.29-9.61,3.05-.11,3.47,3.34,3.26,4.97v.07Z"/>
          </g>
          <path id="rEyeCheek" class="cls-12" d="M312.77,127.57c-8.55-5.15-18.7-7.62-28.81-7.11-2.56.13-2.34,3.94.22,3.82,9.45-.48,18.78,1.9,26.77,6.71.91.55,2.22.02,2.68-.85.53-.99.05-2.02-.86-2.57Z"/>
        </g>
        <g id="lEye">
          <path id="lEyebg" class="cls-11" d="M407.39,137.52c3.89-11.39,2.44-23.37-2.39-34.02-1.95-4.27-4.01-8.33-7.39-11.44-3.97-3.56-10.68-4.16-14.82-.47-2.07,1.81-3.35,4.19-4.57,6.64-1.81,3.72-3.35,7.58-4.36,11.57-2.22,9.17-1.51,19.17,1.73,27.82,2.22,5.67,6.47,4.23,12.76,3.76,3.24-.24,6.75.08,9.77.5,4.02.65,7.53.36,9.18-4.19l.07-.17Z"/>
          <g id="lPupil">
            <path id="lpupilbg" class="cls-14" d="M381.22,122.74c.29,6.09,1.83,13.28,6.24,16.98,2.17,1.68,4.56,1.54,6.57-.3,7.37-6.54,6.99-32.68-3.84-35.73-7.52-.18-9.2,12.75-8.97,18.8v.24Z"/>
            <path id="lpupilshine" class="cls-11" d="M385.42,118.3c.1,2.21.72,4.81,2.54,6.14.89.6,1.89.55,2.73-.13,3.08-2.4,3-11.87-1.49-12.95-3.12-.04-3.86,4.65-3.78,6.85v.09Z"/>
          </g>
          <path id="lEyecheek" class="cls-12" d="M404.64,141.84c-8.7-2.58-17.94-2.82-26.84-.91-1.05.23-1.57,1.53-1.25,2.43.37,1.07,1.47,1.41,2.52,1.19,8.2-1.76,16.74-1.33,24.73,1.04,1.03.3,2.16-.53,2.37-1.48.24-1.09-.49-1.96-1.52-2.26Z"/>
        </g>
        <g id="mouthHappy">
          <path id="mouthbg" class="cls-9" d="M272.38,189.31c.63,3.72,1.73,8.68,3.77,14.32,1.02,2.81,4.58,12.2,12.5,22.84,3.02,4.05,7.55,10.05,15.04,16.04,7.19,5.75,20.32,16.24,37.6,15.33,9.77-.51,16.78-4.46,22.13-7.48,12.03-6.78,19.14-16.06,28.97-28.9,4.4-5.74,7.7-10.68,9.82-13.99.2,1.23.79,2.2,1.59,2.36,1.28.25,2.5-1.69,2.74-2.06,2.04-3.22.42-7.42-.19-9.02-.16-.42-2.4-5.99-7.92-8.61-1.13-.54-3.1-1.44-4.37-.61-.64.42-1.11,1.3-.93,2.01.19.76,1.07,1.09,1.65,1.4,1.11.59,2.43,1.84,3.34,4.69-21,5.72-38.68,6.37-50.4,5.98-32.45-1.08-56.89-11.48-67.61-16.15-2.6-1.13-4.71-2.12-6.1-2.79.47-.46,1.34-1.43,1.66-2.89.32-1.47.17-3.8-1.17-4.47-1.68-.85-4.37,1.36-5.5,2.54-2.84,2.97-2.73,6.76-2.69,8.4.04,1.55.13,3.66,1.71,4.88.21.17,1.2.93,2.23.69,1.29-.3,2.31-2.12,2.13-4.53Z"/>
          <path id="teeth" class="cls-11" d="M283.06,188.74l1.45,12.82c10.6,4.73,25.85,10.17,44.91,12.74,23.03,3.11,42.36.79,55.05-1.73,1.83-4.31,3.65-8.62,5.48-12.93-13.84,2.7-34.54,5.13-59.15,1.97-20.03-2.57-36.22-8.01-47.74-12.88Z"/>
          <path id="tongue" class="cls-6" d="M369.07,246.76c-1.47-.68-3.93-1.78-7.06-2.91-7.13-2.57-26.06-9.38-45.38-2.47-2.08.74-5.26,2.04-8.95,4.26,2.91,2.36,7.27,5.4,13.12,7.91,2.29.98,9.16,3.86,16.97,4.33,15.51.92,27.62-8.14,31.3-11.11Z"/>
        </g>
        <g id="nose">
          <path id="noseBG" class="cls-13" d="M300.74,148.84c3.57-4.36,9.32-4.99,17.97-5.94,2.26-.25,12.84-1.29,26.81,2.53,6,1.64,13.16,3.67,20.61,9.18,5.89,4.35,12.15,8.99,12.59,16.01.51,8.01-6.89,14.1-11.05,17.54-9.5,7.83-20.22,8.89-23.5,9.17-3.47.3-14.74,1.1-26.16-5.71-1.85-1.11-12.2-7.48-17.01-20.36-1.84-4.93-5.83-15.61-.25-22.41Z"/>
          <path id="noseShadow" class="cls-7" d="M362.77,162.73c-9.36-6.89-21.63-11.26-34.17-12.34-13.01-1.22-30.9,3.41-8.61,6.31,10.79,1.44,21.18,3.23,31.27,6.86,7.4,2.47,27.14,11.96,11.64-.74l-.13-.1Z"/>
          <path id="rNostril" class="cls-7" d="M323.93,174.04c-2.86-4.02-8.17-7.53-13.28-9.13-2.65-.8-6.32-1.78-8.56-.02-5.09,4.55,6.52,18.82,10.63,22.19,12.63,11.44,17.28-3.76,11.3-12.91l-.09-.13Z"/>
          <path id="lNostril" class="cls-7" d="M345.78,180.52c4.48-2.11,10.69-2.64,15.73-1.61,2.6.56,6.12,1.44,7.03,4.02,1.77,6.32-15.31,13.16-20.47,14.12-16.42,3.91-12.19-11.39-2.44-16.46l.14-.07Z"/>
          <path id="snoutshadow" class="cls-5" d="M367.08,142.1c-9.36-6.89-21.63-11.26-34.17-12.34-9.86-.85-19.24,1.95-19.18,3.02.07,1.3,13.98-1.09,31.42,3.85,16.02,4.54,26.92,12.99,27.79,11.78.29-.39-.54-1.77-5.86-6.32Z"/>
        </g>
        <path id="lEyebrow" class="cls-13" d="M437.66,78.21c-.8,1.04-8.34-5.83-20.83-12.22-12.38-6.33-22.02-8.3-22.04-10.83,0-1.06,1.69-1.58,2.75-1.91,5.66-1.74,11.71,1.42,18.2,4.93,4.04,2.18,10.74,6.31,17.22,13.49,1.79,1.98,5.25,5.81,4.69,6.55Z"/>
        <path id="rEyebrow" class="cls-13" d="M287.4,44.54c.27,1.26,10.13-1.97,24.28-2.79,14.03-.81,23.65,1.25,24.77-1.04.47-.96-.84-2.11-1.66-2.83-4.38-3.84-11.26-3.38-18.69-2.78-4.63.37-12.53,1.45-21.56,5.38-2.5,1.08-7.32,3.18-7.13,4.08Z"/>
        <path id="chin" class="cls-5" d="M325.93,278.69c7.97,3.8,16.7,4.55,24.37,2.25,6.03-1.81,10.44-6.81,10.01-7.77-.52-1.17-7.71,4.65-19.64,4.73-10.97.07-20.41-4.74-20.47-3.42-.02.43.97,1.47,5.73,4.2Z"/>
      </g>
    </g>
  </g>
</svg>