<?xml version="1.0" encoding="UTF-8"?>
<svg xmlns="http://www.w3.org/2000/svg" viewBox="0 0 829.59 1210.69">
  <defs>
    <style>
      .cls-1 {
        fill: #e6c55d;
      }

      .cls-2 {
        fill: #eaeaea;
      }

      .cls-3 {
        fill: #7a4f2d;
      }

      .cls-4 {
        fill: #9f7025;
      }

      .cls-5 {
        opacity: .21;
      }

      .cls-5, .cls-6 {
        mix-blend-mode: multiply;
      }

      .cls-6, .cls-7 {
        opacity: .2;
      }

      .cls-8 {
        fill: #69759d;
      }

      .cls-9 {
        fill: #dbdbdb;
      }

      .cls-10 {
        fill: #e2ba57;
      }

      .cls-11 {
        fill: #4c5163;
      }

      .cls-12 {
        isolation: isolate;
      }

      .cls-13 {
        fill: #fff;
      }

      .cls-14 {
        fill: #edd790;
      }

      .cls-15 {
        fill: #4e5164;
      }

      .cls-16 {
        fill: #ad503f;
      }

      .cls-17 {
        fill: #e66c4f;
      }

      .cls-7, .cls-18 {
        mix-blend-mode: overlay;
      }

      .cls-18 {
        opacity: .41;
      }

      .cls-19 {
        fill: #ac7f2a;
      }

      .cls-20 {
        fill: #96653f;
      }

      .cls-21 {
        fill: #523f3a;
      }

      .cls-22 {
        fill: #c28e67;
      }

      .cls-23 {
        fill: #3f4353;
      }

      .cls-24 {
        fill: #5b5041;
      }

      .cls-25 {
        fill: #f3734e;
      }
    </style>
  </defs>
  <g class="cls-12">
    <g id="Body">
      <g id="tail">
        <path id="tailbg_secondaryDark" class="cls-15" d="M555.38,524c44.21,139.57,88.42,279.14,132.63,418.71,22.54,78.54,26.62,138.38,11.06,148.04-19.33,11.99-65.45-55.65-70.22-62.73,2.98,27.27,5.27,73.26-6.85,124.95-7.2,30.7-12.81,54.64-24.51,57.45-14.6,3.51-42.05-25.12-98.68-178.37-13.46,53.19-25.5,78.84-36.12,76.95-26.88-4.79-44.65-186.1-53.32-543.91,48.66-13.7,97.33-27.39,145.99-41.09Z"/>
        <path id="tailline2" class="cls-7" d="M576.12,747.59c2.42-.06,3.8,60.27,22.13,155.51,12.62,65.57,25.02,104.83,23.23,105.55-2.1.85-23.19-51.48-35.78-116.58-15.12-78.17-12.12-144.42-9.58-144.47Z"/>
        <path id="tailline1" class="cls-7" d="M478.83,885.3c8.89,68.69,23.69,129.12,18.89,130.86-1.37.5-3.68-4.04-4.47-5.59-21.95-43.12-29.16-253.7-22.48-252.67,2.94.45-3.25,40.02,8.06,127.4Z"/>
      </g>
      <g id="stick">
        <path id="stickpiece1" class="cls-20" d="M115.47,764.31c2.18,1.52,32.26,5.66,59.43,17.78,27.17,12.11,31.05,15.5,19.19,25.31-11.86,9.81-77.39,19.64-114.14,34.59-36.75,14.94-73.89,29.62-78.67,40.03-4.78,10.41,4.96,20.97,11.09,19.63,6.13-1.34,79.9-34.43,108.98-41.16,29.08-6.73,94.89-19.49,139.55-27.03,44.65-7.54,86.42-6.48,127.77.55,41.35,7.02,115.86,21.76,146.59,23.7,30.73,1.95,72.38-10.77,112.45-12.09,40.07-1.32,129.59,25.96,158.5,11.8l3-85.77s-50.91,7.55-83.4,4.84c-32.49-2.71-102.35-5.26-141.77-.64-54.9,6.43-102.11,7.91-147.58,9.46-45.47,1.55-112.77.77-167.65-15.72-54.88-16.49-103.68-33.05-121.01-35.07,0,0-41.31,23.51-32.32,29.79Z"/>
        <path id="stickpiece1-2" data-name="stickpiece1" class="cls-3" d="M12.37,901.65c-3.5.77-8.17-2.36-10.65-7.11,88.58-36.14,127.06-47.56,197.44-64.44,85.24-20.43,155.48-10.44,237.39-5.56,121.08,7.21,242.36,10.74,363.54,16.11,2.14.09,4.37.52,6.66,1.19l-.55,15.58c-28.91,14.15-118.42-13.12-158.5-11.8-40.07,1.32-81.72,14.04-112.45,12.09-30.73-1.95-105.24-16.68-146.59-23.7-41.35-7.02-83.11-8.09-127.77-.55-44.66,7.54-110.46,20.3-139.55,27.03-29.08,6.73-102.85,39.82-108.98,41.16Z"/>
        <path id="circle2" class="cls-22" d="M116.21,753.53c8.11-16.6,43.29-27.21,33.27-11.09-10.02,16.12-44.88,34.85-33.27,11.09Z"/>
        <path id="circle" class="cls-22" d="M809.2,771.64c13.22-1.61,22.34,18.29,20.02,41.05-1.7,16.77-14.83,51.61-31.92,45.59-21.78-7.67-10.83-83.88,11.9-86.65Z"/>
      </g>
      <g id="rWing">
        <path id="rwingbg_secondaryDark" class="cls-11" d="M428,497.72c12.35-33.5,6.53-85.7.72-101.75-5.25-19.68-13.5-39.24-28.91-56.1-8.04-8.75-14.96-15.73-26.87-22.08-25.39-13.65-57.9-5.74-76.38,9.35-10.37,7.86-17.75,19.03-25.31,31.23-5.71,9.19-11.1,18.93-15.43,28.9-3.29,8.32-6.57,15.05-5.93,23.37.5,3.25,4.15,4.35,5.1,7.35.29.82.36,1.63.33,2.53-8.12,41.09-12.31,78.99-9.37,127.62,1.06,15.03,7.89,47.21,14.47,64.94,1.96,5.6,4.07,11.39,6.62,17.26,1.54,3.44,3.5,6.95,6.77,9.13,14.21,8.79,18.62-11.24,25.06,4.04,8.02,17.71,14.6,34.54,18.93,46.42,5.19,14.42,9.06,23.59,20.36,37.86,5.05,5.82,12.91,15.43,21.06,11.65,5.57-3.11,7.64-10.74,9.03-16.54,6.46-30.09,9.94-99.87,11.21-123.3.11-1.92.26-3.01,1.18-2.37,2.22,1.81,4.2,4.35,7.46,6.24,5.31,2.95,12.05,2.6,16.25-1.38,11.62-15.15,10.55-70.61,10.68-89,0-1.4-.02-2.95,1.41-3.43,6.83-1.53,8.91-5.21,11.5-11.71l.08-.2Z"/>
        <path id="rwingmid_secondary" class="cls-8" d="M282.45,620.3c-20.17-27.26-22.61-64.41-16.27-95.41,1.75-6.01,20.76-14.87,29.09-13.34,17.7,1.79,25.14,30.28,42.02,35.65,21.62,6.08,40.55-15.62,55.18-33.4,7.01,7.68,11.52,18.39,22.32,19.61-.24,24.14-1.66,59.77-10.61,71.45-4.2,3.98-10.94,4.33-16.25,1.38-3.26-1.89-5.24-4.44-7.46-6.24-.92-.63-1.06.45-1.18,2.37-1.25,23.1-4.65,91.22-10.93,121.98-34.51-33.05-58.06-78.11-66.88-124.61-5,8.66-12.35,29.24-19.04,20.54Z"/>
        <path class="cls-23" d="M408.57,406.42c7.4,17.2,8.35,52.11-3.52,67.03-2.78,3.29-7.45,5.81-11.31,3.12-4.16-2.74-3.93-10-7.67-2.92-5.66,10.64-11.48,23.22-20.7,31.62-11.25,10.12-25.38,7.52-27.94-8.56-.98-6.24-3.51-5.77-8.02-3.01-7.27,4.09-12.3,6.54-19.73,8.18-5.3,1.33-10.03-.25-12.99-5.6-.97-1.4-4.77-10.47-.81-8.55,3.04,1.7,6.91,3.77,10.61,4.17,11.83,1.8,24.5-7.52,30.92-15.92,1.99-2.56,3.33-1.64,5.05.54,28.96,41.31,58.26-51.09,64.5-68.85.27-.79.74-2.45,1.54-1.34l.07.1Z"/>
      </g>
      <path id="body_primaryDark" class="cls-16" d="M621.21,366.07c20.62,57.18,28.16,106.31,31.13,140.58,0,0,11.28,130.26-40.24,230.48-7.33,14.27-17.56,24.93-17.56,24.93-3.68,3.84-7.93,7.67-12.85,11.32-33.16,24.64-74.16,22.77-87.04,22.18-22.21-1.01-39.16-6.37-46.78-9.06-63-22.23-95.21-79.13-108.97-103.43-31.09-54.91-35.22-105-37.53-137.41-2.26-31.67-6.03-95.67,28-164.36,9.55-19.27,19.71-34.14,27.14-44.05,88.24,9.61,176.47,19.22,264.71,28.84Z"/>
      <g id="rFoot" class="cls-6">
        <path d="M567.12,746.44c1.38-.94,9.08-5.99,19.31-3.93,9.71,1.96,14.79,8.93,15.82,10.41-3.95,5.43-10.28,12.19-19.59,14.76-7.26,2.01-12.66.45-16.62,0-28.74-3.27-52.36,44.03-64.21,38.34-5.9-2.83-4.68-16.78-3.18-23.19,2.29-9.77,9.34-19.46,19.75-23.24,3.76-1.36,7.17-1.66,9.56-1.68,3.36-9.8,12.97-16.58,23.08-16.91,8.55-.27,14.51,4.17,16.08,5.43Z"/>
      </g>
      <g id="lFoot" class="cls-6">
        <path d="M413.17,743.38c2.73-.34,24.33-2.66,36.96,12.21,8.61,10.13,11.95,26.94,6.06,31.62-1.74,1.38-5.26,2.48-23.56-5.97-23.29-10.75-49.81-27.42-47.18-34.55.73-1.99,4.07-4.15,4.78-4.61,3.13-2.02,6.09-2.51,7.33-2.69,7.6-1.16,13.92,2.85,15.6,3.99Z"/>
      </g>
      <g id="rFoot-2" data-name="rFoot">
        <path class="cls-10" d="M564.82,753.03c2.43-1.39,10.35-5.54,19.31-3.93,6.39,1.15,9.92,4.62,15.82,10.41,5.3,5.2,11.64,11.4,9.41,14.66-2.9,4.24-15.88-2.89-26.09,1.95-16.82,7.96-8.54,40.01-19.57,42.72-2.15.53-5.63.09-11.25-4.82.08,1.56.05,5.94-3.5,10.11-3.41,4.01-9.96,7.69-17.44,6.79-8.64-1.04-12.42-7.46-12.78-8.1-1.74.42-7.97,1.76-13.04-1-2.12-1.15-4.37-3.21-6.16-9.2-3.26-10.95-.64-20.59.3-23.69,2.43-7.98,5.67-18.59,16.27-22.74,3.67-1.44,7.17-1.69,9.56-1.68,3.36-9.8,12.97-16.58,23.08-16.91,8.55-.27,14.51,4.17,16.08,5.43Z"/>
        <path class="cls-18" d="M557.12,777.74c.63-.31,1.44-.62,1.95-.36,1.96.98-2.7,8.77-5.01,16.91-1.24,4.38-2.33,10.74-1.29,18.89-.05.5-.19,1.04-.55,1.14-1.08.29-4.16-3.41-4.92-6.85-.99-4.47-.92-8.11-.71-9.42,1.42-9.17,7.52-16.88,10.54-20.31Z"/>
        <path class="cls-18" d="M521.47,782.11c.7-.44,1.71-.97,2.35-.69,2.2.97-4.14,10.01-5.62,21.75-1.43,11.38,2.47,19.32.69,19.79-1.31.35-4.06-3.75-5.4-6.98-1.42-3.4-1.61-6.65-1.31-9.91.96-10.2,6.81-20.07,9.29-23.97Z"/>
      </g>
      <g id="lFoot-2" data-name="lFoot">
        <path class="cls-10" d="M410.87,749.97c3.48-.35,24.59-2.18,36.96,12.21,6.27,7.3,10.98,19.56,6.74,24.36-4.46,5.05-13.75-3.86-24.24,1.29-9.58,4.71-17.05,19.63-19.84,30.74-.94,3.73-1.55,7.82-4.28,8.76-3.57,1.22-8.56-3.73-12.37-8.37-.37,1.17-1.7,4.89-5.42,7.01-3.91,2.22-7.99,1.28-9.15.99-7.68-1.9-8.91-9.3-14.64-9.24-3.13.03-3.57,2.26-6.46,2.57-6.52.71-14.06-9.51-17.08-18-4.89-13.72-1.84-33.8,12.84-44.01,9.04-6.29,18.84-6.29,22.81-6.06,1.5-1.43,7.85-7.14,17.71-7.4,8.55-.23,14.55,3.78,16.42,5.14Z"/>
        <path class="cls-18" d="M386.16,811.01c-.12-11.8,4.49-24.63,12.29-33.72,3.11-3.57,6.71-6.07,7.8-5.15-2.58,3.96-5.22,8.65-7.57,14.09-5.45,12.6-7.2,24.2-7.69,32.66-.59.79-1.14,1.17-1.65,1.12-1.33-.12-2.39-3.12-3.19-8.99Z"/>
        <path class="cls-18" d="M371.57,774.66c4.42-2.96-.81,6.78-2.67,11.55-2.37,5.5-4.5,11.3-5.88,17.14-1.72,7.34-2.15,13.37-3.19,14.45-1.77,1.19-2.61-6.83-2.73-8.35-1.5-11.96,5.42-28.35,14.34-34.71l.12-.08Z"/>
      </g>
      <g class="cls-6">
        <path d="M442.05,563.55c-2.02-.99-3.3-1.61-4.85-2.9-6.77-5.58-7.87-14.59-8.61-21.45-1.2-11.11.84-17.83-1.02-18.39-1.43-.43-4.22,3.07-5.11,5.95-.88,2.84-1.19,6.32-1.1,9.47.46,15.41,3.06,23.94,10.42,29.92,13.28,10.81,33.85,2.31,33.82,1.73-.02-.43-11.48,1.58-23.56-4.33Z"/>
        <path d="M377.07,530.06c-1.78-8.47,1.22-15.46-.68-16.1-1.49-.51-4.56,3.39-5.81,7.26-1.57,4.84-.14,9.15.96,12.48,1.76,5.31,4.66,9.28,7.22,12.02-2.25,1-13.75,5.83-25.14.46-10.57-4.98-14.4-15.62-15.97-19.96-4.23-11.74-1.64-21.28-3.56-21.6-1.68-.29-5.37,6.76-5.95,14.37-.84,10.93,4.75,22.86,14.34,29.72,11.26,8.05,26.1,7.71,31.67,5.29.67-.29,2.62-1.25,5.27-1.23,3.01.03,5.76,1.35,8.64,3.31.94.64,13.07,8.11,23.93,5.3,2.12-.55,5.52-1.83,5.44-3.09-.15-2.33-12.01-.26-23.11-6.29-.68-.37-14.33-8.04-17.26-21.92Z"/>
        <path d="M387.55,626.01c-18.75-7.14-19.04-43.41-24.21-43.02-2.55.19-4.52,9.19-3.92,16.72,1.17,14.82,12.64,28.62,25.85,30.91,8.65,1.5,17.11-2.09,17-3.13-.1-.98-7.71,1.18-14.72-1.49Z"/>
        <path d="M440.71,633.73c-2.37-3.54-6.06-11.19-7.88-20.32-1.94-9.71-.73-15.93-1.58-16.03-1.41-.17-9.63,16.43-3.99,32.23,6.5,18.19,27.1,23.34,36.88,25.78,14.01,3.5,24.95.98,29.91-.22,3.43-.83,7.28-1.77,7.26-2.92-.09-3.97-46.41,2.73-60.59-18.51Z"/>
        <path d="M500.86,706.66c-15.07-7.24-19.27-25.65-20.79-25.02-1.07.44-.47,10.15,5.56,18.74,11.43,16.29,35.78,19.17,51.52,13.53,4.06-1.45,8.46-3.8,8.19-4.77-.4-1.44-10.8,1.72-25.45.94-8.09-.43-13.41-.72-19.02-3.41Z"/>
      </g>
    </g>
    <g id="Head">
      <path id="head_primary" class="cls-17" d="M335.68,302.34c.9-11.05,1.64-21.97,1.49-36.92-.24-24.67-3.2-38.15-1.49-69.77,1.92-35.39,5.04-93.06,45.1-138.59,23.38-26.58,50.9-39.42,66-45.1,13.92-5.23,49.94-18.83,90.19-7.7,53.88,14.9,80.11,64.33,87.99,79.2,32.92,62.05,22.61,137.48,17.05,180.94-1.37,10.66-5.3,38.03-2.73,71.58,1.84,23.92,6.79,48.86,6.79,48.86,2.02,10.17,4.12,18.75,5.82,25.24-7.97,2.39-18.57,3.44-31.47-.87-.22-.07-.35-.12-.42-.14-19.28-6.64-19.05-29.39-31.35-31.91-14.7-3.02-23.83,27.69-41.25,26.4-17.71-1.31-23.83-34.2-38.5-32.45-5.27.63-5.47,4.99-22.12,17.6-8.8,6.67-13.28,10-17.01,10.04-14.78.13-25.69-33.7-27.41-39.19-9.06,17.26-21.81,36.95-33.55,35.2-15.33-2.28-18.07-38.6-31.35-39.05-14.63-.5-21.04,43.74-42.99,45.96-7.42.75-13.89-3.57-17.79-6.79,13.24-41.75,17.45-73.64,18.98-92.52Z"/>
      <path class="cls-2" d="M423.42,76.93c8.37,4.21,16.87,3.01,20.71,2.46,18.05-2.57,20.63-15.7,36.3-21.6,20.31-7.65,42.12,4.56,48.4,8.07,22.8,12.76,31.45,34.05,35.56,44.18,15.43,37.97,3.67,73.81-.73,85.25-11.17,29.03-29.75,43.49-60.35,67.29,0,0-21.33,16.67-41.06,18.7-6.71.69-13.2,0-13.2,0-9.93-1.06-17-4.24-19.07-5.13-24.5-10.59-61.93-8.68-82.5-26.03-20.58-17.37-13.72-62.3,0-152.16,1.48-5.7,7.4-26.36,23.32-36.86,2.71-1.79,7.32-4.75,13.93-5.5,8.79-1,15.72,2.52,18.61,4.03,11.14,5.84,10.64,12.56,20.07,17.31Z"/>
      <path class="cls-9" d="M470.13,85.3c-8.18,10.15-23.7,32.59-25.53,64.07-.75,12.96-2.67,45.97,17.55,59.51,16.32,10.93,36.68,2.23,39.7.88,29.67-13.24,34.14-52.64,34.73-57.82.59-5.17,2.75-28.59-10.57-51.03-5.23-8.82-15.86-26.73-32.81-26.86-11.34-.09-19.81,7.83-23.07,11.25Z"/>
      <path class="cls-13" d="M474.23,91.81c-17.33,14.11-25.02,39.47-25.09,61.5,5.79,81.9,91.91,43.73,67.2-33.6-6.08-19.32-21.08-42.87-41.89-28.06l-.21.16Z"/>
      <g id="lWing">
        <path class="cls-6" d="M506.38,416.51c8.76-45.86,32.25-80.07,34.21-79.28,1.47.59-5.98,22.15-3.27,23.25,1.62.65,4.2-7.06,8.21-7.79,12.14-2.2,32.4,56.52,37.21,70.41,51.84,149.52,66.71,156.94,63.62,204.17-1.31,20.01-6.12,51.51-24.7,89.26-14.97-49.93-25.16-84.21-25.62-86.53-.06-.29-.4-2.27-1.11-2.36-.15-.02-.33.07-.52.27-1.81,2.22-3.23,5.11-6.04,7.62-4.6,3.96-11.28,4.98-16.19,1.93-14.44-12.49-24.59-67.03-28.43-85.01-.28-1.37-.58-2.89-2.07-3.08-3.12-.39-5.83-1.43-6.36-1.4-6.69.38-43.59-54.76-28.94-131.46Z"/>
        <path id="lwingbg_secondaryDark" class="cls-11" d="M534.65,512.73c-18.85-30.32-23.69-82.62-21.24-99.51,1.17-20.33,5.31-41.15,16.99-60.78,6.11-10.19,11.48-18.43,21.86-27.05,22.12-18.49,55.55-17.31,76.69-6.26,11.74,5.6,21.23,15.06,31.1,25.48,7.44,7.85,14.69,16.3,20.95,25.19,4.9,7.48,9.48,13.42,10.53,21.69.17,3.28-3.18,5.1-3.51,8.23-.12.86-.03,1.67.19,2.55,16.24,38.61,28,74.88,34.94,123.1,2,14.93,1.8,47.83-1.06,66.52-.78,5.88-1.68,11.98-3,18.24-.82,3.68-2.02,7.51-4.79,10.31-12.14,11.48-20.51-7.25-23.73,9.02-4.28,18.96-7.33,36.78-9.17,49.29-2.17,15.17-4.11,24.93-12.3,41.19-3.77,6.72-9.53,17.71-18.27,15.66-6.09-1.92-9.65-8.98-12.18-14.37-12.4-28.17-29.89-95.8-35.87-118.5-.5-1.86-.86-2.89-1.63-2.09-1.81,2.22-3.23,5.11-6.04,7.62-4.6,3.96-11.28,4.98-16.19,1.93-14.44-12.49-24.59-67.03-28.43-85.01-.28-1.37-.58-2.89-2.08-3.08-6.99-.12-9.77-3.3-13.63-9.15l-.12-.18Z"/>
        <path id="lwingmid_secondary" class="cls-8" d="M701.95,603.41c14.26-30.77,9.14-67.65-3.33-96.73-2.93-5.53-23.33-10.37-31.18-7.19-16.98,5.32-18.51,34.73-33.96,43.4-19.95,10.32-42.87-7.11-60.79-21.57-5.32,8.93-7.57,20.33-17.9,23.71,5.11,23.6,13.69,58.21,24.82,67.84,4.91,3.05,11.59,2.03,16.19-1.93,2.81-2.51,4.23-5.4,6.04-7.62.77-.8,1.13.23,1.63,2.09,5.89,22.37,22.97,88.4,35.33,117.26,27.13-39.34,41.1-88.22,40.35-135.54,6.65,7.48,18,26.15,22.79,16.28Z"/>
        <path class="cls-5" d="M535.25,419.4c-3.77,18.34,2.34,52.72,16.98,64.94,3.39,2.66,8.47,4.18,11.71.77,3.52-3.52,1.83-10.59,6.93-4.41,7.69,9.28,15.93,20.43,26.66,26.79,13.06,7.64,26.37,2.24,25.63-14.02-.3-6.31,2.27-6.36,7.24-4.57,7.95,2.54,13.37,3.92,20.98,4.03,5.46.23,9.77-2.27,11.59-8.1.67-1.56,2.56-11.22-.94-8.54-2.63,2.28-6.01,5.09-9.55,6.23-11.23,4.15-25.52-2.42-33.5-9.35-2.46-2.11-3.6-.94-4.84,1.55-20.02,46.31-67.37-38.27-77.07-54.41-.42-.72-1.22-2.25-1.78-1l-.05.11Z"/>
      </g>
      <path class="cls-24" d="M549.97,78.82c.08-21.19-25.04-41.32-44.68-46.19-5.56-1.42-18.89-2.64-20.53,3.81-.6,2.1-1.15,5.33.57,7.63,3.28,4.38,11.35.77,22.41,2.42,14.12,2.11,23.41,11.35,25.44,13.46,7.81,8.14,10.42,17.43,11.4,22.61.25.12,1.63.77,3.09.2,1.47-.58,2.42-2.16,2.3-3.93Z"/>
      <path class="cls-24" d="M352.01,70.46c-2.52-2.86,10.64-26.47,30.22-29.97.77-.14,15.25-2.89,17.03,3.38.51,1.8,1,4.55-.41,6.5-2.78,3.86-8.84-.11-18.54,1.92-2.52.53-15.62,3.26-19.76,11.83-.82,1.7-2.11,5.33-5.31,6.38-.25.08-2.5.8-3.24-.04Z"/>
      <path class="cls-21" d="M484.81,111.28c-12.83,9.82-16.28,37.72-9.62,52.18,5.01,11.53,14.97,8.72,20.17.45,5.21-7.62,7.02-19.99,6.43-29.58-.37-8.64-4.69-29.35-16.79-23.17l-.19.12Z"/>
      <path class="cls-13" d="M488.83,127.75c-6.47,0-6.48,10.06,0,10.06s6.48-10.06,0-10.06Z"/>
      <g id="rEye">
        <path class="cls-9" d="M369.74,79.49c-7.26,8.9-21.35,28.78-25.84,58.27-1.85,12.14-6.56,43.06,7.59,57.42,11.42,11.59,27.87,5.03,30.31,4,24.02-10.1,31.31-46.83,32.27-51.66.96-4.82,4.91-26.69-3.08-48.88-3.14-8.72-9.52-26.43-22.49-27.9-8.68-.99-15.94,5.79-18.77,8.75Z"/>
        <path class="cls-13" d="M373.54,93.76c-12.82,10.72-20.19,31.62-22.18,50.23-3.35,69.62,57.52,43.36,47.83-23.71-2.35-16.76-10.29-37.7-25.5-26.63l-.16.12Z"/>
        <path class="cls-21" d="M383.75,108.32c-10.05,7.34-14.98,30.67-11.49,43.38,2.57,10.12,9.94,8.49,14.39,1.89,4.4-6.05,6.79-16.37,7.21-24.52.5-7.33-.77-25.15-9.97-20.84l-.15.09Z"/>
        <path class="cls-13" d="M385.45,115.28c-5.5,0-5.51,8.54,0,8.54s5.51-8.54,0-8.54Z"/>
      </g>
      <g id="beak">
        <path class="cls-1" d="M345.23,271.89c-3.18,4.64-16.22,23.74-9.78,38.76,8.4,19.58,44.52,19.63,66.56,13.34,11.19-3.19,28.64-8.17,36.75-25.24,8.7-18.3,3.13-42.96-10.51-54.25-22.61-18.72-64.68.68-83.02,27.39Z"/>
        <path class="cls-4" d="M367.83,251.4c-8.4,12.41-24.18,25.89-26.92,40.67-.44,2.39-.59,6.87,1.61,11.43,3.66,7.59,11.85,10.09,15.64,11.25,13.66,4.18,30.7.39,43.68-9.49,13.75-10.47,32.33-34.95,22.8-54.57-6.49-13.35-25.12-22.66-40.42-16.22-10.05,4.23-14.85,13.59-16.38,16.93Z"/>
        <path class="cls-25" d="M423.76,284.46c5.02-14.84,4.59-27.7-.88-31.08-5.62-3.47-15.22,3.88-23.42,10.16-7.6,5.82-20.42,15.64-22.82,31.72-.37,2.51-2.09,14.02,3.53,17.98,4.98,3.51,12.97-.87,18.55-3.93,5.94-3.26,16.12-10.2,25.04-24.85Z"/>
        <path class="cls-1" d="M425.97,141.72c-25.76-19.36-78.52-9.76-105.39,4.98-31.99,16.72-59.58,47.02-74.86,79.95-4.49,9.11-8.8,19.06-10.27,29.09-4.37,32.98,28.72,16.69,45.11,9.37,8.93-3.82,18.06-7.07,27.56-8.77,19.2-3.7,40.02-.12,59.11,5.13,13.14,3.49,25.47,8.17,38.26,9.81,22.94,3.59,42.46-6.03,48.37-30.68,7.71-29.9-3.43-79.75-27.66-98.71l-.23-.17Z"/>
        <path class="cls-14" d="M453.32,192.68c-4.46-20.63-13.81-40.37-27.12-50.79l-.23-.17c-25.76-19.36-78.52-9.76-105.39,4.98-31.99,16.72-59.58,47.02-74.86,79.95-4.49,9.11-8.8,19.06-10.27,29.09-2.29,17.31,5.74,21.04,16.25,19.62,12.34-17.38,22.31-37.19,37.99-52.68,43.03-43.03,108.11-48.17,163.63-30Z"/>
        <path class="cls-19" d="M407.64,191.48c1.26-4.63-1.52-9.04-2.54-10.65-.16-.26-3.87-5.97-8.78-5.9-.51,0-.9.08-1.04.37-.58,1.24,4.77,3.68,7.73,10.01,2.06,4.41,2.07,8.77,3.21,8.64.76-.09,1.31-2.09,1.41-2.46Z"/>
      </g>
    </g>
  </g>
</svg>