<svg width="100" height="100" viewBox="0 0 100 100" xmlns="http://www.w3.org/2000/svg">
  <!-- Cat body -->
  <ellipse cx="50" cy="70" rx="20" ry="18" fill="#FF6B6B"/>
  
  <!-- Cat head -->
  <circle cx="50" cy="40" r="18" fill="#FF8787"/>
  
  <!-- Ears -->
  <path d="M 32 30 L 28 15 L 38 25 Z" fill="#FF6B6B"/>
  <path d="M 68 30 L 72 15 L 62 25 Z" fill="#FF6B6B"/>
  <path d="M 32 24 L 30 18 L 36 22 Z" fill="#FFB6B6"/>
  <path d="M 68 24 L 70 18 L 64 22 Z" fill="#FFB6B6"/>
  
  <!-- Eyes -->
  <ellipse cx="43" cy="40" rx="3" ry="5" fill="#2ECC71"/>
  <ellipse cx="57" cy="40" rx="3" ry="5" fill="#2ECC71"/>
  <ellipse cx="43" cy="41" rx="1" ry="3" fill="#000000"/>
  <ellipse cx="57" cy="41" rx="1" ry="3" fill="#000000"/>
  
  <!-- Nose -->
  <path d="M 50 46 L 47 49 L 53 49 Z" fill="#000000"/>
  
  <!-- Mouth -->
  <path d="M 50 49 Q 45 51 42 49" stroke="#000000" stroke-width="1.5" fill="none"/>
  <path d="M 50 49 Q 55 51 58 49" stroke="#000000" stroke-width="1.5" fill="none"/>
  
  <!-- Whiskers -->
  <line x1="25" y1="42" x2="15" y2="40" stroke="#000000" stroke-width="1"/>
  <line x1="25" y1="46" x2="15" y2="46" stroke="#000000" stroke-width="1"/>
  <line x1="75" y1="42" x2="85" y2="40" stroke="#000000" stroke-width="1"/>
  <line x1="75" y1="46" x2="85" y2="46" stroke="#000000" stroke-width="1"/>
  
  <!-- Pixel pattern on body -->
  <rect x="45" y="68" width="3" height="3" fill="#FFFFFF"/>
  <rect x="48" y="68" width="3" height="3" fill="#000000"/>
  <rect x="51" y="68" width="3" height="3" fill="#FFFFFF"/>
  <rect x="45" y="71" width="3" height="3" fill="#000000"/>
  <rect x="48" y="71" width="3" height="3" fill="#FFFFFF"/>
  <rect x="51" y="71" width="3" height="3" fill="#000000"/>
</svg>